<svg xmlns="http://www.w3.org/2000/svg" xmlns:xlink="http://www.w3.org/1999/xlink" width="128" zoomAndPan="magnify" viewBox="0 0 96 89.999999" height="120" preserveAspectRatio="xMidYMid meet" version="1.0"><defs><clipPath id="f1e10fa2d0"><path d="M 59.4375 40.257812 L 59.796875 40.257812 L 59.796875 40.539062 L 59.4375 40.539062 Z M 59.4375 40.257812 " clip-rule="nonzero"/></clipPath><clipPath id="2c22e56385"><path d="M 59.773438 40.425781 C 59.101562 40.726562 59.699219 40.273438 59.699219 40.273438 " clip-rule="nonzero"/></clipPath><clipPath id="ca8dcb4295"><path d="M 31.109375 65 L 64.53125 65 L 64.53125 88.609375 L 31.109375 88.609375 Z M 31.109375 65 " clip-rule="nonzero"/></clipPath><clipPath id="91ce99b2b4"><path d="M 0 58.539062 L 96 58.539062 L 96 88.609375 L 0 88.609375 Z M 0 58.539062 " clip-rule="nonzero"/></clipPath><clipPath id="b3e5e1066d"><path d="M 50.390625 58.539062 L 77.898438 58.539062 L 77.898438 88.609375 L 50.390625 88.609375 Z M 50.390625 58.539062 " clip-rule="nonzero"/></clipPath><clipPath id="74b5a1883d"><path d="M 18.253906 58.539062 L 45.761719 58.539062 L 45.761719 88.609375 L 18.253906 88.609375 Z M 18.253906 58.539062 " clip-rule="nonzero"/></clipPath><clipPath id="a3af929477"><path d="M 41.136719 65.253906 L 54.761719 65.253906 L 54.761719 88.609375 L 41.136719 88.609375 Z M 41.136719 65.253906 " clip-rule="nonzero"/></clipPath><clipPath id="aaaacc9dd5"><path d="M 21 1.679688 L 75 1.679688 L 75 56 L 21 56 Z M 21 1.679688 " clip-rule="nonzero"/></clipPath><clipPath id="4ab0f878ff"><path d="M 48.789062 27.582031 L 49.144531 27.582031 L 49.144531 27.914062 L 48.789062 27.914062 Z M 48.789062 27.582031 " clip-rule="nonzero"/></clipPath><clipPath id="3df0120587"><path d="M 49.125 27.824219 C 48.449219 28.050781 49.050781 27.601562 49.050781 27.601562 " clip-rule="nonzero"/></clipPath></defs><g clip-path="url(#f1e10fa2d0)"><g clip-path="url(#2c22e56385)"><path fill="#01184e" d="M 56.101562 37.273438 L 62.855469 37.273438 L 62.855469 43.800781 L 56.101562 43.800781 Z M 56.101562 37.273438 " fill-opacity="1" fill-rule="nonzero"/></g></g><path fill="#d4bee4" d="M 47.792969 65.851562 C 56.613281 65.851562 63.761719 70.84375 63.761719 77 C 63.761719 82.136719 58.78125 86.464844 52 87.753906 L 52 87.988281 L 44.210938 87.988281 L 44.210938 87.867188 C 37.113281 86.730469 31.820312 82.296875 31.820312 77 C 31.820312 70.84375 38.972656 65.851562 47.792969 65.851562 " fill-opacity="1" fill-rule="evenodd"/><g clip-path="url(#ca8dcb4295)"><path fill="#3f444f" d="M 58.734375 69.625 C 55.941406 67.675781 52.074219 66.46875 47.792969 66.46875 C 43.507812 66.46875 39.640625 67.675781 36.851562 69.625 C 34.125 71.527344 32.4375 74.136719 32.4375 77 C 32.4375 79.433594 33.65625 81.683594 35.691406 83.46875 C 37.8125 85.332031 40.8125 86.6875 44.261719 87.246094 C 44.378906 87.257812 44.488281 87.300781 44.582031 87.367188 L 51.519531 87.367188 C 51.609375 87.257812 51.738281 87.175781 51.886719 87.148438 C 55.203125 86.515625 58.066406 85.140625 60.082031 83.296875 C 62.003906 81.539062 63.144531 79.355469 63.144531 77 C 63.144531 74.136719 61.460938 71.527344 58.734375 69.625 Z M 47.792969 65.230469 C 52.332031 65.230469 56.449219 66.523438 59.4375 68.605469 C 62.492188 70.738281 64.378906 73.707031 64.378906 77 C 64.378906 79.722656 63.085938 82.222656 60.910156 84.210938 C 58.820312 86.125 55.90625 87.566406 52.550781 88.273438 C 52.445312 88.472656 52.238281 88.609375 52 88.609375 L 44.210938 88.609375 C 44.035156 88.609375 43.878906 88.535156 43.765625 88.417969 C 40.210938 87.789062 37.109375 86.351562 34.882812 84.402344 C 32.578125 82.378906 31.203125 79.808594 31.203125 77 C 31.203125 73.707031 33.09375 70.738281 36.144531 68.605469 C 39.136719 66.523438 43.253906 65.230469 47.792969 65.230469 " fill-opacity="1" fill-rule="nonzero"/></g><path fill="#afbec4" d="M 44.695312 87.988281 L 38.632812 77.21875 L 27.90625 59.265625 L 3.621094 67.527344 C 1.367188 70.351562 0.683594 86.242188 0.617188 87.988281 Z M 95.390625 87.988281 C 95.324219 86.242188 94.636719 70.351562 92.386719 67.527344 L 68.101562 59.265625 L 57.503906 77.316406 L 51.3125 87.988281 L 95.390625 87.988281 " fill-opacity="1" fill-rule="evenodd"/><g clip-path="url(#91ce99b2b4)"><path fill="#3f444f" d="M 39.167969 76.914062 L 45.199219 87.632812 C 45.269531 87.734375 45.3125 87.855469 45.3125 87.988281 C 45.3125 88.332031 45.035156 88.609375 44.695312 88.609375 L 0.617188 88.609375 L 0.617188 88.605469 L 0.589844 88.605469 C 0.253906 88.589844 -0.0117188 88.304688 0 87.964844 C 0.0351562 87.085938 0.226562 82.660156 0.6875 78.101562 C 1.152344 73.511719 1.910156 68.765625 3.101562 67.1875 C 3.175781 67.078125 3.285156 66.988281 3.421875 66.941406 L 27.707031 58.679688 C 27.976562 58.589844 28.28125 58.691406 28.433594 58.945312 L 39.160156 76.902344 Z M 43.640625 87.367188 L 38.105469 77.535156 L 27.632812 60.011719 L 4 68.050781 C 3.019531 69.511719 2.347656 73.917969 1.910156 78.222656 C 1.523438 82.050781 1.328125 85.78125 1.257812 87.367188 Z M 95.320312 78.101562 C 95.773438 82.578125 95.964844 86.925781 96.003906 87.914062 C 96.007812 87.9375 96.007812 87.960938 96.007812 87.988281 C 96.007812 88.332031 95.734375 88.609375 95.390625 88.609375 L 51.3125 88.609375 L 51.3125 88.605469 C 51.207031 88.605469 51.101562 88.578125 51.003906 88.523438 C 50.707031 88.351562 50.609375 87.972656 50.777344 87.679688 L 56.972656 77.003906 L 56.976562 77.003906 L 67.550781 58.984375 C 67.6875 58.714844 68.003906 58.578125 68.296875 58.679688 L 92.585938 66.941406 L 92.582031 66.941406 C 92.691406 66.980469 92.789062 67.046875 92.867188 67.140625 C 94.082031 68.667969 94.847656 73.464844 95.320312 78.101562 Z M 94.75 87.367188 C 94.679688 85.78125 94.484375 82.050781 94.09375 78.222656 C 93.65625 73.917969 92.988281 69.511719 92.007812 68.050781 L 68.375 60.011719 L 58.039062 77.625 L 52.382812 87.367188 L 94.75 87.367188 " fill-opacity="1" fill-rule="nonzero"/></g><path fill="#d1dadc" d="M 67.5625 87.988281 L 73.941406 78.023438 L 70.085938 72.382812 L 77.03125 70.542969 L 75.722656 61.859375 L 68.101562 59.265625 L 67.75 59.847656 L 52.121094 86.164062 L 51.222656 87.691406 L 51.210938 87.691406 L 51.035156 87.988281 L 67.5625 87.988281 " fill-opacity="1" fill-rule="evenodd"/><g clip-path="url(#b3e5e1066d)"><path fill="#3f444f" d="M 50.746094 87.289062 L 51.210938 87.074219 C 51.023438 87.074219 50.859375 87.15625 50.746094 87.289062 Z M 74.460938 78.359375 L 68.105469 88.289062 C 67.996094 88.480469 67.796875 88.609375 67.5625 88.609375 L 51.035156 88.609375 L 51.035156 88.605469 C 50.929688 88.605469 50.820312 88.578125 50.71875 88.519531 C 50.429688 88.34375 50.332031 87.964844 50.507812 87.671875 L 50.65625 87.417969 C 50.679688 87.371094 50.710938 87.328125 50.746094 87.289062 L 51.589844 85.851562 L 51.589844 85.847656 L 67.222656 59.53125 L 67.546875 58.988281 C 67.578125 58.929688 67.617188 58.875 67.664062 58.824219 C 67.84375 58.644531 68.113281 58.597656 68.335938 58.691406 L 75.890625 61.261719 C 76.117188 61.324219 76.296875 61.515625 76.332031 61.765625 L 77.640625 70.453125 C 77.6875 70.757812 77.496094 71.058594 77.1875 71.140625 L 71.085938 72.757812 L 74.441406 77.660156 C 74.585938 77.859375 74.601562 78.136719 74.460938 78.359375 Z M 67.226562 87.367188 L 73.203125 78.035156 L 69.574219 72.734375 C 69.382812 72.449219 69.457031 72.066406 69.738281 71.875 C 69.800781 71.832031 69.867188 71.800781 69.9375 71.78125 L 76.339844 70.085938 L 75.167969 62.324219 L 68.371094 60.011719 L 68.277344 60.167969 L 52.648438 86.480469 L 52.128906 87.367188 L 67.226562 87.367188 " fill-opacity="1" fill-rule="nonzero"/></g><path fill="#d1dadc" d="M 28.441406 87.988281 L 22.066406 78.023438 L 25.921875 72.382812 L 18.972656 70.542969 L 20.285156 61.859375 L 27.90625 59.265625 L 28.253906 59.847656 L 43.886719 86.164062 L 44.785156 87.691406 L 44.796875 87.691406 L 44.96875 87.988281 L 28.441406 87.988281 " fill-opacity="1" fill-rule="evenodd"/><g clip-path="url(#74b5a1883d)"><path fill="#3f444f" d="M 22.804688 78.035156 L 28.777344 87.367188 L 43.878906 87.367188 L 43.359375 86.480469 L 27.726562 60.167969 L 27.632812 60.011719 L 20.835938 62.324219 L 19.667969 70.085938 L 26.066406 71.78125 C 26.136719 71.800781 26.207031 71.832031 26.269531 71.875 C 26.550781 72.066406 26.621094 72.449219 26.429688 72.734375 Z M 27.902344 88.289062 L 21.546875 78.359375 C 21.40625 78.136719 21.421875 77.859375 21.566406 77.660156 L 24.921875 72.757812 L 18.816406 71.140625 C 18.511719 71.058594 18.320312 70.757812 18.367188 70.453125 L 18.363281 70.453125 L 19.675781 61.765625 C 19.710938 61.515625 19.890625 61.324219 20.117188 61.261719 L 27.671875 58.691406 C 27.894531 58.597656 28.160156 58.644531 28.34375 58.824219 C 28.390625 58.875 28.429688 58.929688 28.460938 58.988281 L 28.78125 59.53125 L 44.414062 85.847656 L 44.417969 85.851562 L 45.261719 87.289062 C 45.296875 87.328125 45.328125 87.371094 45.347656 87.417969 L 45.5 87.671875 C 45.671875 87.964844 45.578125 88.34375 45.285156 88.519531 C 45.1875 88.578125 45.078125 88.605469 44.96875 88.605469 L 44.96875 88.609375 L 28.441406 88.609375 C 28.210938 88.609375 28.007812 88.480469 27.902344 88.289062 " fill-opacity="1" fill-rule="nonzero"/></g><path fill="#f8f8f8" d="M 48.003906 65.972656 L 41.980469 72.347656 L 43.773438 74.648438 L 41.980469 83.183594 L 44.960938 87.988281 L 51.046875 87.988281 L 53.941406 83.355469 L 52.792969 74.65625 L 54.027344 72.347656 L 48.003906 65.972656 " fill-opacity="1" fill-rule="evenodd"/><g clip-path="url(#a3af929477)"><path fill="#3f444f" d="M 41.535156 71.921875 L 47.554688 65.546875 C 47.5625 65.539062 47.570312 65.53125 47.578125 65.523438 C 47.824219 65.289062 48.214844 65.296875 48.449219 65.546875 L 54.472656 71.921875 C 54.648438 72.109375 54.695312 72.394531 54.570312 72.636719 L 53.429688 74.769531 L 54.546875 83.257812 C 54.570312 83.398438 54.542969 83.550781 54.460938 83.683594 L 51.59375 88.273438 C 51.488281 88.472656 51.285156 88.609375 51.046875 88.609375 L 44.960938 88.609375 L 44.960938 88.605469 C 44.757812 88.605469 44.554688 88.503906 44.4375 88.3125 L 41.457031 83.511719 C 41.375 83.378906 41.34375 83.21875 41.375 83.058594 L 43.113281 74.800781 L 41.515625 72.75 C 41.308594 72.511719 41.3125 72.152344 41.535156 71.921875 Z M 48.003906 66.867188 L 42.792969 72.386719 L 44.257812 74.269531 C 44.375 74.417969 44.410156 74.601562 44.375 74.773438 L 42.632812 83.066406 L 45.300781 87.367188 L 50.707031 87.367188 L 53.300781 83.214844 L 52.183594 74.734375 C 52.167969 74.597656 52.195312 74.460938 52.261719 74.347656 L 53.273438 72.449219 L 48.003906 66.867188 " fill-opacity="1" fill-rule="nonzero"/></g><path fill="#f8f8f8" d="M 47.03125 65.96875 L 41.980469 72.347656 L 43.773438 74.648438 L 43.773438 74.65625 L 52.792969 74.65625 L 54.027344 72.347656 L 49.085938 65.96875 L 47.03125 65.96875 " fill-opacity="1" fill-rule="evenodd"/><path fill="#3f444f" d="M 41.5 71.960938 L 46.523438 65.617188 C 46.636719 65.453125 46.820312 65.351562 47.03125 65.351562 L 49.085938 65.351562 C 49.269531 65.351562 49.453125 65.433594 49.574219 65.589844 L 54.511719 71.964844 L 54.511719 71.96875 C 54.65625 72.152344 54.6875 72.414062 54.570312 72.636719 L 53.363281 74.894531 C 53.269531 75.121094 53.050781 75.277344 52.792969 75.277344 L 43.773438 75.277344 L 43.773438 75.273438 C 43.734375 75.273438 43.695312 75.273438 43.652344 75.261719 C 43.46875 75.226562 43.320312 75.113281 43.234375 74.960938 L 41.519531 72.753906 C 41.324219 72.535156 41.308594 72.199219 41.5 71.960938 Z M 47.328125 66.589844 L 42.761719 72.351562 L 44.074219 74.035156 L 52.425781 74.035156 L 53.296875 72.410156 L 48.785156 66.589844 L 47.328125 66.589844 " fill-opacity="1" fill-rule="nonzero"/><path fill="#d4bee4" d="M 27.90625 59.265625 L 34.003906 52.058594 L 48.003906 65.972656 L 37.296875 77.996094 L 27.90625 59.265625 " fill-opacity="1" fill-rule="evenodd"/><path fill="#3f444f" d="M 34.042969 52.96875 L 28.640625 59.351562 L 37.4375 76.910156 L 47.15625 66 Z M 27.4375 58.867188 L 33.53125 51.660156 C 33.753906 51.402344 34.140625 51.367188 34.398438 51.589844 C 34.417969 51.605469 34.433594 51.621094 34.449219 51.636719 L 48.4375 65.535156 C 48.675781 65.773438 48.679688 66.164062 48.441406 66.40625 L 37.753906 78.40625 C 37.527344 78.660156 37.136719 78.683594 36.886719 78.457031 C 36.824219 78.402344 36.78125 78.339844 36.746094 78.273438 L 27.355469 59.542969 C 27.242188 59.3125 27.28125 59.050781 27.4375 58.867188 " fill-opacity="1" fill-rule="nonzero"/><path fill="#d4bee4" d="M 68.101562 59.265625 L 62.003906 52.058594 L 48.003906 65.972656 L 58.710938 77.996094 L 68.101562 59.265625 " fill-opacity="1" fill-rule="evenodd"/><path fill="#9b8cb2" d="M 61.964844 52.96875 L 59.082031 55.832031 L 64.292969 61.988281 L 64.40625 62.121094 C 64.558594 62.304688 64.601562 62.570312 64.484375 62.796875 L 60.960938 69.828125 L 60.382812 70.984375 L 60.171875 71.398438 L 59.648438 72.449219 L 57.785156 76.222656 C 57.859375 76.324219 57.929688 76.425781 57.996094 76.527344 C 58.015625 76.558594 58.035156 76.589844 58.058594 76.621094 C 58.164062 76.785156 58.265625 76.949219 58.363281 77.117188 C 58.382812 77.152344 58.398438 77.183594 58.417969 77.21875 C 58.421875 77.226562 58.425781 77.234375 58.429688 77.242188 L 58.578125 76.945312 L 59.828125 74.390625 L 61.128906 71.796875 L 61.726562 70.601562 L 63.382812 67.300781 L 63.699219 66.667969 L 65.789062 62.496094 L 67.367188 59.351562 L 67.34375 59.328125 L 61.964844 52.96875 " fill-opacity="1" fill-rule="evenodd"/><path fill="#3f444f" d="M 62.472656 51.660156 L 68.570312 58.867188 C 68.726562 59.050781 68.765625 59.3125 68.648438 59.542969 L 59.261719 78.273438 C 59.226562 78.339844 59.179688 78.402344 59.121094 78.457031 C 58.867188 78.683594 58.480469 78.660156 58.253906 78.40625 L 47.566406 66.40625 C 47.328125 66.164062 47.328125 65.773438 47.570312 65.535156 L 61.554688 51.636719 C 61.570312 51.621094 61.585938 51.605469 61.605469 51.589844 C 61.867188 51.367188 62.253906 51.402344 62.472656 51.660156 Z M 67.367188 59.351562 L 61.964844 52.96875 L 48.851562 66 L 58.566406 76.910156 L 67.367188 59.351562 " fill-opacity="1" fill-rule="nonzero"/><path fill="#fbe066" d="M 48.003906 19.964844 C 50.324219 19.964844 52.425781 20.910156 53.949219 22.4375 C 55.46875 23.964844 56.410156 26.074219 56.410156 28.40625 C 56.410156 30.738281 55.46875 32.847656 53.949219 34.375 C 52.425781 35.902344 50.324219 36.847656 48.003906 36.847656 C 45.683594 36.847656 43.578125 35.902344 42.058594 34.375 C 40.539062 32.847656 39.597656 30.738281 39.597656 28.40625 C 39.597656 26.074219 40.539062 23.964844 42.058594 22.4375 C 43.578125 20.910156 45.683594 19.964844 48.003906 19.964844 Z M 65.351562 18.300781 L 68.875 14.765625 C 69.488281 14.148438 69.488281 13.148438 68.875 12.535156 L 63.808594 7.445312 C 63.195312 6.832031 62.203125 6.832031 61.589844 7.445312 L 58.066406 10.984375 C 57.296875 10.535156 56.5 10.136719 55.675781 9.792969 C 54.859375 9.457031 54.019531 9.167969 53.15625 8.9375 L 53.15625 3.941406 C 53.15625 3.066406 52.453125 2.363281 51.585938 2.363281 L 44.421875 2.363281 C 43.554688 2.363281 42.851562 3.066406 42.851562 3.941406 L 42.851562 8.9375 C 41.988281 9.167969 41.144531 9.457031 40.328125 9.792969 C 39.507812 10.136719 38.710938 10.535156 37.941406 10.984375 L 34.417969 7.445312 C 33.804688 6.832031 32.8125 6.832031 32.199219 7.445312 L 27.128906 12.535156 C 26.519531 13.148438 26.519531 14.148438 27.128906 14.765625 L 30.652344 18.300781 C 30.207031 19.074219 29.808594 19.875 29.46875 20.699219 C 29.132812 21.519531 28.84375 22.367188 28.617188 23.230469 L 23.636719 23.230469 C 22.769531 23.230469 22.066406 23.9375 22.066406 24.808594 L 22.066406 32.003906 C 22.066406 32.875 22.769531 33.582031 23.636719 33.582031 L 28.613281 33.582031 C 28.84375 34.449219 29.132812 35.292969 29.46875 36.113281 C 29.808594 36.9375 30.207031 37.742188 30.652344 38.511719 L 27.128906 42.046875 C 26.519531 42.664062 26.519531 43.664062 27.128906 44.277344 L 32.199219 49.367188 C 32.8125 49.980469 33.804688 49.980469 34.417969 49.367188 L 37.941406 45.828125 C 38.710938 46.277344 39.507812 46.675781 40.328125 47.015625 C 41.144531 47.355469 41.988281 47.644531 42.851562 47.875 L 42.851562 52.875 C 42.851562 53.746094 43.554688 54.449219 44.421875 54.449219 L 51.585938 54.449219 C 52.453125 54.449219 53.15625 53.746094 53.15625 52.875 L 53.15625 47.875 C 54.019531 47.644531 54.863281 47.359375 55.675781 47.015625 C 56.5 46.675781 57.296875 46.277344 58.066406 45.828125 L 61.589844 49.367188 C 62.203125 49.980469 63.195312 49.980469 63.808594 49.367188 L 68.875 44.277344 C 69.488281 43.664062 69.488281 42.664062 68.875 42.046875 L 65.351562 38.511719 C 65.796875 37.738281 66.195312 36.9375 66.535156 36.113281 C 66.875 35.292969 67.160156 34.449219 67.390625 33.582031 L 72.367188 33.582031 C 73.234375 33.582031 73.9375 32.875 73.9375 32.003906 L 73.9375 24.808594 C 73.9375 23.9375 73.234375 23.230469 72.367188 23.230469 L 67.390625 23.230469 C 67.160156 22.363281 66.875 21.519531 66.535156 20.699219 C 66.195312 19.875 65.800781 19.074219 65.351562 18.300781 " fill-opacity="1" fill-rule="evenodd"/><path fill="#f2a756" d="M 65.351562 18.300781 L 68.875 14.765625 C 69.488281 14.148438 69.488281 13.148438 68.875 12.535156 L 63.808594 7.445312 C 63.195312 6.832031 62.203125 6.832031 61.589844 7.445312 L 58.066406 10.984375 C 57.296875 10.535156 56.5 10.136719 55.675781 9.792969 C 54.859375 9.457031 54.019531 9.167969 53.15625 8.9375 L 53.15625 3.941406 C 53.15625 3.066406 52.453125 2.363281 51.585938 2.363281 L 48.003906 2.363281 L 48.003906 19.964844 C 50.324219 19.964844 52.425781 20.910156 53.949219 22.4375 C 55.46875 23.964844 56.410156 26.074219 56.410156 28.40625 C 56.410156 30.738281 55.46875 32.847656 53.949219 34.375 C 52.425781 35.902344 50.324219 36.847656 48.003906 36.847656 L 48.003906 54.449219 L 51.585938 54.449219 C 52.453125 54.449219 53.15625 53.746094 53.15625 52.875 L 53.15625 47.875 C 54.019531 47.644531 54.863281 47.359375 55.675781 47.015625 C 56.5 46.675781 57.296875 46.277344 58.066406 45.828125 L 61.589844 49.367188 C 62.203125 49.980469 63.195312 49.980469 63.808594 49.367188 L 68.875 44.277344 C 69.488281 43.664062 69.488281 42.664062 68.875 42.046875 L 65.351562 38.511719 C 65.796875 37.738281 66.195312 36.9375 66.535156 36.113281 C 66.875 35.292969 67.160156 34.449219 67.390625 33.582031 L 72.367188 33.582031 C 73.234375 33.582031 73.9375 32.875 73.9375 32.003906 L 73.9375 24.808594 C 73.9375 23.9375 73.234375 23.230469 72.367188 23.230469 L 67.390625 23.230469 C 67.160156 22.363281 66.875 21.519531 66.535156 20.699219 C 66.195312 19.875 65.800781 19.074219 65.351562 18.300781 " fill-opacity="1" fill-rule="evenodd"/><g clip-path="url(#aaaacc9dd5)"><path fill="#3f444f" d="M 50.984375 21.175781 C 51.933594 21.570312 52.792969 22.152344 53.511719 22.875 C 54.230469 23.597656 54.8125 24.460938 55.203125 25.414062 C 55.582031 26.332031 55.792969 27.34375 55.792969 28.40625 C 55.792969 29.46875 55.582031 30.480469 55.203125 31.398438 C 54.8125 32.351562 54.230469 33.214844 53.511719 33.9375 C 52.792969 34.660156 51.933594 35.242188 50.984375 35.636719 C 50.070312 36.019531 49.0625 36.230469 48.003906 36.230469 C 46.945312 36.230469 45.9375 36.019531 45.023438 35.636719 C 44.074219 35.242188 43.214844 34.660156 42.496094 33.9375 C 41.773438 33.214844 41.195312 32.351562 40.800781 31.398438 C 40.421875 30.480469 40.214844 29.46875 40.214844 28.40625 C 40.214844 27.34375 40.421875 26.332031 40.800781 25.414062 C 41.195312 24.460938 41.773438 23.597656 42.496094 22.875 C 43.214844 22.152344 44.074219 21.570312 45.023438 21.175781 C 45.9375 20.792969 46.945312 20.582031 48.003906 20.582031 C 49.0625 20.582031 50.070312 20.792969 50.984375 21.175781 Z M 48.003906 19.34375 C 49.222656 19.34375 50.386719 19.589844 51.453125 20.03125 C 52.558594 20.492188 53.554688 21.167969 54.382812 22 C 55.214844 22.832031 55.882812 23.832031 56.34375 24.945312 C 56.785156 26.011719 57.027344 27.183594 57.027344 28.40625 C 57.027344 29.628906 56.785156 30.800781 56.34375 31.871094 C 55.882812 32.980469 55.214844 33.980469 54.382812 34.8125 C 53.554688 35.648438 52.558594 36.320312 51.453125 36.78125 C 50.386719 37.222656 49.222656 37.46875 48.003906 37.46875 C 46.785156 37.46875 45.621094 37.222656 44.554688 36.78125 C 43.445312 36.320312 42.453125 35.648438 41.621094 34.8125 C 40.792969 33.980469 40.125 32.980469 39.664062 31.871094 C 39.222656 30.800781 38.980469 29.628906 38.980469 28.40625 C 38.980469 27.183594 39.222656 26.011719 39.664062 24.945312 C 40.125 23.832031 40.792969 22.832031 41.621094 22 C 42.453125 21.167969 43.445312 20.492188 44.554688 20.03125 C 45.621094 19.589844 46.785156 19.34375 48.003906 19.34375 Z M 69.3125 15.203125 L 66.121094 18.40625 C 66.265625 18.671875 66.40625 18.9375 66.539062 19.210938 C 66.742188 19.625 66.933594 20.042969 67.105469 20.460938 C 67.28125 20.886719 67.441406 21.316406 67.589844 21.753906 C 67.683594 22.035156 67.773438 22.324219 67.859375 22.613281 L 72.367188 22.613281 C 72.96875 22.613281 73.515625 22.859375 73.914062 23.253906 L 73.914062 23.257812 C 74.308594 23.65625 74.554688 24.203125 74.554688 24.808594 L 74.554688 32.003906 C 74.554688 32.609375 74.308594 33.160156 73.914062 33.558594 C 73.519531 33.953125 72.972656 34.199219 72.367188 34.199219 L 67.859375 34.199219 C 67.773438 34.488281 67.683594 34.773438 67.589844 35.058594 C 67.441406 35.496094 67.28125 35.925781 67.105469 36.347656 C 66.929688 36.769531 66.742188 37.1875 66.539062 37.601562 C 66.402344 37.871094 66.265625 38.140625 66.117188 38.40625 L 69.3125 41.609375 L 69.3125 41.613281 C 69.738281 42.042969 69.953125 42.601562 69.953125 43.164062 C 69.953125 43.726562 69.738281 44.285156 69.3125 44.714844 L 64.242188 49.804688 C 63.816406 50.234375 63.257812 50.449219 62.699219 50.449219 C 62.140625 50.449219 61.578125 50.234375 61.152344 49.804688 L 57.960938 46.597656 C 57.695312 46.746094 57.429688 46.886719 57.160156 47.019531 C 56.75 47.222656 56.332031 47.414062 55.914062 47.589844 C 55.492188 47.765625 55.0625 47.925781 54.628906 48.074219 C 54.347656 48.171875 54.0625 48.261719 53.773438 48.34375 L 53.773438 52.875 C 53.773438 53.480469 53.527344 54.027344 53.132812 54.425781 L 53.128906 54.425781 C 52.734375 54.824219 52.1875 55.070312 51.585938 55.070312 L 44.421875 55.070312 C 43.816406 55.070312 43.273438 54.824219 42.875 54.425781 C 42.476562 54.027344 42.234375 53.480469 42.234375 52.875 L 42.234375 48.34375 C 41.945312 48.261719 41.660156 48.171875 41.378906 48.074219 C 40.945312 47.925781 40.515625 47.765625 40.09375 47.589844 C 39.675781 47.414062 39.257812 47.222656 38.847656 47.019531 C 38.578125 46.882812 38.308594 46.746094 38.046875 46.597656 L 34.855469 49.804688 L 34.851562 49.804688 C 34.425781 50.234375 33.867188 50.449219 33.308594 50.449219 C 32.75 50.449219 32.1875 50.234375 31.761719 49.804688 L 26.695312 44.714844 C 26.269531 44.285156 26.054688 43.726562 26.054688 43.164062 C 26.054688 42.601562 26.269531 42.039062 26.695312 41.609375 L 29.886719 38.40625 C 29.742188 38.140625 29.601562 37.875 29.46875 37.601562 C 29.265625 37.1875 29.074219 36.769531 28.898438 36.351562 C 28.726562 35.925781 28.5625 35.496094 28.417969 35.058594 C 28.320312 34.777344 28.234375 34.488281 28.148438 34.199219 L 23.636719 34.199219 C 23.035156 34.199219 22.488281 33.953125 22.089844 33.558594 C 21.695312 33.160156 21.453125 32.609375 21.453125 32.003906 L 21.453125 24.808594 C 21.453125 24.203125 21.695312 23.65625 22.089844 23.257812 L 22.09375 23.253906 C 22.488281 22.859375 23.035156 22.613281 23.636719 22.613281 L 28.148438 22.613281 C 28.234375 22.324219 28.320312 22.035156 28.417969 21.753906 C 28.566406 21.316406 28.726562 20.886719 28.902344 20.460938 C 29.074219 20.042969 29.265625 19.625 29.46875 19.210938 C 29.601562 18.941406 29.742188 18.671875 29.886719 18.410156 L 26.695312 15.203125 L 26.695312 15.199219 C 26.269531 14.769531 26.054688 14.210938 26.054688 13.648438 C 26.054688 13.085938 26.269531 12.527344 26.695312 12.097656 L 31.761719 7.007812 C 32.1875 6.578125 32.75 6.363281 33.308594 6.363281 C 33.867188 6.363281 34.425781 6.578125 34.855469 7.007812 L 38.046875 10.214844 C 38.308594 10.070312 38.578125 9.929688 38.847656 9.792969 C 39.257812 9.589844 39.675781 9.398438 40.09375 9.222656 C 40.515625 9.046875 40.945312 8.886719 41.378906 8.738281 C 41.660156 8.644531 41.945312 8.554688 42.234375 8.46875 L 42.234375 3.941406 C 42.234375 3.335938 42.476562 2.785156 42.875 2.386719 C 43.273438 1.988281 43.816406 1.742188 44.421875 1.742188 L 51.585938 1.742188 C 52.1875 1.742188 52.734375 1.988281 53.128906 2.386719 L 53.132812 2.386719 C 53.527344 2.785156 53.773438 3.335938 53.773438 3.941406 L 53.773438 8.46875 C 54.0625 8.554688 54.347656 8.644531 54.628906 8.738281 C 55.0625 8.886719 55.492188 9.046875 55.914062 9.222656 C 56.332031 9.398438 56.75 9.589844 57.160156 9.792969 C 57.429688 9.929688 57.695312 10.070312 57.960938 10.214844 L 61.152344 7.007812 L 61.15625 7.007812 C 61.582031 6.578125 62.140625 6.363281 62.699219 6.363281 C 63.257812 6.363281 63.816406 6.578125 64.242188 7.007812 L 69.3125 12.097656 C 69.738281 12.527344 69.953125 13.085938 69.953125 13.648438 C 69.953125 14.210938 69.738281 14.773438 69.3125 15.203125 Z M 64.914062 17.863281 L 68.4375 14.324219 C 68.625 14.140625 68.71875 13.894531 68.71875 13.648438 C 68.71875 13.40625 68.625 13.160156 68.4375 12.972656 L 63.371094 7.886719 C 63.1875 7.699219 62.941406 7.605469 62.699219 7.605469 C 62.453125 7.605469 62.210938 7.695312 62.023438 7.882812 L 62.023438 7.886719 L 58.5 11.421875 C 58.289062 11.636719 57.960938 11.660156 57.71875 11.5 C 57.355469 11.289062 56.988281 11.089844 56.613281 10.902344 C 56.234375 10.710938 55.839844 10.53125 55.441406 10.367188 C 55.042969 10.203125 54.640625 10.050781 54.230469 9.910156 C 53.824219 9.773438 53.414062 9.648438 53 9.535156 C 52.722656 9.464844 52.539062 9.210938 52.539062 8.9375 L 52.539062 3.941406 C 52.539062 3.675781 52.433594 3.433594 52.261719 3.261719 C 52.089844 3.089844 51.851562 2.984375 51.585938 2.984375 L 44.421875 2.984375 C 44.15625 2.984375 43.917969 3.089844 43.746094 3.261719 C 43.574219 3.433594 43.46875 3.675781 43.46875 3.941406 L 43.46875 8.9375 C 43.46875 9.238281 43.25 9.492188 42.96875 9.546875 C 42.566406 9.65625 42.167969 9.777344 41.773438 9.910156 C 41.367188 10.050781 40.964844 10.203125 40.566406 10.367188 C 40.164062 10.53125 39.773438 10.710938 39.390625 10.902344 C 39.003906 11.09375 38.625 11.300781 38.25 11.519531 C 38.003906 11.664062 37.699219 11.617188 37.507812 11.421875 L 37.503906 11.421875 L 33.980469 7.886719 C 33.796875 7.699219 33.550781 7.605469 33.308594 7.605469 C 33.0625 7.605469 32.820312 7.699219 32.632812 7.886719 L 27.566406 12.972656 C 27.378906 13.160156 27.289062 13.40625 27.289062 13.648438 C 27.289062 13.894531 27.378906 14.140625 27.566406 14.328125 L 27.566406 14.324219 L 31.089844 17.863281 C 31.300781 18.078125 31.328125 18.410156 31.164062 18.648438 C 30.953125 19.011719 30.757812 19.382812 30.574219 19.757812 C 30.382812 20.140625 30.203125 20.535156 30.039062 20.9375 C 29.875 21.335938 29.722656 21.742188 29.582031 22.152344 C 29.445312 22.558594 29.320312 22.972656 29.210938 23.390625 C 29.136719 23.667969 28.890625 23.851562 28.617188 23.851562 L 23.636719 23.851562 C 23.375 23.851562 23.136719 23.957031 22.964844 24.128906 C 22.792969 24.304688 22.683594 24.542969 22.683594 24.808594 L 22.683594 32.003906 C 22.683594 32.269531 22.792969 32.507812 22.964844 32.679688 C 23.136719 32.855469 23.375 32.960938 23.636719 32.960938 L 28.613281 32.960938 C 28.917969 32.960938 29.167969 33.179688 29.222656 33.464844 C 29.328125 33.867188 29.449219 34.265625 29.582031 34.660156 C 29.722656 35.070312 29.875 35.476562 30.039062 35.875 C 30.203125 36.277344 30.382812 36.671875 30.574219 37.054688 C 30.761719 37.441406 30.96875 37.824219 31.1875 38.203125 C 31.328125 38.449219 31.28125 38.753906 31.089844 38.949219 L 27.566406 42.484375 C 27.378906 42.671875 27.289062 42.917969 27.289062 43.164062 C 27.289062 43.40625 27.378906 43.652344 27.566406 43.839844 L 32.632812 48.929688 C 32.820312 49.113281 33.0625 49.207031 33.308594 49.207031 C 33.554688 49.207031 33.796875 49.113281 33.984375 48.929688 L 33.980469 48.929688 L 37.503906 45.390625 C 37.71875 45.175781 38.046875 45.152344 38.289062 45.316406 C 38.648438 45.527344 39.019531 45.722656 39.390625 45.910156 C 39.773438 46.101562 40.164062 46.277344 40.566406 46.445312 C 40.964844 46.613281 41.367188 46.765625 41.773438 46.902344 C 42.183594 47.042969 42.59375 47.167969 43.007812 47.277344 C 43.285156 47.347656 43.464844 47.601562 43.464844 47.875 L 43.46875 47.875 L 43.46875 52.875 C 43.46875 53.140625 43.574219 53.378906 43.746094 53.550781 C 43.917969 53.722656 44.15625 53.832031 44.421875 53.832031 L 51.585938 53.832031 C 51.851562 53.832031 52.089844 53.722656 52.261719 53.550781 C 52.433594 53.378906 52.539062 53.140625 52.539062 52.875 L 52.539062 47.875 C 52.539062 47.574219 52.753906 47.320312 53.039062 47.265625 C 53.4375 47.160156 53.835938 47.039062 54.230469 46.902344 C 54.640625 46.765625 55.042969 46.613281 55.441406 46.445312 C 55.84375 46.28125 56.234375 46.101562 56.617188 45.910156 C 57.003906 45.71875 57.382812 45.511719 57.757812 45.292969 C 58.003906 45.152344 58.308594 45.199219 58.5 45.390625 L 62.023438 48.929688 C 62.210938 49.113281 62.453125 49.207031 62.699219 49.207031 C 62.941406 49.207031 63.1875 49.113281 63.371094 48.929688 L 68.4375 43.839844 C 68.625 43.652344 68.71875 43.40625 68.71875 43.164062 C 68.71875 42.917969 68.625 42.671875 68.441406 42.484375 L 68.4375 42.484375 L 64.914062 38.949219 C 64.703125 38.734375 64.679688 38.402344 64.839844 38.164062 C 65.050781 37.796875 65.25 37.429688 65.433594 37.054688 C 65.621094 36.671875 65.800781 36.277344 65.96875 35.875 C 66.132812 35.476562 66.285156 35.070312 66.421875 34.660156 C 66.5625 34.25 66.683594 33.839844 66.796875 33.425781 C 66.867188 33.148438 67.117188 32.964844 67.390625 32.964844 L 67.390625 32.960938 L 72.367188 32.960938 C 72.632812 32.960938 72.871094 32.855469 73.042969 32.679688 C 73.214844 32.507812 73.320312 32.269531 73.320312 32.003906 L 73.320312 24.808594 C 73.320312 24.542969 73.214844 24.304688 73.042969 24.128906 C 72.871094 23.957031 72.632812 23.851562 72.367188 23.851562 L 67.390625 23.851562 C 67.089844 23.851562 66.839844 23.636719 66.785156 23.347656 C 66.675781 22.949219 66.558594 22.546875 66.421875 22.152344 C 66.285156 21.742188 66.132812 21.335938 65.96875 20.9375 C 65.800781 20.535156 65.625 20.140625 65.433594 19.757812 C 65.242188 19.371094 65.039062 18.988281 64.820312 18.613281 C 64.675781 18.363281 64.726562 18.058594 64.917969 17.863281 L 64.914062 17.863281 " fill-opacity="1" fill-rule="nonzero"/></g><path fill="#979ea2" d="M 75.167969 62.324219 L 68.410156 60.023438 L 66.96875 62.898438 L 71.722656 64.515625 C 71.746094 64.523438 71.765625 64.53125 71.785156 64.539062 L 75.703125 65.871094 L 75.167969 62.324219 " fill-opacity="1" fill-rule="evenodd"/><path fill="#808d93" d="M 76.484375 62.769531 L 77.019531 66.316406 L 88.417969 70.195312 L 88.417969 70.199219 C 88.527344 70.234375 88.625 70.300781 88.703125 70.398438 C 89.917969 71.925781 90.683594 76.722656 91.152344 81.359375 C 91.371094 83.511719 91.53125 85.632812 91.640625 87.367188 L 94.75 87.367188 C 94.679688 85.78125 94.484375 82.050781 94.09375 78.222656 C 93.65625 73.917969 92.988281 69.511719 92.007812 68.050781 L 76.484375 62.769531 " fill-opacity="1" fill-rule="evenodd"/><path fill="#b7b2af" d="M 53.152344 72.679688 L 48.003906 66.898438 L 45.808594 69.359375 L 49.429688 74.035156 L 52.425781 74.035156 L 53.152344 72.679688 " fill-opacity="1" fill-rule="evenodd"/><path fill="#b7b2af" d="M 52.257812 75.277344 L 50.382812 75.277344 C 50.496094 75.457031 50.511719 75.691406 50.402344 75.894531 L 49.265625 78.027344 L 50.382812 86.511719 C 50.40625 86.65625 50.378906 86.808594 50.296875 86.941406 L 50.03125 87.367188 L 50.707031 87.367188 L 50.78125 87.246094 L 53.300781 83.214844 L 53.273438 83.011719 L 52.257812 75.277344 " fill-opacity="1" fill-rule="evenodd"/><g clip-path="url(#4ab0f878ff)"><g clip-path="url(#3df0120587)"><path fill="#01184e" d="M 45.449219 24.601562 L 52.203125 24.601562 L 52.203125 31.125 L 45.449219 31.125 Z M 45.449219 24.601562 " fill-opacity="1" fill-rule="nonzero"/></g></g></svg>