<svg xmlns="http://www.w3.org/2000/svg" xmlns:xlink="http://www.w3.org/1999/xlink" width="240" zoomAndPan="magnify" viewBox="0 0 180 167.249994" height="223" preserveAspectRatio="xMidYMid meet" version="1.0"><defs><clipPath id="23fdd7ccbe"><path d="M 148.898438 87.640625 L 149.304688 87.640625 L 149.304688 87.894531 L 148.898438 87.894531 Z M 148.898438 87.640625 " clip-rule="nonzero"/></clipPath><clipPath id="c8b4432e12"><path d="M 149.285156 87.804688 C 148.539062 88.03125 149.136719 87.65625 149.136719 87.65625 " clip-rule="nonzero"/></clipPath><clipPath id="fc6a16e7bd"><path d="M 105 161 L 111 161 L 111 166.503906 L 105 166.503906 Z M 105 161 " clip-rule="nonzero"/></clipPath><clipPath id="ec6a1e01fa"><path d="M 79 161 L 86 161 L 86 166.503906 L 79 166.503906 Z M 79 161 " clip-rule="nonzero"/></clipPath><clipPath id="944160f3e7"><path d="M 168 62 L 174.117188 62 L 174.117188 69 L 168 69 Z M 168 62 " clip-rule="nonzero"/></clipPath><clipPath id="008fa46892"><path d="M 168 88 L 174.117188 88 L 174.117188 94 L 168 94 Z M 168 88 " clip-rule="nonzero"/></clipPath><clipPath id="792896311e"><path d="M 6.121094 98 L 12 98 L 12 104 L 6.121094 104 Z M 6.121094 98 " clip-rule="nonzero"/></clipPath><clipPath id="2c0265ab53"><path d="M 6.121094 72 L 12 72 L 12 79 L 6.121094 79 Z M 6.121094 72 " clip-rule="nonzero"/></clipPath></defs><g clip-path="url(#23fdd7ccbe)"><g clip-path="url(#c8b4432e12)"><path fill="#01184e" d="M 145.625 84.671875 L 152.351562 84.671875 L 152.351562 91.167969 L 145.625 91.167969 Z M 145.625 84.671875 " fill-opacity="1" fill-rule="nonzero"/></g></g><path fill="#231f20" d="M 114.203125 59.652344 L 114.203125 106.84375 L 66.03125 106.84375 L 66.03125 59.652344 L 114.203125 59.652344 M 116.480469 57.378906 L 63.753906 57.378906 L 63.753906 109.117188 L 116.480469 109.117188 Z M 116.480469 57.378906 " fill-opacity="1" fill-rule="nonzero"/><path fill="#231f20" d="M 69.597656 49.980469 L 72.367188 49.980469 L 72.367188 57.773438 L 69.597656 57.773438 Z M 69.597656 49.980469 " fill-opacity="1" fill-rule="nonzero"/><path fill="#231f20" d="M 72.820312 49.980469 L 75.589844 49.980469 L 75.589844 57.773438 L 72.820312 57.773438 Z M 72.820312 49.980469 " fill-opacity="1" fill-rule="nonzero"/><path fill="#231f20" d="M 76.039062 49.980469 L 78.808594 49.980469 L 78.808594 57.773438 L 76.039062 57.773438 Z M 76.039062 49.980469 " fill-opacity="1" fill-rule="nonzero"/><path fill="#231f20" d="M 79.257812 49.980469 L 82.027344 49.980469 L 82.027344 57.773438 L 79.257812 57.773438 Z M 79.257812 49.980469 " fill-opacity="1" fill-rule="nonzero"/><path fill="#231f20" d="M 82.480469 49.980469 L 85.25 49.980469 L 85.25 57.773438 L 82.480469 57.773438 Z M 82.480469 49.980469 " fill-opacity="1" fill-rule="nonzero"/><path fill="#231f20" d="M 85.699219 49.980469 L 88.46875 49.980469 L 88.46875 57.773438 L 85.699219 57.773438 Z M 85.699219 49.980469 " fill-opacity="1" fill-rule="nonzero"/><path fill="#231f20" d="M 88.917969 49.980469 L 91.691406 49.980469 L 91.691406 57.773438 L 88.917969 57.773438 Z M 88.917969 49.980469 " fill-opacity="1" fill-rule="nonzero"/><path fill="#231f20" d="M 92.140625 49.980469 L 94.910156 49.980469 L 94.910156 57.773438 L 92.140625 57.773438 Z M 92.140625 49.980469 " fill-opacity="1" fill-rule="nonzero"/><path fill="#231f20" d="M 95.359375 49.980469 L 98.128906 49.980469 L 98.128906 57.773438 L 95.359375 57.773438 Z M 95.359375 49.980469 " fill-opacity="1" fill-rule="nonzero"/><path fill="#231f20" d="M 98.578125 49.980469 L 101.351562 49.980469 L 101.351562 57.773438 L 98.578125 57.773438 Z M 98.578125 49.980469 " fill-opacity="1" fill-rule="nonzero"/><path fill="#231f20" d="M 101.800781 49.980469 L 104.570312 49.980469 L 104.570312 57.773438 L 101.800781 57.773438 Z M 101.800781 49.980469 " fill-opacity="1" fill-rule="nonzero"/><path fill="#231f20" d="M 105.019531 49.980469 L 107.789062 49.980469 L 107.789062 57.773438 L 105.019531 57.773438 Z M 105.019531 49.980469 " fill-opacity="1" fill-rule="nonzero"/><path fill="#231f20" d="M 108.238281 49.980469 L 111.011719 49.980469 L 111.011719 57.773438 L 108.238281 57.773438 Z M 108.238281 49.980469 " fill-opacity="1" fill-rule="nonzero"/><path fill="#231f20" d="M 71.363281 53.652344 L 70.605469 53.652344 L 70.605469 42.410156 L 66.300781 38.113281 L 61.136719 38.113281 L 59.679688 39.570312 L 45.269531 39.570312 L 45.269531 38.8125 L 59.363281 38.8125 L 60.820312 37.355469 L 66.617188 37.355469 L 71.363281 42.097656 Z M 71.363281 53.652344 " fill-opacity="1" fill-rule="nonzero"/><path fill="#231f20" d="M 74.671875 54.183594 L 73.914062 54.183594 L 73.914062 41.257812 L 67.957031 35.3125 L 55.207031 35.3125 L 49.679688 29.792969 L 45.269531 29.792969 L 45.269531 29.035156 L 49.996094 29.035156 L 55.523438 34.554688 L 68.273438 34.554688 L 74.671875 40.945312 Z M 74.671875 54.183594 " fill-opacity="1" fill-rule="nonzero"/><path fill="#231f20" d="M 77.945312 53.878906 L 77.183594 53.878906 L 77.183594 39.359375 L 68.261719 30.449219 L 64.296875 30.449219 L 60.035156 26.199219 L 54.457031 26.199219 L 49.089844 20.839844 L 49.628906 20.304688 L 54.769531 25.441406 L 60.351562 25.441406 L 64.609375 29.691406 L 68.578125 29.691406 L 77.945312 39.046875 Z M 77.945312 53.878906 " fill-opacity="1" fill-rule="nonzero"/><path fill="#231f20" d="M 81.050781 52.964844 L 80.292969 52.964844 L 80.292969 37.355469 L 70.976562 28.050781 L 70.976562 22.464844 L 66.820312 18.316406 L 66.820312 10.425781 L 67.578125 10.425781 L 67.578125 18.003906 L 71.734375 22.152344 L 71.734375 27.738281 L 81.050781 37.039062 Z M 81.050781 52.964844 " fill-opacity="1" fill-rule="nonzero"/><path fill="#231f20" d="M 84.25 52.96875 L 83.492188 52.964844 L 83.585938 34.859375 L 74.761719 26.050781 L 74.761719 18.730469 L 71.867188 15.839844 L 71.867188 2.648438 L 72.628906 2.648438 L 72.628906 15.527344 L 75.523438 18.417969 L 75.523438 25.738281 L 84.34375 34.546875 Z M 84.25 52.96875 " fill-opacity="1" fill-rule="nonzero"/><path fill="#231f20" d="M 86.703125 33.152344 L 87.464844 33.152344 L 87.464844 52.964844 L 86.703125 52.964844 Z M 86.703125 33.152344 " fill-opacity="1" fill-rule="nonzero"/><path fill="#231f20" d="M 90.621094 52.964844 L 89.863281 52.964844 L 89.863281 24.335938 L 85.097656 19.578125 L 85.097656 16.507812 L 85.855469 16.507812 L 85.855469 19.261719 L 90.621094 24.019531 Z M 90.621094 52.964844 " fill-opacity="1" fill-rule="nonzero"/><path fill="#231f20" d="M 93.964844 51.921875 L 93.203125 51.921875 L 93.203125 23.554688 L 97.761719 19.003906 L 97.761719 15.773438 L 94.980469 12.996094 L 95.515625 12.460938 L 98.523438 15.460938 L 98.523438 19.316406 L 93.964844 23.867188 Z M 93.964844 51.921875 " fill-opacity="1" fill-rule="nonzero"/><path fill="#231f20" d="M 97.050781 52.703125 L 96.289062 52.703125 L 96.289062 32.753906 L 102.710938 26.347656 L 102.710938 16.101562 L 97.488281 10.886719 L 97.488281 2.648438 L 98.246094 2.648438 L 98.246094 10.574219 L 103.46875 15.789062 L 103.46875 26.660156 L 97.050781 33.070312 Z M 97.050781 52.703125 " fill-opacity="1" fill-rule="nonzero"/><path fill="#231f20" d="M 100.285156 52.964844 L 99.527344 52.964844 L 99.527344 37.175781 L 106.894531 29.824219 L 106.894531 13.515625 L 104.066406 10.695312 L 104.605469 10.15625 L 107.652344 13.203125 L 107.652344 30.136719 L 100.285156 37.492188 Z M 100.285156 52.964844 " fill-opacity="1" fill-rule="nonzero"/><path fill="#231f20" d="M 103.542969 51.597656 L 102.785156 51.597656 L 102.785156 40.707031 L 110.832031 32.667969 L 110.832031 25.875 L 115.433594 21.28125 L 115.96875 21.816406 L 111.59375 26.1875 L 111.59375 32.984375 L 103.542969 41.019531 Z M 103.542969 51.597656 " fill-opacity="1" fill-rule="nonzero"/><path fill="#231f20" d="M 106.773438 52.703125 L 106.011719 52.703125 L 106.011719 43.460938 L 112.332031 37.148438 L 126.179688 37.148438 L 131.171875 32.167969 L 131.171875 24.976562 L 134.65625 21.496094 L 137.6875 21.496094 L 137.6875 22.253906 L 134.972656 22.253906 L 131.929688 25.292969 L 131.929688 32.484375 L 126.496094 37.90625 L 112.648438 37.90625 L 106.773438 43.773438 Z M 106.773438 52.703125 " fill-opacity="1" fill-rule="nonzero"/><path fill="#231f20" d="M 109.925781 52.503906 L 109.167969 52.503906 L 109.167969 45.691406 L 112.707031 42.15625 L 115.96875 42.15625 L 115.96875 42.914062 L 113.019531 42.914062 L 109.925781 46.003906 Z M 109.925781 52.503906 " fill-opacity="1" fill-rule="nonzero"/><path fill="#231f20" d="M 47.835938 39.242188 C 47.835938 39.585938 47.769531 39.917969 47.636719 40.238281 C 47.503906 40.558594 47.316406 40.839844 47.070312 41.085938 C 46.828125 41.328125 46.542969 41.515625 46.226562 41.648438 C 45.90625 41.78125 45.570312 41.847656 45.226562 41.847656 C 44.878906 41.847656 44.546875 41.78125 44.226562 41.648438 C 43.90625 41.515625 43.625 41.328125 43.378906 41.085938 C 43.132812 40.839844 42.945312 40.558594 42.8125 40.238281 C 42.679688 39.917969 42.613281 39.585938 42.613281 39.242188 C 42.613281 38.894531 42.679688 38.5625 42.8125 38.242188 C 42.945312 37.921875 43.132812 37.640625 43.378906 37.398438 C 43.625 37.152344 43.90625 36.964844 44.226562 36.832031 C 44.546875 36.699219 44.878906 36.632812 45.226562 36.632812 C 45.570312 36.632812 45.90625 36.699219 46.226562 36.832031 C 46.542969 36.964844 46.828125 37.152344 47.070312 37.398438 C 47.316406 37.640625 47.503906 37.921875 47.636719 38.242188 C 47.769531 38.5625 47.835938 38.894531 47.835938 39.242188 Z M 47.835938 39.242188 " fill-opacity="1" fill-rule="nonzero"/><path fill="#231f20" d="M 47.878906 29.414062 C 47.878906 29.761719 47.8125 30.09375 47.679688 30.414062 C 47.546875 30.730469 47.359375 31.015625 47.113281 31.257812 C 46.871094 31.503906 46.585938 31.691406 46.269531 31.824219 C 45.949219 31.957031 45.613281 32.023438 45.269531 32.023438 C 44.921875 32.023438 44.589844 31.957031 44.269531 31.824219 C 43.949219 31.691406 43.667969 31.503906 43.421875 31.257812 C 43.175781 31.015625 42.988281 30.730469 42.855469 30.414062 C 42.722656 30.09375 42.65625 29.761719 42.65625 29.414062 C 42.65625 29.070312 42.722656 28.734375 42.855469 28.417969 C 42.988281 28.097656 43.175781 27.816406 43.421875 27.570312 C 43.667969 27.328125 43.949219 27.136719 44.269531 27.003906 C 44.589844 26.875 44.921875 26.808594 45.269531 26.808594 C 45.613281 26.808594 45.949219 26.875 46.269531 27.003906 C 46.585938 27.136719 46.871094 27.328125 47.113281 27.570312 C 47.359375 27.816406 47.546875 28.097656 47.679688 28.417969 C 47.8125 28.734375 47.878906 29.070312 47.878906 29.414062 Z M 47.878906 29.414062 " fill-opacity="1" fill-rule="nonzero"/><path fill="#231f20" d="M 51.96875 20.769531 C 51.96875 21.113281 51.902344 21.445312 51.769531 21.765625 C 51.636719 22.085938 51.449219 22.367188 51.207031 22.609375 C 50.960938 22.855469 50.679688 23.042969 50.359375 23.175781 C 50.039062 23.308594 49.703125 23.375 49.359375 23.375 C 49.011719 23.375 48.679688 23.308594 48.359375 23.175781 C 48.039062 23.042969 47.757812 22.855469 47.511719 22.609375 C 47.269531 22.367188 47.078125 22.085938 46.945312 21.765625 C 46.8125 21.445312 46.746094 21.113281 46.746094 20.769531 C 46.746094 20.421875 46.8125 20.089844 46.945312 19.769531 C 47.078125 19.449219 47.269531 19.167969 47.511719 18.925781 C 47.757812 18.679688 48.039062 18.492188 48.359375 18.359375 C 48.679688 18.226562 49.011719 18.160156 49.359375 18.160156 C 49.703125 18.160156 50.039062 18.226562 50.359375 18.359375 C 50.679688 18.492188 50.960938 18.679688 51.207031 18.925781 C 51.449219 19.167969 51.636719 19.449219 51.769531 19.769531 C 51.902344 20.089844 51.96875 20.421875 51.96875 20.769531 Z M 51.96875 20.769531 " fill-opacity="1" fill-rule="nonzero"/><path fill="#231f20" d="M 69.8125 10.425781 C 69.8125 10.769531 69.746094 11.105469 69.613281 11.421875 C 69.480469 11.742188 69.292969 12.023438 69.046875 12.269531 C 68.800781 12.515625 68.519531 12.703125 68.199219 12.835938 C 67.878906 12.96875 67.546875 13.03125 67.199219 13.03125 C 66.855469 13.03125 66.519531 12.96875 66.203125 12.835938 C 65.882812 12.703125 65.597656 12.515625 65.355469 12.269531 C 65.109375 12.023438 64.921875 11.742188 64.789062 11.421875 C 64.65625 11.105469 64.589844 10.769531 64.589844 10.425781 C 64.589844 10.078125 64.65625 9.746094 64.789062 9.429688 C 64.921875 9.109375 65.109375 8.828125 65.355469 8.582031 C 65.597656 8.335938 65.882812 8.148438 66.203125 8.015625 C 66.519531 7.882812 66.855469 7.820312 67.199219 7.820312 C 67.546875 7.820312 67.878906 7.882812 68.199219 8.015625 C 68.519531 8.148438 68.800781 8.335938 69.046875 8.582031 C 69.292969 8.828125 69.480469 9.109375 69.613281 9.429688 C 69.746094 9.746094 69.8125 10.078125 69.8125 10.425781 Z M 69.8125 10.425781 " fill-opacity="1" fill-rule="nonzero"/><path fill="#231f20" d="M 74.859375 2.648438 C 74.859375 2.992188 74.792969 3.328125 74.660156 3.644531 C 74.527344 3.964844 74.339844 4.246094 74.09375 4.492188 C 73.851562 4.734375 73.566406 4.925781 73.246094 5.058594 C 72.925781 5.1875 72.59375 5.253906 72.25 5.253906 C 71.902344 5.253906 71.570312 5.1875 71.25 5.058594 C 70.929688 4.925781 70.648438 4.734375 70.402344 4.492188 C 70.15625 4.246094 69.96875 3.964844 69.835938 3.644531 C 69.703125 3.328125 69.636719 2.992188 69.636719 2.648438 C 69.636719 2.300781 69.703125 1.96875 69.835938 1.652344 C 69.96875 1.332031 70.15625 1.050781 70.402344 0.804688 C 70.648438 0.558594 70.929688 0.371094 71.25 0.238281 C 71.570312 0.105469 71.902344 0.0390625 72.25 0.0390625 C 72.59375 0.0390625 72.925781 0.105469 73.246094 0.238281 C 73.566406 0.371094 73.851562 0.558594 74.09375 0.804688 C 74.339844 1.050781 74.527344 1.332031 74.660156 1.652344 C 74.792969 1.96875 74.859375 2.300781 74.859375 2.648438 Z M 74.859375 2.648438 " fill-opacity="1" fill-rule="nonzero"/><path fill="#231f20" d="M 87.859375 16.507812 C 87.859375 16.855469 87.792969 17.1875 87.660156 17.507812 C 87.527344 17.824219 87.339844 18.109375 87.09375 18.351562 C 86.851562 18.597656 86.566406 18.785156 86.246094 18.917969 C 85.929688 19.050781 85.59375 19.117188 85.25 19.117188 C 84.902344 19.117188 84.570312 19.050781 84.25 18.917969 C 83.929688 18.785156 83.648438 18.597656 83.402344 18.351562 C 83.15625 18.109375 82.96875 17.824219 82.835938 17.507812 C 82.703125 17.1875 82.636719 16.855469 82.636719 16.507812 C 82.636719 16.164062 82.703125 15.832031 82.835938 15.511719 C 82.96875 15.191406 83.15625 14.910156 83.402344 14.664062 C 83.648438 14.421875 83.929688 14.230469 84.25 14.101562 C 84.570312 13.96875 84.902344 13.902344 85.25 13.902344 C 85.59375 13.902344 85.929688 13.96875 86.246094 14.101562 C 86.566406 14.230469 86.851562 14.421875 87.09375 14.664062 C 87.339844 14.910156 87.527344 15.191406 87.660156 15.511719 C 87.792969 15.832031 87.859375 16.164062 87.859375 16.507812 Z M 87.859375 16.507812 " fill-opacity="1" fill-rule="nonzero"/><path fill="#231f20" d="M 89.269531 33.976562 C 89.269531 34.265625 89.210938 34.542969 89.101562 34.808594 C 88.992188 35.078125 88.832031 35.3125 88.628906 35.515625 C 88.421875 35.722656 88.1875 35.878906 87.917969 35.988281 C 87.652344 36.101562 87.375 36.15625 87.085938 36.15625 C 86.792969 36.15625 86.515625 36.101562 86.25 35.988281 C 85.980469 35.878906 85.746094 35.722656 85.539062 35.515625 C 85.335938 35.3125 85.179688 35.078125 85.066406 34.808594 C 84.957031 34.542969 84.902344 34.265625 84.902344 33.976562 C 84.902344 33.6875 84.957031 33.410156 85.066406 33.140625 C 85.179688 32.875 85.335938 32.636719 85.539062 32.433594 C 85.746094 32.230469 85.980469 32.070312 86.25 31.960938 C 86.515625 31.851562 86.792969 31.796875 87.085938 31.796875 C 87.375 31.796875 87.652344 31.851562 87.917969 31.960938 C 88.1875 32.070312 88.421875 32.230469 88.628906 32.433594 C 88.832031 32.636719 88.992188 32.875 89.101562 33.140625 C 89.210938 33.410156 89.269531 33.6875 89.269531 33.976562 Z M 89.269531 33.976562 " fill-opacity="1" fill-rule="nonzero"/><path fill="#231f20" d="M 100.390625 2.648438 C 100.390625 2.992188 100.324219 3.328125 100.195312 3.644531 C 100.0625 3.964844 99.871094 4.246094 99.628906 4.492188 C 99.382812 4.734375 99.101562 4.925781 98.78125 5.058594 C 98.460938 5.1875 98.128906 5.253906 97.78125 5.253906 C 97.433594 5.253906 97.101562 5.1875 96.78125 5.058594 C 96.460938 4.925781 96.179688 4.734375 95.933594 4.492188 C 95.691406 4.246094 95.5 3.964844 95.367188 3.644531 C 95.238281 3.328125 95.171875 2.992188 95.171875 2.648438 C 95.171875 2.300781 95.238281 1.96875 95.367188 1.652344 C 95.5 1.332031 95.691406 1.050781 95.933594 0.804688 C 96.179688 0.558594 96.460938 0.371094 96.78125 0.238281 C 97.101562 0.105469 97.433594 0.0390625 97.78125 0.0390625 C 98.128906 0.0390625 98.460938 0.105469 98.78125 0.238281 C 99.101562 0.371094 99.382812 0.558594 99.628906 0.804688 C 99.871094 1.050781 100.0625 1.332031 100.195312 1.652344 C 100.324219 1.96875 100.390625 2.300781 100.390625 2.648438 Z M 100.390625 2.648438 " fill-opacity="1" fill-rule="nonzero"/><path fill="#231f20" d="M 107.09375 10.425781 C 107.09375 10.769531 107.027344 11.105469 106.894531 11.421875 C 106.761719 11.742188 106.574219 12.023438 106.328125 12.269531 C 106.085938 12.515625 105.800781 12.703125 105.480469 12.835938 C 105.164062 12.96875 104.828125 13.03125 104.484375 13.03125 C 104.136719 13.03125 103.804688 12.96875 103.484375 12.835938 C 103.164062 12.703125 102.882812 12.515625 102.636719 12.269531 C 102.390625 12.023438 102.203125 11.742188 102.070312 11.421875 C 101.9375 11.105469 101.871094 10.769531 101.871094 10.425781 C 101.871094 10.078125 101.9375 9.746094 102.070312 9.429688 C 102.203125 9.109375 102.390625 8.828125 102.636719 8.582031 C 102.882812 8.335938 103.164062 8.148438 103.484375 8.015625 C 103.804688 7.882812 104.136719 7.820312 104.484375 7.820312 C 104.828125 7.820312 105.164062 7.882812 105.480469 8.015625 C 105.800781 8.148438 106.085938 8.335938 106.328125 8.582031 C 106.574219 8.828125 106.761719 9.109375 106.894531 9.429688 C 107.027344 9.746094 107.09375 10.078125 107.09375 10.425781 Z M 107.09375 10.425781 " fill-opacity="1" fill-rule="nonzero"/><path fill="#231f20" d="M 118.101562 21.550781 C 118.101562 21.894531 118.039062 22.226562 117.90625 22.546875 C 117.773438 22.867188 117.582031 23.148438 117.339844 23.394531 C 117.09375 23.636719 116.8125 23.828125 116.492188 23.957031 C 116.171875 24.089844 115.839844 24.15625 115.492188 24.15625 C 115.144531 24.15625 114.8125 24.089844 114.492188 23.957031 C 114.171875 23.828125 113.890625 23.636719 113.644531 23.394531 C 113.402344 23.148438 113.210938 22.867188 113.078125 22.546875 C 112.949219 22.226562 112.882812 21.894531 112.882812 21.550781 C 112.882812 21.203125 112.949219 20.871094 113.078125 20.550781 C 113.210938 20.234375 113.402344 19.949219 113.644531 19.707031 C 113.890625 19.460938 114.171875 19.273438 114.492188 19.140625 C 114.8125 19.007812 115.144531 18.941406 115.492188 18.941406 C 115.839844 18.941406 116.171875 19.007812 116.492188 19.140625 C 116.8125 19.273438 117.09375 19.460938 117.339844 19.707031 C 117.582031 19.949219 117.773438 20.234375 117.90625 20.550781 C 118.039062 20.871094 118.101562 21.203125 118.101562 21.550781 Z M 118.101562 21.550781 " fill-opacity="1" fill-rule="nonzero"/><path fill="#231f20" d="M 139.902344 22.011719 C 139.902344 22.359375 139.839844 22.691406 139.707031 23.011719 C 139.574219 23.328125 139.382812 23.609375 139.140625 23.855469 C 138.894531 24.101562 138.613281 24.289062 138.292969 24.421875 C 137.972656 24.554688 137.640625 24.621094 137.292969 24.621094 C 136.945312 24.621094 136.613281 24.554688 136.292969 24.421875 C 135.972656 24.289062 135.691406 24.101562 135.445312 23.855469 C 135.203125 23.609375 135.011719 23.328125 134.878906 23.011719 C 134.75 22.691406 134.683594 22.359375 134.683594 22.011719 C 134.683594 21.667969 134.75 21.332031 134.878906 21.015625 C 135.011719 20.695312 135.203125 20.414062 135.445312 20.167969 C 135.691406 19.925781 135.972656 19.734375 136.292969 19.601562 C 136.613281 19.472656 136.945312 19.40625 137.292969 19.40625 C 137.640625 19.40625 137.972656 19.472656 138.292969 19.601562 C 138.613281 19.734375 138.894531 19.925781 139.140625 20.167969 C 139.382812 20.414062 139.574219 20.695312 139.707031 21.015625 C 139.839844 21.332031 139.902344 21.667969 139.902344 22.011719 Z M 139.902344 22.011719 " fill-opacity="1" fill-rule="nonzero"/><path fill="#231f20" d="M 118.578125 42.539062 C 118.578125 42.882812 118.511719 43.214844 118.378906 43.535156 C 118.246094 43.855469 118.058594 44.136719 117.8125 44.382812 C 117.570312 44.625 117.285156 44.8125 116.964844 44.945312 C 116.648438 45.078125 116.3125 45.144531 115.96875 45.144531 C 115.621094 45.144531 115.289062 45.078125 114.96875 44.945312 C 114.648438 44.8125 114.367188 44.625 114.121094 44.382812 C 113.875 44.136719 113.6875 43.855469 113.554688 43.535156 C 113.421875 43.214844 113.355469 42.882812 113.355469 42.539062 C 113.355469 42.191406 113.421875 41.859375 113.554688 41.539062 C 113.6875 41.21875 113.875 40.9375 114.121094 40.695312 C 114.367188 40.449219 114.648438 40.261719 114.96875 40.128906 C 115.289062 39.996094 115.621094 39.929688 115.96875 39.929688 C 116.3125 39.929688 116.648438 39.996094 116.964844 40.128906 C 117.285156 40.261719 117.570312 40.449219 117.8125 40.695312 C 118.058594 40.9375 118.246094 41.21875 118.378906 41.539062 C 118.511719 41.859375 118.578125 42.191406 118.578125 42.539062 Z M 118.578125 42.539062 " fill-opacity="1" fill-rule="nonzero"/><path fill="#231f20" d="M 97.789062 13.03125 C 97.789062 13.34375 97.730469 13.644531 97.609375 13.933594 C 97.488281 14.222656 97.320312 14.476562 97.097656 14.699219 C 96.878906 14.917969 96.621094 15.089844 96.332031 15.207031 C 96.042969 15.328125 95.742188 15.386719 95.429688 15.386719 C 95.117188 15.386719 94.816406 15.328125 94.527344 15.207031 C 94.238281 15.089844 93.984375 14.917969 93.765625 14.699219 C 93.542969 14.476562 93.371094 14.222656 93.253906 13.933594 C 93.132812 13.644531 93.074219 13.34375 93.074219 13.03125 C 93.074219 12.722656 93.132812 12.421875 93.253906 12.132812 C 93.371094 11.84375 93.542969 11.589844 93.765625 11.367188 C 93.984375 11.148438 94.238281 10.976562 94.527344 10.859375 C 94.816406 10.738281 95.117188 10.679688 95.429688 10.679688 C 95.742188 10.679688 96.042969 10.738281 96.332031 10.859375 C 96.621094 10.976562 96.878906 11.148438 97.097656 11.367188 C 97.320312 11.589844 97.488281 11.84375 97.609375 12.132812 C 97.730469 12.421875 97.789062 12.722656 97.789062 13.03125 Z M 97.789062 13.03125 " fill-opacity="1" fill-rule="nonzero"/><path fill="#231f20" d="M 107.867188 108.722656 L 110.636719 108.722656 L 110.636719 116.515625 L 107.867188 116.515625 Z M 107.867188 108.722656 " fill-opacity="1" fill-rule="nonzero"/><path fill="#231f20" d="M 104.648438 108.722656 L 107.417969 108.722656 L 107.417969 116.515625 L 104.648438 116.515625 Z M 104.648438 108.722656 " fill-opacity="1" fill-rule="nonzero"/><path fill="#231f20" d="M 101.425781 108.722656 L 104.195312 108.722656 L 104.195312 116.515625 L 101.425781 116.515625 Z M 101.425781 108.722656 " fill-opacity="1" fill-rule="nonzero"/><path fill="#231f20" d="M 98.207031 108.722656 L 100.976562 108.722656 L 100.976562 116.515625 L 98.207031 116.515625 Z M 98.207031 108.722656 " fill-opacity="1" fill-rule="nonzero"/><path fill="#231f20" d="M 94.984375 108.722656 L 97.757812 108.722656 L 97.757812 116.515625 L 94.984375 116.515625 Z M 94.984375 108.722656 " fill-opacity="1" fill-rule="nonzero"/><path fill="#231f20" d="M 91.765625 108.722656 L 94.535156 108.722656 L 94.535156 116.515625 L 91.765625 116.515625 Z M 91.765625 108.722656 " fill-opacity="1" fill-rule="nonzero"/><path fill="#231f20" d="M 88.546875 108.722656 L 91.316406 108.722656 L 91.316406 116.515625 L 88.546875 116.515625 Z M 88.546875 108.722656 " fill-opacity="1" fill-rule="nonzero"/><path fill="#231f20" d="M 85.324219 108.722656 L 88.097656 108.722656 L 88.097656 116.515625 L 85.324219 116.515625 Z M 85.324219 108.722656 " fill-opacity="1" fill-rule="nonzero"/><path fill="#231f20" d="M 82.105469 108.722656 L 84.875 108.722656 L 84.875 116.515625 L 82.105469 116.515625 Z M 82.105469 108.722656 " fill-opacity="1" fill-rule="nonzero"/><path fill="#231f20" d="M 78.886719 108.722656 L 81.65625 108.722656 L 81.65625 116.515625 L 78.886719 116.515625 Z M 78.886719 108.722656 " fill-opacity="1" fill-rule="nonzero"/><path fill="#231f20" d="M 75.664062 108.722656 L 78.4375 108.722656 L 78.4375 116.515625 L 75.664062 116.515625 Z M 75.664062 108.722656 " fill-opacity="1" fill-rule="nonzero"/><path fill="#231f20" d="M 72.445312 108.722656 L 75.214844 108.722656 L 75.214844 116.515625 L 72.445312 116.515625 Z M 72.445312 108.722656 " fill-opacity="1" fill-rule="nonzero"/><path fill="#231f20" d="M 69.222656 108.722656 L 71.996094 108.722656 L 71.996094 116.515625 L 69.222656 116.515625 Z M 69.222656 108.722656 " fill-opacity="1" fill-rule="nonzero"/><path fill="#231f20" d="M 119.414062 129.140625 L 113.617188 129.140625 L 108.871094 124.398438 L 108.871094 112.84375 L 109.632812 112.84375 L 109.632812 124.085938 L 113.933594 128.382812 L 119.101562 128.382812 L 120.558594 126.925781 L 134.964844 126.925781 L 134.964844 127.683594 L 120.871094 127.683594 Z M 119.414062 129.140625 " fill-opacity="1" fill-rule="nonzero"/><path fill="#231f20" d="M 134.964844 137.460938 L 130.242188 137.460938 L 124.714844 131.941406 L 111.964844 131.941406 L 105.5625 125.550781 L 105.5625 112.3125 L 106.324219 112.3125 L 106.324219 125.238281 L 112.277344 131.183594 L 125.027344 131.183594 L 130.554688 136.703125 L 134.964844 136.703125 Z M 134.964844 137.460938 " fill-opacity="1" fill-rule="nonzero"/><path fill="#231f20" d="M 130.605469 146.191406 L 125.464844 141.054688 L 119.882812 141.054688 L 115.625 136.804688 L 111.660156 136.804688 L 111.546875 136.691406 L 102.292969 127.449219 L 102.292969 112.617188 L 103.050781 112.617188 L 103.050781 127.136719 L 111.972656 136.046875 L 115.9375 136.046875 L 120.199219 140.296875 L 125.777344 140.296875 L 131.144531 145.65625 Z M 130.605469 146.191406 " fill-opacity="1" fill-rule="nonzero"/><path fill="#231f20" d="M 113.414062 156.070312 L 112.65625 156.070312 L 112.65625 148.492188 L 108.5 144.34375 L 108.5 138.757812 L 99.183594 129.457031 L 99.183594 113.53125 L 99.941406 113.53125 L 99.941406 129.140625 L 109.261719 138.445312 L 109.261719 144.03125 L 113.414062 148.179688 Z M 113.414062 156.070312 " fill-opacity="1" fill-rule="nonzero"/><path fill="#231f20" d="M 108.367188 163.847656 L 107.609375 163.847656 L 107.609375 150.96875 L 104.714844 148.078125 L 104.714844 140.757812 L 95.890625 131.949219 L 95.984375 113.527344 L 96.746094 113.53125 L 96.648438 131.636719 L 105.472656 140.445312 L 105.472656 147.765625 L 108.367188 150.65625 Z M 108.367188 163.847656 " fill-opacity="1" fill-rule="nonzero"/><path fill="#231f20" d="M 92.773438 113.53125 L 93.53125 113.53125 L 93.53125 133.34375 L 92.773438 133.34375 Z M 92.773438 113.53125 " fill-opacity="1" fill-rule="nonzero"/><path fill="#231f20" d="M 95.136719 149.988281 L 94.378906 149.988281 L 94.378906 147.234375 L 89.613281 142.476562 L 89.613281 113.53125 L 90.371094 113.53125 L 90.371094 142.160156 L 95.136719 146.917969 Z M 95.136719 149.988281 " fill-opacity="1" fill-rule="nonzero"/><path fill="#231f20" d="M 84.71875 154.035156 L 81.714844 151.035156 L 81.714844 147.179688 L 86.273438 142.628906 L 86.273438 114.574219 L 87.03125 114.574219 L 87.03125 142.941406 L 82.472656 147.492188 L 82.472656 150.722656 L 85.253906 153.5 Z M 84.71875 154.035156 " fill-opacity="1" fill-rule="nonzero"/><path fill="#231f20" d="M 82.746094 163.847656 L 81.988281 163.847656 L 81.988281 155.921875 L 76.765625 150.707031 L 76.765625 139.835938 L 83.183594 133.425781 L 83.183594 113.792969 L 83.945312 113.792969 L 83.945312 133.742188 L 77.527344 140.148438 L 77.527344 150.394531 L 82.746094 155.609375 Z M 82.746094 163.847656 " fill-opacity="1" fill-rule="nonzero"/><path fill="#231f20" d="M 75.632812 156.339844 L 72.582031 153.292969 L 72.582031 136.359375 L 79.949219 129.003906 L 79.949219 113.53125 L 80.707031 113.53125 L 80.707031 129.320312 L 73.34375 136.671875 L 73.34375 152.980469 L 76.167969 155.800781 Z M 75.632812 156.339844 " fill-opacity="1" fill-rule="nonzero"/><path fill="#231f20" d="M 64.804688 145.214844 L 64.265625 144.679688 L 68.640625 140.308594 L 68.640625 133.511719 L 76.691406 125.476562 L 76.691406 114.898438 L 77.449219 114.898438 L 77.449219 125.789062 L 69.402344 133.828125 L 69.402344 140.621094 Z M 64.804688 145.214844 " fill-opacity="1" fill-rule="nonzero"/><path fill="#231f20" d="M 45.578125 145 L 42.550781 145 L 42.550781 144.242188 L 45.265625 144.242188 L 48.304688 141.203125 L 48.304688 134.011719 L 53.738281 128.589844 L 67.585938 128.589844 L 73.464844 122.722656 L 73.464844 113.792969 L 74.222656 113.792969 L 74.222656 123.035156 L 67.902344 129.347656 L 54.054688 129.347656 L 49.066406 134.328125 L 49.066406 141.519531 Z M 45.578125 145 " fill-opacity="1" fill-rule="nonzero"/><path fill="#231f20" d="M 67.527344 124.339844 L 64.269531 124.339844 L 64.269531 123.582031 L 67.214844 123.582031 L 70.308594 120.492188 L 70.308594 113.992188 L 71.066406 113.992188 L 71.066406 120.804688 Z M 67.527344 124.339844 " fill-opacity="1" fill-rule="nonzero"/><path fill="#231f20" d="M 137.621094 127.253906 C 137.621094 127.601562 137.554688 127.933594 137.421875 128.253906 C 137.289062 128.574219 137.101562 128.855469 136.855469 129.097656 C 136.609375 129.34375 136.328125 129.53125 136.007812 129.664062 C 135.6875 129.796875 135.355469 129.863281 135.007812 129.863281 C 134.664062 129.863281 134.332031 129.796875 134.011719 129.664062 C 133.691406 129.53125 133.40625 129.34375 133.164062 129.097656 C 132.917969 128.855469 132.730469 128.574219 132.597656 128.253906 C 132.464844 127.933594 132.398438 127.601562 132.398438 127.253906 C 132.398438 126.910156 132.464844 126.578125 132.597656 126.257812 C 132.730469 125.9375 132.917969 125.65625 133.164062 125.410156 C 133.40625 125.167969 133.691406 124.980469 134.011719 124.847656 C 134.332031 124.714844 134.664062 124.648438 135.007812 124.648438 C 135.355469 124.648438 135.6875 124.714844 136.007812 124.847656 C 136.328125 124.980469 136.609375 125.167969 136.855469 125.410156 C 137.101562 125.65625 137.289062 125.9375 137.421875 126.257812 C 137.554688 126.578125 137.621094 126.910156 137.621094 127.253906 Z M 137.621094 127.253906 " fill-opacity="1" fill-rule="nonzero"/><path fill="#231f20" d="M 137.578125 137.082031 C 137.578125 137.425781 137.511719 137.761719 137.378906 138.078125 C 137.246094 138.398438 137.058594 138.679688 136.8125 138.925781 C 136.566406 139.167969 136.285156 139.359375 135.964844 139.492188 C 135.644531 139.621094 135.3125 139.6875 134.964844 139.6875 C 134.621094 139.6875 134.289062 139.621094 133.96875 139.492188 C 133.648438 139.359375 133.363281 139.167969 133.121094 138.925781 C 132.875 138.679688 132.6875 138.398438 132.554688 138.078125 C 132.421875 137.761719 132.355469 137.425781 132.355469 137.082031 C 132.355469 136.734375 132.421875 136.402344 132.554688 136.082031 C 132.6875 135.765625 132.875 135.484375 133.121094 135.238281 C 133.363281 134.992188 133.648438 134.804688 133.96875 134.671875 C 134.289062 134.539062 134.621094 134.472656 134.964844 134.472656 C 135.3125 134.472656 135.644531 134.539062 135.964844 134.671875 C 136.285156 134.804688 136.566406 134.992188 136.8125 135.238281 C 137.058594 135.484375 137.246094 135.765625 137.378906 136.082031 C 137.511719 136.402344 137.578125 136.734375 137.578125 137.082031 Z M 137.578125 137.082031 " fill-opacity="1" fill-rule="nonzero"/><path fill="#231f20" d="M 133.488281 145.726562 C 133.488281 146.074219 133.421875 146.40625 133.289062 146.726562 C 133.15625 147.046875 132.96875 147.328125 132.722656 147.570312 C 132.476562 147.816406 132.195312 148.003906 131.875 148.136719 C 131.554688 148.269531 131.222656 148.335938 130.875 148.335938 C 130.53125 148.335938 130.195312 148.269531 129.878906 148.136719 C 129.558594 148.003906 129.273438 147.816406 129.03125 147.570312 C 128.785156 147.328125 128.597656 147.046875 128.464844 146.726562 C 128.332031 146.40625 128.265625 146.074219 128.265625 145.726562 C 128.265625 145.382812 128.332031 145.050781 128.464844 144.730469 C 128.597656 144.410156 128.785156 144.128906 129.03125 143.886719 C 129.273438 143.640625 129.558594 143.453125 129.878906 143.320312 C 130.195312 143.1875 130.53125 143.121094 130.875 143.121094 C 131.222656 143.121094 131.554688 143.1875 131.875 143.320312 C 132.195312 143.453125 132.476562 143.640625 132.722656 143.886719 C 132.96875 144.128906 133.15625 144.410156 133.289062 144.730469 C 133.421875 145.050781 133.488281 145.382812 133.488281 145.726562 Z M 133.488281 145.726562 " fill-opacity="1" fill-rule="nonzero"/><path fill="#231f20" d="M 115.644531 156.070312 C 115.644531 156.417969 115.578125 156.75 115.445312 157.066406 C 115.3125 157.386719 115.125 157.667969 114.878906 157.914062 C 114.636719 158.160156 114.351562 158.347656 114.035156 158.480469 C 113.714844 158.613281 113.378906 158.679688 113.035156 158.679688 C 112.6875 158.679688 112.355469 158.613281 112.035156 158.480469 C 111.714844 158.347656 111.433594 158.160156 111.1875 157.914062 C 110.941406 157.667969 110.753906 157.386719 110.621094 157.066406 C 110.488281 156.75 110.421875 156.417969 110.421875 156.070312 C 110.421875 155.726562 110.488281 155.390625 110.621094 155.074219 C 110.753906 154.753906 110.941406 154.472656 111.1875 154.226562 C 111.433594 153.980469 111.714844 153.792969 112.035156 153.660156 C 112.355469 153.53125 112.6875 153.464844 113.035156 153.464844 C 113.378906 153.464844 113.714844 153.53125 114.035156 153.660156 C 114.351562 153.792969 114.636719 153.980469 114.878906 154.226562 C 115.125 154.472656 115.3125 154.753906 115.445312 155.074219 C 115.578125 155.390625 115.644531 155.726562 115.644531 156.070312 Z M 115.644531 156.070312 " fill-opacity="1" fill-rule="nonzero"/><g clip-path="url(#fc6a16e7bd)"><path fill="#231f20" d="M 110.597656 163.847656 C 110.597656 164.195312 110.53125 164.527344 110.398438 164.847656 C 110.265625 165.164062 110.078125 165.445312 109.832031 165.691406 C 109.589844 165.9375 109.304688 166.125 108.984375 166.257812 C 108.664062 166.390625 108.332031 166.457031 107.988281 166.457031 C 107.640625 166.457031 107.308594 166.390625 106.988281 166.257812 C 106.667969 166.125 106.386719 165.9375 106.140625 165.691406 C 105.894531 165.445312 105.707031 165.164062 105.574219 164.847656 C 105.441406 164.527344 105.375 164.195312 105.375 163.847656 C 105.375 163.503906 105.441406 163.167969 105.574219 162.851562 C 105.707031 162.53125 105.894531 162.25 106.140625 162.003906 C 106.386719 161.761719 106.667969 161.570312 106.988281 161.4375 C 107.308594 161.308594 107.640625 161.242188 107.988281 161.242188 C 108.332031 161.242188 108.664062 161.308594 108.984375 161.4375 C 109.304688 161.570312 109.589844 161.761719 109.832031 162.003906 C 110.078125 162.25 110.265625 162.53125 110.398438 162.851562 C 110.53125 163.167969 110.597656 163.503906 110.597656 163.847656 Z M 110.597656 163.847656 " fill-opacity="1" fill-rule="nonzero"/></g><path fill="#231f20" d="M 97.597656 149.988281 C 97.597656 150.332031 97.53125 150.664062 97.398438 150.984375 C 97.265625 151.304688 97.078125 151.585938 96.832031 151.832031 C 96.585938 152.074219 96.304688 152.265625 95.984375 152.394531 C 95.664062 152.527344 95.332031 152.59375 94.988281 152.59375 C 94.640625 152.59375 94.308594 152.527344 93.988281 152.394531 C 93.667969 152.265625 93.386719 152.074219 93.140625 151.832031 C 92.894531 151.585938 92.707031 151.304688 92.574219 150.984375 C 92.441406 150.664062 92.375 150.332031 92.375 149.988281 C 92.375 149.640625 92.441406 149.308594 92.574219 148.988281 C 92.707031 148.671875 92.894531 148.386719 93.140625 148.144531 C 93.386719 147.898438 93.667969 147.710938 93.988281 147.578125 C 94.308594 147.445312 94.640625 147.378906 94.988281 147.378906 C 95.332031 147.378906 95.664062 147.445312 95.984375 147.578125 C 96.304688 147.710938 96.585938 147.898438 96.832031 148.144531 C 97.078125 148.386719 97.265625 148.671875 97.398438 148.988281 C 97.53125 149.308594 97.597656 149.640625 97.597656 149.988281 Z M 97.597656 149.988281 " fill-opacity="1" fill-rule="nonzero"/><path fill="#231f20" d="M 95.335938 132.519531 C 95.335938 132.808594 95.277344 133.085938 95.167969 133.355469 C 95.058594 133.621094 94.898438 133.859375 94.695312 134.0625 C 94.488281 134.265625 94.253906 134.425781 93.984375 134.535156 C 93.71875 134.644531 93.441406 134.699219 93.152344 134.699219 C 92.859375 134.699219 92.582031 134.644531 92.316406 134.535156 C 92.046875 134.425781 91.8125 134.265625 91.605469 134.0625 C 91.402344 133.859375 91.246094 133.621094 91.132812 133.355469 C 91.023438 133.085938 90.96875 132.808594 90.96875 132.519531 C 90.96875 132.230469 91.023438 131.953125 91.132812 131.6875 C 91.246094 131.417969 91.402344 131.183594 91.605469 130.980469 C 91.8125 130.773438 92.046875 130.617188 92.316406 130.507812 C 92.582031 130.394531 92.859375 130.339844 93.152344 130.339844 C 93.441406 130.339844 93.71875 130.394531 93.984375 130.507812 C 94.253906 130.617188 94.488281 130.773438 94.695312 130.980469 C 94.898438 131.183594 95.058594 131.417969 95.167969 131.6875 C 95.277344 131.953125 95.335938 132.230469 95.335938 132.519531 Z M 95.335938 132.519531 " fill-opacity="1" fill-rule="nonzero"/><g clip-path="url(#ec6a1e01fa)"><path fill="#231f20" d="M 85.066406 163.847656 C 85.066406 164.195312 85 164.527344 84.867188 164.847656 C 84.734375 165.164062 84.546875 165.445312 84.300781 165.691406 C 84.054688 165.9375 83.773438 166.125 83.453125 166.257812 C 83.132812 166.390625 82.800781 166.457031 82.453125 166.457031 C 82.109375 166.457031 81.773438 166.390625 81.453125 166.257812 C 81.132812 166.125 80.851562 165.9375 80.609375 165.691406 C 80.363281 165.445312 80.175781 165.164062 80.042969 164.847656 C 79.910156 164.527344 79.84375 164.195312 79.84375 163.847656 C 79.84375 163.503906 79.910156 163.167969 80.042969 162.851562 C 80.175781 162.53125 80.363281 162.25 80.609375 162.003906 C 80.851562 161.761719 81.132812 161.570312 81.453125 161.4375 C 81.773438 161.308594 82.109375 161.242188 82.453125 161.242188 C 82.800781 161.242188 83.132812 161.308594 83.453125 161.4375 C 83.773438 161.570312 84.054688 161.761719 84.300781 162.003906 C 84.546875 162.25 84.734375 162.53125 84.867188 162.851562 C 85 163.167969 85.066406 163.503906 85.066406 163.847656 Z M 85.066406 163.847656 " fill-opacity="1" fill-rule="nonzero"/></g><path fill="#231f20" d="M 78.363281 156.070312 C 78.363281 156.417969 78.296875 156.75 78.164062 157.066406 C 78.03125 157.386719 77.84375 157.667969 77.597656 157.914062 C 77.355469 158.160156 77.070312 158.347656 76.75 158.480469 C 76.429688 158.613281 76.097656 158.679688 75.753906 158.679688 C 75.40625 158.679688 75.074219 158.613281 74.753906 158.480469 C 74.433594 158.347656 74.152344 158.160156 73.90625 157.914062 C 73.660156 157.667969 73.472656 157.386719 73.339844 157.066406 C 73.207031 156.75 73.140625 156.417969 73.140625 156.070312 C 73.140625 155.726562 73.207031 155.390625 73.339844 155.074219 C 73.472656 154.753906 73.660156 154.472656 73.90625 154.226562 C 74.152344 153.980469 74.433594 153.792969 74.753906 153.660156 C 75.074219 153.53125 75.40625 153.464844 75.753906 153.464844 C 76.097656 153.464844 76.429688 153.53125 76.75 153.660156 C 77.070312 153.792969 77.355469 153.980469 77.597656 154.226562 C 77.84375 154.472656 78.03125 154.753906 78.164062 155.074219 C 78.296875 155.390625 78.363281 155.726562 78.363281 156.070312 Z M 78.363281 156.070312 " fill-opacity="1" fill-rule="nonzero"/><path fill="#231f20" d="M 67.355469 144.945312 C 67.355469 145.292969 67.289062 145.625 67.15625 145.945312 C 67.023438 146.261719 66.832031 146.546875 66.589844 146.789062 C 66.34375 147.035156 66.0625 147.222656 65.742188 147.355469 C 65.421875 147.488281 65.089844 147.554688 64.742188 147.554688 C 64.398438 147.554688 64.0625 147.488281 63.742188 147.355469 C 63.421875 147.222656 63.140625 147.035156 62.894531 146.789062 C 62.652344 146.546875 62.464844 146.261719 62.332031 145.945312 C 62.199219 145.625 62.132812 145.292969 62.132812 144.945312 C 62.132812 144.601562 62.199219 144.269531 62.332031 143.949219 C 62.464844 143.628906 62.652344 143.347656 62.894531 143.101562 C 63.140625 142.859375 63.421875 142.667969 63.742188 142.539062 C 64.0625 142.40625 64.398438 142.339844 64.742188 142.339844 C 65.089844 142.339844 65.421875 142.40625 65.742188 142.539062 C 66.0625 142.667969 66.34375 142.859375 66.589844 143.101562 C 66.832031 143.347656 67.023438 143.628906 67.15625 143.949219 C 67.289062 144.269531 67.355469 144.601562 67.355469 144.945312 Z M 67.355469 144.945312 " fill-opacity="1" fill-rule="nonzero"/><path fill="#231f20" d="M 45.554688 144.484375 C 45.554688 144.828125 45.488281 145.164062 45.355469 145.480469 C 45.222656 145.800781 45.03125 146.082031 44.789062 146.328125 C 44.542969 146.570312 44.261719 146.761719 43.941406 146.894531 C 43.621094 147.023438 43.289062 147.089844 42.941406 147.089844 C 42.597656 147.089844 42.261719 147.023438 41.941406 146.894531 C 41.621094 146.761719 41.339844 146.570312 41.09375 146.328125 C 40.851562 146.082031 40.664062 145.800781 40.53125 145.480469 C 40.398438 145.164062 40.332031 144.828125 40.332031 144.484375 C 40.332031 144.136719 40.398438 143.804688 40.53125 143.488281 C 40.664062 143.167969 40.851562 142.886719 41.09375 142.640625 C 41.339844 142.394531 41.621094 142.207031 41.941406 142.074219 C 42.261719 141.941406 42.597656 141.875 42.941406 141.875 C 43.289062 141.875 43.621094 141.941406 43.941406 142.074219 C 44.261719 142.207031 44.542969 142.394531 44.789062 142.640625 C 45.03125 142.886719 45.222656 143.167969 45.355469 143.488281 C 45.488281 143.804688 45.554688 144.136719 45.554688 144.484375 Z M 45.554688 144.484375 " fill-opacity="1" fill-rule="nonzero"/><path fill="#231f20" d="M 66.878906 123.957031 C 66.878906 124.304688 66.8125 124.636719 66.679688 124.957031 C 66.546875 125.277344 66.359375 125.558594 66.113281 125.800781 C 65.871094 126.046875 65.585938 126.234375 65.265625 126.367188 C 64.945312 126.5 64.613281 126.566406 64.269531 126.566406 C 63.921875 126.566406 63.589844 126.5 63.269531 126.367188 C 62.949219 126.234375 62.667969 126.046875 62.421875 125.800781 C 62.175781 125.558594 61.988281 125.277344 61.855469 124.957031 C 61.722656 124.636719 61.65625 124.304688 61.65625 123.957031 C 61.65625 123.613281 61.722656 123.28125 61.855469 122.960938 C 61.988281 122.640625 62.175781 122.359375 62.421875 122.113281 C 62.667969 121.871094 62.949219 121.683594 63.269531 121.550781 C 63.589844 121.417969 63.921875 121.351562 64.269531 121.351562 C 64.613281 121.351562 64.945312 121.417969 65.265625 121.550781 C 65.585938 121.683594 65.871094 121.871094 66.113281 122.113281 C 66.359375 122.359375 66.546875 122.640625 66.679688 122.960938 C 66.8125 123.28125 66.878906 123.613281 66.878906 123.957031 Z M 66.878906 123.957031 " fill-opacity="1" fill-rule="nonzero"/><path fill="#231f20" d="M 87.160156 153.464844 C 87.160156 153.777344 87.101562 154.074219 86.980469 154.363281 C 86.863281 154.652344 86.691406 154.90625 86.472656 155.128906 C 86.25 155.347656 85.996094 155.519531 85.707031 155.636719 C 85.417969 155.757812 85.117188 155.816406 84.804688 155.816406 C 84.492188 155.816406 84.191406 155.757812 83.902344 155.636719 C 83.613281 155.519531 83.359375 155.347656 83.136719 155.128906 C 82.914062 154.90625 82.746094 154.652344 82.625 154.363281 C 82.503906 154.074219 82.445312 153.777344 82.445312 153.464844 C 82.445312 153.152344 82.503906 152.851562 82.625 152.5625 C 82.746094 152.273438 82.914062 152.019531 83.136719 151.796875 C 83.359375 151.578125 83.613281 151.40625 83.902344 151.289062 C 84.191406 151.167969 84.492188 151.109375 84.804688 151.109375 C 85.117188 151.109375 85.417969 151.167969 85.707031 151.289062 C 85.996094 151.40625 86.25 151.578125 86.472656 151.796875 C 86.691406 152.019531 86.863281 152.273438 86.980469 152.5625 C 87.101562 152.851562 87.160156 153.152344 87.160156 153.464844 Z M 87.160156 153.464844 " fill-opacity="1" fill-rule="nonzero"/><path fill="#231f20" d="M 116.300781 62.765625 L 124.101562 62.765625 L 124.101562 65.53125 L 116.300781 65.53125 Z M 116.300781 62.765625 " fill-opacity="1" fill-rule="nonzero"/><path fill="#231f20" d="M 116.300781 65.980469 L 124.101562 65.980469 L 124.101562 68.746094 L 116.300781 68.746094 Z M 116.300781 65.980469 " fill-opacity="1" fill-rule="nonzero"/><path fill="#231f20" d="M 116.300781 69.195312 L 124.101562 69.195312 L 124.101562 71.960938 L 116.300781 71.960938 Z M 116.300781 69.195312 " fill-opacity="1" fill-rule="nonzero"/><path fill="#231f20" d="M 116.300781 72.410156 L 124.101562 72.410156 L 124.101562 75.175781 L 116.300781 75.175781 Z M 116.300781 72.410156 " fill-opacity="1" fill-rule="nonzero"/><path fill="#231f20" d="M 116.300781 75.628906 L 124.101562 75.628906 L 124.101562 78.394531 L 116.300781 78.394531 Z M 116.300781 75.628906 " fill-opacity="1" fill-rule="nonzero"/><path fill="#231f20" d="M 116.300781 78.84375 L 124.101562 78.84375 L 124.101562 81.609375 L 116.300781 81.609375 Z M 116.300781 78.84375 " fill-opacity="1" fill-rule="nonzero"/><path fill="#231f20" d="M 116.300781 82.058594 L 124.101562 82.058594 L 124.101562 84.824219 L 116.300781 84.824219 Z M 116.300781 82.058594 " fill-opacity="1" fill-rule="nonzero"/><path fill="#231f20" d="M 116.300781 85.273438 L 124.101562 85.273438 L 124.101562 88.039062 L 116.300781 88.039062 Z M 116.300781 85.273438 " fill-opacity="1" fill-rule="nonzero"/><path fill="#231f20" d="M 116.300781 88.488281 L 124.101562 88.488281 L 124.101562 91.253906 L 116.300781 91.253906 Z M 116.300781 88.488281 " fill-opacity="1" fill-rule="nonzero"/><path fill="#231f20" d="M 116.300781 91.703125 L 124.101562 91.703125 L 124.101562 94.472656 L 116.300781 94.472656 Z M 116.300781 91.703125 " fill-opacity="1" fill-rule="nonzero"/><path fill="#231f20" d="M 116.300781 94.917969 L 124.101562 94.917969 L 124.101562 97.6875 L 116.300781 97.6875 Z M 116.300781 94.917969 " fill-opacity="1" fill-rule="nonzero"/><path fill="#231f20" d="M 116.300781 98.136719 L 124.101562 98.136719 L 124.101562 100.902344 L 116.300781 100.902344 Z M 116.300781 98.136719 " fill-opacity="1" fill-rule="nonzero"/><path fill="#231f20" d="M 116.300781 101.351562 L 124.101562 101.351562 L 124.101562 104.117188 L 116.300781 104.117188 Z M 116.300781 101.351562 " fill-opacity="1" fill-rule="nonzero"/><path fill="#231f20" d="M 132 64.527344 L 120.429688 64.527344 L 120.429688 63.769531 L 131.6875 63.769531 L 135.988281 59.472656 L 135.988281 54.3125 L 134.53125 52.859375 L 134.53125 38.472656 L 135.289062 38.472656 L 135.289062 52.546875 L 136.746094 54 L 136.746094 59.789062 Z M 132 64.527344 " fill-opacity="1" fill-rule="nonzero"/><path fill="#231f20" d="M 133.152344 67.832031 L 119.898438 67.832031 L 119.898438 67.074219 L 132.839844 67.074219 L 138.792969 61.125 L 138.792969 48.394531 L 144.320312 42.875 L 144.320312 38.472656 L 145.078125 38.472656 L 145.078125 43.191406 L 139.554688 48.710938 L 139.554688 61.441406 Z M 133.152344 67.832031 " fill-opacity="1" fill-rule="nonzero"/><path fill="#231f20" d="M 135.054688 71.097656 L 120.203125 71.097656 L 120.203125 70.339844 L 134.738281 70.339844 L 143.664062 61.429688 L 143.664062 57.472656 L 147.921875 53.21875 L 147.921875 47.644531 L 153.289062 42.289062 L 153.824219 42.824219 L 148.679688 47.960938 L 148.679688 53.53125 L 144.421875 57.785156 L 144.421875 61.742188 Z M 135.054688 71.097656 " fill-opacity="1" fill-rule="nonzero"/><path fill="#231f20" d="M 137.0625 74.203125 L 121.113281 74.203125 L 121.113281 73.441406 L 136.75 73.441406 L 146.066406 64.140625 L 151.660156 64.140625 L 155.8125 59.992188 L 163.714844 59.992188 L 163.714844 60.75 L 156.128906 60.75 L 151.972656 64.898438 L 146.382812 64.898438 Z M 137.0625 74.203125 " fill-opacity="1" fill-rule="nonzero"/><path fill="#231f20" d="M 139.558594 77.492188 L 121.113281 77.394531 L 121.117188 76.636719 L 139.246094 76.730469 L 148.066406 67.921875 L 155.402344 67.921875 L 158.292969 65.03125 L 171.507812 65.03125 L 171.507812 65.789062 L 158.609375 65.789062 L 155.714844 68.679688 L 148.382812 68.679688 Z M 139.558594 77.492188 " fill-opacity="1" fill-rule="nonzero"/><path fill="#231f20" d="M 121.113281 79.847656 L 140.957031 79.847656 L 140.957031 80.605469 L 121.113281 80.605469 Z M 121.113281 79.847656 " fill-opacity="1" fill-rule="nonzero"/><path fill="#231f20" d="M 150.101562 83.757812 L 121.113281 83.757812 L 121.113281 83 L 149.785156 83 L 154.550781 78.242188 L 157.625 78.242188 L 157.625 79 L 154.867188 79 Z M 150.101562 83.757812 " fill-opacity="1" fill-rule="nonzero"/><path fill="#231f20" d="M 158.675781 91.644531 L 154.8125 91.644531 L 150.253906 87.09375 L 122.160156 87.09375 L 122.160156 86.335938 L 150.570312 86.335938 L 155.128906 90.886719 L 158.359375 90.886719 L 161.140625 88.109375 L 161.679688 88.644531 Z M 158.675781 91.644531 " fill-opacity="1" fill-rule="nonzero"/><path fill="#231f20" d="M 158.347656 96.585938 L 147.457031 96.585938 L 141.039062 90.175781 L 121.375 90.175781 L 121.375 89.417969 L 141.355469 89.417969 L 147.773438 95.828125 L 158.03125 95.828125 L 163.253906 90.613281 L 171.507812 90.613281 L 171.507812 91.371094 L 163.570312 91.371094 Z M 158.347656 96.585938 " fill-opacity="1" fill-rule="nonzero"/><path fill="#231f20" d="M 160.9375 100.761719 L 143.976562 100.761719 L 136.613281 93.410156 L 121.113281 93.410156 L 121.113281 92.652344 L 136.925781 92.652344 L 144.292969 100.003906 L 160.621094 100.003906 L 163.449219 97.183594 L 163.984375 97.71875 Z M 160.9375 100.761719 " fill-opacity="1" fill-rule="nonzero"/><path fill="#231f20" d="M 152.308594 109.066406 L 147.933594 104.699219 L 141.128906 104.699219 L 141.015625 104.585938 L 133.078125 96.660156 L 122.484375 96.660156 L 122.484375 95.902344 L 133.390625 95.902344 L 133.503906 96.015625 L 141.441406 103.941406 L 148.246094 103.941406 L 152.84375 108.53125 Z M 152.308594 109.066406 " fill-opacity="1" fill-rule="nonzero"/><path fill="#231f20" d="M 152.628906 130.753906 L 151.871094 130.753906 L 151.871094 128.042969 L 148.828125 125.003906 L 141.628906 125.003906 L 136.195312 119.578125 L 136.195312 105.75 L 130.320312 99.882812 L 121.375 99.882812 L 121.375 99.125 L 130.632812 99.125 L 136.953125 105.4375 L 136.953125 119.265625 L 141.941406 124.246094 L 149.144531 124.246094 L 152.628906 127.726562 Z M 152.628906 130.753906 " fill-opacity="1" fill-rule="nonzero"/><path fill="#231f20" d="M 131.9375 109.066406 L 131.179688 109.066406 L 131.179688 106.125 L 128.085938 103.035156 L 121.578125 103.035156 L 121.578125 102.277344 L 128.398438 102.277344 L 131.9375 105.808594 Z M 131.9375 109.066406 " fill-opacity="1" fill-rule="nonzero"/><path fill="#231f20" d="M 137.472656 38.425781 C 137.472656 38.773438 137.40625 39.105469 137.273438 39.425781 C 137.140625 39.746094 136.953125 40.027344 136.707031 40.269531 C 136.460938 40.515625 136.179688 40.703125 135.859375 40.835938 C 135.539062 40.96875 135.207031 41.035156 134.859375 41.035156 C 134.515625 41.035156 134.179688 40.96875 133.859375 40.835938 C 133.539062 40.703125 133.257812 40.515625 133.015625 40.269531 C 132.769531 40.027344 132.582031 39.746094 132.449219 39.425781 C 132.316406 39.105469 132.25 38.773438 132.25 38.425781 C 132.25 38.082031 132.316406 37.75 132.449219 37.429688 C 132.582031 37.109375 132.769531 36.828125 133.015625 36.582031 C 133.257812 36.339844 133.539062 36.152344 133.859375 36.019531 C 134.179688 35.886719 134.515625 35.820312 134.859375 35.820312 C 135.207031 35.820312 135.539062 35.886719 135.859375 36.019531 C 136.179688 36.152344 136.460938 36.339844 136.707031 36.582031 C 136.953125 36.828125 137.140625 37.109375 137.273438 37.429688 C 137.40625 37.75 137.472656 38.082031 137.472656 38.425781 Z M 137.472656 38.425781 " fill-opacity="1" fill-rule="nonzero"/><path fill="#231f20" d="M 147.3125 38.472656 C 147.3125 38.816406 147.246094 39.148438 147.113281 39.46875 C 146.980469 39.789062 146.792969 40.070312 146.546875 40.3125 C 146.300781 40.558594 146.019531 40.746094 145.699219 40.878906 C 145.378906 41.011719 145.046875 41.078125 144.699219 41.078125 C 144.355469 41.078125 144.019531 41.011719 143.703125 40.878906 C 143.382812 40.746094 143.097656 40.558594 142.855469 40.3125 C 142.609375 40.070312 142.421875 39.789062 142.289062 39.46875 C 142.15625 39.148438 142.089844 38.816406 142.089844 38.472656 C 142.089844 38.125 142.15625 37.792969 142.289062 37.472656 C 142.421875 37.152344 142.609375 36.871094 142.855469 36.628906 C 143.097656 36.382812 143.382812 36.195312 143.703125 36.0625 C 144.019531 35.929688 144.355469 35.863281 144.699219 35.863281 C 145.046875 35.863281 145.378906 35.929688 145.699219 36.0625 C 146.019531 36.195312 146.300781 36.382812 146.546875 36.628906 C 146.792969 36.871094 146.980469 37.152344 147.113281 37.472656 C 147.246094 37.792969 147.3125 38.125 147.3125 38.472656 Z M 147.3125 38.472656 " fill-opacity="1" fill-rule="nonzero"/><path fill="#231f20" d="M 155.972656 42.554688 C 155.972656 42.902344 155.90625 43.234375 155.773438 43.554688 C 155.640625 43.871094 155.453125 44.15625 155.207031 44.398438 C 154.960938 44.644531 154.679688 44.832031 154.359375 44.964844 C 154.039062 45.097656 153.707031 45.164062 153.359375 45.164062 C 153.015625 45.164062 152.679688 45.097656 152.359375 44.964844 C 152.042969 44.832031 151.757812 44.644531 151.515625 44.398438 C 151.269531 44.15625 151.082031 43.871094 150.949219 43.554688 C 150.816406 43.234375 150.75 42.902344 150.75 42.554688 C 150.75 42.210938 150.816406 41.875 150.949219 41.558594 C 151.082031 41.238281 151.269531 40.957031 151.515625 40.710938 C 151.757812 40.46875 152.042969 40.277344 152.359375 40.144531 C 152.679688 40.015625 153.015625 39.949219 153.359375 39.949219 C 153.707031 39.949219 154.039062 40.015625 154.359375 40.144531 C 154.679688 40.277344 154.960938 40.46875 155.207031 40.710938 C 155.453125 40.957031 155.640625 41.238281 155.773438 41.558594 C 155.90625 41.875 155.972656 42.210938 155.972656 42.554688 Z M 155.972656 42.554688 " fill-opacity="1" fill-rule="nonzero"/><path fill="#231f20" d="M 166.328125 60.371094 C 166.328125 60.71875 166.261719 61.050781 166.128906 61.367188 C 165.996094 61.6875 165.808594 61.96875 165.5625 62.214844 C 165.316406 62.460938 165.035156 62.648438 164.714844 62.78125 C 164.394531 62.914062 164.0625 62.976562 163.714844 62.976562 C 163.371094 62.976562 163.039062 62.914062 162.71875 62.78125 C 162.398438 62.648438 162.113281 62.460938 161.871094 62.214844 C 161.625 61.96875 161.4375 61.6875 161.304688 61.367188 C 161.171875 61.050781 161.105469 60.71875 161.105469 60.371094 C 161.105469 60.027344 161.171875 59.691406 161.304688 59.375 C 161.4375 59.054688 161.625 58.773438 161.871094 58.527344 C 162.113281 58.28125 162.398438 58.09375 162.71875 57.960938 C 163.039062 57.828125 163.371094 57.765625 163.714844 57.765625 C 164.0625 57.765625 164.394531 57.828125 164.714844 57.960938 C 165.035156 58.09375 165.316406 58.28125 165.5625 58.527344 C 165.808594 58.773438 165.996094 59.054688 166.128906 59.375 C 166.261719 59.691406 166.328125 60.027344 166.328125 60.371094 Z M 166.328125 60.371094 " fill-opacity="1" fill-rule="nonzero"/><g clip-path="url(#944160f3e7)"><path fill="#231f20" d="M 174.117188 65.410156 C 174.117188 65.757812 174.050781 66.089844 173.917969 66.410156 C 173.785156 66.730469 173.597656 67.011719 173.351562 67.253906 C 173.109375 67.5 172.824219 67.6875 172.503906 67.820312 C 172.183594 67.953125 171.851562 68.019531 171.507812 68.019531 C 171.160156 68.019531 170.828125 67.953125 170.507812 67.820312 C 170.1875 67.6875 169.90625 67.5 169.660156 67.253906 C 169.414062 67.011719 169.226562 66.730469 169.09375 66.410156 C 168.960938 66.089844 168.894531 65.757812 168.894531 65.410156 C 168.894531 65.066406 168.960938 64.734375 169.09375 64.414062 C 169.226562 64.09375 169.414062 63.8125 169.660156 63.566406 C 169.90625 63.324219 170.1875 63.136719 170.507812 63.003906 C 170.828125 62.871094 171.160156 62.804688 171.507812 62.804688 C 171.851562 62.804688 172.183594 62.871094 172.503906 63.003906 C 172.824219 63.136719 173.109375 63.324219 173.351562 63.566406 C 173.597656 63.8125 173.785156 64.09375 173.917969 64.414062 C 174.050781 64.734375 174.117188 65.066406 174.117188 65.410156 Z M 174.117188 65.410156 " fill-opacity="1" fill-rule="nonzero"/></g><path fill="#231f20" d="M 160.234375 78.394531 C 160.234375 78.738281 160.167969 79.070312 160.035156 79.390625 C 159.90625 79.710938 159.714844 79.992188 159.472656 80.238281 C 159.226562 80.480469 158.945312 80.667969 158.625 80.800781 C 158.304688 80.933594 157.972656 81 157.625 81 C 157.277344 81 156.945312 80.933594 156.625 80.800781 C 156.304688 80.667969 156.023438 80.480469 155.777344 80.238281 C 155.535156 79.992188 155.34375 79.710938 155.210938 79.390625 C 155.078125 79.070312 155.011719 78.738281 155.011719 78.394531 C 155.011719 78.046875 155.078125 77.714844 155.210938 77.394531 C 155.34375 77.074219 155.535156 76.792969 155.777344 76.550781 C 156.023438 76.304688 156.304688 76.117188 156.625 75.984375 C 156.945312 75.851562 157.277344 75.785156 157.625 75.785156 C 157.972656 75.785156 158.304688 75.851562 158.625 75.984375 C 158.945312 76.117188 159.226562 76.304688 159.472656 76.550781 C 159.714844 76.792969 159.90625 77.074219 160.035156 77.394531 C 160.167969 77.714844 160.234375 78.046875 160.234375 78.394531 Z M 160.234375 78.394531 " fill-opacity="1" fill-rule="nonzero"/><path fill="#231f20" d="M 142.316406 80.226562 C 142.316406 80.515625 142.261719 80.792969 142.148438 81.058594 C 142.039062 81.328125 141.882812 81.5625 141.675781 81.765625 C 141.472656 81.972656 141.234375 82.128906 140.96875 82.238281 C 140.699219 82.351562 140.421875 82.40625 140.132812 82.40625 C 139.84375 82.40625 139.5625 82.351562 139.296875 82.238281 C 139.03125 82.128906 138.792969 81.972656 138.589844 81.765625 C 138.382812 81.5625 138.226562 81.328125 138.117188 81.058594 C 138.003906 80.792969 137.949219 80.515625 137.949219 80.226562 C 137.949219 79.9375 138.003906 79.660156 138.117188 79.390625 C 138.226562 79.125 138.382812 78.886719 138.589844 78.683594 C 138.792969 78.480469 139.03125 78.320312 139.296875 78.210938 C 139.5625 78.101562 139.84375 78.046875 140.132812 78.046875 C 140.421875 78.046875 140.699219 78.101562 140.96875 78.210938 C 141.234375 78.320312 141.472656 78.480469 141.675781 78.683594 C 141.882812 78.886719 142.039062 79.125 142.148438 79.390625 C 142.261719 79.660156 142.316406 79.9375 142.316406 80.226562 Z M 142.316406 80.226562 " fill-opacity="1" fill-rule="nonzero"/><g clip-path="url(#008fa46892)"><path fill="#231f20" d="M 174.117188 90.90625 C 174.117188 91.253906 174.050781 91.585938 173.917969 91.90625 C 173.785156 92.222656 173.597656 92.507812 173.351562 92.75 C 173.109375 92.996094 172.824219 93.183594 172.503906 93.316406 C 172.183594 93.449219 171.851562 93.515625 171.507812 93.515625 C 171.160156 93.515625 170.828125 93.449219 170.507812 93.316406 C 170.1875 93.183594 169.90625 92.996094 169.660156 92.75 C 169.414062 92.507812 169.226562 92.222656 169.09375 91.90625 C 168.960938 91.585938 168.894531 91.253906 168.894531 90.90625 C 168.894531 90.5625 168.960938 90.230469 169.09375 89.910156 C 169.226562 89.589844 169.414062 89.308594 169.660156 89.0625 C 169.90625 88.820312 170.1875 88.628906 170.507812 88.5 C 170.828125 88.367188 171.160156 88.300781 171.507812 88.300781 C 171.851562 88.300781 172.183594 88.367188 172.503906 88.5 C 172.824219 88.628906 173.109375 88.820312 173.351562 89.0625 C 173.597656 89.308594 173.785156 89.589844 173.917969 89.910156 C 174.050781 90.230469 174.117188 90.5625 174.117188 90.90625 Z M 174.117188 90.90625 " fill-opacity="1" fill-rule="nonzero"/></g><path fill="#231f20" d="M 166.328125 97.597656 C 166.328125 97.945312 166.261719 98.277344 166.128906 98.597656 C 165.996094 98.914062 165.808594 99.199219 165.5625 99.441406 C 165.316406 99.6875 165.035156 99.875 164.714844 100.007812 C 164.394531 100.140625 164.0625 100.207031 163.714844 100.207031 C 163.371094 100.207031 163.039062 100.140625 162.71875 100.007812 C 162.398438 99.875 162.113281 99.6875 161.871094 99.441406 C 161.625 99.199219 161.4375 98.914062 161.304688 98.597656 C 161.171875 98.277344 161.105469 97.945312 161.105469 97.597656 C 161.105469 97.253906 161.171875 96.917969 161.304688 96.601562 C 161.4375 96.28125 161.625 96 161.871094 95.753906 C 162.113281 95.511719 162.398438 95.320312 162.71875 95.1875 C 163.039062 95.058594 163.371094 94.992188 163.714844 94.992188 C 164.0625 94.992188 164.394531 95.058594 164.714844 95.1875 C 165.035156 95.320312 165.316406 95.511719 165.5625 95.753906 C 165.808594 96 165.996094 96.28125 166.128906 96.601562 C 166.261719 96.917969 166.328125 97.253906 166.328125 97.597656 Z M 166.328125 97.597656 " fill-opacity="1" fill-rule="nonzero"/><path fill="#231f20" d="M 155.1875 108.589844 C 155.1875 108.9375 155.121094 109.269531 154.988281 109.589844 C 154.855469 109.910156 154.667969 110.191406 154.421875 110.433594 C 154.179688 110.679688 153.894531 110.867188 153.574219 111 C 153.257812 111.132812 152.921875 111.199219 152.578125 111.199219 C 152.230469 111.199219 151.898438 111.132812 151.578125 111 C 151.257812 110.867188 150.976562 110.679688 150.730469 110.433594 C 150.484375 110.191406 150.296875 109.910156 150.164062 109.589844 C 150.03125 109.269531 149.964844 108.9375 149.964844 108.589844 C 149.964844 108.246094 150.03125 107.914062 150.164062 107.59375 C 150.296875 107.273438 150.484375 106.992188 150.730469 106.746094 C 150.976562 106.503906 151.257812 106.316406 151.578125 106.183594 C 151.898438 106.050781 152.230469 105.984375 152.578125 105.984375 C 152.921875 105.984375 153.257812 106.050781 153.574219 106.183594 C 153.894531 106.316406 154.179688 106.503906 154.421875 106.746094 C 154.667969 106.992188 154.855469 107.273438 154.988281 107.59375 C 155.121094 107.914062 155.1875 108.246094 155.1875 108.589844 Z M 155.1875 108.589844 " fill-opacity="1" fill-rule="nonzero"/><path fill="#231f20" d="M 154.726562 130.359375 C 154.726562 130.707031 154.660156 131.039062 154.527344 131.359375 C 154.394531 131.679688 154.207031 131.960938 153.960938 132.203125 C 153.714844 132.449219 153.433594 132.636719 153.113281 132.769531 C 152.792969 132.902344 152.460938 132.96875 152.113281 132.96875 C 151.769531 132.96875 151.433594 132.902344 151.113281 132.769531 C 150.792969 132.636719 150.511719 132.449219 150.269531 132.203125 C 150.023438 131.960938 149.835938 131.679688 149.703125 131.359375 C 149.570312 131.039062 149.503906 130.707031 149.503906 130.359375 C 149.503906 130.015625 149.570312 129.683594 149.703125 129.363281 C 149.835938 129.042969 150.023438 128.761719 150.269531 128.519531 C 150.511719 128.273438 150.792969 128.085938 151.113281 127.953125 C 151.433594 127.820312 151.769531 127.753906 152.113281 127.753906 C 152.460938 127.753906 152.792969 127.820312 153.113281 127.953125 C 153.433594 128.085938 153.714844 128.273438 153.960938 128.519531 C 154.207031 128.761719 154.394531 129.042969 154.527344 129.363281 C 154.660156 129.683594 154.726562 130.015625 154.726562 130.359375 Z M 154.726562 130.359375 " fill-opacity="1" fill-rule="nonzero"/><path fill="#231f20" d="M 134.167969 109.066406 C 134.167969 109.410156 134.105469 109.746094 133.972656 110.0625 C 133.839844 110.382812 133.648438 110.664062 133.40625 110.910156 C 133.160156 111.152344 132.878906 111.34375 132.558594 111.476562 C 132.238281 111.605469 131.90625 111.671875 131.558594 111.671875 C 131.210938 111.671875 130.878906 111.605469 130.558594 111.476562 C 130.238281 111.34375 129.957031 111.152344 129.710938 110.910156 C 129.46875 110.664062 129.277344 110.382812 129.144531 110.0625 C 129.015625 109.746094 128.949219 109.410156 128.949219 109.066406 C 128.949219 108.71875 129.015625 108.386719 129.144531 108.066406 C 129.277344 107.75 129.46875 107.464844 129.710938 107.222656 C 129.957031 106.976562 130.238281 106.789062 130.558594 106.65625 C 130.878906 106.523438 131.210938 106.457031 131.558594 106.457031 C 131.90625 106.457031 132.238281 106.523438 132.558594 106.65625 C 132.878906 106.789062 133.160156 106.976562 133.40625 107.222656 C 133.648438 107.464844 133.839844 107.75 133.972656 108.066406 C 134.105469 108.386719 134.167969 108.71875 134.167969 109.066406 Z M 134.167969 109.066406 " fill-opacity="1" fill-rule="nonzero"/><path fill="#231f20" d="M 163.464844 88.558594 C 163.464844 88.871094 163.402344 89.171875 163.285156 89.460938 C 163.164062 89.75 162.996094 90.003906 162.773438 90.226562 C 162.550781 90.445312 162.296875 90.617188 162.007812 90.734375 C 161.71875 90.855469 161.417969 90.914062 161.105469 90.914062 C 160.792969 90.914062 160.492188 90.855469 160.203125 90.734375 C 159.914062 90.617188 159.660156 90.445312 159.4375 90.226562 C 159.21875 90.003906 159.046875 89.75 158.929688 89.460938 C 158.808594 89.171875 158.75 88.871094 158.75 88.558594 C 158.75 88.25 158.808594 87.949219 158.929688 87.660156 C 159.046875 87.371094 159.21875 87.117188 159.4375 86.894531 C 159.660156 86.675781 159.914062 86.503906 160.203125 86.386719 C 160.492188 86.265625 160.792969 86.207031 161.105469 86.207031 C 161.417969 86.207031 161.71875 86.265625 162.007812 86.386719 C 162.296875 86.503906 162.550781 86.675781 162.773438 86.894531 C 162.996094 87.117188 163.164062 87.371094 163.285156 87.660156 C 163.402344 87.949219 163.464844 88.25 163.464844 88.558594 Z M 163.464844 88.558594 " fill-opacity="1" fill-rule="nonzero"/><path fill="#231f20" d="M 56.132812 100.964844 L 63.9375 100.964844 L 63.9375 103.730469 L 56.132812 103.730469 Z M 56.132812 100.964844 " fill-opacity="1" fill-rule="nonzero"/><path fill="#231f20" d="M 56.132812 97.75 L 63.9375 97.75 L 63.9375 100.515625 L 56.132812 100.515625 Z M 56.132812 97.75 " fill-opacity="1" fill-rule="nonzero"/><path fill="#231f20" d="M 56.132812 94.535156 L 63.9375 94.535156 L 63.9375 97.300781 L 56.132812 97.300781 Z M 56.132812 94.535156 " fill-opacity="1" fill-rule="nonzero"/><path fill="#231f20" d="M 56.132812 91.320312 L 63.9375 91.320312 L 63.9375 94.085938 L 56.132812 94.085938 Z M 56.132812 91.320312 " fill-opacity="1" fill-rule="nonzero"/><path fill="#231f20" d="M 56.132812 88.101562 L 63.9375 88.101562 L 63.9375 90.871094 L 56.132812 90.871094 Z M 56.132812 88.101562 " fill-opacity="1" fill-rule="nonzero"/><path fill="#231f20" d="M 56.132812 84.886719 L 63.9375 84.886719 L 63.9375 87.652344 L 56.132812 87.652344 Z M 56.132812 84.886719 " fill-opacity="1" fill-rule="nonzero"/><path fill="#231f20" d="M 56.132812 81.671875 L 63.9375 81.671875 L 63.9375 84.4375 L 56.132812 84.4375 Z M 56.132812 81.671875 " fill-opacity="1" fill-rule="nonzero"/><path fill="#231f20" d="M 56.132812 78.457031 L 63.9375 78.457031 L 63.9375 81.222656 L 56.132812 81.222656 Z M 56.132812 78.457031 " fill-opacity="1" fill-rule="nonzero"/><path fill="#231f20" d="M 56.132812 75.242188 L 63.9375 75.242188 L 63.9375 78.007812 L 56.132812 78.007812 Z M 56.132812 75.242188 " fill-opacity="1" fill-rule="nonzero"/><path fill="#231f20" d="M 56.132812 72.023438 L 63.9375 72.023438 L 63.9375 74.792969 L 56.132812 74.792969 Z M 56.132812 72.023438 " fill-opacity="1" fill-rule="nonzero"/><path fill="#231f20" d="M 56.132812 68.808594 L 63.9375 68.808594 L 63.9375 71.578125 L 56.132812 71.578125 Z M 56.132812 68.808594 " fill-opacity="1" fill-rule="nonzero"/><path fill="#231f20" d="M 56.132812 65.59375 L 63.9375 65.59375 L 63.9375 68.363281 L 56.132812 68.363281 Z M 56.132812 65.59375 " fill-opacity="1" fill-rule="nonzero"/><path fill="#231f20" d="M 56.132812 62.378906 L 63.9375 62.378906 L 63.9375 65.144531 L 56.132812 65.144531 Z M 56.132812 62.378906 " fill-opacity="1" fill-rule="nonzero"/><path fill="#231f20" d="M 45.703125 128.027344 L 44.945312 128.027344 L 44.945312 113.949219 L 43.488281 112.496094 L 43.488281 106.707031 L 48.234375 101.96875 L 59.804688 101.96875 L 59.804688 102.726562 L 48.550781 102.726562 L 44.246094 107.023438 L 44.246094 112.183594 L 45.703125 113.636719 Z M 45.703125 128.027344 " fill-opacity="1" fill-rule="nonzero"/><path fill="#231f20" d="M 35.914062 128.027344 L 35.15625 128.027344 L 35.15625 123.304688 L 40.679688 117.785156 L 40.679688 105.054688 L 47.082031 98.664062 L 60.339844 98.664062 L 60.339844 99.421875 L 47.394531 99.421875 L 41.441406 105.371094 L 41.441406 118.101562 L 35.914062 123.621094 Z M 35.914062 128.027344 " fill-opacity="1" fill-rule="nonzero"/><path fill="#231f20" d="M 26.949219 124.207031 L 26.410156 123.671875 L 31.554688 118.535156 L 31.554688 112.964844 L 35.8125 108.710938 L 35.8125 104.75 L 45.179688 95.398438 L 60.035156 95.398438 L 60.035156 96.15625 L 45.496094 96.15625 L 36.574219 105.066406 L 36.574219 109.023438 L 32.3125 113.277344 L 32.3125 118.851562 Z M 26.949219 124.207031 " fill-opacity="1" fill-rule="nonzero"/><path fill="#231f20" d="M 24.421875 106.503906 L 16.519531 106.503906 L 16.519531 105.746094 L 24.105469 105.746094 L 28.261719 101.597656 L 33.855469 101.597656 L 43.171875 92.296875 L 59.121094 92.296875 L 59.121094 93.054688 L 43.484375 93.054688 L 34.167969 102.355469 L 28.574219 102.355469 Z M 24.421875 106.503906 " fill-opacity="1" fill-rule="nonzero"/><path fill="#231f20" d="M 21.941406 101.464844 L 8.730469 101.464844 L 8.730469 100.707031 L 21.625 100.707031 L 24.519531 97.816406 L 31.851562 97.816406 L 40.675781 89.003906 L 59.121094 89.101562 L 59.117188 89.859375 L 40.988281 89.765625 L 32.167969 98.574219 L 24.835938 98.574219 Z M 21.941406 101.464844 " fill-opacity="1" fill-rule="nonzero"/><path fill="#231f20" d="M 39.277344 85.890625 L 59.121094 85.890625 L 59.121094 86.648438 L 39.277344 86.648438 Z M 39.277344 85.890625 " fill-opacity="1" fill-rule="nonzero"/><path fill="#231f20" d="M 25.683594 88.253906 L 22.609375 88.253906 L 22.609375 87.496094 L 25.367188 87.496094 L 30.132812 82.738281 L 59.121094 82.738281 L 59.121094 83.496094 L 30.449219 83.496094 Z M 25.683594 88.253906 " fill-opacity="1" fill-rule="nonzero"/><path fill="#231f20" d="M 58.074219 80.160156 L 29.667969 80.160156 L 25.109375 75.609375 L 21.875 75.609375 L 19.09375 78.386719 L 18.554688 77.851562 L 21.5625 74.851562 L 25.421875 74.851562 L 29.980469 79.402344 L 58.074219 79.402344 Z M 58.074219 80.160156 " fill-opacity="1" fill-rule="nonzero"/><path fill="#231f20" d="M 58.859375 77.078125 L 38.878906 77.078125 L 32.460938 70.667969 L 22.203125 70.667969 L 16.980469 75.882812 L 8.730469 75.882812 L 8.730469 75.125 L 16.664062 75.125 L 21.886719 69.910156 L 32.777344 69.910156 L 39.195312 76.320312 L 58.859375 76.320312 Z M 58.859375 77.078125 " fill-opacity="1" fill-rule="nonzero"/><path fill="#231f20" d="M 59.121094 73.847656 L 43.308594 73.847656 L 35.941406 66.492188 L 19.613281 66.492188 L 16.785156 69.3125 L 16.25 68.777344 L 19.296875 65.734375 L 36.257812 65.734375 L 43.621094 73.085938 L 59.121094 73.085938 Z M 59.121094 73.847656 " fill-opacity="1" fill-rule="nonzero"/><path fill="#231f20" d="M 57.75 70.59375 L 46.84375 70.59375 L 38.792969 62.554688 L 31.988281 62.554688 L 27.390625 57.964844 L 27.925781 57.429688 L 32.304688 61.796875 L 39.109375 61.796875 L 47.15625 69.835938 L 57.75 69.835938 Z M 57.75 70.59375 " fill-opacity="1" fill-rule="nonzero"/><path fill="#231f20" d="M 58.859375 67.371094 L 49.601562 67.371094 L 43.28125 61.058594 L 43.28125 47.230469 L 38.292969 42.25 L 31.089844 42.25 L 27.605469 38.769531 L 27.605469 35.742188 L 28.363281 35.742188 L 28.363281 38.453125 L 31.40625 41.492188 L 38.609375 41.492188 L 44.039062 46.917969 L 44.039062 60.746094 L 49.917969 66.613281 L 58.859375 66.613281 Z M 58.859375 67.371094 " fill-opacity="1" fill-rule="nonzero"/><path fill="#231f20" d="M 58.65625 64.21875 L 51.835938 64.21875 L 48.296875 60.6875 L 48.296875 57.429688 L 49.054688 57.429688 L 49.054688 60.371094 L 52.148438 63.460938 L 58.65625 63.460938 Z M 58.65625 64.21875 " fill-opacity="1" fill-rule="nonzero"/><path fill="#231f20" d="M 47.984375 128.070312 C 47.984375 128.414062 47.917969 128.746094 47.789062 129.066406 C 47.65625 129.386719 47.464844 129.667969 47.222656 129.914062 C 46.976562 130.15625 46.695312 130.34375 46.375 130.476562 C 46.054688 130.609375 45.722656 130.675781 45.375 130.675781 C 45.027344 130.675781 44.695312 130.609375 44.375 130.476562 C 44.054688 130.34375 43.773438 130.15625 43.527344 129.914062 C 43.285156 129.667969 43.09375 129.386719 42.960938 129.066406 C 42.832031 128.746094 42.765625 128.414062 42.765625 128.070312 C 42.765625 127.722656 42.832031 127.390625 42.960938 127.070312 C 43.09375 126.75 43.285156 126.46875 43.527344 126.226562 C 43.773438 125.980469 44.054688 125.792969 44.375 125.660156 C 44.695312 125.527344 45.027344 125.460938 45.375 125.460938 C 45.722656 125.460938 46.054688 125.527344 46.375 125.660156 C 46.695312 125.792969 46.976562 125.980469 47.222656 126.226562 C 47.464844 126.46875 47.65625 126.75 47.789062 127.070312 C 47.917969 127.390625 47.984375 127.722656 47.984375 128.070312 Z M 47.984375 128.070312 " fill-opacity="1" fill-rule="nonzero"/><path fill="#231f20" d="M 38.144531 128.027344 C 38.144531 128.371094 38.078125 128.703125 37.945312 129.023438 C 37.8125 129.34375 37.625 129.625 37.378906 129.867188 C 37.136719 130.113281 36.851562 130.300781 36.535156 130.433594 C 36.214844 130.566406 35.878906 130.632812 35.535156 130.632812 C 35.1875 130.632812 34.855469 130.566406 34.535156 130.433594 C 34.214844 130.300781 33.933594 130.113281 33.6875 129.867188 C 33.441406 129.625 33.253906 129.34375 33.121094 129.023438 C 32.988281 128.703125 32.921875 128.371094 32.921875 128.027344 C 32.921875 127.679688 32.988281 127.347656 33.121094 127.027344 C 33.253906 126.707031 33.441406 126.425781 33.6875 126.183594 C 33.933594 125.9375 34.214844 125.75 34.535156 125.617188 C 34.855469 125.484375 35.1875 125.417969 35.535156 125.417969 C 35.878906 125.417969 36.214844 125.484375 36.535156 125.617188 C 36.851562 125.75 37.136719 125.9375 37.378906 126.183594 C 37.625 126.425781 37.8125 126.707031 37.945312 127.027344 C 38.078125 127.347656 38.144531 127.679688 38.144531 128.027344 Z M 38.144531 128.027344 " fill-opacity="1" fill-rule="nonzero"/><path fill="#231f20" d="M 29.484375 123.941406 C 29.484375 124.285156 29.417969 124.621094 29.289062 124.9375 C 29.15625 125.257812 28.964844 125.539062 28.722656 125.785156 C 28.476562 126.027344 28.195312 126.21875 27.875 126.351562 C 27.554688 126.480469 27.222656 126.546875 26.875 126.546875 C 26.527344 126.546875 26.195312 126.480469 25.875 126.351562 C 25.554688 126.21875 25.273438 126.027344 25.027344 125.785156 C 24.785156 125.539062 24.59375 125.257812 24.460938 124.9375 C 24.328125 124.621094 24.265625 124.285156 24.265625 123.941406 C 24.265625 123.59375 24.328125 123.261719 24.460938 122.941406 C 24.59375 122.625 24.785156 122.339844 25.027344 122.097656 C 25.273438 121.851562 25.554688 121.664062 25.875 121.53125 C 26.195312 121.398438 26.527344 121.332031 26.875 121.332031 C 27.222656 121.332031 27.554688 121.398438 27.875 121.53125 C 28.195312 121.664062 28.476562 121.851562 28.722656 122.097656 C 28.964844 122.339844 29.15625 122.625 29.289062 122.941406 C 29.417969 123.261719 29.484375 123.59375 29.484375 123.941406 Z M 29.484375 123.941406 " fill-opacity="1" fill-rule="nonzero"/><path fill="#231f20" d="M 19.128906 106.125 C 19.128906 106.472656 19.0625 106.804688 18.929688 107.121094 C 18.796875 107.441406 18.609375 107.722656 18.363281 107.96875 C 18.121094 108.214844 17.835938 108.402344 17.519531 108.535156 C 17.199219 108.667969 16.863281 108.730469 16.519531 108.730469 C 16.171875 108.730469 15.839844 108.667969 15.519531 108.535156 C 15.199219 108.402344 14.917969 108.214844 14.671875 107.96875 C 14.425781 107.722656 14.238281 107.441406 14.105469 107.121094 C 13.972656 106.804688 13.90625 106.472656 13.90625 106.125 C 13.90625 105.777344 13.972656 105.445312 14.105469 105.128906 C 14.238281 104.808594 14.425781 104.527344 14.671875 104.28125 C 14.917969 104.035156 15.199219 103.847656 15.519531 103.714844 C 15.839844 103.582031 16.171875 103.519531 16.519531 103.519531 C 16.863281 103.519531 17.199219 103.582031 17.519531 103.714844 C 17.835938 103.847656 18.121094 104.035156 18.363281 104.28125 C 18.609375 104.527344 18.796875 104.808594 18.929688 105.128906 C 19.0625 105.445312 19.128906 105.777344 19.128906 106.125 Z M 19.128906 106.125 " fill-opacity="1" fill-rule="nonzero"/><g clip-path="url(#792896311e)"><path fill="#231f20" d="M 11.339844 101.085938 C 11.339844 101.429688 11.273438 101.761719 11.140625 102.082031 C 11.007812 102.402344 10.820312 102.683594 10.574219 102.929688 C 10.332031 103.171875 10.046875 103.359375 9.726562 103.492188 C 9.410156 103.625 9.074219 103.691406 8.730469 103.691406 C 8.382812 103.691406 8.050781 103.625 7.730469 103.492188 C 7.410156 103.359375 7.128906 103.171875 6.882812 102.929688 C 6.636719 102.683594 6.449219 102.402344 6.316406 102.082031 C 6.183594 101.761719 6.117188 101.429688 6.117188 101.085938 C 6.117188 100.738281 6.183594 100.40625 6.316406 100.085938 C 6.449219 99.765625 6.636719 99.484375 6.882812 99.242188 C 7.128906 98.996094 7.410156 98.808594 7.730469 98.675781 C 8.050781 98.542969 8.382812 98.476562 8.730469 98.476562 C 9.074219 98.476562 9.410156 98.542969 9.726562 98.675781 C 10.046875 98.808594 10.332031 98.996094 10.574219 99.242188 C 10.820312 99.484375 11.007812 99.765625 11.140625 100.085938 C 11.273438 100.40625 11.339844 100.738281 11.339844 101.085938 Z M 11.339844 101.085938 " fill-opacity="1" fill-rule="nonzero"/></g><path fill="#231f20" d="M 25.222656 88.101562 C 25.222656 88.449219 25.15625 88.78125 25.023438 89.101562 C 24.890625 89.421875 24.703125 89.703125 24.457031 89.945312 C 24.210938 90.191406 23.929688 90.378906 23.609375 90.511719 C 23.289062 90.644531 22.957031 90.710938 22.609375 90.710938 C 22.265625 90.710938 21.929688 90.644531 21.613281 90.511719 C 21.292969 90.378906 21.007812 90.191406 20.765625 89.945312 C 20.519531 89.703125 20.332031 89.421875 20.199219 89.101562 C 20.066406 88.78125 20 88.449219 20 88.101562 C 20 87.757812 20.066406 87.425781 20.199219 87.105469 C 20.332031 86.785156 20.519531 86.503906 20.765625 86.257812 C 21.007812 86.015625 21.292969 85.828125 21.613281 85.695312 C 21.929688 85.5625 22.265625 85.496094 22.609375 85.496094 C 22.957031 85.496094 23.289062 85.5625 23.609375 85.695312 C 23.929688 85.828125 24.210938 86.015625 24.457031 86.257812 C 24.703125 86.503906 24.890625 86.785156 25.023438 87.105469 C 25.15625 87.425781 25.222656 87.757812 25.222656 88.101562 Z M 25.222656 88.101562 " fill-opacity="1" fill-rule="nonzero"/><path fill="#231f20" d="M 42.285156 86.269531 C 42.285156 86.558594 42.230469 86.835938 42.121094 87.105469 C 42.007812 87.371094 41.851562 87.609375 41.648438 87.8125 C 41.441406 88.015625 41.207031 88.175781 40.9375 88.285156 C 40.671875 88.394531 40.390625 88.449219 40.101562 88.449219 C 39.8125 88.449219 39.535156 88.394531 39.265625 88.285156 C 39 88.175781 38.761719 88.015625 38.558594 87.8125 C 38.355469 87.609375 38.195312 87.371094 38.085938 87.105469 C 37.976562 86.835938 37.917969 86.558594 37.917969 86.269531 C 37.917969 85.980469 37.976562 85.703125 38.085938 85.4375 C 38.195312 85.167969 38.355469 84.933594 38.558594 84.730469 C 38.761719 84.523438 39 84.367188 39.265625 84.257812 C 39.535156 84.144531 39.8125 84.089844 40.101562 84.089844 C 40.390625 84.089844 40.671875 84.144531 40.9375 84.257812 C 41.207031 84.367188 41.441406 84.523438 41.648438 84.730469 C 41.851562 84.933594 42.007812 85.167969 42.121094 85.4375 C 42.230469 85.703125 42.285156 85.980469 42.285156 86.269531 Z M 42.285156 86.269531 " fill-opacity="1" fill-rule="nonzero"/><g clip-path="url(#2c0265ab53)"><path fill="#231f20" d="M 11.339844 75.589844 C 11.339844 75.933594 11.273438 76.265625 11.140625 76.585938 C 11.007812 76.90625 10.820312 77.1875 10.574219 77.433594 C 10.332031 77.675781 10.046875 77.867188 9.726562 77.996094 C 9.410156 78.128906 9.074219 78.195312 8.730469 78.195312 C 8.382812 78.195312 8.050781 78.128906 7.730469 77.996094 C 7.410156 77.867188 7.128906 77.675781 6.882812 77.433594 C 6.636719 77.1875 6.449219 76.90625 6.316406 76.585938 C 6.183594 76.265625 6.117188 75.933594 6.117188 75.589844 C 6.117188 75.242188 6.183594 74.910156 6.316406 74.589844 C 6.449219 74.273438 6.636719 73.988281 6.882812 73.746094 C 7.128906 73.5 7.410156 73.3125 7.730469 73.179688 C 8.050781 73.046875 8.382812 72.980469 8.730469 72.980469 C 9.074219 72.980469 9.410156 73.046875 9.726562 73.179688 C 10.046875 73.3125 10.332031 73.5 10.574219 73.746094 C 10.820312 73.988281 11.007812 74.273438 11.140625 74.589844 C 11.273438 74.910156 11.339844 75.242188 11.339844 75.589844 Z M 11.339844 75.589844 " fill-opacity="1" fill-rule="nonzero"/></g><path fill="#231f20" d="M 19.128906 68.898438 C 19.128906 69.242188 19.0625 69.578125 18.929688 69.894531 C 18.796875 70.214844 18.609375 70.496094 18.363281 70.742188 C 18.121094 70.984375 17.835938 71.175781 17.519531 71.308594 C 17.199219 71.4375 16.863281 71.503906 16.519531 71.503906 C 16.171875 71.503906 15.839844 71.4375 15.519531 71.308594 C 15.199219 71.175781 14.917969 70.984375 14.671875 70.742188 C 14.425781 70.496094 14.238281 70.214844 14.105469 69.894531 C 13.972656 69.578125 13.90625 69.242188 13.90625 68.898438 C 13.90625 68.550781 13.972656 68.21875 14.105469 67.898438 C 14.238281 67.582031 14.425781 67.300781 14.671875 67.054688 C 14.917969 66.808594 15.199219 66.621094 15.519531 66.488281 C 15.839844 66.355469 16.171875 66.289062 16.519531 66.289062 C 16.863281 66.289062 17.199219 66.355469 17.519531 66.488281 C 17.835938 66.621094 18.121094 66.808594 18.363281 67.054688 C 18.609375 67.300781 18.796875 67.582031 18.929688 67.898438 C 19.0625 68.21875 19.128906 68.550781 19.128906 68.898438 Z M 19.128906 68.898438 " fill-opacity="1" fill-rule="nonzero"/><path fill="#231f20" d="M 30.269531 57.90625 C 30.269531 58.25 30.203125 58.582031 30.070312 58.902344 C 29.9375 59.222656 29.75 59.503906 29.503906 59.75 C 29.257812 59.992188 28.976562 60.179688 28.65625 60.3125 C 28.335938 60.445312 28.003906 60.511719 27.65625 60.511719 C 27.3125 60.511719 26.980469 60.445312 26.660156 60.3125 C 26.339844 60.179688 26.058594 59.992188 25.8125 59.75 C 25.566406 59.503906 25.378906 59.222656 25.246094 58.902344 C 25.113281 58.582031 25.046875 58.25 25.046875 57.90625 C 25.046875 57.558594 25.113281 57.226562 25.246094 56.90625 C 25.378906 56.585938 25.566406 56.304688 25.8125 56.0625 C 26.058594 55.816406 26.339844 55.628906 26.660156 55.496094 C 26.980469 55.363281 27.3125 55.296875 27.65625 55.296875 C 28.003906 55.296875 28.335938 55.363281 28.65625 55.496094 C 28.976562 55.628906 29.257812 55.816406 29.503906 56.0625 C 29.75 56.304688 29.9375 56.585938 30.070312 56.90625 C 30.203125 57.226562 30.269531 57.558594 30.269531 57.90625 Z M 30.269531 57.90625 " fill-opacity="1" fill-rule="nonzero"/><path fill="#231f20" d="M 30.730469 36.136719 C 30.730469 36.480469 30.664062 36.8125 30.535156 37.132812 C 30.402344 37.453125 30.210938 37.734375 29.96875 37.980469 C 29.722656 38.222656 29.441406 38.410156 29.121094 38.542969 C 28.800781 38.675781 28.46875 38.742188 28.121094 38.742188 C 27.773438 38.742188 27.441406 38.675781 27.121094 38.542969 C 26.800781 38.410156 26.519531 38.222656 26.273438 37.980469 C 26.03125 37.734375 25.839844 37.453125 25.707031 37.132812 C 25.578125 36.8125 25.511719 36.480469 25.511719 36.136719 C 25.511719 35.789062 25.578125 35.457031 25.707031 35.136719 C 25.839844 34.816406 26.03125 34.535156 26.273438 34.292969 C 26.519531 34.046875 26.800781 33.859375 27.121094 33.726562 C 27.441406 33.59375 27.773438 33.527344 28.121094 33.527344 C 28.46875 33.527344 28.800781 33.59375 29.121094 33.726562 C 29.441406 33.859375 29.722656 34.046875 29.96875 34.292969 C 30.210938 34.535156 30.402344 34.816406 30.535156 35.136719 C 30.664062 35.457031 30.730469 35.789062 30.730469 36.136719 Z M 30.730469 36.136719 " fill-opacity="1" fill-rule="nonzero"/><path fill="#231f20" d="M 51.289062 57.429688 C 51.289062 57.777344 51.222656 58.109375 51.089844 58.429688 C 50.957031 58.746094 50.765625 59.03125 50.523438 59.273438 C 50.277344 59.519531 49.996094 59.707031 49.675781 59.839844 C 49.355469 59.972656 49.023438 60.039062 48.675781 60.039062 C 48.332031 60.039062 47.996094 59.972656 47.675781 59.839844 C 47.355469 59.707031 47.074219 59.519531 46.828125 59.273438 C 46.585938 59.03125 46.398438 58.746094 46.265625 58.429688 C 46.132812 58.109375 46.066406 57.777344 46.066406 57.429688 C 46.066406 57.085938 46.132812 56.753906 46.265625 56.433594 C 46.398438 56.113281 46.585938 55.832031 46.828125 55.585938 C 47.074219 55.34375 47.355469 55.152344 47.675781 55.023438 C 47.996094 54.890625 48.332031 54.824219 48.675781 54.824219 C 49.023438 54.824219 49.355469 54.890625 49.675781 55.023438 C 49.996094 55.152344 50.277344 55.34375 50.523438 55.585938 C 50.765625 55.832031 50.957031 56.113281 51.089844 56.433594 C 51.222656 56.753906 51.289062 57.085938 51.289062 57.429688 Z M 51.289062 57.429688 " fill-opacity="1" fill-rule="nonzero"/><path fill="#231f20" d="M 21.488281 77.9375 C 21.488281 78.246094 21.425781 78.546875 21.308594 78.835938 C 21.1875 79.125 21.015625 79.378906 20.796875 79.601562 C 20.574219 79.820312 20.320312 79.992188 20.03125 80.109375 C 19.742188 80.230469 19.441406 80.289062 19.128906 80.289062 C 18.816406 80.289062 18.515625 80.230469 18.226562 80.109375 C 17.9375 79.992188 17.683594 79.820312 17.460938 79.601562 C 17.242188 79.378906 17.070312 79.125 16.949219 78.835938 C 16.832031 78.546875 16.769531 78.246094 16.769531 77.9375 C 16.769531 77.625 16.832031 77.324219 16.949219 77.035156 C 17.070312 76.746094 17.242188 76.492188 17.460938 76.269531 C 17.683594 76.050781 17.9375 75.878906 18.226562 75.761719 C 18.515625 75.640625 18.816406 75.582031 19.128906 75.582031 C 19.441406 75.582031 19.742188 75.640625 20.03125 75.761719 C 20.320312 75.878906 20.574219 76.050781 20.796875 76.269531 C 21.015625 76.492188 21.1875 76.746094 21.308594 77.035156 C 21.425781 77.324219 21.488281 77.625 21.488281 77.9375 Z M 21.488281 77.9375 " fill-opacity="1" fill-rule="nonzero"/><path fill="#231f20" d="M 90.054688 92.152344 L 81.605469 92.152344 L 80.25 96.144531 L 74.480469 96.144531 L 82.667969 73.539062 L 89.054688 73.539062 L 97.242188 96.144531 L 91.40625 96.144531 Z M 85.828125 79.625 L 83.054688 87.902344 L 88.632812 87.902344 Z M 85.828125 79.625 " fill-opacity="1" fill-rule="nonzero"/><path fill="#231f20" d="M 99.210938 73.347656 C 99.210938 71.671875 100.53125 70.351562 102.5 70.351562 C 104.433594 70.351562 105.757812 71.671875 105.757812 73.347656 C 105.757812 74.988281 104.433594 76.308594 102.5 76.308594 C 100.53125 76.308594 99.210938 74.988281 99.210938 73.347656 Z M 99.726562 78.175781 L 105.242188 78.175781 L 105.242188 96.144531 L 99.726562 96.144531 Z M 99.726562 78.175781 " fill-opacity="1" fill-rule="nonzero"/></svg>