<svg xmlns="http://www.w3.org/2000/svg" xmlns:xlink="http://www.w3.org/1999/xlink" width="128" zoomAndPan="magnify" viewBox="0 0 96 89.999999" height="120" preserveAspectRatio="xMidYMid meet" version="1.0"><defs><clipPath id="1842a004e2"><path d="M 59.4375 40.257812 L 59.796875 40.257812 L 59.796875 40.539062 L 59.4375 40.539062 Z M 59.4375 40.257812 " clip-rule="nonzero"/></clipPath><clipPath id="e2c30ed51d"><path d="M 59.773438 40.425781 C 59.101562 40.726562 59.699219 40.273438 59.699219 40.273438 " clip-rule="nonzero"/></clipPath><clipPath id="5923f24ded"><path d="M 2.671875 24 L 93.421875 24 L 93.421875 90 L 2.671875 90 Z M 2.671875 24 " clip-rule="nonzero"/></clipPath><clipPath id="effdb969df"><path d="M 2.671875 78 L 93.421875 78 L 93.421875 80 L 2.671875 80 Z M 2.671875 78 " clip-rule="nonzero"/></clipPath></defs><g clip-path="url(#1842a004e2)"><g clip-path="url(#e2c30ed51d)"><path fill="#01184e" d="M 56.101562 37.273438 L 62.855469 37.273438 L 62.855469 43.800781 L 56.101562 43.800781 Z M 56.101562 37.273438 " fill-opacity="1" fill-rule="nonzero"/></g></g><path fill="#e15c63" d="M 43.699219 63.332031 L 40.824219 63.332031 L 40.824219 65.457031 L 37.949219 65.457031 L 37.949219 62.542969 L 35.074219 62.542969 L 35.074219 72.585938 L 32.203125 72.585938 L 32.203125 74.789062 L 29.328125 74.789062 L 29.328125 72.898438 L 26.453125 72.898438 L 26.453125 62.542969 L 23.578125 62.542969 L 23.578125 60.433594 L 20.707031 60.433594 L 20.707031 59.074219 L 17.832031 59.074219 L 17.832031 56.734375 L 14.957031 56.734375 L 14.957031 62.722656 L 12.082031 62.722656 L 12.082031 68.34375 L 9.207031 68.34375 L 9.207031 73.5625 L 6.335938 73.5625 L 6.335938 74.789062 L 3.460938 74.789062 L 3.460938 79.09375 L 46.574219 79.09375 L 46.574219 66.183594 L 43.699219 66.183594 Z M 43.699219 63.332031 " fill-opacity="1" fill-rule="nonzero"/><path fill="#e15c63" d="M 89.683594 72.203125 L 86.808594 72.203125 L 86.808594 73.496094 L 83.9375 73.496094 L 83.9375 68.4375 L 81.0625 68.4375 L 81.0625 66.777344 L 78.1875 66.777344 L 78.1875 63.445312 L 75.3125 63.445312 L 75.3125 61.464844 L 72.4375 61.464844 L 72.4375 58.671875 L 69.566406 58.671875 L 69.566406 61.464844 L 66.691406 61.464844 L 66.691406 71.300781 L 63.816406 71.300781 L 63.816406 66.332031 L 60.941406 66.332031 L 60.941406 70.230469 L 58.070312 70.230469 L 58.070312 79.09375 L 92.558594 79.09375 L 92.558594 65.300781 L 89.683594 65.300781 Z M 89.683594 72.203125 " fill-opacity="1" fill-rule="nonzero"/><path fill="#e15c63" d="M 68.214844 23.539062 L 72.667969 19.261719 L 76.039062 19.261719 L 87.464844 7.796875 L 89.117188 11.714844 L 92.558594 0.136719 L 81.054688 3.855469 C 81.054688 3.855469 83.144531 4.675781 84.832031 5.34375 L 74.875 15.332031 L 71.503906 15.332031 L 67.042969 19.613281 L 63.800781 19.613281 L 54.046875 28.886719 L 43.390625 20.128906 L 39.652344 23.007812 L 35.390625 20.128906 L 27.839844 26.375 L 18.988281 21.859375 L 3.460938 33.96875 L 3.460938 38.804688 L 19.398438 26.375 L 28.363281 30.832031 L 35.570312 24.875 L 39.832031 27.695312 L 43.308594 25.015625 L 54.050781 33.910156 L 64.964844 23.539062 Z M 68.214844 23.539062 " fill-opacity="1" fill-rule="nonzero"/><path fill="#8bcb8f" d="M 40.824219 63.332031 L 43.699219 63.332031 L 43.699219 79.09375 L 40.824219 79.09375 Z M 40.824219 63.332031 " fill-opacity="1" fill-rule="nonzero"/><path fill="#8bcb8f" d="M 35.074219 62.542969 L 37.949219 62.542969 L 37.949219 79.09375 L 35.074219 79.09375 Z M 35.074219 62.542969 " fill-opacity="1" fill-rule="nonzero"/><path fill="#8bcb8f" d="M 29.328125 74.789062 L 32.203125 74.789062 L 32.203125 79.09375 L 29.328125 79.09375 Z M 29.328125 74.789062 " fill-opacity="1" fill-rule="nonzero"/><path fill="#8bcb8f" d="M 23.578125 62.542969 L 26.453125 62.542969 L 26.453125 79.09375 L 23.578125 79.09375 Z M 23.578125 62.542969 " fill-opacity="1" fill-rule="nonzero"/><path fill="#8bcb8f" d="M 17.832031 59.074219 L 20.707031 59.074219 L 20.707031 79.09375 L 17.832031 79.09375 Z M 17.832031 59.074219 " fill-opacity="1" fill-rule="nonzero"/><path fill="#8bcb8f" d="M 12.082031 62.722656 L 14.957031 62.722656 L 14.957031 79.09375 L 12.082031 79.09375 Z M 12.082031 62.722656 " fill-opacity="1" fill-rule="nonzero"/><path fill="#8bcb8f" d="M 6.335938 73.5625 L 9.207031 73.5625 L 9.207031 79.09375 L 6.335938 79.09375 Z M 6.335938 73.5625 " fill-opacity="1" fill-rule="nonzero"/><path fill="#8bcb8f" d="M 58.070312 70.230469 L 60.941406 70.230469 L 60.941406 79.09375 L 58.070312 79.09375 Z M 58.070312 70.230469 " fill-opacity="1" fill-rule="nonzero"/><path fill="#8bcb8f" d="M 63.816406 71.300781 L 66.691406 71.300781 L 66.691406 79.09375 L 63.816406 79.09375 Z M 63.816406 71.300781 " fill-opacity="1" fill-rule="nonzero"/><path fill="#8bcb8f" d="M 69.566406 58.671875 L 72.4375 58.671875 L 72.4375 79.09375 L 69.566406 79.09375 Z M 69.566406 58.671875 " fill-opacity="1" fill-rule="nonzero"/><path fill="#8bcb8f" d="M 75.3125 63.445312 L 78.1875 63.445312 L 78.1875 79.09375 L 75.3125 79.09375 Z M 75.3125 63.445312 " fill-opacity="1" fill-rule="nonzero"/><path fill="#8bcb8f" d="M 81.0625 68.4375 L 83.9375 68.4375 L 83.9375 79.09375 L 81.0625 79.09375 Z M 81.0625 68.4375 " fill-opacity="1" fill-rule="nonzero"/><path fill="#8bcb8f" d="M 86.808594 72.203125 L 89.683594 72.203125 L 89.683594 79.09375 L 86.808594 79.09375 Z M 86.808594 72.203125 " fill-opacity="1" fill-rule="nonzero"/><path fill="#ffc05a" d="M 92.558594 0.136719 L 89.117188 11.714844 L 87.464844 7.796875 L 76.039062 19.261719 L 72.667969 19.261719 L 68.214844 23.539062 L 64.964844 23.539062 L 54.050781 33.910156 L 43.308594 25.015625 L 39.832031 27.695312 L 35.570312 24.875 L 28.363281 30.832031 L 19.398438 26.375 L 3.460938 38.804688 L 3.460938 33.96875 L 18.988281 21.859375 L 27.839844 26.375 L 35.390625 20.128906 L 39.652344 23.007812 L 43.390625 20.128906 L 54.046875 28.886719 L 63.800781 19.613281 L 67.042969 19.613281 L 71.503906 15.332031 L 74.875 15.332031 L 84.832031 5.34375 C 83.144531 4.675781 81.054688 3.855469 81.054688 3.855469 Z M 92.558594 0.136719 " fill-opacity="1" fill-rule="nonzero"/><g clip-path="url(#5923f24ded)"><path fill="#52a7d7" d="M 52.320312 89.863281 C 52.320312 89.863281 52.316406 89.863281 52.316406 89.863281 C 51.957031 89.859375 51.65625 89.59375 51.609375 89.238281 L 47 55.121094 L 46.046875 57.207031 C 45.917969 57.488281 45.617188 57.65625 45.308594 57.621094 C 44.996094 57.582031 44.746094 57.347656 44.6875 57.042969 L 41.886719 42.226562 L 40.738281 43.992188 C 40.585938 44.21875 40.320312 44.34375 40.046875 44.3125 C 39.777344 44.28125 39.546875 44.09375 39.457031 43.835938 L 38.851562 42.09375 L 37.898438 44.007812 C 37.765625 44.269531 37.484375 44.425781 37.195312 44.402344 C 36.902344 44.378906 36.652344 44.175781 36.566406 43.894531 L 35.195312 39.425781 L 32.308594 52.710938 C 32.246094 52.992188 32.019531 53.214844 31.730469 53.265625 C 31.441406 53.316406 31.15625 53.1875 31 52.941406 L 29.742188 50.960938 C 29.238281 51.75 28.40625 52.628906 27.199219 52.628906 C 25.011719 52.628906 24.230469 49.214844 23.242188 44.894531 C 22.179688 40.246094 20.859375 34.460938 17.644531 34.460938 C 12.734375 34.460938 11.417969 42.148438 10.027344 50.285156 C 8.84375 57.195312 7.621094 64.335938 3.914062 67.367188 C 3.609375 67.621094 3.15625 67.574219 2.90625 67.269531 C 2.652344 66.960938 2.699219 66.507812 3.003906 66.257812 C 6.296875 63.566406 7.472656 56.691406 8.609375 50.042969 C 10.109375 41.292969 11.523438 33.027344 17.644531 33.027344 C 22.003906 33.027344 23.40625 39.164062 24.644531 44.574219 C 25.316406 47.523438 26.15625 51.195312 27.199219 51.195312 C 28.128906 51.195312 28.816406 49.769531 28.984375 49.273438 C 29.074219 49.007812 29.304688 48.820312 29.578125 48.789062 C 29.855469 48.753906 30.125 48.882812 30.273438 49.117188 L 31.273438 50.695312 L 34.375 36.433594 C 34.441406 36.117188 34.71875 35.882812 35.046875 35.871094 C 35.359375 35.859375 35.667969 36.066406 35.761719 36.378906 L 37.414062 41.757812 L 38.328125 39.929688 C 38.457031 39.667969 38.730469 39.515625 39.015625 39.53125 C 39.304688 39.550781 39.554688 39.738281 39.648438 40.011719 L 40.332031 41.980469 L 41.660156 39.941406 C 41.820312 39.695312 42.109375 39.574219 42.402344 39.628906 C 42.6875 39.6875 42.914062 39.914062 42.96875 40.199219 L 45.679688 54.546875 L 46.722656 52.257812 C 46.855469 51.96875 47.167969 51.804688 47.484375 51.847656 C 47.800781 51.894531 48.046875 52.144531 48.089844 52.460938 L 52.355469 84.042969 L 57.164062 51.839844 C 57.378906 50.792969 58.121094 49.984375 59.109375 49.6875 C 60.105469 49.390625 61.144531 49.652344 61.878906 50.394531 C 62.53125 51.050781 63.132812 51.328125 63.675781 51.222656 C 64.414062 51.074219 65.164062 47.824219 65.660156 45.675781 C 66.703125 41.15625 67.886719 36.039062 71.332031 36.039062 C 74.445312 36.039062 75.332031 40.355469 76.1875 44.527344 C 76.863281 47.832031 77.632812 51.578125 79.394531 51.578125 C 81.480469 51.578125 81.925781 46.316406 82.25 42.472656 C 82.613281 38.132812 82.894531 35.648438 84.339844 35.070312 C 85.222656 34.710938 86.097656 34.871094 86.796875 35.519531 C 86.957031 35.671875 87.160156 35.742188 87.359375 35.710938 C 87.480469 35.691406 87.652344 35.625 87.761719 35.425781 C 88.605469 33.886719 88.890625 32.195312 89.167969 30.558594 C 89.582031 28.113281 89.972656 25.800781 92.246094 24.707031 C 92.605469 24.53125 93.03125 24.683594 93.207031 25.039062 C 93.378906 25.398438 93.226562 25.824219 92.871094 26 C 91.265625 26.773438 90.964844 28.546875 90.585938 30.796875 C 90.304688 32.46875 89.984375 34.363281 89.023438 36.117188 C 88.71875 36.667969 88.191406 37.035156 87.578125 37.128906 C 86.933594 37.226562 86.289062 37.023438 85.8125 36.566406 C 85.527344 36.304688 85.246094 36.253906 84.875 36.402344 C 84.179688 36.679688 83.867188 40.382812 83.679688 42.59375 C 83.269531 47.480469 82.800781 53.015625 79.394531 53.015625 C 76.457031 53.015625 75.605469 48.847656 74.777344 44.8125 C 74.074219 41.375 73.273438 37.476562 71.332031 37.476562 C 69.027344 37.476562 67.9375 42.203125 67.0625 45.996094 C 66.246094 49.519531 65.605469 52.300781 63.957031 52.628906 C 63.238281 52.773438 62.121094 52.679688 60.855469 51.402344 C 60.503906 51.046875 60.003906 50.921875 59.519531 51.066406 C 59.03125 51.210938 58.679688 51.59375 58.578125 52.089844 L 53.03125 89.246094 C 52.980469 89.601562 52.675781 89.863281 52.320312 89.863281 Z M 52.320312 89.863281 " fill-opacity="1" fill-rule="nonzero"/></g><g clip-path="url(#effdb969df)"><path fill="#93b2b8" d="M 92.558594 79.8125 L 3.460938 79.8125 C 3.0625 79.8125 2.742188 79.492188 2.742188 79.09375 C 2.742188 78.699219 3.0625 78.378906 3.460938 78.378906 L 92.558594 78.378906 C 92.953125 78.378906 93.277344 78.699219 93.277344 79.09375 C 93.277344 79.492188 92.953125 79.8125 92.558594 79.8125 Z M 92.558594 79.8125 " fill-opacity="1" fill-rule="nonzero"/></g></svg>