<svg xmlns="http://www.w3.org/2000/svg" xmlns:xlink="http://www.w3.org/1999/xlink" width="128" zoomAndPan="magnify" viewBox="0 0 96 89.999999" height="120" preserveAspectRatio="xMidYMid meet" version="1.0"><defs><clipPath id="07ffa53611"><path d="M 59.4375 40.257812 L 59.796875 40.257812 L 59.796875 40.539062 L 59.4375 40.539062 Z M 59.4375 40.257812 " clip-rule="nonzero"/></clipPath><clipPath id="b2f4f17869"><path d="M 59.773438 40.425781 C 59.101562 40.726562 59.699219 40.273438 59.699219 40.273438 " clip-rule="nonzero"/></clipPath><clipPath id="35bcd1f391"><path d="M 2.71875 0 L 93.46875 0 L 93.46875 90 L 2.71875 90 Z M 2.71875 0 " clip-rule="nonzero"/></clipPath></defs><g clip-path="url(#07ffa53611)"><g clip-path="url(#b2f4f17869)"><path fill="#01184e" d="M 56.101562 37.273438 L 62.855469 37.273438 L 62.855469 43.800781 L 56.101562 43.800781 Z M 56.101562 37.273438 " fill-opacity="1" fill-rule="nonzero"/></g></g><g clip-path="url(#35bcd1f391)"><path fill="#1d1d1b" d="M 48.089844 22.054688 C 35.582031 22.054688 25.402344 32.210938 25.402344 44.695312 C 25.402344 57.175781 35.582031 67.332031 48.089844 67.332031 C 60.59375 67.332031 70.773438 57.175781 70.773438 44.691406 C 70.773438 32.210938 60.597656 22.054688 48.089844 22.054688 Z M 49.21875 76.277344 L 49.21875 69.578125 C 48.84375 69.59375 48.46875 69.601562 48.089844 69.601562 C 47.710938 69.601562 47.335938 69.59375 46.960938 69.578125 L 46.960938 76.277344 C 43.675781 76.820312 41.164062 79.667969 41.164062 83.097656 C 41.164062 86.90625 44.269531 90.007812 48.09375 90.007812 C 51.914062 90.007812 55.019531 86.90625 55.019531 83.097656 C 55.015625 79.671875 52.5 76.820312 49.21875 76.277344 Z M 48.089844 78.441406 C 50.664062 78.441406 52.753906 80.527344 52.753906 83.097656 C 52.753906 85.664062 50.664062 87.753906 48.089844 87.753906 C 45.519531 87.753906 43.421875 85.664062 43.421875 83.097656 C 43.421875 80.527344 45.519531 78.441406 48.089844 78.441406 Z M 71.835938 67.109375 C 72.765625 66.484375 73.878906 66.121094 75.078125 66.121094 C 78.292969 66.121094 80.90625 68.730469 80.90625 71.941406 C 80.90625 75.148438 78.292969 77.757812 75.078125 77.757812 C 71.863281 77.757812 69.242188 75.148438 69.242188 71.941406 C 69.242188 70.742188 69.613281 69.628906 70.234375 68.703125 L 64.75 63.226562 C 65.308594 62.722656 65.847656 62.199219 66.359375 61.648438 Z M 75.082031 68.375 C 73.113281 68.375 71.503906 69.976562 71.503906 71.941406 C 71.503906 73.90625 73.113281 75.503906 75.082031 75.503906 C 77.046875 75.503906 78.65625 73.90625 78.65625 71.941406 C 78.65625 69.976562 77.046875 68.375 75.082031 68.375 Z M 84.757812 36.324219 C 80.34375 36.324219 76.691406 39.625 76.132812 43.878906 L 73.039062 43.878906 C 73.050781 44.152344 73.054688 44.421875 73.054688 44.691406 C 73.054688 45.175781 73.039062 45.65625 73.011719 46.132812 L 76.132812 46.132812 C 76.6875 50.390625 80.34375 53.6875 84.757812 53.6875 C 89.554688 53.6875 93.460938 49.792969 93.460938 45.003906 C 93.460938 40.21875 89.554688 36.324219 84.757812 36.324219 Z M 84.757812 51.4375 C 81.207031 51.4375 78.316406 48.550781 78.316406 45.007812 C 78.316406 41.460938 81.207031 38.578125 84.757812 38.578125 C 88.308594 38.578125 91.199219 41.460938 91.199219 45.007812 C 91.199219 48.550781 88.308594 51.4375 84.757812 51.4375 Z M 70.90625 20.640625 C 70.28125 19.714844 69.921875 18.601562 69.921875 17.40625 C 69.921875 14.195312 72.535156 11.585938 75.75 11.585938 C 78.960938 11.585938 81.582031 14.195312 81.582031 17.40625 C 81.582031 20.613281 78.960938 23.222656 75.75 23.222656 C 74.550781 23.222656 73.425781 22.859375 72.503906 22.234375 L 66.660156 28.0625 C 66.15625 27.5 65.628906 26.964844 65.078125 26.453125 Z M 75.75 20.96875 C 77.714844 20.96875 79.324219 19.371094 79.324219 17.40625 C 79.324219 15.441406 77.714844 13.839844 75.75 13.839844 C 73.78125 13.839844 72.171875 15.441406 72.171875 17.40625 C 72.171875 19.371094 73.78125 20.96875 75.75 20.96875 Z M 46.957031 13.734375 L 46.957031 19.804688 C 47.332031 19.789062 47.710938 19.78125 48.089844 19.78125 C 48.464844 19.78125 48.84375 19.789062 49.21875 19.804688 L 49.21875 13.734375 C 52.5 13.195312 55.011719 10.34375 55.011719 6.917969 C 55.011719 3.105469 51.90625 0.00390625 48.085938 0.00390625 C 44.265625 0.00390625 41.160156 3.105469 41.160156 6.917969 C 41.164062 10.34375 43.675781 13.195312 46.957031 13.734375 Z M 48.089844 11.574219 C 45.519531 11.574219 43.421875 9.488281 43.421875 6.917969 C 43.421875 4.351562 45.519531 2.261719 48.089844 2.261719 C 50.664062 2.261719 52.753906 4.351562 52.753906 6.917969 C 52.753906 9.488281 50.664062 11.574219 48.089844 11.574219 Z M 16.085938 14.660156 C 15.164062 15.285156 14.042969 15.648438 12.84375 15.648438 C 9.628906 15.648438 7.015625 13.035156 7.015625 9.828125 C 7.015625 6.621094 9.628906 4.007812 12.84375 4.007812 C 16.054688 4.007812 18.675781 6.621094 18.675781 9.828125 C 18.675781 11.023438 18.308594 12.140625 17.683594 13.066406 L 31.097656 26.457031 C 30.546875 26.96875 30.019531 27.503906 29.515625 28.0625 Z M 12.84375 13.394531 C 14.808594 13.394531 16.417969 11.796875 16.417969 9.832031 C 16.417969 7.863281 14.808594 6.265625 12.84375 6.265625 C 10.875 6.265625 9.273438 7.863281 9.273438 9.832031 C 9.273438 11.796875 10.871094 13.394531 12.84375 13.394531 Z M 11.425781 53.6875 C 15.839844 53.6875 19.492188 50.390625 20.050781 46.132812 L 23.164062 46.132812 C 23.136719 45.65625 23.125 45.175781 23.125 44.691406 C 23.125 44.417969 23.128906 44.148438 23.136719 43.878906 L 20.050781 43.878906 C 19.492188 39.625 15.839844 36.324219 11.425781 36.324219 C 6.628906 36.324219 2.722656 40.21875 2.722656 45.007812 C 2.726562 49.792969 6.628906 53.6875 11.425781 53.6875 Z M 11.425781 51.4375 C 7.875 51.4375 4.984375 48.550781 4.984375 45.007812 C 4.984375 41.460938 7.875 38.578125 11.425781 38.578125 C 14.976562 38.578125 17.867188 41.460938 17.867188 45.007812 C 17.867188 48.550781 14.976562 51.4375 11.425781 51.4375 Z M 15.441406 75.925781 L 29.789062 61.621094 C 30.300781 62.171875 30.835938 62.699219 31.398438 63.203125 L 17.035156 77.515625 C 17.660156 78.441406 18.019531 79.554688 18.019531 80.753906 C 18.019531 83.960938 15.40625 86.574219 12.191406 86.574219 C 8.980469 86.574219 6.355469 83.960938 6.355469 80.753906 C 6.355469 77.546875 8.980469 74.933594 12.191406 74.933594 C 13.394531 74.9375 14.507812 75.300781 15.441406 75.925781 Z M 12.195312 77.1875 C 10.230469 77.1875 8.621094 78.785156 8.621094 80.753906 C 8.621094 82.71875 10.230469 84.320312 12.195312 84.320312 C 14.164062 84.320312 15.761719 82.722656 15.761719 80.753906 C 15.761719 78.789062 14.164062 77.1875 12.195312 77.1875 Z M 60.042969 40.914062 C 62.671875 40.914062 64.808594 43.046875 64.808594 45.667969 L 64.808594 51.050781 C 62.449219 51.734375 59.964844 51.875 57.40625 51.476562 L 57.40625 49.042969 C 57.40625 47.058594 56.78125 45.21875 55.714844 43.707031 C 56.484375 42.039062 58.1875 40.914062 60.042969 40.914062 Z M 57.390625 35.753906 C 57.390625 34.292969 58.582031 33.105469 60.042969 33.105469 C 61.511719 33.105469 62.695312 34.292969 62.695312 35.753906 C 62.695312 37.210938 61.511719 38.398438 60.042969 38.398438 C 58.582031 38.398438 57.390625 37.210938 57.390625 35.753906 Z M 43.96875 35.410156 C 43.96875 33.140625 45.820312 31.292969 48.089844 31.292969 C 50.363281 31.292969 52.214844 33.140625 52.214844 35.410156 C 52.214844 37.675781 50.363281 39.523438 48.089844 39.523438 C 45.820312 39.519531 43.96875 37.675781 43.96875 35.410156 Z M 48.089844 42 C 51.988281 42 55.152344 45.160156 55.152344 49.046875 L 55.152344 56.851562 C 50.699219 58.203125 45.960938 58.195312 41.03125 56.824219 L 41.03125 49.046875 C 41.03125 45.160156 44.199219 42 48.089844 42 Z M 36.136719 40.914062 C 37.996094 40.914062 39.703125 42.039062 40.46875 43.707031 C 39.402344 45.21875 38.769531 47.058594 38.769531 49.042969 L 38.769531 51.515625 C 36.410156 51.867188 33.925781 51.707031 31.367188 51.023438 L 31.367188 45.664062 C 31.367188 43.046875 33.503906 40.914062 36.136719 40.914062 Z M 36.136719 33.105469 C 37.59375 33.105469 38.789062 34.292969 38.789062 35.753906 C 38.789062 37.210938 37.59375 38.398438 36.136719 38.398438 C 34.675781 38.398438 33.484375 37.210938 33.484375 35.753906 C 33.484375 34.292969 34.675781 33.105469 36.136719 33.105469 Z M 41.707031 35.410156 C 41.707031 31.898438 44.574219 29.039062 48.089844 29.039062 C 51.609375 29.039062 54.472656 31.898438 54.472656 35.410156 C 54.472656 37.515625 53.441406 39.386719 51.855469 40.542969 C 52.671875 40.90625 53.425781 41.378906 54.101562 41.945312 C 54.769531 40.871094 55.71875 40.011719 56.816406 39.441406 C 55.792969 38.539062 55.140625 37.222656 55.140625 35.753906 C 55.140625 33.050781 57.339844 30.851562 60.046875 30.851562 C 62.757812 30.851562 64.957031 33.050781 64.957031 35.753906 C 64.957031 37.222656 64.304688 38.542969 63.277344 39.441406 C 65.527344 40.613281 67.074219 42.960938 67.074219 45.667969 L 67.074219 51.875 C 67.074219 52.355469 66.765625 52.785156 66.3125 52.941406 C 64.34375 53.617188 62.296875 53.953125 60.207031 53.953125 C 59.285156 53.953125 58.355469 53.886719 57.40625 53.757812 L 57.40625 57.671875 C 57.40625 58.152344 57.109375 58.578125 56.648438 58.738281 C 53.964844 59.65625 51.171875 60.117188 48.320312 60.117188 C 45.46875 60.117188 42.546875 59.660156 39.574219 58.746094 C 39.097656 58.601562 38.773438 58.164062 38.773438 57.671875 L 38.773438 53.796875 C 37.964844 53.902344 37.144531 53.953125 36.304688 53.953125 C 34.230469 53.953125 32.085938 53.621094 29.910156 52.953125 C 29.441406 52.808594 29.117188 52.371094 29.117188 51.878906 L 29.117188 45.671875 C 29.117188 42.964844 30.65625 40.613281 32.914062 39.445312 C 31.882812 38.546875 31.230469 37.226562 31.230469 35.753906 C 31.230469 33.050781 33.429688 30.855469 36.136719 30.855469 C 38.847656 30.855469 41.046875 33.050781 41.046875 35.753906 C 41.046875 37.222656 40.394531 38.542969 39.363281 39.441406 C 40.472656 40.011719 41.417969 40.871094 42.085938 41.945312 C 42.761719 41.378906 43.519531 40.90625 44.324219 40.546875 C 42.738281 39.382812 41.707031 37.515625 41.707031 35.410156 Z M 41.707031 35.410156 " fill-opacity="1" fill-rule="evenodd"/></g></svg>