<svg xmlns="http://www.w3.org/2000/svg" xmlns:xlink="http://www.w3.org/1999/xlink" width="128" zoomAndPan="magnify" viewBox="0 0 96 89.999999" height="120" preserveAspectRatio="xMidYMid meet" version="1.0"><defs><clipPath id="f03686d2c1"><path d="M 59.4375 40.257812 L 59.796875 40.257812 L 59.796875 40.539062 L 59.4375 40.539062 Z M 59.4375 40.257812 " clip-rule="nonzero"/></clipPath><clipPath id="408db01678"><path d="M 59.773438 40.425781 C 59.101562 40.726562 59.699219 40.273438 59.699219 40.273438 " clip-rule="nonzero"/></clipPath><clipPath id="e8531985bb"><path d="M 1.003906 0 L 94.753906 0 L 94.753906 90 L 1.003906 90 Z M 1.003906 0 " clip-rule="nonzero"/></clipPath></defs><g clip-path="url(#f03686d2c1)"><g clip-path="url(#408db01678)"><path fill="#01184e" d="M 56.101562 37.273438 L 62.855469 37.273438 L 62.855469 43.800781 L 56.101562 43.800781 Z M 56.101562 37.273438 " fill-opacity="1" fill-rule="nonzero"/></g></g><path fill="#a79ba7" d="M 28.375 69.175781 L 52.074219 69.175781 L 52.074219 82.707031 L 28.375 82.707031 Z M 28.375 69.175781 " fill-opacity="1" fill-rule="evenodd"/><path fill="#837683" d="M 50.234375 69.175781 L 52.074219 69.175781 L 52.074219 82.707031 L 50.234375 82.707031 Z M 50.234375 69.175781 " fill-opacity="1" fill-rule="evenodd"/><path fill="#eceff1" d="M 14.613281 88.472656 L 65.839844 88.472656 L 65.839844 84.515625 C 65.839844 82.339844 63.613281 80.554688 60.898438 80.554688 L 19.554688 80.554688 C 16.835938 80.554688 14.613281 82.339844 14.613281 84.515625 Z M 14.613281 88.472656 " fill-opacity="1" fill-rule="evenodd"/><path fill="#d1d1d6" d="M 14.613281 88.472656 L 65.839844 88.472656 L 65.839844 84.515625 C 65.839844 83.222656 65.050781 82.066406 63.84375 81.34375 C 64.117188 81.832031 64.269531 82.375 64.269531 82.941406 L 64.269531 86.902344 L 14.613281 86.902344 Z M 14.613281 88.472656 " fill-opacity="1" fill-rule="evenodd"/><path fill="#eceff1" d="M 8.320312 19.726562 L 72.128906 19.726562 C 75.316406 19.726562 77.925781 22.34375 77.925781 25.539062 L 77.925781 65.511719 C 77.925781 68.707031 75.316406 71.324219 72.128906 71.324219 L 8.320312 71.324219 C 5.132812 71.324219 2.527344 68.707031 2.527344 65.511719 L 2.527344 25.539062 C 2.527344 22.34375 5.132812 19.726562 8.320312 19.726562 Z M 8.320312 19.726562 " fill-opacity="1" fill-rule="evenodd"/><path fill="#d1d1d6" d="M 75.359375 20.722656 C 76.90625 21.773438 77.925781 23.539062 77.925781 25.539062 L 77.925781 65.511719 C 77.925781 68.707031 75.316406 71.324219 72.128906 71.324219 L 8.320312 71.324219 C 6.332031 71.324219 4.5625 70.300781 3.515625 68.757812 C 4.445312 69.382812 5.558594 69.75 6.75 69.75 L 70.554688 69.75 C 73.742188 69.75 76.351562 67.136719 76.351562 63.941406 L 76.351562 23.964844 C 76.351562 22.765625 75.988281 21.652344 75.359375 20.722656 Z M 75.359375 20.722656 " fill-opacity="1" fill-rule="evenodd"/><path fill="#d8ecfe" d="M 8.179688 24.589844 L 72.273438 24.589844 C 72.714844 24.589844 73.074219 24.949219 73.074219 25.390625 L 73.074219 61.578125 L 7.375 61.578125 L 7.375 25.390625 C 7.375 24.949219 7.734375 24.589844 8.179688 24.589844 Z M 8.179688 24.589844 " fill-opacity="1" fill-rule="evenodd"/><path fill="#c4e2ff" d="M 69.128906 24.589844 L 72.273438 24.589844 C 72.714844 24.589844 73.074219 24.949219 73.074219 25.390625 L 73.074219 61.578125 L 69.9375 61.578125 L 69.9375 25.390625 C 69.9375 24.949219 69.570312 24.589844 69.128906 24.589844 Z M 69.128906 24.589844 " fill-opacity="1" fill-rule="evenodd"/><path fill="#ffe177" d="M 76.925781 4.980469 C 78.726562 5.410156 80.441406 6.125 82.011719 7.09375 L 85.316406 5.625 L 89.210938 9.527344 L 87.746094 12.839844 C 88.714844 14.417969 89.425781 16.136719 89.855469 17.941406 L 93.226562 19.242188 L 93.226562 24.765625 L 89.855469 26.066406 C 89.425781 27.867188 88.714844 29.585938 87.746094 31.164062 L 89.210938 34.476562 L 85.316406 38.382812 L 82.011719 36.910156 C 80.441406 37.882812 78.726562 38.597656 76.925781 39.027344 L 75.628906 42.402344 L 70.121094 42.402344 L 68.820312 39.023438 C 67.027344 38.59375 65.308594 37.882812 63.738281 36.910156 L 60.433594 38.382812 L 56.535156 34.476562 L 58.003906 31.164062 C 57.035156 29.585938 56.320312 27.867188 55.894531 26.066406 L 52.523438 24.765625 L 52.523438 19.242188 L 55.894531 17.941406 C 56.320312 16.136719 57.035156 14.417969 58.003906 12.839844 L 56.535156 9.527344 L 60.433594 5.625 L 63.734375 7.09375 C 65.308594 6.125 67.027344 5.410156 68.820312 4.980469 L 70.121094 1.601562 L 75.628906 1.601562 Z M 76.925781 4.980469 " fill-opacity="1" fill-rule="evenodd"/><path fill="#ffd064" d="M 84.207031 6.117188 L 85.316406 5.625 L 89.210938 9.527344 L 87.746094 12.839844 C 88.714844 14.417969 89.425781 16.136719 89.855469 17.941406 L 93.226562 19.242188 L 93.226562 24.765625 L 89.855469 26.066406 C 89.425781 27.867188 88.714844 29.585938 87.746094 31.164062 L 89.210938 34.476562 L 85.316406 38.382812 L 84.207031 37.886719 L 87.609375 34.476562 L 86.140625 31.164062 C 87.109375 29.585938 87.824219 27.867188 88.25 26.066406 L 91.621094 24.765625 L 91.621094 19.242188 L 88.25 17.941406 C 87.824219 16.136719 87.109375 14.417969 86.140625 12.839844 L 87.609375 9.527344 Z M 59.9375 6.117188 L 60.433594 5.625 L 63.734375 7.09375 C 63.5 7.222656 63.269531 7.359375 63.046875 7.5 Z M 76.925781 4.980469 C 78.726562 5.410156 80.441406 6.125 82.011719 7.09375 L 81.101562 7.5 C 79.53125 6.53125 77.121094 5.410156 75.324219 4.980469 L 74.023438 1.601562 L 75.628906 1.601562 Z M 63.738281 36.910156 L 60.433594 38.382812 L 59.9375 37.886719 L 63.046875 36.503906 C 63.269531 36.644531 63.5 36.78125 63.738281 36.910156 Z M 82.011719 36.910156 C 80.441406 37.882812 78.726562 38.597656 76.925781 39.027344 L 75.628906 42.402344 L 74.023438 42.402344 L 75.324219 39.027344 C 77.121094 38.597656 79.53125 37.476562 81.105469 36.503906 Z M 82.011719 36.910156 " fill-opacity="1" fill-rule="evenodd"/><path fill="#eceff1" d="M 72.875 10.050781 C 79.460938 10.050781 84.796875 15.402344 84.796875 22.003906 C 84.796875 28.601562 79.460938 33.957031 72.875 33.957031 C 66.289062 33.957031 60.953125 28.601562 60.953125 22.003906 C 60.953125 15.402344 66.289062 10.050781 72.875 10.050781 Z M 72.875 10.050781 " fill-opacity="1" fill-rule="evenodd"/><path fill="#d1d1d6" d="M 72.875 10.050781 C 73.144531 10.050781 73.414062 10.058594 73.683594 10.078125 C 67.476562 10.492188 62.566406 15.671875 62.566406 22.003906 C 62.566406 28.332031 67.476562 33.511719 73.683594 33.929688 C 73.414062 33.945312 73.144531 33.957031 72.875 33.957031 C 66.289062 33.957031 60.953125 28.601562 60.953125 22.003906 C 60.953125 15.402344 66.289062 10.050781 72.875 10.050781 Z M 72.875 10.050781 " fill-opacity="1" fill-rule="evenodd"/><path fill="#a79ba7" d="M 72.875 33.957031 C 67.746094 33.957031 63.375 30.707031 61.691406 26.15625 C 61.691406 26.15625 67.222656 21.953125 68.464844 21.011719 C 68.605469 20.902344 68.800781 20.921875 68.917969 21.054688 C 69.6875 21.921875 72.359375 24.9375 72.359375 24.9375 C 72.359375 24.9375 77.054688 20.640625 78.246094 19.550781 C 78.316406 19.488281 78.410156 19.457031 78.503906 19.464844 C 78.597656 19.476562 78.683594 19.523438 78.738281 19.597656 C 79.753906 20.957031 83.910156 26.535156 83.910156 26.535156 C 82.226562 30.652344 78.316406 33.617188 73.679688 33.929688 C 73.640625 33.929688 73.601562 33.933594 73.5625 33.9375 C 73.332031 33.949219 73.105469 33.957031 72.875 33.957031 Z M 72.875 33.957031 " fill-opacity="1" fill-rule="evenodd"/><path fill="#fe646f" d="M 52.925781 43.0625 C 52.925781 43.90625 52.84375 44.742188 52.679688 45.566406 C 52.515625 46.394531 52.273438 47.199219 51.953125 47.976562 C 51.628906 48.753906 51.234375 49.496094 50.769531 50.195312 C 50.300781 50.898438 49.769531 51.546875 49.175781 52.140625 C 48.582031 52.738281 47.933594 53.269531 47.234375 53.738281 C 46.535156 54.207031 45.796875 54.601562 45.019531 54.925781 C 44.242188 55.246094 43.441406 55.492188 42.617188 55.65625 C 41.792969 55.820312 40.960938 55.902344 40.121094 55.902344 C 39.277344 55.902344 38.445312 55.820312 37.621094 55.65625 C 36.796875 55.492188 35.996094 55.246094 35.21875 54.925781 C 34.441406 54.601562 33.703125 54.207031 33.003906 53.738281 C 32.304688 53.269531 31.660156 52.738281 31.0625 52.140625 C 30.46875 51.546875 29.9375 50.898438 29.472656 50.195312 C 29.003906 49.496094 28.609375 48.753906 28.289062 47.976562 C 27.964844 47.199219 27.722656 46.394531 27.558594 45.566406 C 27.394531 44.742188 27.3125 43.90625 27.3125 43.0625 C 27.3125 42.21875 27.394531 41.386719 27.558594 40.558594 C 27.722656 39.730469 27.964844 38.929688 28.289062 38.148438 C 28.609375 37.371094 29.003906 36.632812 29.472656 35.929688 C 29.9375 35.230469 30.46875 34.582031 31.0625 33.984375 C 31.660156 33.390625 32.304688 32.855469 33.003906 32.386719 C 33.703125 31.921875 34.441406 31.523438 35.21875 31.203125 C 35.996094 30.878906 36.796875 30.636719 37.621094 30.472656 C 38.445312 30.308594 39.277344 30.226562 40.121094 30.226562 C 40.960938 30.226562 41.792969 30.308594 42.617188 30.472656 C 43.441406 30.636719 44.242188 30.878906 45.019531 31.203125 C 45.796875 31.523438 46.535156 31.921875 47.234375 32.386719 C 47.933594 32.855469 48.582031 33.390625 49.175781 33.984375 C 49.769531 34.582031 50.300781 35.230469 50.769531 35.929688 C 51.234375 36.632812 51.628906 37.371094 51.953125 38.148438 C 52.273438 38.929688 52.515625 39.730469 52.679688 40.558594 C 52.84375 41.386719 52.925781 42.21875 52.925781 43.0625 Z M 52.925781 43.0625 " fill-opacity="1" fill-rule="nonzero"/><path fill="#fd4755" d="M 39.175781 30.257812 C 39.488281 30.238281 39.800781 30.226562 40.121094 30.226562 C 47.1875 30.226562 52.925781 35.976562 52.925781 43.0625 C 52.925781 50.148438 47.1875 55.902344 40.121094 55.902344 C 39.800781 55.902344 39.488281 55.890625 39.175781 55.867188 C 45.800781 55.382812 51.035156 49.832031 51.035156 43.0625 C 51.035156 36.296875 45.800781 30.746094 39.175781 30.257812 Z M 39.175781 30.257812 " fill-opacity="1" fill-rule="evenodd"/><path fill="#eceff1" d="M 45.550781 42.097656 C 45.894531 42.296875 46.105469 42.664062 46.105469 43.0625 C 46.105469 43.460938 45.894531 43.832031 45.550781 44.03125 C 43.535156 45.195312 40.164062 47.148438 38.144531 48.316406 C 37.800781 48.515625 37.378906 48.515625 37.03125 48.316406 C 36.6875 48.117188 36.476562 47.746094 36.476562 47.347656 C 36.476562 45.015625 36.476562 41.113281 36.476562 38.777344 C 36.476562 38.378906 36.6875 38.011719 37.03125 37.8125 C 37.378906 37.613281 37.800781 37.613281 38.144531 37.8125 C 40.164062 38.976562 43.535156 40.929688 45.550781 42.097656 Z M 45.550781 42.097656 " fill-opacity="1" fill-rule="evenodd"/><path fill="#d1d1d6" d="M 38.609375 48.046875 L 38.144531 48.316406 C 37.800781 48.515625 37.378906 48.515625 37.03125 48.316406 C 36.6875 48.117188 36.476562 47.746094 36.476562 47.347656 L 36.476562 38.777344 C 36.476562 38.378906 36.6875 38.011719 37.03125 37.8125 C 37.378906 37.613281 37.800781 37.613281 38.144531 37.8125 L 38.609375 38.078125 C 38.453125 38.273438 38.367188 38.519531 38.367188 38.777344 L 38.367188 47.347656 C 38.367188 47.605469 38.453125 47.851562 38.609375 48.046875 Z M 38.609375 48.046875 " fill-opacity="1" fill-rule="evenodd"/><path fill="#e3a76f" d="M 13.125 40.714844 L 13.125 5.023438 C 13.125 3.085938 14.699219 1.507812 16.628906 1.507812 L 18.03125 1.507812 C 19.960938 1.507812 21.535156 3.085938 21.535156 5.023438 L 21.535156 40.714844 L 17.625 47.5 C 17.5625 47.609375 17.453125 47.671875 17.328125 47.671875 C 17.203125 47.671875 17.09375 47.609375 17.03125 47.5 Z M 13.125 40.714844 " fill-opacity="1" fill-rule="evenodd"/><path fill="#c48958" d="M 16.128906 1.542969 C 16.292969 1.519531 16.460938 1.507812 16.628906 1.507812 L 18.03125 1.507812 C 19.960938 1.507812 21.535156 3.085938 21.535156 5.023438 L 21.535156 40.714844 L 17.625 47.5 C 17.496094 47.730469 17.164062 47.730469 17.03125 47.5 L 16.128906 45.9375 L 19.136719 40.714844 L 19.136719 5.023438 C 19.136719 3.253906 17.828125 1.785156 16.128906 1.542969 Z M 16.128906 1.542969 " fill-opacity="1" fill-rule="evenodd"/><path fill="#837683" d="M 17.03125 47.5 L 13.125 40.714844 L 21.535156 40.714844 L 17.625 47.5 C 17.496094 47.730469 17.164062 47.730469 17.03125 47.5 Z M 17.03125 47.5 " fill-opacity="1" fill-rule="evenodd"/><path fill="#685e68" d="M 17.03125 47.5 L 16.128906 45.9375 L 19.136719 40.714844 L 21.535156 40.714844 L 17.625 47.5 C 17.5625 47.609375 17.453125 47.671875 17.328125 47.671875 C 17.203125 47.671875 17.09375 47.609375 17.03125 47.5 Z M 17.03125 47.5 " fill-opacity="1" fill-rule="evenodd"/><path fill="#837683" d="M 13.125 7.972656 L 13.125 5.023438 C 13.125 3.085938 14.699219 1.507812 16.628906 1.507812 L 18.03125 1.507812 C 19.960938 1.507812 21.535156 3.085938 21.535156 5.023438 L 21.535156 7.972656 Z M 13.125 7.972656 " fill-opacity="1" fill-rule="evenodd"/><path fill="#685e68" d="M 16.128906 1.542969 C 16.292969 1.519531 16.460938 1.507812 16.628906 1.507812 L 18.03125 1.507812 C 19.960938 1.507812 21.535156 3.085938 21.535156 5.023438 L 21.535156 7.972656 L 19.136719 7.972656 L 19.136719 5.023438 C 19.136719 3.253906 17.828125 1.785156 16.128906 1.542969 Z M 16.128906 1.542969 " fill-opacity="1" fill-rule="evenodd"/><g clip-path="url(#e8531985bb)"><path fill="#000000" d="M 26.867188 72.835938 L 8.324219 72.835938 C 4.304688 72.835938 1.015625 69.539062 1.015625 65.511719 L 1.015625 25.535156 C 1.015625 21.507812 4.304688 18.207031 8.324219 18.207031 L 11.644531 18.207031 L 11.648438 5 C 11.644531 2.246094 13.878906 -0.00390625 16.628906 0 L 18.019531 -0.0078125 L 18.023438 -0.0078125 C 20.769531 -0.0078125 23.011719 2.242188 23.015625 4.996094 L 23.015625 18.207031 L 51.414062 18.207031 C 51.566406 18.042969 51.757812 17.910156 51.976562 17.828125 C 51.976562 17.828125 54.625 16.804688 54.625 16.804688 C 55.027344 15.386719 55.59375 14.027344 56.308594 12.742188 L 55.152344 10.136719 C 54.898438 9.566406 55.023438 8.894531 55.464844 8.453125 L 59.359375 4.546875 C 59.800781 4.105469 60.472656 3.980469 61.042969 4.234375 C 61.042969 4.234375 63.640625 5.390625 63.636719 5.390625 C 64.921875 4.675781 66.277344 4.109375 67.6875 3.710938 L 68.710938 1.046875 C 68.9375 0.464844 69.496094 0.078125 70.121094 0.078125 L 75.628906 0.078125 C 76.257812 0.078125 76.816406 0.464844 77.042969 1.050781 L 78.0625 3.710938 C 79.472656 4.109375 80.828125 4.675781 82.109375 5.390625 L 84.707031 4.234375 C 85.277344 3.980469 85.945312 4.105469 86.386719 4.546875 L 90.28125 8.453125 C 90.722656 8.894531 90.847656 9.5625 90.59375 10.136719 C 90.59375 10.136719 89.445312 12.738281 89.445312 12.738281 C 90.160156 14.023438 90.722656 15.386719 91.125 16.804688 L 93.769531 17.828125 C 94.355469 18.050781 94.738281 18.613281 94.738281 19.242188 L 94.738281 24.761719 C 94.738281 25.390625 94.355469 25.953125 93.769531 26.175781 C 93.769531 26.175781 91.121094 27.199219 91.121094 27.199219 C 90.722656 28.613281 90.15625 29.972656 89.445312 31.257812 L 90.59375 33.863281 C 90.847656 34.433594 90.722656 35.105469 90.28125 35.546875 L 86.386719 39.449219 C 85.945312 39.894531 85.277344 40.019531 84.707031 39.765625 C 84.707031 39.765625 82.109375 38.613281 82.113281 38.613281 C 81.253906 39.09375 80.359375 39.507812 79.4375 39.847656 L 79.4375 65.511719 C 79.4375 69.539062 76.144531 72.835938 72.125 72.835938 L 53.589844 72.835938 L 53.589844 79.039062 L 60.898438 79.039062 C 64.53125 79.039062 67.355469 81.605469 67.355469 84.511719 L 67.355469 88.472656 C 67.355469 89.308594 66.675781 89.988281 65.84375 89.988281 L 14.613281 89.988281 C 13.777344 89.988281 13.101562 89.308594 13.101562 88.472656 L 13.101562 84.511719 C 13.101562 81.605469 15.925781 79.039062 19.558594 79.039062 L 26.867188 79.039062 Z M 11.644531 21.238281 L 8.324219 21.238281 C 5.96875 21.238281 4.039062 23.175781 4.039062 25.535156 L 4.039062 65.511719 C 4.039062 67.871094 5.96875 69.804688 8.324219 69.804688 L 72.125 69.804688 C 74.484375 69.804688 76.414062 67.871094 76.414062 65.511719 L 76.414062 43.703125 C 76.179688 43.84375 75.914062 43.921875 75.628906 43.921875 L 74.589844 43.921875 L 74.589844 61.535156 C 74.589844 62.371094 73.914062 63.050781 73.078125 63.050781 L 7.371094 63.050781 C 6.539062 63.050781 5.859375 62.371094 5.859375 61.535156 L 5.859375 25.394531 C 5.859375 24.109375 6.902344 23.070312 8.179688 23.070312 L 11.644531 23.070312 Z M 50.566406 72.835938 L 29.890625 72.835938 L 29.890625 79.039062 L 50.566406 79.039062 Z M 14.667969 10.582031 L 14.664062 38.902344 L 19.988281 38.902344 L 19.992188 10.582031 Z M 19.992188 7.550781 L 19.992188 5 C 19.992188 3.914062 19.109375 3.023438 18.027344 3.023438 L 16.636719 3.027344 C 16.636719 3.027344 16.632812 3.027344 16.628906 3.027344 C 15.546875 3.027344 14.667969 3.914062 14.671875 4.996094 L 14.667969 7.550781 C 14.667969 7.550781 19.992188 7.550781 19.992188 7.550781 Z M 51.007812 21.238281 L 23.015625 21.238281 L 23.015625 23.070312 L 51.007812 23.070312 Z M 71.566406 43.921875 L 70.121094 43.921875 C 69.496094 43.921875 68.9375 43.535156 68.710938 42.949219 C 68.710938 42.949219 67.691406 40.292969 67.691406 40.292969 C 66.277344 39.894531 64.921875 39.328125 63.640625 38.609375 L 61.039062 39.765625 C 60.46875 40.019531 59.800781 39.894531 59.359375 39.449219 L 55.464844 35.546875 C 55.023438 35.105469 54.898438 34.433594 55.152344 33.859375 C 55.152344 33.859375 56.308594 31.257812 56.308594 31.257812 C 55.59375 29.976562 55.027344 28.613281 54.625 27.199219 L 51.976562 26.175781 C 51.921875 26.15625 51.867188 26.128906 51.8125 26.101562 L 23.011719 26.101562 L 23.011719 40.421875 C 23.011719 40.6875 22.941406 40.949219 22.808594 41.179688 L 18.636719 48.421875 C 18.367188 48.890625 17.867188 49.179688 17.328125 49.179688 C 16.789062 49.179688 16.289062 48.890625 16.019531 48.421875 L 11.84375 41.175781 C 11.710938 40.941406 11.640625 40.679688 11.640625 40.417969 L 11.644531 26.101562 L 8.882812 26.101562 L 8.882812 60.019531 L 71.566406 60.019531 Z M 18.882812 41.933594 L 15.769531 41.933594 L 17.328125 44.636719 Z M 16.125 86.957031 C 16.125 86.957031 64.332031 86.957031 64.332031 86.957031 L 64.332031 84.511719 C 64.332031 83.0625 62.707031 82.070312 60.898438 82.070312 L 19.558594 82.070312 C 17.75 82.070312 16.125 83.0625 16.125 84.511719 Z M 75.515625 5.523438 C 75.515625 5.523438 74.589844 3.109375 74.589844 3.109375 L 71.160156 3.109375 L 70.230469 5.527344 C 70.050781 5.992188 69.652344 6.339844 69.167969 6.453125 C 67.527344 6.84375 65.964844 7.496094 64.527344 8.382812 C 64.101562 8.644531 63.574219 8.679688 63.121094 8.476562 L 60.761719 7.425781 C 60.761719 7.425781 58.339844 9.859375 58.339844 9.859375 L 59.386719 12.222656 C 59.589844 12.679688 59.554688 13.207031 59.292969 13.632812 C 58.40625 15.074219 57.757812 16.644531 57.363281 18.292969 C 57.246094 18.78125 56.898438 19.175781 56.433594 19.355469 C 56.433594 19.355469 54.03125 20.28125 54.03125 20.28125 C 54.03125 20.28125 54.03125 23.722656 54.03125 23.722656 L 56.433594 24.648438 C 56.898438 24.828125 57.246094 25.226562 57.359375 25.710938 C 57.757812 27.355469 58.402344 28.929688 59.289062 30.367188 C 59.554688 30.792969 59.589844 31.320312 59.386719 31.777344 L 58.339844 34.140625 L 60.765625 36.574219 L 63.121094 35.527344 C 63.574219 35.324219 64.101562 35.359375 64.523438 35.621094 C 65.960938 36.503906 67.527344 37.160156 69.171875 37.550781 C 69.660156 37.664062 70.058594 38.011719 70.234375 38.480469 C 70.234375 38.480469 71.160156 40.890625 71.160156 40.890625 C 71.160156 40.890625 74.59375 40.890625 74.59375 40.890625 L 75.515625 38.480469 C 75.695312 38.011719 76.09375 37.664062 76.578125 37.550781 C 78.21875 37.160156 79.785156 36.511719 81.21875 35.621094 C 81.644531 35.359375 82.171875 35.324219 82.625 35.527344 L 84.984375 36.574219 L 87.410156 34.140625 L 86.367188 31.777344 C 86.164062 31.320312 86.199219 30.796875 86.460938 30.371094 C 87.339844 28.929688 87.996094 27.359375 88.386719 25.714844 C 88.5 25.226562 88.847656 24.828125 89.3125 24.648438 C 89.3125 24.648438 91.714844 23.722656 91.714844 23.722656 C 91.714844 23.722656 91.714844 20.28125 91.714844 20.28125 L 89.3125 19.355469 C 88.847656 19.175781 88.5 18.777344 88.386719 18.289062 C 87.996094 16.640625 87.347656 15.074219 86.460938 13.632812 C 86.199219 13.207031 86.164062 12.679688 86.367188 12.222656 L 87.410156 9.859375 C 87.410156 9.859375 84.984375 7.425781 84.984375 7.425781 L 82.628906 8.476562 C 82.171875 8.679688 81.644531 8.644531 81.222656 8.382812 C 79.78125 7.496094 78.21875 6.84375 76.578125 6.453125 C 76.09375 6.339844 75.695312 5.992188 75.515625 5.523438 Z M 72.871094 8.496094 C 80.308594 8.496094 86.34375 14.539062 86.34375 21.996094 C 86.34375 29.453125 80.308594 35.503906 72.871094 35.503906 C 65.429688 35.503906 59.40625 29.453125 59.40625 21.996094 C 59.40625 14.539062 65.429688 8.496094 72.871094 8.496094 Z M 83.257812 23.128906 C 83.300781 22.757812 83.320312 22.378906 83.320312 21.996094 C 83.320312 16.210938 78.640625 11.527344 72.871094 11.527344 C 67.101562 11.527344 62.429688 16.210938 62.429688 21.996094 C 62.429688 22.539062 62.46875 23.074219 62.550781 23.597656 L 67.796875 19.613281 C 68.425781 19.132812 69.316406 19.222656 69.839844 19.8125 L 72.46875 22.78125 L 77.496094 18.179688 C 77.8125 17.894531 78.234375 17.75 78.660156 17.792969 C 79.085938 17.832031 79.472656 18.050781 79.726562 18.394531 Z M 63.519531 26.664062 C 65.230469 30.105469 68.773438 32.472656 72.871094 32.472656 C 76.933594 32.472656 80.457031 30.144531 82.183594 26.75 C 81.007812 25.167969 78.304688 21.546875 78.304688 21.546875 L 71.535156 27.738281 C 70.921875 28.304688 69.964844 28.257812 69.402344 27.640625 C 68.839844 27.023438 68.882812 26.066406 69.5 25.5 L 70.234375 24.824219 C 69.460938 23.949219 68.507812 22.875 68.507812 22.875 Z M 72.476562 19.332031 C 71.417969 19.332031 70.558594 18.492188 70.558594 17.464844 C 70.558594 16.433594 71.417969 15.585938 72.476562 15.585938 C 73.53125 15.585938 74.390625 16.433594 74.390625 17.464844 C 74.390625 18.492188 73.53125 19.332031 72.476562 19.332031 Z M 40.117188 28.707031 C 48.019531 28.707031 54.4375 35.136719 54.4375 43.0625 C 54.4375 50.984375 48.019531 57.414062 40.117188 57.414062 C 32.214844 57.414062 25.800781 50.984375 25.800781 43.0625 C 25.800781 35.136719 32.214844 28.707031 40.117188 28.707031 Z M 40.117188 31.738281 C 33.882812 31.738281 28.824219 36.8125 28.824219 43.0625 C 28.824219 49.308594 33.882812 54.382812 40.117188 54.382812 C 46.351562 54.382812 51.414062 49.308594 51.414062 43.0625 C 51.414062 36.8125 46.351562 31.738281 40.117188 31.738281 Z M 46.304688 40.78125 C 47.117188 41.25 47.617188 42.121094 47.617188 43.0625 C 47.617188 44 47.117188 44.871094 46.304688 45.339844 L 38.902344 49.625 C 38.089844 50.09375 37.085938 50.09375 36.277344 49.625 C 35.464844 49.15625 34.964844 48.285156 34.964844 47.347656 L 34.964844 38.773438 C 34.964844 37.835938 35.464844 36.964844 36.277344 36.496094 C 37.085938 36.027344 38.089844 36.027344 38.902344 36.496094 Z M 37.988281 39.46875 L 37.988281 46.65625 L 44.195312 43.0625 Z M 37.988281 39.46875 " fill-opacity="1" fill-rule="evenodd"/></g></svg>