<svg xmlns="http://www.w3.org/2000/svg" xmlns:xlink="http://www.w3.org/1999/xlink" width="128" zoomAndPan="magnify" viewBox="0 0 96 89.999999" height="120" preserveAspectRatio="xMidYMid meet" version="1.0"><defs><clipPath id="d83475f20c"><path d="M 59.4375 40.257812 L 59.796875 40.257812 L 59.796875 40.539062 L 59.4375 40.539062 Z M 59.4375 40.257812 " clip-rule="nonzero"/></clipPath><clipPath id="96557ffbfc"><path d="M 59.773438 40.425781 C 59.101562 40.726562 59.699219 40.273438 59.699219 40.273438 " clip-rule="nonzero"/></clipPath><clipPath id="087a9d2a7c"><path d="M 79 12 L 91.050781 12 L 91.050781 25 L 79 25 Z M 79 12 " clip-rule="nonzero"/></clipPath><clipPath id="8807caec75"><path d="M 4.800781 79 L 19 79 L 19 90 L 4.800781 90 Z M 4.800781 79 " clip-rule="nonzero"/></clipPath></defs><g clip-path="url(#d83475f20c)"><g clip-path="url(#96557ffbfc)"><path fill="#01184e" d="M 56.101562 37.273438 L 62.855469 37.273438 L 62.855469 43.800781 L 56.101562 43.800781 Z M 56.101562 37.273438 " fill-opacity="1" fill-rule="nonzero"/></g></g><path fill="#efc933" d="M 85.960938 35.835938 L 78.558594 43.09375 L 87.289062 49.328125 L 87.363281 50.121094 L 77.699219 43.9375 L 75.195312 46.394531 L 72.257812 44.417969 L 63.960938 52.191406 L 63.882812 51.394531 L 71.246094 43.742188 L 62.558594 37.90625 L 62.480469 37.109375 L 74.960938 44.011719 L 85.882812 35.042969 Z M 61.566406 36.390625 L 63.203125 53.054688 L 88.277344 50.839844 L 86.640625 34.175781 L 61.566406 36.390625 " fill-opacity="1" fill-rule="nonzero"/><path fill="#ffffff" d="M 85.960938 35.835938 L 78.558594 43.09375 L 87.289062 49.328125 L 87.363281 50.121094 L 77.699219 43.9375 L 75.195312 46.394531 L 72.257812 44.417969 L 63.960938 52.191406 L 63.882812 51.394531 L 71.246094 43.742188 L 62.558594 37.90625 L 62.480469 37.109375 L 74.960938 44.011719 L 85.882812 35.042969 L 85.960938 35.835938 " fill-opacity="1" fill-rule="nonzero"/><path fill="#ed5f2f" d="M 87.390625 33.359375 L 81.421875 33.949219 L 82.816406 39.640625 L 82.546875 40.011719 L 80.730469 34.015625 L 78.710938 34.214844 L 78.195312 32.351562 L 71.648438 32.855469 L 71.917969 32.484375 L 78.015625 31.710938 L 76.492188 26.203125 L 76.761719 25.835938 L 79.519531 33.109375 L 87.660156 32.992188 Z M 76.640625 25.210938 L 70.988281 32.96875 L 82.667969 40.636719 L 88.316406 32.878906 L 76.640625 25.210938 " fill-opacity="1" fill-rule="nonzero"/><path fill="#ffffff" d="M 87.390625 33.359375 L 81.421875 33.949219 L 82.816406 39.640625 L 82.546875 40.011719 L 80.730469 34.015625 L 78.710938 34.214844 L 78.195312 32.351562 L 71.648438 32.855469 L 71.917969 32.484375 L 78.015625 31.710938 L 76.492188 26.203125 L 76.761719 25.835938 L 79.519531 33.109375 L 87.660156 32.992188 L 87.390625 33.359375 " fill-opacity="1" fill-rule="nonzero"/><path fill="#ed5f2f" d="M 40.621094 14.664062 L 37.269531 22.234375 L 45.820312 24.511719 L 46.125 25.089844 L 36.882812 23.117188 L 35.75 25.675781 L 32.910156 25.007812 L 29.042969 33.214844 L 28.734375 32.636719 L 31.933594 24.773438 L 23.535156 22.789062 L 23.230469 22.207031 L 34.832031 23.9375 L 40.316406 14.082031 Z M 22.316406 21.917969 L 28.738281 34.085938 L 47.039062 25.378906 L 40.617188 13.214844 L 22.316406 21.917969 " fill-opacity="1" fill-rule="nonzero"/><path fill="#ffffff" d="M 40.621094 14.664062 L 37.269531 22.234375 L 45.820312 24.511719 L 46.125 25.089844 L 36.882812 23.117188 L 35.75 25.675781 L 32.910156 25.007812 L 29.042969 33.214844 L 28.734375 32.636719 L 31.933594 24.773438 L 23.535156 22.789062 L 23.230469 22.207031 L 34.832031 23.9375 L 40.316406 14.082031 L 40.621094 14.664062 " fill-opacity="1" fill-rule="nonzero"/><path fill="#148b89" d="M 39.582031 50.148438 L 36.164062 52.914062 L 39.566406 55.863281 L 39.566406 56.203125 L 35.769531 53.238281 L 34.613281 54.171875 L 33.460938 53.230469 L 29.648438 56.179688 L 29.648438 55.84375 L 33.066406 52.90625 L 29.664062 50.125 L 29.664062 49.789062 L 34.613281 53.164062 L 39.582031 49.808594 Z M 29.308594 49.453125 L 29.292969 56.515625 L 39.921875 56.539062 L 39.9375 49.476562 L 29.308594 49.453125 " fill-opacity="1" fill-rule="nonzero"/><path fill="#ffffff" d="M 39.582031 50.148438 L 36.164062 52.914062 L 39.566406 55.863281 L 39.566406 56.203125 L 35.769531 53.238281 L 34.613281 54.171875 L 33.460938 53.230469 L 29.648438 56.179688 L 29.648438 55.84375 L 33.066406 52.90625 L 29.664062 50.125 L 29.664062 49.789062 L 34.613281 53.164062 L 39.582031 49.808594 L 39.582031 50.148438 " fill-opacity="1" fill-rule="nonzero"/><path fill="#148b89" d="M 72.890625 55.960938 L 61.804688 54.71875 L 61.882812 65.59375 L 61.238281 66.160156 L 60.515625 54.574219 L 56.765625 54.152344 L 56.628906 50.570312 L 44.527344 48.945312 L 45.171875 48.378906 L 56.582031 49.339844 L 56.179688 38.746094 L 56.828125 38.179688 L 58.707031 52.453125 L 73.539062 55.394531 Z M 56.878906 37 L 43.28125 48.898438 L 61.1875 67.339844 L 74.78125 55.445312 L 56.878906 37 " fill-opacity="1" fill-rule="nonzero"/><path fill="#ffffff" d="M 72.890625 55.960938 L 61.804688 54.71875 L 61.882812 65.59375 L 61.238281 66.160156 L 60.515625 54.574219 L 56.765625 54.152344 L 56.628906 50.570312 L 44.527344 48.945312 L 45.171875 48.378906 L 56.582031 49.339844 L 56.179688 38.746094 L 56.828125 38.179688 L 58.707031 52.453125 L 73.539062 55.394531 L 72.890625 55.960938 " fill-opacity="1" fill-rule="nonzero"/><path fill="#148b89" d="M 70.867188 11.074219 L 66.117188 19.304688 L 75.546875 22.847656 L 75.820312 23.542969 L 65.5625 20.257812 L 63.957031 23.042969 L 60.816406 21.960938 L 55.398438 30.855469 L 55.121094 30.164062 L 59.734375 21.589844 L 50.441406 18.390625 L 50.167969 17.695312 L 63.132812 20.964844 L 70.589844 10.382812 Z M 49.160156 17.265625 L 54.945312 31.8125 L 76.824219 23.972656 L 71.046875 9.425781 L 49.160156 17.265625 " fill-opacity="1" fill-rule="nonzero"/><path fill="#ffffff" d="M 70.867188 11.074219 L 66.117188 19.304688 L 75.546875 22.847656 L 75.820312 23.542969 L 65.5625 20.257812 L 63.957031 23.042969 L 60.816406 21.960938 L 55.398438 30.855469 L 55.121094 30.164062 L 59.734375 21.589844 L 50.441406 18.390625 L 50.167969 17.695312 L 63.132812 20.964844 L 70.589844 10.382812 L 70.867188 11.074219 " fill-opacity="1" fill-rule="nonzero"/><path fill="#efc933" d="M 43.632812 39.683594 L 39.972656 39.039062 L 39.746094 42.660156 L 39.519531 42.835938 L 39.546875 38.964844 L 38.308594 38.746094 L 38.347656 37.550781 L 34.355469 36.757812 L 34.585938 36.582031 L 38.359375 37.140625 L 38.472656 33.609375 L 38.699219 33.433594 L 38.996094 38.222656 L 43.863281 39.511719 Z M 38.742188 33.039062 L 33.945312 36.714844 L 39.476562 43.226562 L 44.273438 39.550781 L 38.742188 33.039062 " fill-opacity="1" fill-rule="nonzero"/><path fill="#ffffff" d="M 43.632812 39.683594 L 39.972656 39.039062 L 39.746094 42.660156 L 39.519531 42.835938 L 39.546875 38.964844 L 38.308594 38.746094 L 38.347656 37.550781 L 34.355469 36.757812 L 34.585938 36.582031 L 38.359375 37.140625 L 38.472656 33.609375 L 38.699219 33.433594 L 38.996094 38.222656 L 43.863281 39.511719 L 43.632812 39.683594 " fill-opacity="1" fill-rule="nonzero"/><path fill="#efc933" d="M 57.21875 7.804688 L 52.566406 7.378906 L 52.703125 11.929688 L 52.4375 12.175781 L 52.027344 7.328125 L 50.453125 7.183594 L 50.359375 5.6875 L 45.277344 5.113281 L 45.542969 4.867188 L 50.328125 5.171875 L 50.058594 0.742188 L 50.324219 0.5 L 51.25 6.457031 L 57.484375 7.5625 Z M 50.335938 0.00390625 L 44.757812 5.101562 L 52.429688 12.667969 L 58.007812 7.570312 L 50.335938 0.00390625 " fill-opacity="1" fill-rule="nonzero"/><path fill="#ffffff" d="M 57.21875 7.804688 L 52.566406 7.378906 L 52.703125 11.929688 L 52.4375 12.175781 L 52.027344 7.328125 L 50.453125 7.183594 L 50.359375 5.6875 L 45.277344 5.113281 L 45.542969 4.867188 L 50.328125 5.171875 L 50.058594 0.742188 L 50.324219 0.5 L 51.25 6.457031 L 57.484375 7.5625 L 57.21875 7.804688 " fill-opacity="1" fill-rule="nonzero"/><path fill="#efc933" d="M 84.207031 66.027344 L 77.457031 65.410156 L 77.65625 72.019531 L 77.269531 72.371094 L 76.671875 65.339844 L 74.386719 65.132812 L 74.253906 62.957031 L 66.878906 62.121094 L 67.261719 61.765625 L 74.207031 62.207031 L 73.816406 55.777344 L 74.203125 55.425781 L 75.542969 64.074219 L 84.59375 65.675781 Z M 74.214844 54.707031 L 66.121094 62.105469 L 77.253906 73.089844 L 85.351562 65.691406 L 74.214844 54.707031 " fill-opacity="1" fill-rule="nonzero"/><path fill="#ffffff" d="M 84.207031 66.027344 L 77.457031 65.410156 L 77.65625 72.019531 L 77.269531 72.371094 L 76.671875 65.339844 L 74.386719 65.132812 L 74.253906 62.957031 L 66.878906 62.121094 L 67.261719 61.765625 L 74.207031 62.207031 L 73.816406 55.777344 L 74.203125 55.425781 L 75.542969 64.074219 L 84.59375 65.675781 L 84.207031 66.027344 " fill-opacity="1" fill-rule="nonzero"/><path fill="#d52839" d="M 64.839844 33.230469 L 58.996094 37.96875 L 64.820312 43.019531 L 64.820312 43.59375 L 58.316406 38.519531 L 56.339844 40.121094 L 54.367188 38.511719 L 47.84375 43.558594 L 47.84375 42.980469 L 53.691406 37.957031 L 47.863281 33.195312 L 47.863281 32.621094 L 56.339844 38.394531 L 64.84375 32.65625 Z M 47.261719 32.042969 L 47.234375 44.132812 L 65.425781 44.171875 L 65.449219 32.082031 L 47.261719 32.042969 " fill-opacity="1" fill-rule="nonzero"/><path fill="#ffffff" d="M 64.839844 33.230469 L 58.996094 37.96875 L 64.820312 43.019531 L 64.820312 43.59375 L 58.316406 38.519531 L 56.339844 40.121094 L 54.367188 38.511719 L 47.84375 43.558594 L 47.84375 42.980469 L 53.691406 37.957031 L 47.863281 33.195312 L 47.863281 32.621094 L 56.339844 38.394531 L 64.84375 32.65625 L 64.839844 33.230469 " fill-opacity="1" fill-rule="nonzero"/><path fill="#d52839" d="M 67.503906 74.910156 L 61.863281 77.550781 L 65.410156 82.671875 L 65.289062 83.125 L 61.207031 77.855469 L 59.296875 78.75 L 58.074219 77.09375 L 51.828125 79.851562 L 51.949219 79.394531 L 57.65625 76.527344 L 54.042969 71.632812 L 54.167969 71.179688 L 59.667969 77.382812 L 67.628906 74.453125 Z M 53.808594 70.605469 L 51.222656 80.1875 L 65.644531 83.699219 L 68.230469 74.117188 L 53.808594 70.605469 " fill-opacity="1" fill-rule="nonzero"/><path fill="#ffffff" d="M 67.503906 74.910156 L 61.863281 77.550781 L 65.410156 82.671875 L 65.289062 83.125 L 61.207031 77.855469 L 59.296875 78.75 L 58.074219 77.09375 L 51.828125 79.851562 L 51.949219 79.394531 L 57.65625 76.527344 L 54.042969 71.632812 L 54.167969 71.179688 L 59.667969 77.382812 L 67.628906 74.453125 L 67.503906 74.910156 " fill-opacity="1" fill-rule="nonzero"/><g clip-path="url(#087a9d2a7c)"><path fill="#d52839" d="M 90.328125 20.496094 L 86.273438 19.539062 L 85.761719 23.578125 L 85.492188 23.757812 L 85.804688 19.425781 L 84.429688 19.101562 L 84.558594 17.765625 L 80.148438 16.617188 L 80.417969 16.4375 L 84.601562 17.304688 L 84.980469 13.355469 L 85.25 13.175781 L 85.238281 18.558594 L 90.59375 20.316406 Z M 85.328125 12.738281 L 79.6875 16.546875 L 85.414062 24.195312 L 91.054688 20.390625 L 85.328125 12.738281 " fill-opacity="1" fill-rule="nonzero"/></g><path fill="#ffffff" d="M 90.328125 20.496094 L 86.273438 19.539062 L 85.761719 23.578125 L 85.492188 23.757812 L 85.804688 19.425781 L 84.429688 19.101562 L 84.558594 17.765625 L 80.148438 16.617188 L 80.417969 16.4375 L 84.601562 17.304688 L 84.980469 13.355469 L 85.25 13.175781 L 85.238281 18.558594 L 90.59375 20.316406 L 90.328125 20.496094 " fill-opacity="1" fill-rule="nonzero"/><path fill="#d52839" d="M 86.457031 59.5625 L 84.660156 57.546875 L 82.730469 59.539062 L 82.507812 59.535156 L 84.453125 57.3125 L 83.84375 56.628906 L 84.460938 55.957031 L 82.550781 53.707031 L 82.769531 53.707031 L 84.675781 55.722656 L 86.496094 53.730469 L 86.714844 53.730469 L 84.503906 56.632812 L 86.675781 59.5625 Z M 86.9375 53.523438 L 82.332031 53.496094 L 82.289062 59.742188 L 86.894531 59.773438 L 86.9375 53.523438 " fill-opacity="1" fill-rule="nonzero"/><path fill="#ffffff" d="M 86.457031 59.5625 L 84.660156 57.546875 L 82.730469 59.539062 L 82.507812 59.535156 L 84.453125 57.3125 L 83.84375 56.628906 L 84.460938 55.957031 L 82.550781 53.707031 L 82.769531 53.707031 L 84.675781 55.722656 L 86.496094 53.730469 L 86.714844 53.730469 L 84.503906 56.632812 L 86.675781 59.5625 L 86.457031 59.5625 " fill-opacity="1" fill-rule="nonzero"/><path fill="#148b89" d="M 44.292969 30.832031 C 44.292969 31.417969 43.792969 31.894531 43.171875 31.890625 C 42.554688 31.890625 42.054688 31.414062 42.058594 30.828125 C 42.058594 30.242188 42.558594 29.765625 43.179688 29.769531 C 43.796875 29.769531 44.292969 30.246094 44.292969 30.832031 " fill-opacity="1" fill-rule="nonzero"/><path fill="#ed5f2f" d="M 43.90625 45.945312 C 43.90625 46.179688 43.707031 46.367188 43.460938 46.367188 C 43.214844 46.363281 43.019531 46.175781 43.019531 45.945312 C 43.019531 45.710938 43.21875 45.523438 43.464844 45.523438 C 43.707031 45.523438 43.90625 45.710938 43.90625 45.945312 " fill-opacity="1" fill-rule="nonzero"/><path fill="#ed5f2f" d="M 88.769531 28.417969 C 88.769531 28.648438 88.570312 28.835938 88.324219 28.835938 C 88.082031 28.835938 87.882812 28.648438 87.882812 28.414062 C 87.882812 28.183594 88.082031 27.992188 88.328125 27.992188 C 88.574219 27.996094 88.769531 28.183594 88.769531 28.417969 " fill-opacity="1" fill-rule="nonzero"/><path fill="#ed5f2f" d="M 79.695312 12.726562 C 79.695312 12.960938 79.496094 13.148438 79.25 13.148438 C 79.007812 13.148438 78.808594 12.957031 78.808594 12.726562 C 78.808594 12.492188 79.007812 12.304688 79.253906 12.304688 C 79.5 12.304688 79.695312 12.496094 79.695312 12.726562 " fill-opacity="1" fill-rule="nonzero"/><path fill="#ed5f2f" d="M 46.105469 32.617188 C 46.105469 32.847656 45.90625 33.035156 45.664062 33.035156 C 45.417969 33.035156 45.21875 32.847656 45.21875 32.613281 C 45.21875 32.382812 45.417969 32.191406 45.664062 32.195312 C 45.910156 32.195312 46.109375 32.382812 46.105469 32.617188 " fill-opacity="1" fill-rule="nonzero"/><path fill="#d52839" d="M 37.222656 10.308594 C 37.222656 10.542969 37.023438 10.730469 36.78125 10.730469 C 36.535156 10.730469 36.335938 10.539062 36.335938 10.308594 C 36.335938 10.074219 36.535156 9.886719 36.78125 9.886719 C 37.027344 9.886719 37.222656 10.078125 37.222656 10.308594 " fill-opacity="1" fill-rule="nonzero"/><path fill="#efc933" d="M 39.617188 7.289062 C 39.617188 7.523438 39.417969 7.710938 39.175781 7.707031 C 38.929688 7.707031 38.730469 7.519531 38.730469 7.285156 C 38.730469 7.054688 38.929688 6.867188 39.175781 6.867188 C 39.421875 6.867188 39.621094 7.054688 39.617188 7.289062 " fill-opacity="1" fill-rule="nonzero"/><path fill="#148b89" d="M 26.269531 79.683594 L 22.855469 82.449219 L 26.257812 85.398438 L 26.257812 85.734375 L 22.457031 82.769531 L 21.300781 83.707031 L 20.148438 82.765625 L 16.335938 85.714844 L 16.339844 85.378906 L 19.753906 82.441406 L 16.351562 79.660156 L 16.351562 79.324219 L 21.304688 82.699219 L 26.269531 79.34375 Z M 15.996094 78.988281 L 15.984375 86.050781 L 26.609375 86.074219 L 26.625 79.007812 L 15.996094 78.988281 " fill-opacity="1" fill-rule="nonzero"/><path fill="#ffffff" d="M 26.269531 79.683594 L 22.855469 82.449219 L 26.257812 85.398438 L 26.257812 85.734375 L 22.457031 82.769531 L 21.300781 83.707031 L 20.148438 82.765625 L 16.335938 85.714844 L 16.339844 85.378906 L 19.753906 82.441406 L 16.351562 79.660156 L 16.351562 79.324219 L 21.304688 82.699219 L 26.269531 79.34375 L 26.269531 79.683594 " fill-opacity="1" fill-rule="nonzero"/><g clip-path="url(#8807caec75)"><path fill="#efc933" d="M 18.261719 82.648438 L 13.617188 84.945312 L 16.671875 89.144531 L 16.578125 89.527344 L 13.078125 85.210938 L 11.507812 85.988281 L 10.457031 84.628906 L 5.3125 87.03125 L 5.40625 86.648438 L 10.097656 84.164062 L 7 80.15625 L 7.09375 79.773438 L 11.789062 84.839844 L 18.355469 82.269531 Z M 6.785156 79.304688 L 4.816406 87.324219 L 16.882812 89.996094 L 18.851562 81.976562 L 6.785156 79.304688 " fill-opacity="1" fill-rule="nonzero"/></g><path fill="#ffffff" d="M 18.261719 82.648438 L 13.617188 84.945312 L 16.671875 89.144531 L 16.578125 89.527344 L 13.078125 85.210938 L 11.507812 85.988281 L 10.457031 84.628906 L 5.3125 87.03125 L 5.40625 86.648438 L 10.097656 84.164062 L 7 80.15625 L 7.09375 79.773438 L 11.789062 84.839844 L 18.355469 82.269531 L 18.261719 82.648438 " fill-opacity="1" fill-rule="nonzero"/><path fill="#d52839" d="M 29.417969 68.683594 L 27.824219 73.78125 L 33.496094 74.671875 L 33.734375 75.027344 L 27.640625 74.375 L 27.101562 76.097656 L 25.222656 75.855469 L 23.34375 81.402344 L 23.105469 81.046875 L 24.578125 75.773438 L 19.027344 75.058594 L 18.785156 74.707031 L 26.378906 75.042969 L 29.175781 68.332031 Z M 18.175781 74.582031 L 23.214844 81.980469 L 34.34375 75.148438 L 29.308594 67.75 L 18.175781 74.582031 " fill-opacity="1" fill-rule="nonzero"/><path fill="#ffffff" d="M 29.417969 68.683594 L 27.824219 73.78125 L 33.496094 74.671875 L 33.734375 75.027344 L 27.640625 74.375 L 27.101562 76.097656 L 25.222656 75.855469 L 23.34375 81.402344 L 23.105469 81.046875 L 24.578125 75.773438 L 19.027344 75.058594 L 18.785156 74.707031 L 26.378906 75.042969 L 29.175781 68.332031 L 29.417969 68.683594 " fill-opacity="1" fill-rule="nonzero"/><path fill="#efc933" d="M 45.84375 74.449219 L 40.84375 75.921875 L 43.058594 80.566406 L 42.894531 80.929688 L 40.261719 76.089844 L 38.570312 76.589844 L 37.792969 75.078125 L 32.277344 76.574219 L 32.441406 76.214844 L 37.523438 74.558594 L 35.226562 70.09375 L 35.386719 69.734375 L 39.0625 75.511719 L 46.007812 74.085938 Z M 35.171875 69.21875 L 31.734375 76.777344 L 43.113281 81.441406 L 46.550781 73.882812 L 35.171875 69.21875 " fill-opacity="1" fill-rule="nonzero"/><path fill="#ffffff" d="M 45.84375 74.449219 L 40.84375 75.921875 L 43.058594 80.566406 L 42.894531 80.929688 L 40.261719 76.089844 L 38.570312 76.589844 L 37.792969 75.078125 L 32.277344 76.574219 L 32.441406 76.214844 L 37.523438 74.558594 L 35.226562 70.09375 L 35.386719 69.734375 L 39.0625 75.511719 L 46.007812 74.085938 L 45.84375 74.449219 " fill-opacity="1" fill-rule="nonzero"/><path fill="#ed5f2f" d="M 48.710938 58.800781 L 47.660156 63.769531 L 53.125 64.152344 L 53.382812 64.46875 L 47.539062 64.347656 L 47.183594 66.03125 L 45.378906 65.953125 L 44.097656 71.371094 L 43.839844 71.054688 L 44.757812 65.929688 L 39.421875 65.703125 L 39.164062 65.386719 L 46.402344 65.085938 L 48.449219 58.484375 Z M 38.570312 65.320312 L 44.027344 71.933594 L 53.976562 64.535156 L 48.519531 57.921875 L 38.570312 65.320312 " fill-opacity="1" fill-rule="nonzero"/><path fill="#ffffff" d="M 48.710938 58.800781 L 47.660156 63.769531 L 53.125 64.152344 L 53.382812 64.46875 L 47.539062 64.347656 L 47.183594 66.03125 L 45.378906 65.953125 L 44.097656 71.371094 L 43.839844 71.054688 L 44.757812 65.929688 L 39.421875 65.703125 L 39.164062 65.386719 L 46.402344 65.085938 L 48.449219 58.484375 L 48.710938 58.800781 " fill-opacity="1" fill-rule="nonzero"/></svg>