<svg width="20" height="20" viewBox="0 0 20 20" fill="none" xmlns="http://www.w3.org/2000/svg">
<path d="M5.8335 8.3335V14.1668" stroke="#FB3189" stroke-width="1.5" stroke-linecap="round" stroke-linejoin="round"/>
<path d="M9.1665 10.8335V14.1668M9.1665 10.8335C9.1665 9.45275 10.2858 8.3335 11.6665 8.3335C13.0473 8.3335 14.1665 9.45275 14.1665 10.8335V14.1668M9.1665 10.8335V8.3335" stroke="#FB3189" stroke-width="1.5" stroke-linecap="round" stroke-linejoin="round"/>
<path d="M5.84001 5.8335H5.83252" stroke="#FB3189" stroke-width="2" stroke-linecap="round" stroke-linejoin="round"/>
<path d="M2.0835 10.0002C2.0835 6.26821 2.0835 4.40224 3.24286 3.24286C4.40224 2.0835 6.26821 2.0835 10.0002 2.0835C13.7321 2.0835 15.5981 2.0835 16.7575 3.24286C17.9168 4.40224 17.9168 6.26821 17.9168 10.0002C17.9168 13.7321 17.9168 15.5981 16.7575 16.7575C15.5981 17.9168 13.7321 17.9168 10.0002 17.9168C6.26821 17.9168 4.40224 17.9168 3.24286 16.7575C2.0835 15.5981 2.0835 13.7321 2.0835 10.0002Z" stroke="#FB3189" stroke-width="1.5" stroke-linejoin="round"/>
</svg>
