<svg xmlns="http://www.w3.org/2000/svg" xmlns:xlink="http://www.w3.org/1999/xlink" width="128" zoomAndPan="magnify" viewBox="0 0 96 89.999999" height="120" preserveAspectRatio="xMidYMid meet" version="1.0"><defs><clipPath id="587603e9a1"><path d="M 59.4375 40.257812 L 59.796875 40.257812 L 59.796875 40.539062 L 59.4375 40.539062 Z M 59.4375 40.257812 " clip-rule="nonzero"/></clipPath><clipPath id="090db99451"><path d="M 59.773438 40.425781 C 59.101562 40.726562 59.699219 40.273438 59.699219 40.273438 " clip-rule="nonzero"/></clipPath><clipPath id="81c8806bcc"><path d="M 81 29 L 91.460938 29 L 91.460938 71 L 81 71 Z M 81 29 " clip-rule="nonzero"/></clipPath><clipPath id="5f176db510"><path d="M 4.460938 45 L 14 45 L 14 47 L 4.460938 47 Z M 4.460938 45 " clip-rule="nonzero"/></clipPath><clipPath id="de5a1c222f"><path d="M 4.460938 45 L 13 45 L 13 47 L 4.460938 47 Z M 4.460938 45 " clip-rule="nonzero"/></clipPath></defs><g clip-path="url(#587603e9a1)"><g clip-path="url(#090db99451)"><path fill="#01184e" d="M 56.101562 37.273438 L 62.855469 37.273438 L 62.855469 43.800781 L 56.101562 43.800781 Z M 56.101562 37.273438 " fill-opacity="1" fill-rule="nonzero"/></g></g><path fill="#421f6b" d="M 32.042969 81.605469 C 31.980469 81.605469 31.914062 81.589844 31.851562 81.558594 C 30.453125 80.847656 29.082031 80.046875 27.773438 79.179688 C 27.578125 79.050781 27.523438 78.785156 27.652344 78.589844 C 27.785156 78.394531 28.046875 78.339844 28.242188 78.46875 C 29.527344 79.320312 30.867188 80.101562 32.238281 80.796875 C 32.445312 80.902344 32.53125 81.160156 32.425781 81.371094 C 32.347656 81.519531 32.199219 81.605469 32.042969 81.605469 Z M 24.269531 76.449219 C 24.171875 76.449219 24.074219 76.417969 23.996094 76.351562 C 22.796875 75.339844 21.640625 74.25 20.566406 73.109375 C 20.402344 72.9375 20.410156 72.667969 20.582031 72.503906 C 20.753906 72.34375 21.023438 72.351562 21.183594 72.523438 C 22.238281 73.640625 23.371094 74.707031 24.542969 75.699219 C 24.722656 75.851562 24.746094 76.117188 24.59375 76.300781 C 24.511719 76.398438 24.390625 76.449219 24.269531 76.449219 Z M 17.867188 69.664062 C 17.738281 69.664062 17.609375 69.605469 17.527344 69.496094 C 16.585938 68.238281 15.710938 66.914062 14.921875 65.558594 C 14.800781 65.355469 14.871094 65.09375 15.074219 64.972656 C 15.277344 64.855469 15.539062 64.925781 15.65625 65.128906 C 16.429688 66.453125 17.289062 67.753906 18.207031 68.984375 C 18.347656 69.171875 18.3125 69.441406 18.121094 69.582031 C 18.046875 69.636719 17.957031 69.664062 17.867188 69.664062 Z M 17.867188 69.664062 " fill-opacity="1" fill-rule="nonzero"/><g clip-path="url(#81c8806bcc)"><path fill="#421f6b" d="M 82.285156 70.546875 C 82.191406 70.546875 82.097656 70.519531 82.019531 70.457031 C 81.835938 70.308594 81.804688 70.042969 81.949219 69.855469 C 82.902344 68.652344 83.796875 67.378906 84.605469 66.070312 C 84.730469 65.871094 84.992188 65.808594 85.191406 65.933594 C 85.394531 66.058594 85.453125 66.320312 85.332031 66.523438 C 84.503906 67.855469 83.59375 69.15625 82.617188 70.386719 C 82.535156 70.492188 82.410156 70.546875 82.285156 70.546875 Z M 87.195312 62.617188 C 87.136719 62.617188 87.074219 62.601562 87.015625 62.574219 C 86.800781 62.476562 86.710938 62.21875 86.8125 62.007812 C 87.464844 60.617188 88.042969 59.171875 88.53125 57.714844 C 88.609375 57.492188 88.851562 57.371094 89.074219 57.445312 C 89.296875 57.523438 89.414062 57.761719 89.339844 57.988281 C 88.84375 59.472656 88.25 60.949219 87.582031 62.371094 C 87.511719 62.523438 87.355469 62.617188 87.195312 62.617188 Z M 90.164062 53.765625 C 90.136719 53.765625 90.105469 53.765625 90.078125 53.757812 C 89.847656 53.710938 89.699219 53.484375 89.746094 53.253906 C 90.0625 51.75 90.296875 50.210938 90.4375 48.679688 C 90.460938 48.445312 90.667969 48.269531 90.902344 48.292969 C 91.136719 48.316406 91.308594 48.523438 91.289062 48.757812 C 91.140625 50.324219 90.90625 51.894531 90.582031 53.429688 C 90.539062 53.628906 90.363281 53.765625 90.164062 53.765625 Z M 91.03125 44.472656 C 90.800781 44.472656 90.609375 44.289062 90.605469 44.054688 C 90.574219 42.515625 90.453125 40.964844 90.246094 39.445312 C 90.214844 39.210938 90.378906 38.996094 90.609375 38.964844 C 90.84375 38.933594 91.058594 39.097656 91.089844 39.328125 C 91.300781 40.878906 91.425781 42.464844 91.457031 44.039062 C 91.460938 44.273438 91.273438 44.46875 91.039062 44.472656 C 91.035156 44.472656 91.035156 44.472656 91.03125 44.472656 Z M 89.773438 35.226562 C 89.585938 35.226562 89.410156 35.097656 89.363281 34.90625 C 88.980469 33.417969 88.507812 31.933594 87.960938 30.5 C 87.875 30.28125 87.984375 30.03125 88.203125 29.949219 C 88.425781 29.863281 88.671875 29.972656 88.753906 30.195312 C 89.316406 31.660156 89.800781 33.171875 90.1875 34.695312 C 90.246094 34.921875 90.109375 35.15625 89.878906 35.214844 C 89.84375 35.222656 89.808594 35.226562 89.773438 35.226562 Z M 89.773438 35.226562 " fill-opacity="1" fill-rule="nonzero"/></g><path fill="#421f6b" d="M 12.332031 31.144531 C 12.285156 31.144531 12.234375 31.136719 12.183594 31.117188 C 11.964844 31.035156 11.851562 30.789062 11.933594 30.570312 C 12.480469 29.097656 13.121094 27.644531 13.832031 26.246094 C 13.941406 26.035156 14.199219 25.953125 14.40625 26.058594 C 14.617188 26.164062 14.699219 26.421875 14.59375 26.632812 C 13.894531 28.003906 13.269531 29.425781 12.730469 30.867188 C 12.667969 31.039062 12.503906 31.144531 12.332031 31.144531 Z M 16.574219 22.832031 C 16.492188 22.832031 16.410156 22.808594 16.335938 22.761719 C 16.140625 22.628906 16.089844 22.363281 16.21875 22.167969 C 17.085938 20.863281 18.042969 19.59375 19.054688 18.394531 C 19.207031 18.214844 19.476562 18.191406 19.65625 18.34375 C 19.835938 18.496094 19.859375 18.765625 19.707031 18.945312 C 18.714844 20.117188 17.777344 21.363281 16.929688 22.640625 C 16.847656 22.765625 16.710938 22.832031 16.574219 22.832031 Z M 22.59375 15.703125 C 22.480469 15.703125 22.367188 15.660156 22.285156 15.570312 C 22.121094 15.398438 22.132812 15.128906 22.300781 14.96875 C 23.445312 13.890625 24.660156 12.871094 25.917969 11.933594 C 26.109375 11.792969 26.375 11.832031 26.515625 12.023438 C 26.65625 12.210938 26.617188 12.480469 26.429688 12.621094 C 25.195312 13.535156 24.003906 14.535156 22.886719 15.589844 C 22.804688 15.667969 22.699219 15.703125 22.59375 15.703125 Z M 30.070312 10.132812 C 29.925781 10.132812 29.78125 10.054688 29.703125 9.917969 C 29.585938 9.714844 29.65625 9.453125 29.859375 9.335938 C 31.214844 8.550781 32.632812 7.832031 34.070312 7.207031 C 34.285156 7.113281 34.535156 7.214844 34.628906 7.429688 C 34.722656 7.644531 34.625 7.898438 34.410156 7.992188 C 33 8.601562 31.613281 9.304688 30.285156 10.074219 C 30.21875 10.113281 30.144531 10.132812 30.070312 10.132812 Z M 38.621094 6.414062 C 38.4375 6.414062 38.265625 6.296875 38.210938 6.113281 C 38.144531 5.886719 38.269531 5.648438 38.496094 5.582031 C 39.996094 5.125 41.539062 4.753906 43.082031 4.476562 C 43.316406 4.433594 43.535156 4.585938 43.578125 4.820312 C 43.621094 5.050781 43.464844 5.273438 43.234375 5.316406 C 41.722656 5.585938 40.210938 5.953125 38.742188 6.398438 C 38.703125 6.410156 38.660156 6.414062 38.621094 6.414062 Z M 38.621094 6.414062 " fill-opacity="1" fill-rule="nonzero"/><path fill="#96f5ff" d="M 80.242188 44.90625 C 80.242188 45.882812 80.195312 46.859375 80.097656 47.832031 C 80.003906 48.804688 79.859375 49.769531 79.667969 50.730469 C 79.480469 51.6875 79.242188 52.636719 78.957031 53.570312 C 78.675781 54.507812 78.34375 55.425781 77.972656 56.328125 C 77.597656 57.230469 77.179688 58.113281 76.71875 58.976562 C 76.261719 59.839844 75.757812 60.675781 75.214844 61.488281 C 74.671875 62.304688 74.089844 63.085938 73.472656 63.84375 C 72.851562 64.597656 72.195312 65.324219 71.507812 66.011719 C 70.816406 66.703125 70.09375 67.359375 69.335938 67.980469 C 68.582031 68.601562 67.796875 69.183594 66.984375 69.726562 C 66.175781 70.269531 65.335938 70.769531 64.476562 71.230469 C 63.613281 71.691406 62.730469 72.109375 61.828125 72.484375 C 60.925781 72.859375 60.007812 73.1875 59.074219 73.472656 C 58.140625 73.753906 57.191406 73.992188 56.234375 74.183594 C 55.277344 74.375 54.3125 74.515625 53.339844 74.613281 C 52.367188 74.707031 51.390625 74.757812 50.414062 74.757812 C 49.4375 74.757812 48.464844 74.707031 47.492188 74.613281 C 46.519531 74.515625 45.554688 74.375 44.597656 74.183594 C 43.636719 73.992188 42.691406 73.753906 41.757812 73.472656 C 40.820312 73.1875 39.902344 72.859375 39 72.484375 C 38.097656 72.109375 37.214844 71.691406 36.355469 71.230469 C 35.492188 70.769531 34.65625 70.269531 33.84375 69.726562 C 33.03125 69.183594 32.25 68.601562 31.492188 67.980469 C 30.738281 67.359375 30.015625 66.703125 29.324219 66.011719 C 28.632812 65.324219 27.976562 64.597656 27.359375 63.84375 C 26.738281 63.085938 26.15625 62.304688 25.613281 61.488281 C 25.070312 60.675781 24.570312 59.839844 24.109375 58.976562 C 23.648438 58.113281 23.230469 57.230469 22.859375 56.328125 C 22.484375 55.425781 22.15625 54.507812 21.871094 53.570312 C 21.589844 52.636719 21.351562 51.6875 21.160156 50.730469 C 20.96875 49.769531 20.828125 48.804688 20.730469 47.832031 C 20.636719 46.859375 20.589844 45.882812 20.589844 44.90625 C 20.589844 43.929688 20.636719 42.953125 20.730469 41.980469 C 20.828125 41.007812 20.96875 40.039062 21.160156 39.082031 C 21.351562 38.121094 21.589844 37.175781 21.871094 36.238281 C 22.15625 35.304688 22.484375 34.386719 22.859375 33.480469 C 23.230469 32.578125 23.648438 31.695312 24.109375 30.832031 C 24.570312 29.972656 25.070312 29.132812 25.613281 28.320312 C 26.15625 27.507812 26.738281 26.722656 27.359375 25.96875 C 27.976562 25.210938 28.632812 24.488281 29.324219 23.796875 C 30.015625 23.105469 30.738281 22.449219 31.492188 21.832031 C 32.25 21.210938 33.03125 20.628906 33.84375 20.085938 C 34.65625 19.542969 35.492188 19.039062 36.355469 18.578125 C 37.214844 18.117188 38.097656 17.699219 39 17.328125 C 39.902344 16.953125 40.820312 16.625 41.757812 16.339844 C 42.691406 16.054688 43.636719 15.820312 44.597656 15.628906 C 45.554688 15.4375 46.519531 15.292969 47.492188 15.199219 C 48.464844 15.101562 49.4375 15.054688 50.414062 15.054688 C 51.390625 15.054688 52.367188 15.101562 53.339844 15.199219 C 54.3125 15.292969 55.277344 15.4375 56.234375 15.628906 C 57.191406 15.820312 58.140625 16.054688 59.074219 16.339844 C 60.007812 16.625 60.925781 16.953125 61.828125 17.328125 C 62.730469 17.699219 63.613281 18.117188 64.476562 18.578125 C 65.335938 19.039062 66.175781 19.542969 66.984375 20.085938 C 67.796875 20.628906 68.582031 21.210938 69.335938 21.832031 C 70.09375 22.449219 70.816406 23.105469 71.507812 23.796875 C 72.195312 24.488281 72.851562 25.210938 73.472656 25.96875 C 74.089844 26.722656 74.671875 27.507812 75.214844 28.320312 C 75.757812 29.132812 76.261719 29.972656 76.71875 30.832031 C 77.179688 31.695312 77.597656 32.578125 77.972656 33.480469 C 78.34375 34.386719 78.675781 35.304688 78.957031 36.242188 C 79.242188 37.175781 79.480469 38.121094 79.667969 39.082031 C 79.859375 40.039062 80.003906 41.007812 80.097656 41.980469 C 80.195312 42.953125 80.242188 43.929688 80.242188 44.90625 Z M 80.242188 44.90625 " fill-opacity="1" fill-rule="nonzero"/><path fill="#fdaf95" d="M 45.03125 46.410156 C 45.03125 47.027344 45 47.644531 44.941406 48.257812 C 44.878906 48.875 44.789062 49.484375 44.667969 50.089844 C 44.546875 50.695312 44.398438 51.292969 44.21875 51.882812 C 44.039062 52.476562 43.832031 53.054688 43.597656 53.628906 C 43.359375 54.199219 43.097656 54.753906 42.804688 55.300781 C 42.515625 55.84375 42.199219 56.375 41.855469 56.886719 C 41.511719 57.402344 41.144531 57.894531 40.753906 58.375 C 40.363281 58.851562 39.949219 59.308594 39.511719 59.746094 C 39.074219 60.179688 38.621094 60.597656 38.140625 60.988281 C 37.664062 61.378906 37.171875 61.746094 36.65625 62.089844 C 36.144531 62.433594 35.617188 62.75 35.070312 63.042969 C 34.527344 63.332031 33.96875 63.597656 33.398438 63.832031 C 32.828125 64.070312 32.25 64.277344 31.660156 64.457031 C 31.066406 64.636719 30.46875 64.785156 29.863281 64.90625 C 29.261719 65.027344 28.648438 65.117188 28.035156 65.175781 C 27.421875 65.238281 26.804688 65.269531 26.1875 65.269531 C 25.570312 65.269531 24.957031 65.238281 24.34375 65.175781 C 23.726562 65.117188 23.117188 65.027344 22.511719 64.90625 C 21.90625 64.785156 21.308594 64.636719 20.71875 64.457031 C 20.128906 64.277344 19.546875 64.070312 18.980469 63.832031 C 18.410156 63.597656 17.851562 63.332031 17.308594 63.042969 C 16.761719 62.75 16.234375 62.433594 15.722656 62.089844 C 15.207031 61.746094 14.710938 61.378906 14.234375 60.988281 C 13.757812 60.597656 13.300781 60.179688 12.867188 59.746094 C 12.429688 59.308594 12.015625 58.851562 11.625 58.375 C 11.234375 57.894531 10.867188 57.402344 10.523438 56.886719 C 10.179688 56.375 9.863281 55.84375 9.570312 55.300781 C 9.28125 54.753906 9.015625 54.199219 8.78125 53.628906 C 8.546875 53.054688 8.335938 52.476562 8.160156 51.882812 C 7.980469 51.292969 7.828125 50.695312 7.710938 50.089844 C 7.589844 49.484375 7.5 48.875 7.4375 48.257812 C 7.378906 47.644531 7.347656 47.027344 7.347656 46.410156 C 7.347656 45.792969 7.378906 45.175781 7.4375 44.5625 C 7.5 43.949219 7.589844 43.335938 7.710938 42.730469 C 7.828125 42.125 7.980469 41.527344 8.160156 40.9375 C 8.335938 40.34375 8.546875 39.765625 8.78125 39.195312 C 9.015625 38.625 9.28125 38.066406 9.570312 37.519531 C 9.863281 36.976562 10.179688 36.449219 10.523438 35.933594 C 10.867188 35.421875 11.234375 34.925781 11.625 34.449219 C 12.015625 33.96875 12.429688 33.511719 12.867188 33.078125 C 13.300781 32.640625 13.757812 32.226562 14.234375 31.832031 C 14.710938 31.441406 15.207031 31.074219 15.722656 30.730469 C 16.234375 30.386719 16.761719 30.070312 17.308594 29.78125 C 17.851562 29.488281 18.410156 29.226562 18.980469 28.988281 C 19.546875 28.753906 20.128906 28.542969 20.71875 28.367188 C 21.308594 28.1875 21.90625 28.035156 22.511719 27.914062 C 23.117188 27.796875 23.726562 27.703125 24.34375 27.644531 C 24.957031 27.582031 25.570312 27.554688 26.1875 27.554688 C 26.804688 27.554688 27.421875 27.582031 28.035156 27.644531 C 28.648438 27.703125 29.261719 27.796875 29.863281 27.914062 C 30.46875 28.035156 31.066406 28.1875 31.660156 28.367188 C 32.25 28.542969 32.828125 28.753906 33.398438 28.988281 C 33.96875 29.226562 34.527344 29.488281 35.070312 29.78125 C 35.617188 30.070312 36.144531 30.386719 36.65625 30.730469 C 37.171875 31.074219 37.664062 31.441406 38.140625 31.832031 C 38.621094 32.226562 39.074219 32.640625 39.511719 33.078125 C 39.949219 33.511719 40.363281 33.96875 40.753906 34.449219 C 41.144531 34.925781 41.511719 35.421875 41.855469 35.933594 C 42.199219 36.449219 42.515625 36.976562 42.804688 37.519531 C 43.097656 38.066406 43.359375 38.625 43.597656 39.195312 C 43.832031 39.765625 44.039062 40.34375 44.21875 40.9375 C 44.398438 41.527344 44.546875 42.125 44.667969 42.730469 C 44.789062 43.335938 44.878906 43.949219 44.941406 44.5625 C 45 45.175781 45.03125 45.792969 45.03125 46.410156 Z M 45.03125 46.410156 " fill-opacity="1" fill-rule="nonzero"/><path fill="#421f6b" d="M 26.1875 65.695312 C 23.589844 65.695312 21.066406 65.183594 18.6875 64.179688 C 16.394531 63.207031 14.332031 61.816406 12.5625 60.046875 C 10.796875 58.277344 9.40625 56.214844 8.433594 53.917969 C 7.429688 51.539062 6.921875 49.015625 6.921875 46.410156 C 6.921875 43.808594 7.429688 41.28125 8.433594 38.90625 C 9.40625 36.609375 10.796875 34.546875 12.5625 32.773438 C 14.332031 31.003906 16.394531 29.613281 18.6875 28.640625 C 21.066406 27.636719 23.589844 27.125 26.1875 27.125 C 28.789062 27.125 31.3125 27.636719 33.6875 28.640625 C 35.984375 29.613281 38.042969 31.003906 39.8125 32.773438 C 41.582031 34.546875 42.972656 36.609375 43.941406 38.90625 C 44.949219 41.28125 45.457031 43.808594 45.457031 46.410156 C 45.457031 49.015625 44.949219 51.539062 43.941406 53.917969 C 42.972656 56.214844 41.582031 58.277344 39.8125 60.046875 C 38.042969 61.816406 35.984375 63.207031 33.6875 64.179688 C 31.3125 65.183594 28.789062 65.695312 26.1875 65.695312 Z M 26.1875 27.980469 C 16.035156 27.980469 7.773438 36.246094 7.773438 46.410156 C 7.773438 56.574219 16.035156 64.839844 26.1875 64.839844 C 36.34375 64.839844 44.605469 56.574219 44.605469 46.410156 C 44.605469 36.246094 36.34375 27.980469 26.1875 27.980469 Z M 26.1875 27.980469 " fill-opacity="1" fill-rule="nonzero"/><path fill="#ffffff" d="M 41.546875 46.410156 C 41.546875 47.417969 41.445312 48.417969 41.25 49.410156 C 41.054688 50.398438 40.761719 51.359375 40.375 52.292969 C 39.992188 53.222656 39.515625 54.109375 38.957031 54.949219 C 38.398438 55.789062 37.761719 56.5625 37.046875 57.277344 C 36.335938 57.992188 35.558594 58.628906 34.71875 59.1875 C 33.882812 59.75 32.996094 60.222656 32.066406 60.609375 C 31.132812 60.996094 30.175781 61.285156 29.183594 61.484375 C 28.195312 61.679688 27.199219 61.777344 26.1875 61.777344 C 25.179688 61.777344 24.183594 61.679688 23.191406 61.484375 C 22.203125 61.285156 21.246094 60.996094 20.3125 60.609375 C 19.382812 60.222656 18.496094 59.75 17.65625 59.1875 C 16.820312 58.628906 16.042969 57.992188 15.332031 57.277344 C 14.617188 56.5625 13.980469 55.789062 13.421875 54.949219 C 12.859375 54.109375 12.386719 53.222656 12.003906 52.292969 C 11.617188 51.359375 11.324219 50.398438 11.128906 49.410156 C 10.929688 48.417969 10.832031 47.417969 10.832031 46.410156 C 10.832031 45.402344 10.929688 44.402344 11.128906 43.414062 C 11.324219 42.421875 11.617188 41.460938 12.003906 40.53125 C 12.386719 39.597656 12.859375 38.710938 13.421875 37.871094 C 13.980469 37.035156 14.617188 36.257812 15.332031 35.542969 C 16.042969 34.828125 16.820312 34.191406 17.65625 33.632812 C 18.496094 33.070312 19.382812 32.597656 20.3125 32.210938 C 21.246094 31.824219 22.203125 31.535156 23.191406 31.335938 C 24.183594 31.140625 25.179688 31.042969 26.1875 31.042969 C 27.199219 31.042969 28.195312 31.140625 29.183594 31.335938 C 30.175781 31.535156 31.132812 31.824219 32.066406 32.210938 C 32.996094 32.597656 33.882812 33.070312 34.71875 33.632812 C 35.558594 34.191406 36.335938 34.828125 37.046875 35.542969 C 37.761719 36.257812 38.398438 37.035156 38.957031 37.871094 C 39.515625 38.710938 39.992188 39.597656 40.375 40.53125 C 40.761719 41.460938 41.054688 42.421875 41.25 43.414062 C 41.445312 44.402344 41.546875 45.402344 41.546875 46.410156 Z M 41.546875 46.410156 " fill-opacity="1" fill-rule="nonzero"/><path fill="#421f6b" d="M 26.1875 62.207031 C 24.058594 62.207031 21.992188 61.789062 20.046875 60.964844 C 18.167969 60.167969 16.480469 59.03125 15.03125 57.578125 C 13.582031 56.128906 12.441406 54.441406 11.648438 52.558594 C 10.824219 50.613281 10.40625 48.542969 10.40625 46.410156 C 10.40625 44.277344 10.824219 42.210938 11.648438 40.261719 C 12.441406 38.382812 13.582031 36.691406 15.03125 35.242188 C 16.480469 33.792969 18.167969 32.652344 20.046875 31.855469 C 21.992188 31.035156 24.058594 30.617188 26.1875 30.617188 C 28.320312 30.617188 30.386719 31.035156 32.332031 31.855469 C 34.210938 32.652344 35.898438 33.792969 37.347656 35.242188 C 38.796875 36.691406 39.9375 38.382812 40.730469 40.261719 C 41.554688 42.210938 41.972656 44.277344 41.972656 46.410156 C 41.972656 48.542969 41.554688 50.613281 40.730469 52.558594 C 39.9375 54.441406 38.796875 56.128906 37.347656 57.578125 C 35.898438 59.03125 34.210938 60.167969 32.332031 60.964844 C 30.386719 61.789062 28.320312 62.207031 26.1875 62.207031 Z M 26.1875 31.46875 C 17.957031 31.46875 11.257812 38.171875 11.257812 46.410156 C 11.257812 54.648438 17.957031 61.351562 26.1875 61.351562 C 34.421875 61.351562 41.117188 54.648438 41.117188 46.410156 C 41.117188 38.171875 34.421875 31.46875 26.1875 31.46875 Z M 26.1875 31.46875 " fill-opacity="1" fill-rule="nonzero"/><path fill="#ffffff" d="M 41.546875 46.410156 C 41.546875 47.417969 41.445312 48.417969 41.25 49.410156 C 41.054688 50.398438 40.761719 51.359375 40.375 52.292969 C 39.992188 53.222656 39.515625 54.109375 38.957031 54.949219 C 38.398438 55.789062 37.761719 56.5625 37.046875 57.277344 C 36.335938 57.992188 35.558594 58.628906 34.71875 59.1875 C 33.882812 59.75 32.996094 60.222656 32.066406 60.609375 C 31.132812 60.996094 30.175781 61.285156 29.183594 61.484375 C 28.195312 61.679688 27.199219 61.777344 26.1875 61.777344 C 25.179688 61.777344 24.183594 61.679688 23.191406 61.484375 C 22.203125 61.285156 21.246094 60.996094 20.3125 60.609375 C 19.382812 60.222656 18.496094 59.75 17.65625 59.1875 C 16.820312 58.628906 16.042969 57.992188 15.332031 57.277344 C 14.617188 56.5625 13.980469 55.789062 13.421875 54.949219 C 12.859375 54.109375 12.386719 53.222656 12.003906 52.292969 C 11.617188 51.359375 11.324219 50.398438 11.128906 49.410156 C 10.929688 48.417969 10.832031 47.417969 10.832031 46.410156 C 10.832031 45.402344 10.929688 44.402344 11.128906 43.414062 C 11.324219 42.421875 11.617188 41.460938 12.003906 40.53125 C 12.386719 39.597656 12.859375 38.710938 13.421875 37.871094 C 13.980469 37.035156 14.617188 36.257812 15.332031 35.542969 C 16.042969 34.828125 16.820312 34.191406 17.65625 33.632812 C 18.496094 33.070312 19.382812 32.597656 20.3125 32.210938 C 21.246094 31.824219 22.203125 31.535156 23.191406 31.335938 C 24.183594 31.140625 25.179688 31.042969 26.1875 31.042969 C 27.199219 31.042969 28.195312 31.140625 29.183594 31.335938 C 30.175781 31.535156 31.132812 31.824219 32.066406 32.210938 C 32.996094 32.597656 33.882812 33.070312 34.71875 33.632812 C 35.558594 34.191406 36.335938 34.828125 37.046875 35.542969 C 37.761719 36.257812 38.398438 37.035156 38.957031 37.871094 C 39.515625 38.710938 39.992188 39.597656 40.375 40.53125 C 40.761719 41.460938 41.054688 42.421875 41.25 43.414062 C 41.445312 44.402344 41.546875 45.402344 41.546875 46.410156 Z M 41.546875 46.410156 " fill-opacity="1" fill-rule="nonzero"/><path fill="#421f6b" d="M 26.1875 62.207031 C 24.058594 62.207031 21.992188 61.789062 20.046875 60.964844 C 18.167969 60.167969 16.480469 59.03125 15.03125 57.578125 C 13.582031 56.128906 12.441406 54.441406 11.648438 52.558594 C 10.824219 50.613281 10.40625 48.542969 10.40625 46.410156 C 10.40625 44.277344 10.824219 42.210938 11.648438 40.261719 C 12.441406 38.382812 13.582031 36.691406 15.03125 35.242188 C 16.480469 33.792969 18.167969 32.652344 20.046875 31.855469 C 21.992188 31.035156 24.058594 30.617188 26.1875 30.617188 C 28.320312 30.617188 30.386719 31.035156 32.332031 31.855469 C 34.210938 32.652344 35.898438 33.792969 37.347656 35.242188 C 38.796875 36.691406 39.9375 38.382812 40.730469 40.261719 C 41.554688 42.210938 41.972656 44.277344 41.972656 46.410156 C 41.972656 48.542969 41.554688 50.613281 40.730469 52.558594 C 39.9375 54.441406 38.796875 56.128906 37.347656 57.578125 C 35.898438 59.03125 34.210938 60.167969 32.332031 60.964844 C 30.386719 61.789062 28.320312 62.207031 26.1875 62.207031 Z M 26.1875 31.46875 C 17.957031 31.46875 11.257812 38.171875 11.257812 46.410156 C 11.257812 54.648438 17.957031 61.351562 26.1875 61.351562 C 34.421875 61.351562 41.117188 54.648438 41.117188 46.410156 C 41.117188 38.171875 34.421875 31.46875 26.1875 31.46875 Z M 26.1875 31.46875 " fill-opacity="1" fill-rule="nonzero"/><g clip-path="url(#5f176db510)"><path fill="#421f6b" d="M 12.671875 46.835938 L 5.222656 46.835938 C 4.988281 46.835938 4.796875 46.644531 4.796875 46.410156 C 4.796875 46.175781 4.988281 45.984375 5.222656 45.984375 L 12.671875 45.984375 C 12.910156 45.984375 13.097656 46.175781 13.097656 46.410156 C 13.097656 46.644531 12.910156 46.835938 12.671875 46.835938 Z M 12.671875 46.835938 " fill-opacity="1" fill-rule="nonzero"/></g><path fill="#421f6b" d="M 47.15625 46.835938 L 39.703125 46.835938 C 39.46875 46.835938 39.277344 46.644531 39.277344 46.410156 C 39.277344 46.175781 39.46875 45.984375 39.703125 45.984375 L 47.15625 45.984375 C 47.390625 45.984375 47.582031 46.175781 47.582031 46.410156 C 47.582031 46.644531 47.390625 46.835938 47.15625 46.835938 Z M 47.15625 46.835938 " fill-opacity="1" fill-rule="nonzero"/><g clip-path="url(#de5a1c222f)"><path fill="#421f6b" d="M 12.339844 46.835938 L 4.886719 46.835938 C 4.652344 46.835938 4.460938 46.644531 4.460938 46.410156 C 4.460938 46.175781 4.652344 45.984375 4.886719 45.984375 L 12.339844 45.984375 C 12.574219 45.984375 12.765625 46.175781 12.765625 46.410156 C 12.765625 46.644531 12.574219 46.835938 12.339844 46.835938 Z M 12.339844 46.835938 " fill-opacity="1" fill-rule="nonzero"/></g><path fill="#421f6b" d="M 46.820312 46.835938 L 39.367188 46.835938 C 39.132812 46.835938 38.941406 46.644531 38.941406 46.410156 C 38.941406 46.175781 39.132812 45.984375 39.367188 45.984375 L 46.820312 45.984375 C 47.054688 45.984375 47.246094 46.175781 47.246094 46.410156 C 47.246094 46.644531 47.054688 46.835938 46.820312 46.835938 Z M 46.820312 46.835938 " fill-opacity="1" fill-rule="nonzero"/><path fill="#421f6b" d="M 25.855469 67.820312 C 25.617188 67.820312 25.425781 67.628906 25.425781 67.394531 L 25.425781 59.9375 C 25.425781 59.703125 25.617188 59.511719 25.855469 59.511719 C 26.089844 59.511719 26.28125 59.703125 26.28125 59.9375 L 26.28125 67.394531 C 26.28125 67.628906 26.089844 67.820312 25.855469 67.820312 Z M 25.855469 67.820312 " fill-opacity="1" fill-rule="nonzero"/><path fill="#421f6b" d="M 25.855469 33.3125 C 25.617188 33.3125 25.425781 33.121094 25.425781 32.882812 L 25.425781 25.425781 C 25.425781 25.191406 25.617188 25 25.855469 25 C 26.089844 25 26.28125 25.191406 26.28125 25.425781 L 26.28125 32.882812 C 26.28125 33.121094 26.089844 33.3125 25.855469 33.3125 Z M 25.855469 33.3125 " fill-opacity="1" fill-rule="nonzero"/><path fill="#ffffff" d="M 30.15625 40.097656 C 30.15625 40.367188 30.128906 40.632812 30.078125 40.898438 C 30.027344 41.164062 29.953125 41.417969 29.851562 41.667969 C 29.753906 41.917969 29.632812 42.15625 29.488281 42.378906 C 29.34375 42.601562 29.179688 42.8125 28.992188 43 C 28.808594 43.191406 28.609375 43.363281 28.394531 43.511719 C 28.175781 43.664062 27.949219 43.789062 27.707031 43.890625 C 27.46875 43.996094 27.21875 44.074219 26.964844 44.125 C 26.707031 44.179688 26.449219 44.203125 26.191406 44.203125 C 25.929688 44.203125 25.671875 44.179688 25.417969 44.125 C 25.160156 44.074219 24.914062 43.996094 24.671875 43.890625 C 24.433594 43.789062 24.203125 43.664062 23.988281 43.511719 C 23.769531 43.363281 23.570312 43.191406 23.386719 43 C 23.203125 42.8125 23.039062 42.601562 22.894531 42.378906 C 22.75 42.15625 22.628906 41.917969 22.527344 41.667969 C 22.429688 41.417969 22.351562 41.164062 22.300781 40.898438 C 22.25 40.632812 22.226562 40.367188 22.226562 40.097656 C 22.226562 39.828125 22.25 39.558594 22.300781 39.296875 C 22.351562 39.03125 22.429688 38.773438 22.527344 38.523438 C 22.628906 38.277344 22.75 38.039062 22.894531 37.816406 C 23.039062 37.589844 23.203125 37.382812 23.386719 37.191406 C 23.570312 37 23.769531 36.832031 23.988281 36.679688 C 24.203125 36.53125 24.433594 36.40625 24.671875 36.300781 C 24.914062 36.199219 25.160156 36.121094 25.417969 36.066406 C 25.671875 36.015625 25.929688 35.988281 26.191406 35.988281 C 26.449219 35.988281 26.707031 36.015625 26.964844 36.066406 C 27.21875 36.121094 27.46875 36.199219 27.707031 36.300781 C 27.949219 36.40625 28.175781 36.53125 28.394531 36.679688 C 28.609375 36.832031 28.808594 37 28.992188 37.191406 C 29.179688 37.382812 29.34375 37.589844 29.488281 37.816406 C 29.632812 38.039062 29.753906 38.277344 29.851562 38.523438 C 29.953125 38.773438 30.027344 39.03125 30.078125 39.296875 C 30.128906 39.558594 30.15625 39.828125 30.15625 40.097656 Z M 30.15625 40.097656 " fill-opacity="1" fill-rule="nonzero"/><path fill="#421f6b" d="M 26.191406 44.632812 C 23.769531 44.632812 21.800781 42.597656 21.800781 40.097656 C 21.800781 37.597656 23.769531 35.5625 26.191406 35.5625 C 28.613281 35.5625 30.582031 37.597656 30.582031 40.097656 C 30.582031 42.597656 28.613281 44.632812 26.191406 44.632812 Z M 26.191406 36.414062 C 24.238281 36.414062 22.652344 38.066406 22.652344 40.097656 C 22.652344 42.125 24.238281 43.777344 26.191406 43.777344 C 28.140625 43.777344 29.730469 42.125 29.730469 40.097656 C 29.730469 38.066406 28.140625 36.414062 26.191406 36.414062 Z M 26.191406 36.414062 " fill-opacity="1" fill-rule="nonzero"/><path fill="#56c6fe" d="M 33.785156 54.871094 C 33.785156 54.871094 33.417969 46.894531 28.707031 46.75 C 26.78125 46.6875 25.113281 46.710938 23.714844 46.738281 C 18.808594 46.835938 18.859375 54.917969 18.859375 54.921875 C 18.859375 55.644531 22.199219 56.230469 26.320312 56.230469 C 30.445312 56.230469 33.785156 55.644531 33.785156 54.921875 C 33.785156 54.90625 33.78125 54.886719 33.777344 54.871094 Z M 33.785156 54.871094 " fill-opacity="1" fill-rule="nonzero"/><path fill="#421f6b" d="M 26.320312 56.65625 C 24.304688 56.65625 22.40625 56.519531 20.972656 56.265625 C 19.214844 55.957031 18.433594 55.542969 18.433594 54.921875 C 18.433594 54.921875 18.433594 54.921875 18.433594 54.917969 C 18.433594 54.789062 18.4375 52.777344 19.042969 50.734375 C 19.886719 47.882812 21.5 46.355469 23.707031 46.3125 C 25.207031 46.28125 26.855469 46.265625 28.722656 46.320312 C 30.839844 46.386719 32.464844 47.910156 33.417969 50.726562 C 34.109375 52.773438 34.207031 54.765625 34.210938 54.851562 C 34.210938 54.867188 34.210938 54.878906 34.210938 54.894531 C 34.210938 54.902344 34.210938 54.914062 34.210938 54.921875 C 34.210938 55.542969 33.429688 55.957031 31.671875 56.265625 C 30.238281 56.519531 28.339844 56.65625 26.320312 56.65625 Z M 19.285156 54.859375 C 19.378906 54.9375 19.808594 55.226562 21.4375 55.480469 C 22.785156 55.6875 24.515625 55.804688 26.320312 55.804688 C 28.125 55.804688 29.859375 55.6875 31.203125 55.480469 C 32.796875 55.230469 33.246094 54.949219 33.351562 54.863281 C 33.351562 54.847656 33.355469 54.835938 33.355469 54.820312 C 33.304688 54.046875 32.730469 47.300781 28.695312 47.175781 C 26.847656 47.117188 25.214844 47.136719 23.722656 47.164062 C 21.898438 47.199219 20.597656 48.484375 19.859375 50.976562 C 19.335938 52.734375 19.289062 54.511719 19.285156 54.859375 Z M 19.285156 54.859375 " fill-opacity="1" fill-rule="nonzero"/><path fill="#fdaf95" d="M 47.632812 74.296875 L 40.179688 81.554688 C 38.34375 83.34375 38.304688 86.28125 40.09375 88.117188 C 41.878906 89.953125 44.816406 89.996094 46.652344 88.207031 L 54.101562 80.945312 Z M 47.632812 74.296875 " fill-opacity="1" fill-rule="nonzero"/><path fill="#421f6b" d="M 43.417969 89.945312 C 42.097656 89.945312 40.777344 89.433594 39.789062 88.414062 C 38.84375 87.445312 38.335938 86.167969 38.351562 84.8125 C 38.371094 83.457031 38.914062 82.191406 39.882812 81.25 L 47.335938 73.988281 C 47.503906 73.824219 47.773438 73.828125 47.9375 73.996094 C 48.101562 74.167969 48.097656 74.4375 47.929688 74.601562 L 40.476562 81.859375 C 39.671875 82.644531 39.21875 83.699219 39.203125 84.824219 C 39.191406 85.949219 39.613281 87.015625 40.398438 87.820312 C 42.019531 89.484375 44.691406 89.523438 46.355469 87.902344 L 53.804688 80.640625 C 53.972656 80.476562 54.242188 80.480469 54.40625 80.648438 C 54.570312 80.820312 54.566406 81.089844 54.398438 81.253906 L 46.949219 88.511719 C 45.964844 89.46875 44.691406 89.945312 43.417969 89.945312 Z M 43.417969 89.945312 " fill-opacity="1" fill-rule="nonzero"/><path fill="#fdaf95" d="M 48.894531 70.957031 L 46.433594 73.441406 C 45.976562 73.886719 45.96875 74.617188 46.414062 75.074219 L 53.285156 82.144531 C 53.730469 82.601562 54.460938 82.609375 54.917969 82.164062 L 57.433594 79.660156 Z M 48.894531 70.957031 " fill-opacity="1" fill-rule="nonzero"/><path fill="#421f6b" d="M 54.113281 82.917969 C 54.105469 82.917969 54.101562 82.917969 54.09375 82.917969 C 53.671875 82.914062 53.277344 82.742188 52.980469 82.441406 L 46.105469 75.375 C 45.5 74.75 45.511719 73.75 46.132812 73.140625 L 48.589844 70.65625 C 48.753906 70.488281 49.023438 70.488281 49.191406 70.652344 C 49.359375 70.820312 49.359375 71.089844 49.195312 71.257812 L 46.738281 73.742188 C 46.734375 73.746094 46.734375 73.746094 46.730469 73.75 C 46.445312 74.027344 46.4375 74.492188 46.71875 74.777344 L 53.59375 81.84375 C 53.726562 81.984375 53.910156 82.0625 54.105469 82.066406 C 54.109375 82.066406 54.109375 82.066406 54.113281 82.066406 C 54.304688 82.066406 54.484375 81.992188 54.621094 81.859375 L 57.132812 79.355469 C 57.296875 79.191406 57.566406 79.191406 57.734375 79.355469 C 57.902344 79.523438 57.898438 79.792969 57.734375 79.960938 L 55.21875 82.46875 C 55.21875 82.46875 55.21875 82.46875 55.214844 82.46875 C 54.917969 82.761719 54.527344 82.917969 54.113281 82.917969 Z M 54.113281 82.917969 " fill-opacity="1" fill-rule="nonzero"/><path fill="#ffffff" d="M 75.570312 53.328125 C 75.949219 53.707031 76.308594 54.101562 76.644531 54.515625 C 76.984375 54.929688 77.300781 55.359375 77.597656 55.800781 C 77.894531 56.246094 78.167969 56.703125 78.421875 57.175781 C 78.671875 57.644531 78.898438 58.128906 79.105469 58.621094 C 79.308594 59.117188 79.488281 59.617188 79.644531 60.128906 C 79.796875 60.640625 79.929688 61.15625 80.03125 61.683594 C 80.136719 62.207031 80.214844 62.734375 80.265625 63.265625 C 80.320312 63.796875 80.34375 64.328125 80.34375 64.863281 C 80.34375 65.398438 80.320312 65.929688 80.265625 66.460938 C 80.214844 66.996094 80.136719 67.523438 80.03125 68.046875 C 79.929688 68.570312 79.796875 69.085938 79.644531 69.597656 C 79.488281 70.109375 79.308594 70.613281 79.105469 71.105469 C 78.902344 71.601562 78.671875 72.082031 78.421875 72.554688 C 78.167969 73.023438 77.894531 73.480469 77.597656 73.925781 C 77.300781 74.371094 76.984375 74.800781 76.644531 75.210938 C 76.308594 75.625 75.949219 76.019531 75.570312 76.398438 C 75.195312 76.777344 74.800781 77.132812 74.386719 77.472656 C 73.972656 77.8125 73.546875 78.128906 73.101562 78.425781 C 72.65625 78.722656 72.199219 79 71.730469 79.25 C 71.257812 79.5 70.777344 79.730469 70.285156 79.933594 C 69.789062 80.140625 69.289062 80.320312 68.777344 80.472656 C 68.265625 80.628906 67.75 80.757812 67.226562 80.863281 C 66.703125 80.96875 66.175781 81.046875 65.644531 81.097656 C 65.113281 81.148438 64.582031 81.175781 64.046875 81.175781 C 63.511719 81.175781 62.980469 81.148438 62.449219 81.097656 C 61.917969 81.046875 61.390625 80.96875 60.867188 80.863281 C 60.34375 80.757812 59.828125 80.628906 59.316406 80.472656 C 58.804688 80.320312 58.300781 80.140625 57.808594 79.933594 C 57.316406 79.730469 56.835938 79.503906 56.363281 79.25 C 55.894531 79 55.433594 78.722656 54.992188 78.425781 C 54.546875 78.128906 54.121094 77.8125 53.707031 77.472656 C 53.292969 77.136719 52.898438 76.777344 52.523438 76.398438 C 52.144531 76.019531 51.785156 75.625 51.449219 75.210938 C 51.109375 74.800781 50.792969 74.371094 50.496094 73.925781 C 50.199219 73.484375 49.925781 73.023438 49.671875 72.554688 C 49.421875 72.082031 49.191406 71.601562 48.988281 71.105469 C 48.785156 70.613281 48.605469 70.109375 48.449219 69.601562 C 48.292969 69.089844 48.164062 68.570312 48.0625 68.046875 C 47.957031 67.523438 47.878906 66.996094 47.828125 66.464844 C 47.773438 65.933594 47.746094 65.398438 47.746094 64.863281 C 47.746094 64.332031 47.773438 63.796875 47.828125 63.265625 C 47.878906 62.734375 47.957031 62.207031 48.0625 61.683594 C 48.164062 61.160156 48.292969 60.640625 48.449219 60.128906 C 48.605469 59.617188 48.785156 59.117188 48.988281 58.621094 C 49.191406 58.128906 49.421875 57.644531 49.671875 57.175781 C 49.921875 56.703125 50.199219 56.246094 50.496094 55.800781 C 50.789062 55.359375 51.109375 54.929688 51.445312 54.515625 C 51.785156 54.101562 52.144531 53.707031 52.519531 53.332031 C 52.898438 52.953125 53.292969 52.59375 53.707031 52.253906 C 54.117188 51.917969 54.546875 51.597656 54.992188 51.300781 C 55.433594 51.003906 55.890625 50.730469 56.363281 50.480469 C 56.832031 50.226562 57.316406 50 57.808594 49.792969 C 58.300781 49.589844 58.804688 49.410156 59.316406 49.253906 C 59.824219 49.101562 60.34375 48.96875 60.867188 48.867188 C 61.390625 48.761719 61.917969 48.683594 62.449219 48.632812 C 62.980469 48.578125 63.511719 48.550781 64.046875 48.550781 C 64.578125 48.550781 65.113281 48.578125 65.644531 48.632812 C 66.175781 48.683594 66.703125 48.761719 67.226562 48.867188 C 67.75 48.96875 68.265625 49.101562 68.777344 49.253906 C 69.289062 49.410156 69.789062 49.589844 70.285156 49.792969 C 70.777344 50 71.257812 50.226562 71.730469 50.476562 C 72.199219 50.730469 72.65625 51.003906 73.101562 51.300781 C 73.546875 51.597656 73.972656 51.914062 74.386719 52.253906 C 74.796875 52.59375 75.195312 52.953125 75.570312 53.328125 Z M 75.570312 53.328125 " fill-opacity="1" fill-rule="nonzero"/><path fill="#421f6b" d="M 64.019531 81.605469 C 62.289062 81.605469 60.585938 81.335938 58.933594 80.804688 C 56.875 80.140625 54.984375 79.097656 53.320312 77.703125 C 51.652344 76.308594 50.292969 74.632812 49.277344 72.722656 C 48.222656 70.746094 47.589844 68.601562 47.390625 66.351562 C 47.1875 64.101562 47.433594 61.878906 48.121094 59.746094 C 48.78125 57.683594 49.824219 55.792969 51.21875 54.125 C 52.609375 52.460938 54.285156 51.097656 56.195312 50.082031 C 58.171875 49.027344 60.3125 48.394531 62.5625 48.191406 C 64.8125 47.992188 67.03125 48.238281 69.164062 48.921875 C 71.222656 49.585938 73.109375 50.628906 74.777344 52.023438 C 76.441406 53.417969 77.804688 55.09375 78.820312 57.003906 C 79.871094 58.984375 80.507812 61.125 80.707031 63.378906 C 80.90625 65.628906 80.660156 67.851562 79.976562 69.984375 C 79.3125 72.042969 78.269531 73.933594 76.878906 75.601562 C 75.484375 77.269531 73.808594 78.628906 71.902344 79.648438 C 69.925781 80.699219 67.78125 81.335938 65.535156 81.535156 C 65.027344 81.582031 64.523438 81.605469 64.019531 81.605469 Z M 48.238281 66.273438 C 49.015625 75 56.742188 81.464844 65.457031 80.6875 C 74.175781 79.910156 80.636719 72.179688 79.859375 63.453125 C 79.078125 54.730469 71.355469 48.265625 62.636719 49.042969 C 53.921875 49.820312 47.460938 57.550781 48.238281 66.273438 Z M 48.238281 66.273438 " fill-opacity="1" fill-rule="nonzero"/><path fill="#ffffff" d="M 63.933594 72.296875 C 59.128906 72.296875 55.058594 69.167969 53.636719 64.835938 C 55.058594 60.503906 59.128906 57.375 63.933594 57.375 C 68.738281 57.375 72.8125 60.503906 74.234375 64.835938 C 72.8125 69.167969 68.738281 72.296875 63.933594 72.296875 Z M 63.933594 72.296875 " fill-opacity="1" fill-rule="nonzero"/><path fill="#421f6b" d="M 63.933594 72.722656 C 61.515625 72.722656 59.207031 71.964844 57.265625 70.535156 C 56.328125 69.84375 55.507812 69.019531 54.824219 68.082031 C 54.132812 67.128906 53.597656 66.082031 53.230469 64.96875 C 53.203125 64.882812 53.203125 64.789062 53.230469 64.703125 C 53.597656 63.589844 54.132812 62.542969 54.824219 61.59375 C 55.507812 60.652344 56.328125 59.828125 57.265625 59.140625 C 59.207031 57.707031 61.515625 56.949219 63.933594 56.949219 C 66.355469 56.949219 68.660156 57.707031 70.605469 59.140625 C 71.539062 59.828125 72.359375 60.652344 73.042969 61.59375 C 73.738281 62.542969 74.273438 63.589844 74.640625 64.703125 C 74.667969 64.789062 74.667969 64.882812 74.640625 64.96875 C 74.273438 66.082031 73.738281 67.128906 73.042969 68.082031 C 72.359375 69.019531 71.539062 69.84375 70.605469 70.535156 C 68.660156 71.964844 66.355469 72.722656 63.933594 72.722656 Z M 54.085938 64.835938 C 55.53125 69.050781 59.472656 71.871094 63.933594 71.871094 C 68.398438 71.871094 72.339844 69.050781 73.785156 64.835938 C 72.339844 60.625 68.398438 57.804688 63.933594 57.804688 C 59.472656 57.804688 55.53125 60.625 54.085938 64.835938 Z M 54.085938 64.835938 " fill-opacity="1" fill-rule="nonzero"/><path fill="#56c6fe" d="M 59.867188 62.390625 C 59.4375 63.105469 59.191406 63.941406 59.191406 64.835938 C 59.191406 67.457031 61.316406 69.582031 63.933594 69.582031 C 66.554688 69.582031 68.679688 67.457031 68.679688 64.835938 C 68.679688 62.214844 66.554688 60.089844 63.933594 60.089844 C 63.585938 60.089844 63.246094 60.128906 62.917969 60.199219 Z M 59.867188 62.390625 " fill-opacity="1" fill-rule="nonzero"/><path fill="#421f6b" d="M 63.933594 70.011719 C 61.085938 70.011719 58.765625 67.691406 58.765625 64.835938 C 58.765625 63.894531 59.019531 62.972656 59.503906 62.171875 C 59.625 61.96875 59.886719 61.902344 60.089844 62.027344 C 60.289062 62.148438 60.355469 62.410156 60.234375 62.609375 C 59.832031 63.28125 59.617188 64.050781 59.617188 64.835938 C 59.617188 67.21875 61.554688 69.15625 63.933594 69.15625 C 66.316406 69.15625 68.253906 67.21875 68.253906 64.835938 C 68.253906 62.453125 66.316406 60.515625 63.933594 60.515625 C 63.625 60.515625 63.3125 60.550781 63.007812 60.617188 C 62.777344 60.664062 62.550781 60.519531 62.5 60.289062 C 62.453125 60.058594 62.597656 59.832031 62.828125 59.78125 C 63.1875 59.703125 63.5625 59.664062 63.933594 59.664062 C 66.785156 59.664062 69.105469 61.984375 69.105469 64.835938 C 69.105469 67.691406 66.785156 70.011719 63.933594 70.011719 Z M 63.933594 70.011719 " fill-opacity="1" fill-rule="nonzero"/><path fill="#ffffff" d="M 60.464844 60.683594 C 59.671875 61.480469 59.671875 62.769531 60.464844 63.5625 C 61.257812 64.355469 62.546875 64.355469 63.339844 63.5625 C 64.132812 62.769531 64.132812 61.480469 63.339844 60.683594 C 62.546875 59.890625 61.257812 59.890625 60.464844 60.683594 Z M 60.464844 60.683594 " fill-opacity="1" fill-rule="nonzero"/><path fill="#421f6b" d="M 61.902344 64.582031 C 61.273438 64.582031 60.640625 64.34375 60.164062 63.863281 C 59.203125 62.90625 59.203125 61.34375 60.164062 60.382812 C 61.121094 59.425781 62.683594 59.425781 63.640625 60.382812 C 64.597656 61.34375 64.597656 62.90625 63.640625 63.863281 C 63.160156 64.34375 62.53125 64.582031 61.902344 64.582031 Z M 60.765625 60.988281 C 60.140625 61.613281 60.140625 62.632812 60.765625 63.261719 C 61.390625 63.886719 62.410156 63.886719 63.039062 63.261719 C 63.664062 62.632812 63.664062 61.613281 63.039062 60.988281 C 62.410156 60.359375 61.390625 60.359375 60.765625 60.988281 Z M 60.765625 60.988281 " fill-opacity="1" fill-rule="nonzero"/><path fill="#ffffff" d="M 82.441406 37.824219 L 49.980469 37.824219 C 48.386719 37.824219 47.089844 36.527344 47.089844 34.929688 L 47.089844 11.03125 C 47.089844 9.433594 48.386719 8.136719 49.980469 8.136719 L 82.441406 8.136719 C 84.039062 8.136719 85.332031 9.433594 85.332031 11.03125 L 85.332031 34.929688 C 85.332031 36.527344 84.039062 37.824219 82.441406 37.824219 Z M 82.441406 37.824219 " fill-opacity="1" fill-rule="nonzero"/><path fill="#421f6b" d="M 82.441406 38.25 L 49.980469 38.25 C 48.152344 38.25 46.664062 36.761719 46.664062 34.929688 L 46.664062 11.03125 C 46.664062 9.199219 48.152344 7.710938 49.980469 7.710938 L 82.441406 7.710938 C 84.273438 7.710938 85.757812 9.199219 85.757812 11.03125 L 85.757812 34.929688 C 85.757812 36.761719 84.273438 38.25 82.441406 38.25 Z M 49.980469 8.5625 C 48.621094 8.5625 47.515625 9.671875 47.515625 11.03125 L 47.515625 34.929688 C 47.515625 36.289062 48.621094 37.394531 49.980469 37.394531 L 82.441406 37.394531 C 83.800781 37.394531 84.90625 36.289062 84.90625 34.929688 L 84.90625 11.03125 C 84.90625 9.671875 83.800781 8.5625 82.441406 8.5625 Z M 49.980469 8.5625 " fill-opacity="1" fill-rule="nonzero"/><path fill="#421f6b" d="M 51.765625 32.886719 C 51.695312 32.886719 51.625 32.871094 51.558594 32.832031 C 51.355469 32.71875 51.28125 32.460938 51.394531 32.253906 L 55.109375 25.535156 C 55.1875 25.394531 55.339844 25.308594 55.5 25.316406 L 64.390625 25.707031 L 67.777344 13.941406 C 67.84375 13.714844 68.078125 13.585938 68.304688 13.648438 C 68.53125 13.714844 68.664062 13.953125 68.597656 14.179688 L 65.117188 26.265625 C 65.0625 26.457031 64.886719 26.582031 64.691406 26.574219 L 55.726562 26.179688 L 52.140625 32.667969 C 52.0625 32.808594 51.917969 32.886719 51.765625 32.886719 Z M 51.765625 32.886719 " fill-opacity="1" fill-rule="nonzero"/><path fill="#fdaf95" d="M 52.894531 30.664062 C 53.128906 30.8125 53.324219 31 53.484375 31.226562 C 53.644531 31.453125 53.753906 31.703125 53.8125 31.976562 C 53.871094 32.25 53.878906 32.523438 53.832031 32.800781 C 53.78125 33.078125 53.683594 33.335938 53.535156 33.574219 C 53.382812 33.8125 53.195312 34.011719 52.96875 34.175781 C 52.738281 34.339844 52.488281 34.453125 52.21875 34.519531 C 51.945312 34.582031 51.671875 34.59375 51.398438 34.546875 C 51.125 34.5 50.871094 34.40625 50.636719 34.257812 C 50.402344 34.109375 50.207031 33.921875 50.046875 33.695312 C 49.886719 33.46875 49.777344 33.21875 49.71875 32.945312 C 49.65625 32.671875 49.652344 32.398438 49.699219 32.121094 C 49.75 31.84375 49.847656 31.589844 49.996094 31.351562 C 50.148438 31.113281 50.335938 30.910156 50.5625 30.746094 C 50.792969 30.582031 51.039062 30.46875 51.3125 30.40625 C 51.582031 30.339844 51.855469 30.332031 52.128906 30.375 C 52.40625 30.421875 52.660156 30.519531 52.894531 30.664062 Z M 52.894531 30.664062 " fill-opacity="1" fill-rule="nonzero"/><path fill="#421f6b" d="M 51.738281 35 C 51.683594 35 51.628906 34.996094 51.570312 34.992188 C 50.902344 34.949219 50.292969 34.644531 49.855469 34.136719 C 49.410156 33.625 49.195312 32.96875 49.25 32.289062 C 49.359375 30.894531 50.574219 29.835938 51.960938 29.925781 C 52.628906 29.972656 53.242188 30.273438 53.679688 30.78125 C 54.121094 31.292969 54.335938 31.953125 54.28125 32.632812 L 53.855469 32.597656 L 54.28125 32.632812 C 54.175781 33.96875 53.054688 35 51.738281 35 Z M 51.792969 30.773438 C 50.917969 30.773438 50.171875 31.460938 50.101562 32.355469 C 50.066406 32.804688 50.207031 33.242188 50.5 33.582031 C 50.785156 33.914062 51.1875 34.113281 51.628906 34.140625 C 52.550781 34.203125 53.359375 33.496094 53.433594 32.566406 C 53.46875 32.113281 53.328125 31.679688 53.035156 31.339844 C 52.746094 31.007812 52.34375 30.808594 51.902344 30.777344 C 51.867188 30.773438 51.832031 30.773438 51.792969 30.773438 Z M 51.792969 30.773438 " fill-opacity="1" fill-rule="nonzero"/><path fill="#fdaf95" d="M 56.609375 23.945312 C 56.84375 24.09375 57.039062 24.28125 57.199219 24.507812 C 57.359375 24.738281 57.46875 24.988281 57.527344 25.257812 C 57.589844 25.53125 57.59375 25.808594 57.546875 26.082031 C 57.496094 26.359375 57.398438 26.617188 57.25 26.855469 C 57.097656 27.09375 56.910156 27.292969 56.683594 27.457031 C 56.453125 27.621094 56.203125 27.734375 55.933594 27.800781 C 55.660156 27.863281 55.390625 27.875 55.113281 27.828125 C 54.839844 27.785156 54.585938 27.6875 54.351562 27.539062 C 54.117188 27.390625 53.921875 27.207031 53.761719 26.976562 C 53.601562 26.75 53.492188 26.5 53.433594 26.226562 C 53.371094 25.953125 53.367188 25.679688 53.414062 25.402344 C 53.464844 25.128906 53.5625 24.871094 53.710938 24.632812 C 53.863281 24.394531 54.050781 24.191406 54.277344 24.027344 C 54.507812 23.867188 54.757812 23.75 55.027344 23.6875 C 55.300781 23.621094 55.570312 23.613281 55.84375 23.660156 C 56.121094 23.703125 56.375 23.800781 56.609375 23.945312 Z M 56.609375 23.945312 " fill-opacity="1" fill-rule="nonzero"/><path fill="#421f6b" d="M 55.453125 28.28125 C 55.398438 28.28125 55.34375 28.28125 55.289062 28.277344 C 54.617188 28.230469 54.007812 27.925781 53.570312 27.421875 C 53.125 26.90625 52.914062 26.25 52.964844 25.570312 C 53.074219 24.175781 54.289062 23.117188 55.675781 23.207031 C 56.34375 23.253906 56.957031 23.554688 57.394531 24.0625 C 57.835938 24.574219 58.050781 25.234375 57.996094 25.914062 C 57.890625 27.25 56.769531 28.28125 55.453125 28.28125 Z M 55.507812 24.054688 C 54.632812 24.054688 53.886719 24.742188 53.816406 25.636719 C 53.78125 26.089844 53.921875 26.523438 54.214844 26.863281 C 54.5 27.195312 54.902344 27.394531 55.34375 27.425781 C 56.265625 27.484375 57.074219 26.777344 57.148438 25.847656 L 57.570312 25.878906 L 57.148438 25.847656 C 57.183594 25.394531 57.042969 24.960938 56.75 24.621094 C 56.460938 24.289062 56.058594 24.089844 55.621094 24.058594 C 55.582031 24.058594 55.546875 24.054688 55.507812 24.054688 Z M 55.507812 24.054688 " fill-opacity="1" fill-rule="nonzero"/><path fill="#fdaf95" d="M 65.835938 24.355469 C 66.070312 24.5 66.265625 24.6875 66.425781 24.914062 C 66.585938 25.144531 66.695312 25.394531 66.753906 25.664062 C 66.816406 25.9375 66.820312 26.214844 66.773438 26.488281 C 66.726562 26.765625 66.625 27.023438 66.476562 27.261719 C 66.328125 27.5 66.136719 27.699219 65.910156 27.863281 C 65.683594 28.027344 65.433594 28.140625 65.160156 28.207031 C 64.890625 28.269531 64.617188 28.28125 64.34375 28.234375 C 64.070312 28.191406 63.816406 28.09375 63.582031 27.945312 C 63.347656 27.800781 63.148438 27.613281 62.988281 27.382812 C 62.828125 27.15625 62.71875 26.90625 62.660156 26.632812 C 62.601562 26.359375 62.59375 26.085938 62.644531 25.808594 C 62.691406 25.535156 62.789062 25.277344 62.941406 25.039062 C 63.089844 24.800781 63.277344 24.597656 63.507812 24.433594 C 63.734375 24.273438 63.984375 24.15625 64.253906 24.09375 C 64.527344 24.027344 64.800781 24.019531 65.074219 24.066406 C 65.347656 24.109375 65.601562 24.207031 65.835938 24.355469 Z M 65.835938 24.355469 " fill-opacity="1" fill-rule="nonzero"/><path fill="#421f6b" d="M 64.683594 28.6875 C 64.625 28.6875 64.570312 28.683594 64.515625 28.683594 C 63.84375 28.636719 63.234375 28.332031 62.796875 27.828125 C 62.355469 27.3125 62.140625 26.65625 62.195312 25.976562 C 62.304688 24.582031 63.519531 23.523438 64.902344 23.613281 C 65.574219 23.660156 66.183594 23.960938 66.621094 24.46875 C 67.0625 24.980469 67.277344 25.640625 67.222656 26.320312 C 67.117188 27.65625 65.996094 28.6875 64.683594 28.6875 Z M 64.734375 24.460938 C 63.863281 24.460938 63.113281 25.148438 63.042969 26.042969 C 63.007812 26.496094 63.148438 26.929688 63.441406 27.269531 C 63.730469 27.601562 64.128906 27.800781 64.570312 27.832031 C 65.492188 27.890625 66.300781 27.183594 66.375 26.253906 C 66.410156 25.800781 66.269531 25.367188 65.976562 25.027344 C 65.6875 24.695312 65.289062 24.496094 64.847656 24.464844 C 64.808594 24.464844 64.773438 24.460938 64.734375 24.460938 Z M 66.800781 26.285156 Z M 66.800781 26.285156 " fill-opacity="1" fill-rule="nonzero"/><path fill="#fdaf95" d="M 69.316406 12.265625 C 69.550781 12.414062 69.746094 12.601562 69.90625 12.828125 C 70.066406 13.054688 70.175781 13.304688 70.234375 13.578125 C 70.296875 13.851562 70.300781 14.125 70.253906 14.402344 C 70.203125 14.679688 70.105469 14.933594 69.957031 15.171875 C 69.804688 15.410156 69.617188 15.613281 69.390625 15.777344 C 69.160156 15.941406 68.910156 16.054688 68.640625 16.117188 C 68.367188 16.183594 68.097656 16.191406 67.820312 16.148438 C 67.546875 16.101562 67.292969 16.003906 67.058594 15.859375 C 66.824219 15.710938 66.628906 15.523438 66.46875 15.296875 C 66.308594 15.070312 66.199219 14.820312 66.140625 14.546875 C 66.078125 14.273438 66.074219 14 66.121094 13.722656 C 66.171875 13.445312 66.269531 13.1875 66.417969 12.949219 C 66.570312 12.710938 66.757812 12.511719 66.984375 12.347656 C 67.214844 12.183594 67.464844 12.070312 67.734375 12.003906 C 68.007812 11.941406 68.277344 11.929688 68.550781 11.976562 C 68.828125 12.023438 69.082031 12.117188 69.316406 12.265625 Z M 69.316406 12.265625 " fill-opacity="1" fill-rule="nonzero"/><path fill="#421f6b" d="M 68.160156 16.597656 C 68.105469 16.597656 68.050781 16.597656 67.992188 16.59375 C 67.324219 16.550781 66.714844 16.246094 66.277344 15.738281 C 65.832031 15.226562 65.617188 14.570312 65.671875 13.886719 C 65.78125 12.492188 67 11.433594 68.382812 11.527344 C 69.050781 11.570312 69.664062 11.875 70.101562 12.382812 C 70.542969 12.894531 70.757812 13.550781 70.703125 14.230469 L 70.277344 14.199219 L 70.703125 14.230469 C 70.597656 15.570312 69.476562 16.597656 68.160156 16.597656 Z M 68.214844 12.375 C 67.339844 12.375 66.59375 13.0625 66.523438 13.953125 C 66.488281 14.40625 66.628906 14.839844 66.921875 15.179688 C 67.207031 15.511719 67.609375 15.714844 68.050781 15.742188 C 68.96875 15.804688 69.78125 15.097656 69.855469 14.164062 C 69.890625 13.714844 69.75 13.277344 69.457031 12.941406 C 69.167969 12.605469 68.765625 12.40625 68.324219 12.378906 C 68.289062 12.375 68.25 12.375 68.214844 12.375 Z M 68.214844 12.375 " fill-opacity="1" fill-rule="nonzero"/><path fill="#56c6fe" d="M 76.679688 12.226562 L 82.359375 12.226562 L 82.359375 16.640625 L 76.679688 16.640625 Z M 76.679688 12.226562 " fill-opacity="1" fill-rule="nonzero"/><path fill="#421f6b" d="M 82.359375 17.066406 L 76.679688 17.066406 C 76.445312 17.066406 76.253906 16.875 76.253906 16.640625 L 76.253906 12.226562 C 76.253906 11.992188 76.445312 11.800781 76.679688 11.800781 L 82.359375 11.800781 C 82.59375 11.800781 82.785156 11.992188 82.785156 12.226562 L 82.785156 16.640625 C 82.785156 16.875 82.59375 17.066406 82.359375 17.066406 Z M 77.105469 16.214844 L 81.933594 16.214844 L 81.933594 12.65625 L 77.105469 12.65625 Z M 77.105469 16.214844 " fill-opacity="1" fill-rule="nonzero"/><path fill="#56c6fe" d="M 76.679688 19.824219 L 82.359375 19.824219 L 82.359375 24.234375 L 76.679688 24.234375 Z M 76.679688 19.824219 " fill-opacity="1" fill-rule="nonzero"/><path fill="#421f6b" d="M 82.359375 24.664062 L 76.679688 24.664062 C 76.445312 24.664062 76.253906 24.472656 76.253906 24.234375 L 76.253906 19.824219 C 76.253906 19.589844 76.445312 19.398438 76.679688 19.398438 L 82.359375 19.398438 C 82.59375 19.398438 82.785156 19.589844 82.785156 19.824219 L 82.785156 24.234375 C 82.785156 24.472656 82.59375 24.664062 82.359375 24.664062 Z M 77.105469 23.808594 L 81.933594 23.808594 L 81.933594 20.25 L 77.105469 20.25 Z M 77.105469 23.808594 " fill-opacity="1" fill-rule="nonzero"/><path fill="#ffffff" d="M 62.84375 12.066406 C 62.640625 23.886719 45.085938 23.644531 44.882812 11.828125 C 45.085938 0.0078125 62.644531 0.25 62.84375 12.066406 Z M 62.84375 12.066406 " fill-opacity="1" fill-rule="nonzero"/><path fill="#421f6b" d="M 53.996094 21.238281 C 51.546875 21.238281 49.246094 20.398438 47.515625 18.878906 C 45.5625 17.160156 44.507812 14.726562 44.457031 11.835938 C 44.457031 11.832031 44.457031 11.824219 44.457031 11.820312 C 44.507812 8.984375 45.527344 6.605469 47.414062 4.941406 C 49.085938 3.46875 51.328125 2.65625 53.730469 2.65625 C 56.179688 2.65625 58.480469 3.496094 60.210938 5.015625 C 62.164062 6.730469 63.21875 9.167969 63.269531 12.058594 C 63.269531 12.0625 63.269531 12.066406 63.269531 12.074219 C 63.222656 14.910156 62.199219 17.289062 60.3125 18.953125 C 58.640625 20.425781 56.398438 21.238281 53.996094 21.238281 Z M 45.3125 11.828125 C 45.414062 17.707031 49.882812 20.386719 53.996094 20.386719 C 57.980469 20.386719 62.316406 17.78125 62.417969 12.066406 C 62.3125 6.1875 57.84375 3.507812 53.730469 3.507812 C 49.746094 3.507812 45.410156 6.113281 45.3125 11.828125 Z M 45.3125 11.828125 " fill-opacity="1" fill-rule="nonzero"/><path fill="#421f6b" d="M 55.074219 15.984375 L 52.652344 15.984375 C 51.667969 15.984375 50.867188 15.183594 50.867188 14.199219 L 50.867188 13.421875 C 50.867188 13.183594 51.058594 12.992188 51.292969 12.992188 C 51.527344 12.992188 51.71875 13.183594 51.71875 13.421875 L 51.71875 14.199219 C 51.71875 14.714844 52.136719 15.132812 52.652344 15.132812 L 55.074219 15.132812 C 55.589844 15.132812 56.007812 14.714844 56.007812 14.199219 L 56.007812 13.078125 C 56.007812 12.5625 55.589844 12.144531 55.074219 12.144531 L 52.652344 12.144531 C 51.667969 12.144531 50.867188 11.339844 50.867188 10.355469 L 50.867188 9.234375 C 50.867188 8.25 51.667969 7.449219 52.652344 7.449219 L 55.074219 7.449219 C 56.058594 7.449219 56.863281 8.25 56.863281 9.234375 L 56.863281 9.988281 C 56.863281 10.222656 56.671875 10.414062 56.433594 10.414062 C 56.199219 10.414062 56.007812 10.222656 56.007812 9.988281 L 56.007812 9.234375 C 56.007812 8.71875 55.589844 8.300781 55.074219 8.300781 L 52.652344 8.300781 C 52.136719 8.300781 51.71875 8.71875 51.71875 9.234375 L 51.71875 10.355469 C 51.71875 10.871094 52.136719 11.289062 52.652344 11.289062 L 55.074219 11.289062 C 56.058594 11.289062 56.863281 12.09375 56.863281 13.078125 L 56.863281 14.199219 C 56.863281 15.183594 56.058594 15.984375 55.074219 15.984375 Z M 55.074219 15.984375 " fill-opacity="1" fill-rule="nonzero"/><path fill="#421f6b" d="M 53.863281 17.800781 C 53.628906 17.800781 53.4375 17.609375 53.4375 17.375 L 53.4375 15.558594 C 53.4375 15.324219 53.628906 15.132812 53.863281 15.132812 C 54.097656 15.132812 54.289062 15.324219 54.289062 15.558594 L 54.289062 17.375 C 54.289062 17.609375 54.097656 17.800781 53.863281 17.800781 Z M 53.863281 17.800781 " fill-opacity="1" fill-rule="nonzero"/><path fill="#421f6b" d="M 53.863281 8.300781 C 53.628906 8.300781 53.4375 8.109375 53.4375 7.875 L 53.4375 6.058594 C 53.4375 5.824219 53.628906 5.632812 53.863281 5.632812 C 54.097656 5.632812 54.289062 5.824219 54.289062 6.058594 L 54.289062 7.875 C 54.289062 8.109375 54.097656 8.300781 53.863281 8.300781 Z M 53.863281 8.300781 " fill-opacity="1" fill-rule="nonzero"/><path fill="#ffffff" d="M 69.617188 42.996094 C 66.707031 39.140625 64.882812 32.824219 64.882812 32.824219 C 64.453125 31.878906 64.851562 30.753906 65.777344 30.3125 C 66.703125 29.871094 67.800781 30.28125 68.230469 31.226562 L 70.550781 36.316406 L 70.558594 23.019531 C 70.558594 21.972656 71.386719 21.128906 72.410156 21.128906 C 73.429688 21.125 74.253906 21.972656 74.253906 23.015625 L 74.246094 31.96875 L 74.25 31.023438 C 74.25 29.976562 75.078125 29.132812 76.097656 29.128906 C 77.117188 29.128906 77.945312 29.976562 77.945312 31.019531 L 77.945312 31.398438 C 77.945312 30.351562 78.773438 29.507812 79.792969 29.507812 C 80.8125 29.503906 81.640625 30.351562 81.636719 31.394531 L 81.636719 31.773438 C 81.640625 30.730469 82.464844 29.882812 83.488281 29.882812 C 84.507812 29.878906 85.335938 30.726562 85.332031 31.769531 L 85.328125 37.398438 C 85.324219 42.371094 81.382812 46.40625 76.519531 46.410156 C 74.75 46.410156 73.101562 45.878906 71.722656 44.960938 C 70.921875 44.425781 70.210938 43.761719 69.617188 42.996094 Z M 69.617188 42.996094 " fill-opacity="1" fill-rule="nonzero"/><path fill="#421f6b" d="M 76.511719 46.835938 C 74.71875 46.835938 72.984375 46.3125 71.488281 45.316406 C 70.644531 44.757812 69.902344 44.0625 69.28125 43.257812 C 69.277344 43.253906 69.277344 43.253906 69.277344 43.253906 C 68.046875 41.621094 66.863281 39.390625 65.761719 36.621094 C 64.996094 34.691406 64.550781 33.203125 64.480469 32.972656 C 63.976562 31.824219 64.472656 30.464844 65.59375 29.929688 C 66.140625 29.667969 66.757812 29.636719 67.324219 29.84375 C 67.902344 30.054688 68.363281 30.480469 68.621094 31.046875 L 70.125 34.355469 L 70.132812 23.019531 C 70.132812 21.742188 71.15625 20.703125 72.40625 20.699219 C 72.410156 20.699219 72.410156 20.699219 72.410156 20.699219 C 73.007812 20.699219 73.574219 20.9375 74 21.363281 C 74.441406 21.800781 74.679688 22.390625 74.679688 23.015625 L 74.675781 29.214844 C 75.066406 28.894531 75.558594 28.703125 76.097656 28.703125 C 76.699219 28.703125 77.261719 28.941406 77.691406 29.367188 C 77.84375 29.519531 77.972656 29.691406 78.078125 29.878906 C 78.492188 29.390625 79.109375 29.078125 79.792969 29.078125 C 80.394531 29.078125 80.957031 29.316406 81.386719 29.742188 C 81.539062 29.894531 81.667969 30.066406 81.773438 30.253906 C 82.1875 29.765625 82.804688 29.457031 83.488281 29.453125 C 84.085938 29.453125 84.652344 29.691406 85.078125 30.117188 C 85.519531 30.554688 85.761719 31.144531 85.757812 31.769531 L 85.753906 37.398438 C 85.753906 39.917969 84.792969 42.285156 83.050781 44.066406 C 81.304688 45.851562 78.988281 46.835938 76.519531 46.835938 C 76.519531 46.835938 76.515625 46.835938 76.511719 46.835938 Z M 69.953125 42.738281 C 70.519531 43.46875 71.195312 44.097656 71.960938 44.605469 C 73.316406 45.507812 74.890625 45.984375 76.511719 45.984375 C 76.515625 45.984375 76.515625 45.984375 76.519531 45.984375 C 81.136719 45.980469 84.898438 42.128906 84.902344 37.398438 L 84.90625 31.769531 C 84.90625 31.371094 84.753906 31 84.476562 30.71875 C 84.210938 30.453125 83.859375 30.308594 83.488281 30.308594 C 82.703125 30.308594 82.066406 30.964844 82.0625 31.773438 C 82.0625 32.007812 81.875 32.199219 81.636719 32.199219 C 81.402344 32.199219 81.210938 32.007812 81.210938 31.773438 L 81.210938 31.394531 C 81.210938 30.996094 81.058594 30.625 80.78125 30.34375 C 80.515625 30.078125 80.164062 29.933594 79.792969 29.933594 C 79.007812 29.933594 78.371094 30.589844 78.371094 31.398438 C 78.371094 31.632812 78.179688 31.824219 77.945312 31.824219 C 77.941406 31.824219 77.941406 31.824219 77.941406 31.824219 C 77.707031 31.824219 77.515625 31.632812 77.515625 31.398438 L 77.515625 31.019531 C 77.519531 30.621094 77.363281 30.246094 77.085938 29.96875 C 76.820312 29.703125 76.46875 29.558594 76.097656 29.558594 C 75.316406 29.558594 74.675781 30.214844 74.675781 31.019531 L 74.675781 31.96875 C 74.675781 32.203125 74.484375 32.394531 74.246094 32.394531 C 74.011719 32.394531 73.820312 32.203125 73.820312 31.964844 L 73.824219 31.023438 C 73.824219 31.019531 73.824219 31.019531 73.824219 31.015625 L 73.828125 23.015625 C 73.828125 22.617188 73.675781 22.242188 73.398438 21.964844 C 73.132812 21.699219 72.78125 21.554688 72.410156 21.554688 C 71.625 21.554688 70.984375 22.210938 70.984375 23.019531 L 70.976562 36.300781 C 70.976562 36.363281 70.96875 36.425781 70.941406 36.484375 C 70.894531 36.59375 70.804688 36.679688 70.691406 36.71875 C 70.5625 36.765625 70.417969 36.746094 70.304688 36.664062 C 70.238281 36.617188 70.1875 36.554688 70.15625 36.480469 L 67.84375 31.402344 C 67.683594 31.046875 67.394531 30.777344 67.03125 30.644531 C 66.679688 30.515625 66.300781 30.535156 65.960938 30.699219 C 65.246094 31.039062 64.9375 31.914062 65.269531 32.648438 C 65.277344 32.667969 65.285156 32.6875 65.292969 32.707031 C 65.308594 32.769531 67.125 38.988281 69.953125 42.738281 Z M 69.953125 42.738281 " fill-opacity="1" fill-rule="nonzero"/><path fill="#fdaf95" d="M 77.945312 31.359375 L 77.941406 32.304688 Z M 77.945312 31.359375 " fill-opacity="1" fill-rule="nonzero"/><path fill="#421f6b" d="M 77.941406 32.730469 C 77.707031 32.730469 77.515625 32.539062 77.515625 32.304688 L 77.515625 31.359375 C 77.515625 31.125 77.707031 30.933594 77.945312 30.933594 C 78.179688 30.933594 78.371094 31.125 78.371094 31.359375 L 78.367188 32.304688 C 78.367188 32.539062 78.179688 32.730469 77.941406 32.730469 Z M 77.941406 32.730469 " fill-opacity="1" fill-rule="nonzero"/><path fill="#421f6b" d="M 81.636719 32.726562 C 81.402344 32.726562 81.210938 32.535156 81.210938 32.300781 L 81.210938 31.734375 C 81.210938 31.5 81.402344 31.308594 81.636719 31.308594 C 81.875 31.308594 82.066406 31.5 82.0625 31.734375 L 82.0625 32.300781 C 82.0625 32.535156 81.871094 32.726562 81.636719 32.726562 Z M 81.636719 32.726562 " fill-opacity="1" fill-rule="nonzero"/></svg>