<svg xmlns="http://www.w3.org/2000/svg" xmlns:xlink="http://www.w3.org/1999/xlink" width="128" zoomAndPan="magnify" viewBox="0 0 96 89.999999" height="120" preserveAspectRatio="xMidYMid meet" version="1.0"><defs><clipPath id="d1f0db06ab"><path d="M 59.4375 40.257812 L 59.796875 40.257812 L 59.796875 40.539062 L 59.4375 40.539062 Z M 59.4375 40.257812 " clip-rule="nonzero"/></clipPath><clipPath id="0f15bf95e6"><path d="M 59.773438 40.425781 C 59.101562 40.726562 59.699219 40.273438 59.699219 40.273438 " clip-rule="nonzero"/></clipPath><clipPath id="9b7881d8cb"><path d="M 0 71 L 51 71 L 51 86.851562 L 0 86.851562 Z M 0 71 " clip-rule="nonzero"/></clipPath><clipPath id="ced20e829e"><path d="M 77 83 L 89 83 L 89 86.851562 L 77 86.851562 Z M 77 83 " clip-rule="nonzero"/></clipPath><clipPath id="91b52c3ff4"><path d="M 62 83 L 74 83 L 74 86.851562 L 62 86.851562 Z M 62 83 " clip-rule="nonzero"/></clipPath><clipPath id="d9fcc09092"><path d="M 47 83 L 59 83 L 59 86.851562 L 47 86.851562 Z M 47 83 " clip-rule="nonzero"/></clipPath><clipPath id="78152df726"><path d="M 54 68 L 66 68 L 66 86.851562 L 54 86.851562 Z M 54 68 " clip-rule="nonzero"/></clipPath><clipPath id="bc1efa6f92"><path d="M 69 60 L 81 60 L 81 86.851562 L 69 86.851562 Z M 69 60 " clip-rule="nonzero"/></clipPath><clipPath id="668443b78f"><path d="M 84 43 L 96 43 L 96 86.851562 L 84 86.851562 Z M 84 43 " clip-rule="nonzero"/></clipPath><clipPath id="b3ba021be6"><path d="M 4 0.601562 L 47 0.601562 L 47 42 L 4 42 Z M 4 0.601562 " clip-rule="nonzero"/></clipPath></defs><g clip-path="url(#d1f0db06ab)"><g clip-path="url(#0f15bf95e6)"><path fill="#01184e" d="M 56.101562 37.273438 L 62.855469 37.273438 L 62.855469 43.800781 L 56.101562 43.800781 Z M 56.101562 37.273438 " fill-opacity="1" fill-rule="nonzero"/></g></g><path fill="#00c4fc" d="M 71.429688 62.476562 L 78.941406 62.476562 L 78.941406 84.976562 L 71.429688 84.976562 Z M 71.429688 62.476562 " fill-opacity="1" fill-rule="nonzero"/><path fill="#00c4fc" d="M 56.40625 69.976562 L 63.917969 69.976562 L 63.917969 84.976562 L 56.40625 84.976562 Z M 56.40625 69.976562 " fill-opacity="1" fill-rule="nonzero"/><path fill="#009bfc" d="M 86.453125 45.601562 L 93.964844 45.601562 L 93.964844 84.976562 L 86.453125 84.976562 Z M 86.453125 45.601562 " fill-opacity="1" fill-rule="nonzero"/><path fill="#ffb51e" d="M 44.195312 21.226562 C 44.195312 21.839844 44.167969 22.453125 44.105469 23.0625 C 44.046875 23.675781 43.957031 24.28125 43.835938 24.882812 C 43.714844 25.484375 43.566406 26.082031 43.386719 26.667969 C 43.210938 27.253906 43.003906 27.832031 42.765625 28.398438 C 42.53125 28.96875 42.269531 29.523438 41.980469 30.0625 C 41.6875 30.605469 41.375 31.132812 41.03125 31.640625 C 40.691406 32.152344 40.324219 32.644531 39.933594 33.121094 C 39.542969 33.59375 39.132812 34.050781 38.695312 34.484375 C 38.261719 34.917969 37.804688 35.328125 37.332031 35.71875 C 36.855469 36.109375 36.363281 36.472656 35.851562 36.816406 C 35.339844 37.15625 34.8125 37.472656 34.269531 37.761719 C 33.726562 38.050781 33.171875 38.3125 32.601562 38.546875 C 32.035156 38.78125 31.457031 38.988281 30.867188 39.167969 C 30.28125 39.347656 29.683594 39.496094 29.082031 39.613281 C 28.476562 39.734375 27.871094 39.824219 27.257812 39.882812 C 26.644531 39.945312 26.03125 39.976562 25.417969 39.976562 C 24.800781 39.976562 24.1875 39.945312 23.574219 39.882812 C 22.964844 39.824219 22.355469 39.734375 21.753906 39.613281 C 21.148438 39.496094 20.554688 39.347656 19.964844 39.167969 C 19.375 38.988281 18.796875 38.78125 18.230469 38.546875 C 17.660156 38.3125 17.105469 38.050781 16.5625 37.761719 C 16.019531 37.472656 15.492188 37.15625 14.984375 36.816406 C 14.472656 36.472656 13.976562 36.109375 13.503906 35.71875 C 13.027344 35.328125 12.570312 34.917969 12.136719 34.484375 C 11.703125 34.050781 11.289062 33.59375 10.898438 33.121094 C 10.507812 32.644531 10.144531 32.152344 9.800781 31.640625 C 9.460938 31.132812 9.144531 30.605469 8.851562 30.0625 C 8.5625 29.523438 8.300781 28.96875 8.066406 28.398438 C 7.828125 27.832031 7.621094 27.253906 7.445312 26.667969 C 7.265625 26.082031 7.117188 25.484375 6.996094 24.882812 C 6.875 24.28125 6.785156 23.675781 6.726562 23.0625 C 6.664062 22.453125 6.636719 21.839844 6.636719 21.226562 C 6.636719 20.609375 6.664062 20 6.726562 19.386719 C 6.785156 18.777344 6.875 18.167969 6.996094 17.566406 C 7.117188 16.964844 7.265625 16.371094 7.445312 15.78125 C 7.621094 15.195312 7.828125 14.617188 8.066406 14.050781 C 8.300781 13.480469 8.5625 12.929688 8.851562 12.386719 C 9.144531 11.84375 9.460938 11.320312 9.800781 10.808594 C 10.144531 10.296875 10.507812 9.804688 10.898438 9.332031 C 11.289062 8.855469 11.703125 8.402344 12.136719 7.964844 C 12.570312 7.53125 13.027344 7.121094 13.503906 6.730469 C 13.976562 6.339844 14.472656 5.976562 14.984375 5.636719 C 15.492188 5.292969 16.019531 4.976562 16.5625 4.6875 C 17.105469 4.398438 17.660156 4.136719 18.230469 3.902344 C 18.796875 3.667969 19.375 3.460938 19.964844 3.28125 C 20.554688 3.105469 21.148438 2.957031 21.753906 2.835938 C 22.355469 2.714844 22.964844 2.625 23.574219 2.566406 C 24.1875 2.503906 24.800781 2.476562 25.417969 2.476562 C 26.03125 2.476562 26.644531 2.503906 27.257812 2.566406 C 27.871094 2.625 28.476562 2.714844 29.082031 2.835938 C 29.683594 2.957031 30.28125 3.105469 30.867188 3.28125 C 31.457031 3.460938 32.035156 3.667969 32.601562 3.902344 C 33.171875 4.136719 33.726562 4.398438 34.269531 4.6875 C 34.8125 4.976562 35.339844 5.292969 35.851562 5.636719 C 36.363281 5.976562 36.855469 6.339844 37.332031 6.730469 C 37.804688 7.121094 38.261719 7.53125 38.695312 7.964844 C 39.132812 8.402344 39.542969 8.855469 39.933594 9.332031 C 40.324219 9.804688 40.691406 10.296875 41.03125 10.808594 C 41.375 11.320312 41.6875 11.84375 41.980469 12.386719 C 42.269531 12.929688 42.53125 13.480469 42.765625 14.050781 C 43.003906 14.617188 43.210938 15.195312 43.386719 15.78125 C 43.566406 16.371094 43.714844 16.964844 43.835938 17.566406 C 43.957031 18.167969 44.046875 18.777344 44.105469 19.386719 C 44.167969 20 44.195312 20.609375 44.195312 21.226562 Z M 44.195312 21.226562 " fill-opacity="1" fill-rule="nonzero"/><path fill="#fade65" d="M 1.941406 73.726562 L 48.890625 73.726562 L 48.890625 84.976562 L 1.941406 84.976562 Z M 1.941406 73.726562 " fill-opacity="1" fill-rule="nonzero"/><path fill="#fade65" d="M 1.941406 51.226562 L 48.890625 51.226562 L 48.890625 62.476562 L 1.941406 62.476562 Z M 1.941406 51.226562 " fill-opacity="1" fill-rule="nonzero"/><path fill="#ffca47" d="M 1.941406 62.476562 L 48.890625 62.476562 L 48.890625 73.726562 L 1.941406 73.726562 Z M 1.941406 62.476562 " fill-opacity="1" fill-rule="nonzero"/><path fill="#ffca47" d="M 48.890625 39.976562 L 48.890625 51.226562 L 1.941406 51.226562 L 1.941406 39.976562 C 3.265625 39.976562 47.566406 39.976562 48.890625 39.976562 Z M 48.890625 39.976562 " fill-opacity="1" fill-rule="nonzero"/><g clip-path="url(#9b7881d8cb)"><path fill="#000000" d="M 48.890625 86.851562 L 1.941406 86.851562 C 0.902344 86.851562 0.0625 86.011719 0.0625 84.976562 L 0.0625 73.726562 C 0.0625 72.6875 0.902344 71.851562 1.941406 71.851562 C 2.976562 71.851562 3.820312 72.6875 3.820312 73.726562 L 3.820312 83.101562 L 47.015625 83.101562 L 47.015625 73.726562 C 47.015625 72.6875 47.855469 71.851562 48.890625 71.851562 C 49.929688 71.851562 50.769531 72.6875 50.769531 73.726562 L 50.769531 84.976562 C 50.769531 86.011719 49.929688 86.851562 48.890625 86.851562 Z M 48.890625 86.851562 " fill-opacity="1" fill-rule="nonzero"/></g><path fill="#000000" d="M 48.890625 75.601562 L 1.941406 75.601562 C 0.902344 75.601562 0.0625 74.761719 0.0625 73.726562 L 0.0625 62.476562 C 0.0625 61.4375 0.902344 60.601562 1.941406 60.601562 C 2.976562 60.601562 3.820312 61.4375 3.820312 62.476562 L 3.820312 71.851562 L 47.015625 71.851562 L 47.015625 62.476562 C 47.015625 61.4375 47.855469 60.601562 48.890625 60.601562 C 49.929688 60.601562 50.769531 61.4375 50.769531 62.476562 L 50.769531 73.726562 C 50.769531 74.761719 49.929688 75.601562 48.890625 75.601562 Z M 48.890625 75.601562 " fill-opacity="1" fill-rule="nonzero"/><path fill="#000000" d="M 48.890625 64.351562 L 1.941406 64.351562 C 0.902344 64.351562 0.0625 63.511719 0.0625 62.476562 L 0.0625 51.226562 C 0.0625 50.1875 0.902344 49.351562 1.941406 49.351562 C 2.976562 49.351562 3.820312 50.1875 3.820312 51.226562 L 3.820312 60.601562 L 47.015625 60.601562 L 47.015625 51.226562 C 47.015625 50.1875 47.855469 49.351562 48.890625 49.351562 C 49.929688 49.351562 50.769531 50.1875 50.769531 51.226562 L 50.769531 62.476562 C 50.769531 63.511719 49.929688 64.351562 48.890625 64.351562 Z M 48.890625 64.351562 " fill-opacity="1" fill-rule="nonzero"/><path fill="#000000" d="M 48.890625 53.101562 L 1.941406 53.101562 C 0.902344 53.101562 0.0625 52.261719 0.0625 51.226562 L 0.0625 39.976562 C 0.0625 38.9375 0.902344 38.101562 1.941406 38.101562 L 48.890625 38.101562 C 49.929688 38.101562 50.769531 38.9375 50.769531 39.976562 L 50.769531 51.226562 C 50.769531 52.261719 49.929688 53.101562 48.890625 53.101562 Z M 3.820312 49.351562 L 47.015625 49.351562 L 47.015625 41.851562 L 3.820312 41.851562 Z M 3.820312 49.351562 " fill-opacity="1" fill-rule="nonzero"/><g clip-path="url(#ced20e829e)"><path fill="#000000" d="M 86.453125 86.851562 L 78.941406 86.851562 C 77.902344 86.851562 77.0625 86.011719 77.0625 84.976562 C 77.0625 83.9375 77.902344 83.101562 78.941406 83.101562 L 86.453125 83.101562 C 87.492188 83.101562 88.332031 83.9375 88.332031 84.976562 C 88.332031 86.011719 87.492188 86.851562 86.453125 86.851562 Z M 86.453125 86.851562 " fill-opacity="1" fill-rule="nonzero"/></g><g clip-path="url(#91b52c3ff4)"><path fill="#000000" d="M 71.429688 86.851562 L 63.917969 86.851562 C 62.878906 86.851562 62.039062 86.011719 62.039062 84.976562 C 62.039062 83.9375 62.878906 83.101562 63.917969 83.101562 L 71.429688 83.101562 C 72.464844 83.101562 73.308594 83.9375 73.308594 84.976562 C 73.308594 86.011719 72.464844 86.851562 71.429688 86.851562 Z M 71.429688 86.851562 " fill-opacity="1" fill-rule="nonzero"/></g><g clip-path="url(#d9fcc09092)"><path fill="#000000" d="M 56.40625 86.851562 L 48.890625 86.851562 C 47.855469 86.851562 47.015625 86.011719 47.015625 84.976562 C 47.015625 83.9375 47.855469 83.101562 48.890625 83.101562 L 56.40625 83.101562 C 57.441406 83.101562 58.28125 83.9375 58.28125 84.976562 C 58.28125 86.011719 57.441406 86.851562 56.40625 86.851562 Z M 56.40625 86.851562 " fill-opacity="1" fill-rule="nonzero"/></g><g clip-path="url(#78152df726)"><path fill="#000000" d="M 63.917969 86.851562 L 56.40625 86.851562 C 55.367188 86.851562 54.527344 86.011719 54.527344 84.976562 L 54.527344 69.976562 C 54.527344 68.9375 55.367188 68.101562 56.40625 68.101562 L 63.917969 68.101562 C 64.953125 68.101562 65.792969 68.9375 65.792969 69.976562 L 65.792969 84.976562 C 65.792969 86.011719 64.953125 86.851562 63.917969 86.851562 Z M 58.28125 83.101562 L 62.039062 83.101562 L 62.039062 71.851562 L 58.28125 71.851562 Z M 58.28125 83.101562 " fill-opacity="1" fill-rule="nonzero"/></g><g clip-path="url(#bc1efa6f92)"><path fill="#000000" d="M 78.941406 86.851562 L 71.429688 86.851562 C 70.390625 86.851562 69.550781 86.011719 69.550781 84.976562 L 69.550781 62.476562 C 69.550781 61.4375 70.390625 60.601562 71.429688 60.601562 L 78.941406 60.601562 C 79.976562 60.601562 80.820312 61.4375 80.820312 62.476562 L 80.820312 84.976562 C 80.820312 86.011719 79.976562 86.851562 78.941406 86.851562 Z M 73.308594 83.101562 L 77.0625 83.101562 L 77.0625 64.351562 L 73.308594 64.351562 Z M 73.308594 83.101562 " fill-opacity="1" fill-rule="nonzero"/></g><g clip-path="url(#668443b78f)"><path fill="#000000" d="M 93.964844 86.851562 L 86.453125 86.851562 C 85.417969 86.851562 84.574219 86.011719 84.574219 84.976562 L 84.574219 45.601562 C 84.574219 44.5625 85.417969 43.726562 86.453125 43.726562 L 93.964844 43.726562 C 95.003906 43.726562 95.84375 44.5625 95.84375 45.601562 L 95.84375 84.976562 C 95.84375 86.011719 95.003906 86.851562 93.964844 86.851562 Z M 88.332031 83.101562 L 92.085938 83.101562 L 92.085938 47.476562 L 88.332031 47.476562 Z M 88.332031 83.101562 " fill-opacity="1" fill-rule="nonzero"/></g><g clip-path="url(#b3ba021be6)"><path fill="#000000" d="M 25.417969 41.851562 C 14.023438 41.851562 4.757812 32.597656 4.757812 21.226562 C 4.757812 9.851562 14.023438 0.601562 25.417969 0.601562 C 36.808594 0.601562 46.074219 9.851562 46.074219 21.226562 C 46.074219 32.597656 36.808594 41.851562 25.417969 41.851562 Z M 25.417969 4.351562 C 16.097656 4.351562 8.515625 11.921875 8.515625 21.226562 C 8.515625 30.53125 16.097656 38.101562 25.417969 38.101562 C 34.738281 38.101562 42.320312 30.53125 42.320312 21.226562 C 42.320312 11.921875 34.738281 4.351562 25.417969 4.351562 Z M 25.417969 4.351562 " fill-opacity="1" fill-rule="nonzero"/></g><path fill="#000000" d="M 25.417969 30.601562 L 21.660156 30.601562 C 20.621094 30.601562 19.78125 29.761719 19.78125 28.726562 C 19.78125 27.6875 20.621094 26.851562 21.660156 26.851562 L 25.417969 26.851562 C 25.917969 26.851562 26.390625 26.65625 26.742188 26.300781 C 27.476562 25.566406 27.476562 24.382812 26.742188 23.648438 C 26.390625 23.296875 25.917969 23.101562 25.417969 23.101562 C 22.304688 23.101562 19.78125 20.582031 19.78125 17.476562 C 19.78125 14.375 22.308594 11.851562 25.417969 11.851562 L 29.171875 11.851562 C 30.210938 11.851562 31.050781 12.6875 31.050781 13.726562 C 31.050781 14.761719 30.210938 15.601562 29.171875 15.601562 L 25.417969 15.601562 C 24.378906 15.601562 23.539062 16.441406 23.539062 17.476562 C 23.539062 18.511719 24.378906 19.351562 25.417969 19.351562 C 28.53125 19.351562 31.050781 21.867188 31.050781 24.976562 C 31.050781 28.082031 28.527344 30.601562 25.417969 30.601562 Z M 25.417969 30.601562 " fill-opacity="1" fill-rule="nonzero"/><path fill="#000000" d="M 25.417969 15.601562 C 24.378906 15.601562 23.539062 14.761719 23.539062 13.726562 L 23.539062 9.976562 C 23.539062 8.9375 24.378906 8.101562 25.417969 8.101562 C 26.453125 8.101562 27.292969 8.9375 27.292969 9.976562 L 27.292969 13.726562 C 27.292969 14.761719 26.453125 15.601562 25.417969 15.601562 Z M 25.417969 15.601562 " fill-opacity="1" fill-rule="nonzero"/><path fill="#000000" d="M 25.417969 34.351562 C 24.378906 34.351562 23.539062 33.511719 23.539062 32.476562 L 23.539062 28.726562 C 23.539062 27.6875 24.378906 26.851562 25.417969 26.851562 C 26.453125 26.851562 27.292969 27.6875 27.292969 28.726562 L 27.292969 32.476562 C 27.292969 33.511719 26.453125 34.351562 25.417969 34.351562 Z M 25.417969 34.351562 " fill-opacity="1" fill-rule="nonzero"/><path fill="#000000" d="M 47.71875 63.9375 C 46.910156 63.292969 46.777344 62.113281 47.425781 61.304688 L 62.449219 42.554688 C 63.039062 41.820312 64.078125 41.632812 64.882812 42.117188 L 72.925781 46.9375 L 91.613281 25.617188 C 92.296875 24.835938 93.480469 24.757812 94.261719 25.4375 C 95.042969 26.121094 95.121094 27.304688 94.441406 28.085938 L 74.71875 50.585938 C 74.121094 51.265625 73.121094 51.425781 72.339844 50.957031 L 64.359375 46.175781 L 50.359375 63.648438 C 49.707031 64.457031 48.527344 64.585938 47.71875 63.9375 Z M 47.71875 63.9375 " fill-opacity="1" fill-rule="nonzero"/><path fill="#000000" d="M 92.097656 36.410156 L 91.328125 28.726562 L 83.636719 28.726562 C 82.597656 28.726562 81.757812 27.886719 81.757812 26.851562 C 81.757812 25.8125 82.597656 24.976562 83.636719 24.976562 L 93.027344 24.976562 C 93.992188 24.976562 94.800781 25.703125 94.894531 26.664062 L 95.835938 36.039062 C 95.9375 37.070312 95.183594 37.988281 94.152344 38.089844 C 93.125 38.195312 92.199219 37.445312 92.097656 36.410156 Z M 92.097656 36.410156 " fill-opacity="1" fill-rule="nonzero"/></svg>