<svg xmlns="http://www.w3.org/2000/svg" xmlns:xlink="http://www.w3.org/1999/xlink" width="128" zoomAndPan="magnify" viewBox="0 0 96 89.999999" height="120" preserveAspectRatio="xMidYMid meet" version="1.0"><defs><clipPath id="87240c87ce"><path d="M 59.4375 40.257812 L 59.796875 40.257812 L 59.796875 40.539062 L 59.4375 40.539062 Z M 59.4375 40.257812 " clip-rule="nonzero"/></clipPath><clipPath id="b3a8059060"><path d="M 59.773438 40.425781 C 59.101562 40.726562 59.699219 40.273438 59.699219 40.273438 " clip-rule="nonzero"/></clipPath></defs><g clip-path="url(#87240c87ce)"><g clip-path="url(#b3a8059060)"><path fill="#01184e" d="M 56.101562 37.273438 L 62.855469 37.273438 L 62.855469 43.800781 L 56.101562 43.800781 Z M 56.101562 37.273438 " fill-opacity="1" fill-rule="nonzero"/></g></g><path fill="#99cc67" d="M 26.394531 39.914062 L 47.105469 46.257812 L 37.554688 57.878906 L 17.496094 51.324219 Z M 26.394531 39.914062 " fill-opacity="1" fill-rule="evenodd"/><path fill="#99cc67" d="M 67.816406 39.914062 L 47.105469 46.257812 L 56.652344 57.878906 L 76.707031 51.324219 Z M 67.816406 39.914062 " fill-opacity="1" fill-rule="evenodd"/><path fill="#99cc67" d="M 7.695312 62.859375 L 12.574219 62.859375 C 14.386719 62.859375 15.863281 64.339844 15.863281 66.144531 L 15.863281 85.367188 C 15.863281 87.179688 14.382812 88.65625 12.574219 88.65625 L 7.695312 88.65625 C 5.882812 88.65625 4.40625 87.175781 4.40625 85.367188 L 4.40625 66.144531 C 4.40625 64.335938 5.886719 62.859375 7.695312 62.859375 Z M 7.695312 62.859375 " fill-opacity="1" fill-rule="evenodd"/><path fill="#99cc67" d="M 42.535156 18.414062 L 34.691406 21.988281 L 34.691406 28.527344 L 37.316406 37.90625 L 38.429688 29.570312 L 43.996094 26.171875 Z M 53.296875 18.414062 L 61.136719 21.988281 L 61.136719 28.527344 L 58.507812 37.90625 L 57.398438 29.570312 L 51.832031 26.171875 Z M 53.296875 18.414062 " fill-opacity="1" fill-rule="evenodd"/><path fill="#99cc67" d="M 44.730469 34.476562 L 51.101562 34.476562 C 52.226562 34.476562 53.144531 33.550781 53.144531 32.425781 C 53.144531 31.296875 52.226562 30.375 51.101562 30.375 L 44.730469 30.375 C 43.601562 30.375 42.679688 31.296875 42.679688 32.425781 C 42.679688 33.550781 43.601562 34.476562 44.730469 34.476562 Z M 44.730469 34.476562 " fill-opacity="1" fill-rule="evenodd"/><path fill="#99cc67" d="M 47.914062 8.316406 C 49.132812 8.316406 50.121094 9.296875 50.121094 10.519531 C 50.121094 11.734375 49.136719 12.726562 47.914062 12.726562 C 46.699219 12.726562 45.710938 11.738281 45.710938 10.519531 C 45.710938 9.296875 46.699219 8.316406 47.914062 8.316406 Z M 47.914062 8.316406 " fill-opacity="1" fill-rule="evenodd"/><path fill="#336667" d="M 47.914062 6.953125 C 51.078125 6.953125 52.675781 10.792969 50.433594 13.03125 C 48.195312 15.269531 44.351562 13.675781 44.351562 10.515625 C 44.351562 8.546875 45.945312 6.953125 47.914062 6.953125 Z M 48.515625 9.914062 C 47.722656 9.125 46.523438 10.324219 47.316406 11.113281 C 48.105469 11.898438 49.304688 10.699219 48.515625 9.914062 Z M 42.285156 38.40625 C 42.285156 37.65625 42.894531 37.050781 43.640625 37.050781 C 44.394531 37.050781 45 37.65625 45 38.40625 L 45 40.644531 C 45 41.394531 44.394531 42.003906 43.640625 42.003906 C 42.894531 42.003906 42.285156 41.390625 42.285156 40.644531 Z M 50.828125 38.40625 C 50.828125 37.65625 51.433594 37.050781 52.1875 37.050781 C 52.933594 37.050781 53.542969 37.65625 53.542969 38.40625 L 53.542969 40.644531 C 53.542969 41.394531 52.933594 42.003906 52.1875 42.003906 C 51.433594 42.003906 50.828125 41.390625 50.828125 40.644531 Z M 46.554688 38.40625 C 46.554688 37.65625 47.164062 37.050781 47.914062 37.050781 C 48.660156 37.050781 49.269531 37.65625 49.269531 38.40625 L 49.269531 40.644531 C 49.269531 41.394531 48.660156 42.003906 47.914062 42.003906 C 47.164062 42.003906 46.554688 41.390625 46.554688 40.644531 Z M 12.609375 31.683594 C 16.582031 31.683594 18.589844 36.511719 15.777344 39.324219 C 12.960938 42.136719 8.132812 40.132812 8.132812 36.15625 C 8.132812 33.683594 10.140625 31.683594 12.609375 31.683594 Z M 13.859375 34.910156 C 12.753906 33.804688 10.851562 34.59375 10.851562 36.15625 C 10.851562 37.722656 12.753906 38.511719 13.859375 37.402344 C 14.542969 36.714844 14.542969 35.597656 13.859375 34.910156 Z M 84.464844 31.683594 C 88.441406 31.683594 90.449219 36.511719 87.632812 39.324219 C 84.820312 42.136719 79.992188 40.132812 79.992188 36.15625 C 79.992188 33.683594 82 31.683594 84.464844 31.683594 Z M 85.714844 34.910156 C 84.609375 33.804688 82.707031 34.59375 82.707031 36.15625 C 82.707031 37.722656 84.609375 38.511719 85.714844 37.402344 C 86.402344 36.714844 86.402344 35.597656 85.714844 34.910156 Z M 66.492188 0.0078125 C 70.46875 0.0078125 72.472656 4.835938 69.660156 7.648438 C 66.84375 10.464844 62.019531 8.457031 62.019531 4.484375 C 62.015625 2.007812 64.023438 0.0078125 66.492188 0.0078125 Z M 67.738281 3.234375 C 66.632812 2.128906 64.730469 2.917969 64.730469 4.484375 C 64.730469 6.050781 66.632812 6.835938 67.738281 5.730469 C 68.429688 5.039062 68.429688 3.929688 67.738281 3.234375 Z M 34.320312 0.0078125 C 38.296875 0.0078125 40.296875 4.835938 37.484375 7.648438 C 34.671875 10.464844 29.839844 8.457031 29.839844 4.484375 C 29.839844 2.007812 31.847656 0.0078125 34.320312 0.0078125 Z M 35.566406 3.234375 C 34.460938 2.128906 32.554688 2.917969 32.554688 4.484375 C 32.554688 6.050781 34.460938 6.835938 35.566406 5.730469 C 36.25 5.039062 36.25 3.929688 35.566406 3.234375 Z M 29.523438 31.480469 C 29.847656 32.148438 29.574219 32.957031 28.902344 33.289062 C 28.230469 33.613281 27.417969 33.339844 27.09375 32.667969 C 25.40625 29.222656 22.371094 26.460938 18.621094 24.683594 C 14.820312 22.886719 10.300781 22.109375 5.699219 22.648438 C 4.953125 22.734375 4.28125 22.199219 4.199219 21.457031 C 4.113281 20.714844 4.648438 20.039062 5.390625 19.957031 C 10.5 19.355469 15.535156 20.230469 19.773438 22.234375 C 24.070312 24.265625 27.554688 27.460938 29.523438 31.480469 Z M 69.988281 32.667969 C 69.660156 33.339844 68.851562 33.613281 68.179688 33.289062 C 67.507812 32.957031 67.230469 32.148438 67.558594 31.480469 C 69.523438 27.460938 73.015625 24.265625 77.300781 22.234375 C 81.546875 20.230469 86.582031 19.355469 91.691406 19.957031 C 92.433594 20.039062 92.96875 20.714844 92.882812 21.457031 C 92.796875 22.199219 92.125 22.734375 91.382812 22.648438 C 86.78125 22.109375 82.253906 22.886719 78.460938 24.683594 C 74.707031 26.457031 71.671875 29.21875 69.988281 32.667969 Z M 65.339844 20.910156 C 64.949219 21.550781 64.117188 21.757812 63.472656 21.375 C 62.832031 20.984375 62.625 20.152344 63.011719 19.507812 C 65.191406 15.898438 68.660156 13.054688 72.800781 11.273438 C 76.875 9.515625 81.609375 8.777344 86.410156 9.34375 C 87.15625 9.429688 87.6875 10.101562 87.601562 10.84375 C 87.519531 11.585938 86.847656 12.125 86.101562 12.039062 C 81.777344 11.53125 77.523438 12.191406 73.875 13.765625 C 70.234375 15.332031 67.210938 17.792969 65.339844 20.910156 Z M 32.210938 19.171875 C 32.613281 19.8125 32.425781 20.648438 31.792969 21.050781 C 31.160156 21.449219 30.320312 21.265625 29.917969 20.632812 C 28 17.597656 24.980469 15.199219 21.386719 13.683594 C 17.777344 12.164062 13.589844 11.535156 9.328125 12.039062 C 8.585938 12.125 7.914062 11.585938 7.828125 10.84375 C 7.746094 10.101562 8.277344 9.429688 9.019531 9.34375 C 13.742188 8.789062 18.402344 9.492188 22.4375 11.191406 C 26.535156 12.917969 29.992188 15.671875 32.210938 19.171875 Z M 44.722656 33.113281 L 51.09375 33.113281 C 52.007812 33.113281 52.007812 31.726562 51.09375 31.726562 L 44.722656 31.726562 C 43.816406 31.726562 43.816406 33.113281 44.722656 33.113281 Z M 49.871094 35.828125 L 44.726562 35.828125 C 44.617188 35.828125 44.5 35.824219 44.390625 35.8125 L 38.730469 37.546875 L 38.671875 38 C 38.519531 39.507812 36.527344 39.679688 36.050781 38.363281 L 31.007812 39.910156 L 47.109375 44.84375 L 63.199219 39.910156 L 59.53125 38.789062 C 58.761719 39.671875 57.300781 39.230469 57.164062 38.0625 Z M 41.625 33.828125 C 41.023438 32.515625 41.332031 30.960938 42.363281 29.972656 L 42.09375 28.917969 L 39.6875 30.386719 L 39.128906 34.59375 Z M 44.910156 29.011719 L 50.914062 29.011719 L 51.410156 27.054688 L 51.515625 21.316406 C 51.59375 17.671875 51.664062 14.234375 51.664062 10.324219 C 51.664062 9.078125 51.03125 6.730469 50.058594 4.929688 C 49.476562 3.851562 48.84375 3.039062 48.324219 3.039062 L 47.5 3.039062 C 46.984375 3.039062 46.351562 3.855469 45.769531 4.929688 C 44.789062 6.730469 44.164062 9.074219 44.164062 10.324219 C 44.164062 16.0625 44.324219 21.058594 44.410156 26.644531 L 44.417969 27.054688 Z M 53.46875 29.972656 C 54.632812 31.089844 54.847656 32.886719 53.96875 34.257812 L 56.773438 35.113281 L 56.140625 30.382812 L 53.738281 28.917969 Z M 41.695312 25.980469 C 41.667969 24.453125 41.640625 22.90625 41.609375 21.363281 C 41.597656 20.808594 41.625 20.882812 41.523438 20.355469 L 36.050781 22.851562 L 36.050781 28.347656 L 36.847656 31.195312 L 37.089844 29.390625 C 37.144531 28.972656 37.394531 28.621094 37.730469 28.410156 Z M 41.527344 17.382812 C 41.480469 14.929688 41.449219 12.546875 41.449219 10.320312 C 41.449219 7.691406 43.664062 0.320312 47.5 0.320312 L 48.324219 0.320312 C 52.164062 0.320312 54.378906 7.691406 54.378906 10.320312 C 54.378906 12.546875 54.347656 14.925781 54.300781 17.382812 L 61.699219 20.753906 C 62.191406 20.976562 62.488281 21.46875 62.488281 21.984375 L 62.496094 21.984375 L 62.496094 28.519531 C 62.496094 28.679688 62.46875 28.828125 62.417969 28.96875 L 60.382812 36.21875 L 68.179688 38.601562 C 68.460938 38.6875 68.691406 38.832031 68.882812 39.078125 L 77.71875 50.417969 C 78.402344 51.234375 78 52.320312 77.125 52.605469 L 69.175781 55.203125 L 69.175781 64.957031 C 69.175781 65.074219 69.160156 65.1875 69.128906 65.296875 C 70.777344 66.128906 71.660156 67.777344 71.308594 69.605469 C 70.992188 71.265625 69.617188 73.074219 66.910156 74.453125 L 44.585938 85.855469 C 43.300781 86.511719 41.996094 86.675781 40.59375 86.355469 L 24.902344 82.765625 L 17.175781 85.996094 C 16.863281 88.273438 14.898438 90.007812 12.574219 90.007812 L 7.695312 90.007812 C 5.136719 90.007812 3.046875 87.917969 3.046875 85.363281 L 3.054688 85.363281 L 3.054688 66.140625 L 3.046875 66.140625 C 3.046875 63.582031 5.136719 61.496094 7.695312 61.496094 L 12.574219 61.496094 C 14.664062 61.496094 16.476562 62.898438 17.035156 64.859375 L 25.03125 61.054688 L 25.03125 55.203125 L 17.078125 52.609375 C 16.207031 52.324219 15.808594 51.234375 16.488281 50.421875 L 25.320312 39.078125 C 25.507812 38.839844 25.757812 38.683594 26.027344 38.605469 L 35.3125 35.761719 L 33.410156 28.96875 C 33.359375 28.828125 33.332031 28.679688 33.332031 28.519531 L 33.332031 21.984375 L 33.339844 21.984375 C 33.339844 21.46875 33.636719 20.976562 34.128906 20.753906 Z M 54.230469 20.738281 L 54.132812 25.980469 L 58.105469 28.410156 C 58.4375 28.621094 58.6875 28.972656 58.742188 29.390625 L 58.976562 31.195312 L 59.78125 28.347656 L 59.78125 22.855469 L 54.304688 20.359375 Z M 17.210938 67.773438 L 17.210938 83.042969 L 24.261719 80.097656 C 24.511719 79.992188 24.792969 79.964844 25.078125 80.023438 L 41.199219 83.714844 C 41.953125 83.890625 42.667969 83.800781 43.355469 83.449219 L 65.683594 72.046875 C 67.550781 71.089844 68.46875 70.011719 68.644531 69.09375 C 68.75 68.535156 68.546875 68.097656 68.0625 67.796875 C 67.246094 67.289062 65.820312 67.21875 63.945312 67.917969 L 45.785156 74.722656 C 45.433594 74.875 45.046875 74.871094 44.710938 74.730469 L 31.472656 69.953125 C 30.769531 69.699219 30.40625 68.921875 30.652344 68.21875 C 30.90625 67.519531 31.683594 67.152344 32.386719 67.40625 L 45.121094 72 C 45.90625 71.511719 46.699219 70.792969 46.59375 69.90625 C 46.40625 68.390625 44.082031 67.070312 42.820312 66.519531 L 32.105469 61.882812 C 31.140625 61.46875 30.179688 61.609375 29.226562 62.0625 Z M 12.574219 64.210938 L 7.695312 64.210938 C 6.632812 64.210938 5.765625 65.078125 5.765625 66.140625 L 5.757812 66.140625 L 5.757812 85.363281 L 5.765625 85.363281 C 5.765625 86.417969 6.632812 87.292969 7.695312 87.292969 L 12.574219 87.292969 C 13.632812 87.292969 14.507812 86.417969 14.507812 85.363281 L 14.507812 66.140625 C 14.507812 65.089844 13.636719 64.210938 12.574219 64.210938 Z M 27.746094 59.769531 C 28.742188 59.289062 29.53125 58.988281 30.644531 58.9375 C 31.484375 58.894531 32.335938 59.039062 33.179688 59.40625 L 43.890625 64.042969 C 44.574219 64.332031 45.1875 64.65625 45.75 64.996094 L 45.75 50.039062 L 38.601562 58.734375 C 38.238281 59.175781 37.652344 59.328125 37.136719 59.15625 L 37.136719 59.164062 L 27.746094 56.09375 Z M 48.464844 67.464844 C 49.089844 68.398438 49.410156 69.449219 49.292969 70.523438 L 63.007812 65.382812 C 64.265625 64.910156 65.425781 64.703125 66.460938 64.710938 L 66.460938 56.09375 L 57.066406 59.164062 L 57.066406 59.15625 C 56.554688 59.328125 55.96875 59.171875 55.605469 58.734375 L 48.464844 50.039062 Z M 49.429688 46.957031 L 57.105469 56.296875 L 74.453125 50.628906 L 67.320312 41.472656 Z M 26.882812 41.476562 L 19.75 50.628906 L 37.097656 56.300781 L 44.773438 46.960938 Z M 26.882812 41.476562 " fill-opacity="1" fill-rule="nonzero"/></svg>