<svg xmlns="http://www.w3.org/2000/svg" xmlns:xlink="http://www.w3.org/1999/xlink" width="128" zoomAndPan="magnify" viewBox="0 0 96 89.999999" height="120" preserveAspectRatio="xMidYMid meet" version="1.0"><defs><clipPath id="061ad4e2ed"><path d="M 59.4375 40.257812 L 59.796875 40.257812 L 59.796875 40.539062 L 59.4375 40.539062 Z M 59.4375 40.257812 " clip-rule="nonzero"/></clipPath><clipPath id="3fb2e9876e"><path d="M 59.773438 40.425781 C 59.101562 40.726562 59.699219 40.273438 59.699219 40.273438 " clip-rule="nonzero"/></clipPath><clipPath id="33eec64ed9"><path d="M 3.675781 30 L 61 30 L 61 88 L 3.675781 88 Z M 3.675781 30 " clip-rule="nonzero"/></clipPath><clipPath id="5c18107024"><path d="M 40 0 L 92 0 L 92 88.800781 L 40 88.800781 Z M 40 0 " clip-rule="nonzero"/></clipPath></defs><g clip-path="url(#061ad4e2ed)"><g clip-path="url(#3fb2e9876e)"><path fill="#01184e" d="M 56.101562 37.273438 L 62.855469 37.273438 L 62.855469 43.800781 L 56.101562 43.800781 Z M 56.101562 37.273438 " fill-opacity="1" fill-rule="nonzero"/></g></g><g clip-path="url(#33eec64ed9)"><path fill="#ffe177" d="M 37.460938 35.464844 C 39.957031 36.058594 42.335938 37.042969 44.511719 38.386719 L 49.09375 36.351562 L 54.488281 41.761719 L 52.457031 46.347656 C 53.796875 48.53125 54.785156 50.910156 55.378906 53.40625 L 60.054688 55.210938 L 60.054688 62.855469 L 55.378906 64.65625 C 54.785156 67.148438 53.796875 69.53125 52.457031 71.714844 L 54.488281 76.300781 L 49.09375 81.710938 L 44.511719 79.671875 C 42.335938 81.015625 39.957031 82.007812 37.460938 82.601562 L 35.664062 87.277344 L 28.03125 87.277344 L 26.230469 82.597656 C 23.742188 82.003906 21.363281 81.015625 19.1875 79.671875 L 14.605469 81.710938 L 9.203125 76.300781 L 11.242188 71.71875 C 9.898438 69.53125 8.90625 67.148438 8.316406 64.65625 L 3.644531 62.855469 L 3.644531 55.210938 L 8.316406 53.40625 C 8.90625 50.910156 9.898438 48.53125 11.242188 46.347656 L 9.203125 41.761719 L 14.605469 36.351562 L 19.183594 38.386719 C 21.363281 37.042969 23.742188 36.058594 26.230469 35.464844 L 28.03125 30.78125 L 35.664062 30.78125 Z M 37.460938 35.464844 " fill-opacity="1" fill-rule="evenodd"/></g><path fill="#ffd064" d="M 47.554688 37.039062 L 49.09375 36.351562 L 54.488281 41.761719 L 52.457031 46.347656 C 53.796875 48.53125 54.785156 50.910156 55.378906 53.40625 L 60.054688 55.210938 L 60.054688 62.855469 L 55.378906 64.65625 C 54.785156 67.148438 53.796875 69.53125 52.457031 71.714844 L 54.488281 76.300781 L 49.09375 81.710938 L 47.554688 81.027344 L 52.269531 76.300781 L 50.234375 71.714844 C 51.578125 69.53125 52.5625 67.148438 53.15625 64.65625 L 57.832031 62.855469 L 57.832031 55.210938 L 53.15625 53.40625 C 52.5625 50.910156 51.578125 48.53125 50.234375 46.347656 L 52.269531 41.761719 Z M 13.921875 37.039062 L 14.605469 36.351562 L 19.183594 38.386719 C 18.859375 38.570312 18.539062 38.757812 18.226562 38.953125 Z M 37.460938 35.464844 C 39.957031 36.058594 42.335938 37.042969 44.511719 38.386719 L 43.25 38.953125 C 41.070312 37.609375 37.734375 36.058594 35.242188 35.464844 L 33.441406 30.78125 L 35.664062 30.78125 Z M 19.1875 79.671875 L 14.605469 81.710938 L 13.921875 81.027344 L 18.226562 79.113281 C 18.539062 79.304688 18.859375 79.492188 19.1875 79.671875 Z M 44.511719 79.671875 C 42.335938 81.015625 39.957031 82.007812 37.460938 82.601562 L 35.664062 87.277344 L 33.441406 87.277344 L 35.242188 82.601562 C 37.734375 82.007812 41.070312 80.453125 43.253906 79.113281 Z M 44.511719 79.671875 " fill-opacity="1" fill-rule="evenodd"/><path fill="#eceff1" d="M 31.847656 41.304688 C 41.621094 41.304688 49.542969 49.242188 49.542969 59.035156 C 49.542969 68.816406 41.621094 76.753906 31.847656 76.753906 C 22.078125 76.753906 14.152344 68.816406 14.152344 59.035156 C 14.152344 49.242188 22.078125 41.304688 31.847656 41.304688 Z M 31.847656 41.304688 " fill-opacity="1" fill-rule="evenodd"/><path fill="#d1d1d6" d="M 31.847656 41.304688 C 32.25 41.304688 32.648438 41.324219 33.046875 41.351562 C 23.835938 41.964844 16.546875 49.644531 16.546875 59.035156 C 16.546875 68.417969 23.835938 76.09375 33.046875 76.710938 C 32.648438 76.738281 32.25 76.753906 31.847656 76.753906 C 22.078125 76.753906 14.152344 68.816406 14.152344 59.035156 C 14.152344 49.242188 22.078125 41.304688 31.847656 41.304688 Z M 31.847656 41.304688 " fill-opacity="1" fill-rule="evenodd"/><g clip-path="url(#5c18107024)"><path fill="#8ac9fe" d="M 88.460938 42.550781 C 86.097656 39.761719 78.902344 31.269531 77.113281 29.160156 L 65.765625 42.550781 L 70.421875 42.550781 C 71.222656 42.550781 71.871094 43.203125 71.871094 44 L 71.871094 76.9375 C 71.871094 77.738281 71.222656 78.390625 70.421875 78.390625 C 69.625 78.390625 68.972656 77.738281 68.972656 76.9375 L 68.972656 45.453125 L 64.597656 45.453125 C 63.648438 45.453125 62.851562 44.9375 62.457031 44.078125 C 62.066406 43.226562 62.1875 42.273438 62.804688 41.558594 C 62.804688 41.558594 75.316406 26.800781 75.316406 26.800781 C 75.769531 26.257812 76.390625 25.964844 77.113281 25.964844 C 77.820312 25.964844 78.4375 26.25 78.902344 26.789062 C 78.90625 26.792969 78.90625 26.796875 78.910156 26.796875 L 91.425781 41.566406 C 92.027344 42.277344 92.15625 43.230469 91.765625 44.078125 C 91.371094 44.941406 90.566406 45.453125 89.628906 45.453125 L 85.246094 45.453125 L 85.246094 66.597656 C 85.246094 67.402344 84.597656 68.050781 83.796875 68.050781 C 83 68.050781 82.351562 67.402344 82.351562 66.597656 L 82.351562 44 C 82.351562 43.203125 83 42.550781 83.796875 42.550781 Z M 82.351562 71.769531 C 82.351562 70.96875 83 70.320312 83.796875 70.320312 C 84.597656 70.320312 85.246094 70.96875 85.246094 71.769531 L 85.246094 76.9375 C 85.246094 77.738281 84.597656 78.390625 83.796875 78.390625 C 83 78.390625 82.351562 77.738281 82.351562 76.9375 Z M 82.351562 82.109375 C 82.351562 81.308594 83 80.65625 83.796875 80.65625 C 84.597656 80.65625 85.246094 81.308594 85.246094 82.109375 L 85.246094 87.277344 C 85.246094 88.078125 84.597656 88.730469 83.796875 88.730469 C 83 88.730469 82.351562 88.078125 82.351562 87.277344 Z M 71.871094 87.277344 C 71.871094 88.078125 71.222656 88.730469 70.421875 88.730469 C 69.625 88.730469 68.972656 88.078125 68.972656 87.277344 L 68.972656 82.109375 C 68.972656 81.308594 69.625 80.65625 70.421875 80.65625 C 71.222656 80.65625 71.871094 81.308594 71.871094 82.109375 Z M 61.40625 12.191406 C 59.296875 9.707031 54.464844 3.996094 52.847656 2.089844 L 44.285156 12.191406 L 47.441406 12.191406 C 48.242188 12.191406 48.890625 12.839844 48.890625 13.640625 L 48.890625 29.53125 C 48.890625 30.335938 48.242188 30.984375 47.441406 30.984375 C 46.640625 30.984375 45.992188 30.335938 45.992188 29.53125 L 45.992188 15.09375 L 42.738281 15.09375 C 41.859375 15.09375 41.121094 14.617188 40.757812 13.820312 C 40.394531 13.03125 40.511719 12.148438 41.082031 11.488281 C 41.082031 11.488281 51.179688 -0.429688 51.179688 -0.429688 C 51.601562 -0.929688 52.171875 -1.199219 52.847656 -1.199219 C 53.5 -1.199219 54.070312 -0.941406 54.503906 -0.4375 C 54.503906 -0.4375 54.503906 -0.433594 54.507812 -0.429688 L 64.613281 11.492188 C 65.171875 12.152344 65.289062 13.03125 64.929688 13.820312 C 64.5625 14.617188 63.820312 15.09375 62.953125 15.09375 L 59.691406 15.09375 L 59.691406 39.964844 C 59.691406 40.765625 59.042969 41.417969 58.246094 41.417969 C 57.445312 41.417969 56.796875 40.765625 56.796875 39.964844 L 56.796875 13.640625 C 56.796875 12.839844 57.445312 12.191406 58.246094 12.191406 Z M 61.40625 12.191406 " fill-opacity="1" fill-rule="evenodd"/></g><path fill="#ffe177" d="M 30.472656 47.648438 C 30.667969 47.050781 31.226562 46.644531 31.851562 46.644531 C 32.480469 46.644531 33.035156 47.050781 33.230469 47.648438 C 33.925781 49.78125 34.703125 52.1875 35.132812 53.507812 C 35.328125 54.105469 35.882812 54.511719 36.511719 54.511719 L 42.660156 54.511719 C 43.289062 54.511719 43.847656 54.917969 44.042969 55.515625 C 44.234375 56.113281 44.023438 56.769531 43.515625 57.140625 C 41.703125 58.457031 39.660156 59.941406 38.539062 60.761719 C 38.027344 61.128906 37.816406 61.785156 38.011719 62.382812 C 38.441406 63.703125 39.222656 66.109375 39.910156 68.242188 C 40.105469 68.839844 39.894531 69.496094 39.382812 69.863281 C 38.878906 70.238281 38.191406 70.238281 37.679688 69.863281 C 35.867188 68.546875 33.824219 67.0625 32.703125 66.242188 C 32.195312 65.875 31.507812 65.875 31 66.242188 C 29.878906 67.0625 27.835938 68.546875 26.023438 69.863281 C 25.515625 70.238281 24.828125 70.238281 24.320312 69.863281 C 23.8125 69.496094 23.597656 68.839844 23.792969 68.242188 C 24.484375 66.109375 25.265625 63.703125 25.695312 62.382812 C 25.886719 61.785156 25.675781 61.128906 25.167969 60.761719 C 24.046875 59.941406 22.003906 58.457031 20.191406 57.140625 C 19.679688 56.769531 19.46875 56.113281 19.664062 55.515625 C 19.859375 54.917969 20.414062 54.511719 21.042969 54.511719 L 27.191406 54.511719 C 27.820312 54.511719 28.378906 54.105469 28.574219 53.507812 C 29 52.1875 29.78125 49.78125 30.472656 47.648438 Z M 30.472656 47.648438 " fill-opacity="1" fill-rule="evenodd"/><path fill="#ffd064" d="M 31.316406 46.746094 C 31.484375 46.683594 31.664062 46.644531 31.851562 46.644531 C 32.480469 46.644531 33.035156 47.050781 33.230469 47.648438 L 35.132812 53.507812 C 35.328125 54.105469 35.882812 54.511719 36.511719 54.511719 L 35.441406 54.511719 C 34.8125 54.511719 34.257812 54.105469 34.0625 53.507812 L 32.164062 47.648438 C 32.027344 47.230469 31.710938 46.90625 31.316406 46.746094 Z M 41.59375 54.511719 L 42.660156 54.511719 C 43.289062 54.511719 43.847656 54.917969 44.042969 55.515625 C 44.234375 56.113281 44.023438 56.769531 43.515625 57.140625 L 38.539062 60.761719 C 38.027344 61.128906 37.816406 61.785156 38.011719 62.382812 L 39.910156 68.242188 C 40.105469 68.839844 39.894531 69.496094 39.382812 69.863281 C 38.976562 70.164062 38.453125 70.21875 37.996094 70.042969 C 38.109375 69.996094 38.214844 69.9375 38.316406 69.863281 C 38.824219 69.496094 39.039062 68.839844 38.84375 68.242188 L 36.941406 62.382812 C 36.75 61.785156 36.960938 61.128906 37.46875 60.761719 L 42.445312 57.140625 C 42.953125 56.769531 43.164062 56.113281 42.972656 55.515625 C 42.777344 54.917969 42.222656 54.511719 41.59375 54.511719 Z M 31.316406 66.070312 C 31.207031 66.113281 31.101562 66.171875 31 66.242188 L 26.023438 69.863281 C 25.613281 70.164062 25.089844 70.21875 24.636719 70.042969 C 24.75 69.996094 24.855469 69.9375 24.957031 69.863281 L 29.929688 66.242188 C 30.339844 65.945312 30.863281 65.886719 31.316406 66.070312 Z M 31.316406 66.070312 " fill-opacity="1" fill-rule="evenodd"/></svg>