<svg xmlns="http://www.w3.org/2000/svg" xmlns:xlink="http://www.w3.org/1999/xlink" width="128" zoomAndPan="magnify" viewBox="0 0 96 89.999999" height="120" preserveAspectRatio="xMidYMid meet" version="1.0"><defs><clipPath id="1a99e40b6c"><path d="M 59.4375 40.257812 L 59.796875 40.257812 L 59.796875 40.539062 L 59.4375 40.539062 Z M 59.4375 40.257812 " clip-rule="nonzero"/></clipPath><clipPath id="7ceefa2929"><path d="M 59.773438 40.425781 C 59.101562 40.726562 59.699219 40.273438 59.699219 40.273438 " clip-rule="nonzero"/></clipPath><clipPath id="47106ab693"><path d="M 21.863281 87.859375 L 94.03125 87.859375 L 94.03125 90 L 21.863281 90 Z M 21.863281 87.859375 " clip-rule="nonzero"/></clipPath><clipPath id="3883b9e20f"><path d="M 1.792969 59.566406 L 31.894531 59.566406 L 31.894531 90 L 1.792969 90 Z M 1.792969 59.566406 " clip-rule="nonzero"/></clipPath></defs><g clip-path="url(#1a99e40b6c)"><g clip-path="url(#7ceefa2929)"><path fill="#01184e" d="M 56.101562 37.273438 L 62.855469 37.273438 L 62.855469 43.800781 L 56.101562 43.800781 Z M 56.101562 37.273438 " fill-opacity="1" fill-rule="nonzero"/></g></g><path fill="#2e2d2c" d="M 36.09375 85.621094 C 36.679688 85.621094 37.15625 85.144531 37.15625 84.558594 L 37.175781 78.859375 C 37.175781 78.273438 36.703125 77.796875 36.113281 77.796875 L 27.671875 77.796875 C 27.085938 77.796875 26.609375 78.273438 26.609375 78.859375 L 26.589844 84.558594 C 26.589844 85.144531 27.066406 85.621094 27.652344 85.621094 C 28.238281 85.621094 28.714844 85.144531 28.714844 84.558594 L 28.734375 79.925781 L 35.050781 79.925781 L 35.03125 84.558594 C 35.03125 85.144531 35.507812 85.621094 36.09375 85.621094 " fill-opacity="1" fill-rule="nonzero"/><path fill="#2e2d2c" d="M 49.6875 85.59375 C 50.277344 85.59375 50.75 85.117188 50.75 84.53125 L 50.75 71.0625 C 50.75 70.472656 50.277344 69.996094 49.6875 69.996094 L 41.246094 69.996094 C 40.660156 69.996094 40.183594 70.472656 40.183594 71.0625 L 40.183594 84.53125 C 40.183594 85.117188 40.660156 85.59375 41.246094 85.59375 C 41.835938 85.59375 42.308594 85.117188 42.308594 84.53125 L 42.308594 72.128906 L 48.625 72.128906 L 48.625 84.53125 C 48.625 85.117188 49.101562 85.59375 49.6875 85.59375 " fill-opacity="1" fill-rule="nonzero"/><path fill="#2e2d2c" d="M 63.261719 85.621094 C 63.851562 85.621094 64.324219 85.144531 64.324219 84.558594 L 64.324219 56.292969 C 64.324219 55.703125 63.851562 55.226562 63.261719 55.226562 L 54.820312 55.226562 C 54.234375 55.226562 53.757812 55.703125 53.757812 56.292969 L 53.757812 84.558594 C 53.757812 85.144531 54.234375 85.621094 54.820312 85.621094 C 55.410156 85.621094 55.882812 85.144531 55.882812 84.558594 L 55.882812 57.359375 L 62.199219 57.359375 L 62.199219 84.558594 C 62.199219 85.144531 62.675781 85.621094 63.261719 85.621094 " fill-opacity="1" fill-rule="nonzero"/><g clip-path="url(#47106ab693)"><path fill="#2e2d2c" d="M 92.96875 87.871094 L 22.953125 87.871094 C 22.367188 87.871094 21.890625 88.347656 21.890625 88.933594 C 21.890625 89.523438 22.367188 90 22.953125 90 L 92.96875 90 C 93.554688 90 94.03125 89.523438 94.03125 88.933594 C 94.03125 88.347656 93.554688 87.871094 92.96875 87.871094 " fill-opacity="1" fill-rule="nonzero"/></g><path fill="#2e2d2c" d="M 18.152344 80.742188 L 18.140625 75.707031 C 18.808594 75.886719 19.195312 76.097656 19.210938 76.109375 C 20.0625 76.582031 20.582031 77.355469 20.597656 78.175781 C 20.617188 79.375 19.597656 80.441406 18.152344 80.742188 Z M 15.179688 72.863281 C 14.714844 72.46875 14.449219 71.953125 14.441406 71.414062 C 14.429688 70.863281 14.6875 70.328125 15.164062 69.90625 C 15.429688 69.671875 15.746094 69.484375 16.101562 69.359375 L 16.109375 73.253906 C 15.6875 73.15625 15.382812 73.027344 15.179688 72.863281 Z M 22.421875 78.136719 C 22.390625 76.5625 21.472656 75.117188 19.960938 74.277344 C 19.820312 74.199219 19.0625 73.800781 17.875 73.558594 L 17.867188 69.277344 C 18.273438 69.386719 18.652344 69.578125 18.960938 69.828125 C 19.449219 70.230469 19.726562 70.753906 19.738281 71.308594 C 19.742188 71.589844 19.855469 71.847656 20.058594 72.042969 C 20.253906 72.230469 20.511719 72.335938 20.78125 72.335938 C 20.789062 72.335938 20.796875 72.335938 20.800781 72.335938 C 21.082031 72.328125 21.339844 72.214844 21.535156 72.015625 C 21.726562 71.8125 21.832031 71.546875 21.828125 71.269531 C 21.804688 70.089844 21.253906 69.003906 20.277344 68.207031 C 19.617188 67.667969 18.800781 67.304688 17.921875 67.152344 L 17.902344 66.15625 C 17.898438 65.878906 17.785156 65.617188 17.582031 65.425781 C 17.382812 65.230469 17.117188 65.125 16.839844 65.132812 C 16.261719 65.144531 15.804688 65.621094 15.816406 66.199219 L 15.832031 67.191406 C 14.957031 67.378906 14.160156 67.773438 13.519531 68.335938 C 12.574219 69.167969 12.066406 70.277344 12.089844 71.457031 C 12.109375 72.605469 12.640625 73.675781 13.574219 74.464844 L 13.585938 74.472656 C 14.300781 75.066406 15.207031 75.28125 15.851562 75.386719 L 15.863281 80.644531 C 14.671875 80.261719 13.867188 79.332031 13.84375 78.300781 C 13.835938 77.730469 13.367188 77.277344 12.800781 77.277344 C 12.796875 77.277344 12.789062 77.277344 12.78125 77.277344 C 12.207031 77.285156 11.746094 77.765625 11.757812 78.34375 C 11.769531 78.996094 11.933594 79.625 12.242188 80.214844 C 12.53125 80.769531 12.9375 81.261719 13.449219 81.679688 C 14.113281 82.222656 14.925781 82.605469 15.804688 82.789062 L 15.824219 83.84375 C 15.835938 84.414062 16.300781 84.867188 16.867188 84.867188 C 16.875 84.867188 16.882812 84.867188 16.886719 84.867188 C 17.167969 84.863281 17.425781 84.75 17.621094 84.546875 C 17.8125 84.347656 17.917969 84.082031 17.910156 83.800781 L 17.894531 82.863281 C 19.023438 82.710938 20.046875 82.253906 20.859375 81.535156 C 21.355469 81.101562 21.742188 80.59375 22.007812 80.027344 C 22.296875 79.429688 22.433594 78.792969 22.421875 78.136719 " fill-opacity="1" fill-rule="nonzero"/><path fill="#2e2d2c" d="M 72.445312 66.585938 C 72.449219 66.011719 72.675781 65.472656 73.078125 65.070312 C 73.484375 64.667969 74.019531 64.449219 74.589844 64.449219 C 74.589844 64.449219 74.59375 64.449219 74.59375 64.449219 C 75.089844 64.449219 75.570312 64.625 75.949219 64.9375 C 76.449219 65.351562 76.730469 65.957031 76.730469 66.601562 L 76.722656 68.589844 C 76.71875 69.769531 75.757812 70.726562 74.582031 70.726562 C 74.578125 70.726562 74.578125 70.726562 74.574219 70.726562 C 73.394531 70.722656 72.4375 69.757812 72.441406 68.574219 Z M 71.839844 71.90625 C 72.605469 72.539062 73.574219 72.890625 74.566406 72.894531 C 74.570312 72.894531 74.578125 72.894531 74.582031 72.894531 C 76.949219 72.894531 78.878906 70.96875 78.886719 68.597656 L 78.894531 66.605469 C 78.898438 65.457031 78.453125 64.371094 77.640625 63.554688 C 76.828125 62.734375 75.75 62.285156 74.601562 62.28125 C 74.597656 62.28125 74.59375 62.28125 74.589844 62.28125 C 73.441406 62.28125 72.367188 62.722656 71.554688 63.53125 C 70.738281 64.34375 70.285156 65.425781 70.28125 66.578125 L 70.277344 68.566406 C 70.273438 69.863281 70.84375 71.078125 71.839844 71.90625 " fill-opacity="1" fill-rule="nonzero"/><path fill="#2e2d2c" d="M 84.28125 77.933594 C 84.285156 77.359375 84.507812 76.824219 84.914062 76.417969 C 85.320312 76.015625 85.855469 75.796875 86.421875 75.796875 C 86.425781 75.796875 86.429688 75.796875 86.429688 75.796875 C 86.921875 75.796875 87.40625 75.972656 87.785156 76.285156 C 88.28125 76.699219 88.566406 77.304688 88.566406 77.949219 L 88.558594 79.9375 C 88.554688 81.117188 87.59375 82.074219 86.417969 82.074219 C 86.414062 82.074219 86.410156 82.074219 86.410156 82.074219 C 85.835938 82.074219 85.300781 81.847656 84.898438 81.441406 C 84.492188 81.035156 84.273438 80.496094 84.273438 79.921875 Z M 83.679688 83.257812 C 84.449219 83.898438 85.394531 84.238281 86.402344 84.242188 C 86.40625 84.242188 86.410156 84.242188 86.417969 84.242188 C 88.785156 84.242188 90.714844 82.316406 90.722656 79.945312 L 90.726562 77.953125 C 90.730469 76.800781 90.289062 75.71875 89.476562 74.898438 C 88.667969 74.082031 87.585938 73.628906 86.4375 73.625 C 86.433594 73.625 86.429688 73.625 86.421875 73.625 C 85.28125 73.625 84.203125 74.070312 83.390625 74.882812 C 82.574219 75.695312 82.121094 76.777344 82.117188 77.925781 L 82.109375 79.914062 C 82.105469 81.066406 82.550781 82.152344 83.363281 82.96875 C 83.460938 83.070312 83.570312 83.167969 83.679688 83.257812 " fill-opacity="1" fill-rule="nonzero"/><path fill="#2e2d2c" d="M 74.746094 82.347656 C 74.785156 82.378906 74.828125 82.410156 74.871094 82.433594 C 75.046875 82.542969 75.242188 82.597656 75.433594 82.597656 C 75.796875 82.597656 76.152344 82.414062 76.359375 82.078125 L 86.488281 65.578125 C 86.640625 65.332031 86.6875 65.039062 86.621094 64.757812 C 86.554688 64.476562 86.382812 64.238281 86.136719 64.085938 C 85.890625 63.933594 85.597656 63.886719 85.316406 63.957031 C 85.035156 64.023438 84.796875 64.195312 84.648438 64.441406 L 74.515625 80.945312 C 74.234375 81.402344 74.332031 82.003906 74.746094 82.347656 " fill-opacity="1" fill-rule="nonzero"/><path fill="#2e2d2c" d="M 80.5 14.023438 C 82.808594 14.023438 84.6875 15.90625 84.6875 18.21875 C 84.6875 20.53125 82.808594 22.414062 80.5 22.414062 C 78.191406 22.414062 76.3125 20.53125 76.3125 18.21875 C 76.3125 15.90625 78.191406 14.023438 80.5 14.023438 Z M 80.5 24.527344 C 82.183594 24.527344 83.761719 23.871094 84.953125 22.679688 C 86.140625 21.488281 86.796875 19.902344 86.796875 18.21875 C 86.796875 16.53125 86.140625 14.949219 84.953125 13.757812 C 83.761719 12.566406 82.183594 11.910156 80.5 11.910156 C 78.816406 11.910156 77.238281 12.566406 76.046875 13.757812 C 74.859375 14.949219 74.203125 16.53125 74.203125 18.21875 C 74.203125 19.902344 74.859375 21.488281 76.046875 22.679688 C 77.238281 23.871094 78.816406 24.527344 80.5 24.527344 " fill-opacity="1" fill-rule="nonzero"/><path fill="#2e2d2c" d="M 72.726562 30.089844 C 73.316406 31.671875 73.957031 33.082031 74.632812 34.277344 L 74.632812 36.625 L 73.777344 36.625 C 73.367188 36.625 72.988281 36.867188 72.816406 37.246094 L 71.136719 40.949219 L 69.6875 34.238281 Z M 73.257812 9.863281 L 80.253906 9.863281 C 80.835938 9.863281 81.308594 9.386719 81.308594 8.804688 C 81.308594 8.222656 80.835938 7.75 80.253906 7.75 L 74.425781 7.75 C 75 6.886719 75.683594 6.0625 76.457031 5.289062 C 78.054688 3.691406 79.65625 2.71875 80.5 2.269531 C 81.335938 2.710938 82.914062 3.667969 84.511719 5.253906 C 85.300781 6.039062 85.992188 6.875 86.574219 7.75 L 85.613281 7.75 C 85.03125 7.75 84.558594 8.222656 84.558594 8.804688 C 84.558594 9.386719 85.03125 9.863281 85.613281 9.863281 L 87.742188 9.863281 C 88.542969 11.667969 88.949219 13.644531 88.949219 15.730469 C 88.949219 19.035156 88.183594 23.523438 86.953125 27.453125 C 86.933594 27.496094 86.917969 27.542969 86.910156 27.589844 C 86.257812 29.640625 85.511719 31.441406 84.695312 32.941406 L 84.144531 32.941406 C 83.5625 32.941406 83.089844 33.414062 83.089844 33.996094 C 83.089844 34.578125 83.5625 35.054688 84.144531 35.054688 L 84.257812 35.054688 L 84.257812 38.035156 L 76.742188 38.035156 L 76.742188 35.054688 L 80.316406 35.054688 C 80.898438 35.054688 81.371094 34.578125 81.371094 33.996094 C 81.371094 33.414062 80.898438 32.941406 80.316406 32.941406 L 76.304688 32.941406 C 75.488281 31.441406 74.742188 29.640625 74.09375 27.589844 C 74.082031 27.542969 74.066406 27.496094 74.046875 27.453125 C 72.816406 23.523438 72.050781 19.035156 72.050781 15.730469 C 72.050781 13.644531 72.457031 11.667969 73.257812 9.863281 Z M 91.3125 34.238281 L 89.863281 40.949219 L 88.183594 37.242188 C 88.011719 36.867188 87.632812 36.625 87.21875 36.625 L 86.367188 36.625 L 86.367188 34.277344 C 87.042969 33.082031 87.683594 31.671875 88.273438 30.089844 Z M 69.75 44.515625 C 69.847656 44.960938 70.214844 45.292969 70.667969 45.34375 C 70.707031 45.347656 70.746094 45.347656 70.78125 45.347656 C 71.191406 45.347656 71.566406 45.109375 71.742188 44.730469 L 74.457031 38.738281 L 74.632812 38.738281 L 74.632812 39.09375 C 74.632812 39.675781 75.105469 40.148438 75.6875 40.148438 L 85.3125 40.148438 C 85.894531 40.148438 86.367188 39.675781 86.367188 39.09375 L 86.367188 38.738281 L 86.542969 38.738281 L 89.261719 44.730469 C 89.429688 45.105469 89.808594 45.347656 90.21875 45.347656 C 90.257812 45.347656 90.296875 45.347656 90.332031 45.34375 C 90.785156 45.292969 91.15625 44.960938 91.25 44.515625 L 93.476562 34.21875 C 93.539062 33.925781 93.472656 33.617188 93.296875 33.371094 L 89.097656 27.644531 C 89.328125 26.886719 89.542969 26.113281 89.734375 25.335938 C 90.589844 21.914062 91.058594 18.503906 91.058594 15.730469 C 91.058594 13.195312 90.523438 10.792969 89.472656 8.59375 C 89.433594 8.515625 89.394531 8.433594 89.355469 8.355469 C 89.347656 8.339844 89.339844 8.324219 89.332031 8.3125 C 88.503906 6.664062 87.382812 5.128906 85.996094 3.753906 C 83.511719 1.285156 81.03125 0.167969 80.929688 0.121094 C 80.65625 0 80.34375 0 80.070312 0.121094 C 79.96875 0.167969 77.488281 1.285156 75.003906 3.753906 C 73.617188 5.128906 72.496094 6.664062 71.671875 8.308594 C 71.664062 8.324219 71.65625 8.339844 71.648438 8.351562 C 71.609375 8.429688 71.570312 8.511719 71.53125 8.59375 C 70.476562 10.792969 69.941406 13.195312 69.941406 15.730469 C 69.941406 18.503906 70.410156 21.914062 71.265625 25.335938 C 71.460938 26.113281 71.675781 26.886719 71.902344 27.640625 L 67.707031 33.371094 C 67.527344 33.617188 67.460938 33.925781 67.523438 34.21875 L 69.75 44.515625 " fill-opacity="1" fill-rule="nonzero"/><path fill="#2e2d2c" d="M 75.710938 42.046875 C 75.132812 42.046875 74.660156 42.523438 74.660156 43.105469 C 74.660156 44.335938 74.941406 45.605469 75.496094 46.875 C 75.925781 47.863281 76.523438 48.859375 77.269531 49.832031 C 78.535156 51.472656 79.785156 52.488281 79.839844 52.527344 C 80.027344 52.679688 80.261719 52.761719 80.5 52.761719 C 80.738281 52.761719 80.972656 52.679688 81.160156 52.53125 C 81.210938 52.488281 82.464844 51.472656 83.730469 49.832031 C 84.476562 48.859375 85.074219 47.863281 85.503906 46.875 C 86.0625 45.605469 86.339844 44.335938 86.339844 43.105469 C 86.339844 42.523438 85.867188 42.046875 85.289062 42.046875 C 84.707031 42.046875 84.234375 42.523438 84.234375 43.105469 C 84.234375 45.25 83.058594 47.234375 82.078125 48.515625 C 81.496094 49.273438 80.914062 49.882812 80.5 50.285156 C 79.308594 49.132812 76.765625 46.296875 76.765625 43.105469 C 76.765625 42.523438 76.292969 42.046875 75.710938 42.046875 " fill-opacity="1" fill-rule="nonzero"/><path fill="#2e2d2c" d="M 80.5 46.960938 C 80.816406 46.960938 81.109375 46.820312 81.3125 46.578125 C 81.351562 46.53125 82.257812 45.429688 83.050781 43.710938 C 83.167969 43.453125 83.179688 43.164062 83.082031 42.902344 C 82.984375 42.636719 82.789062 42.425781 82.53125 42.308594 C 82.003906 42.0625 81.375 42.296875 81.132812 42.824219 C 80.945312 43.234375 80.734375 43.636719 80.5 44.03125 C 80.269531 43.640625 80.054688 43.234375 79.867188 42.824219 C 79.75 42.570312 79.539062 42.375 79.273438 42.277344 C 79.011719 42.179688 78.722656 42.1875 78.46875 42.308594 C 78.210938 42.425781 78.019531 42.636719 77.921875 42.902344 C 77.824219 43.164062 77.832031 43.453125 77.953125 43.710938 C 78.742188 45.425781 79.652344 46.53125 79.6875 46.578125 C 79.890625 46.820312 80.1875 46.960938 80.5 46.960938 " fill-opacity="1" fill-rule="nonzero"/><path fill="#2e2d2c" d="M 70.859375 53.257812 C 71.441406 53.257812 71.914062 52.785156 71.914062 52.199219 L 71.914062 48.460938 C 71.914062 47.878906 71.441406 47.40625 70.859375 47.40625 C 70.277344 47.40625 69.804688 47.878906 69.804688 48.460938 L 69.804688 52.199219 C 69.804688 52.785156 70.277344 53.257812 70.859375 53.257812 " fill-opacity="1" fill-rule="nonzero"/><path fill="#2e2d2c" d="M 69.804688 56.765625 C 69.804688 57.351562 70.277344 57.824219 70.859375 57.824219 C 71.441406 57.824219 71.914062 57.351562 71.914062 56.765625 L 71.914062 56.261719 C 71.914062 55.679688 71.441406 55.207031 70.859375 55.207031 C 70.277344 55.207031 69.804688 55.679688 69.804688 56.261719 L 69.804688 56.765625 " fill-opacity="1" fill-rule="nonzero"/><path fill="#2e2d2c" d="M 91.195312 48.460938 C 91.195312 47.878906 90.722656 47.40625 90.140625 47.40625 C 89.558594 47.40625 89.085938 47.878906 89.085938 48.460938 L 89.085938 52.203125 C 89.085938 52.785156 89.558594 53.257812 90.140625 53.257812 C 90.722656 53.257812 91.195312 52.785156 91.195312 52.203125 L 91.195312 48.460938 " fill-opacity="1" fill-rule="nonzero"/><path fill="#2e2d2c" d="M 91.195312 56.765625 L 91.195312 56.261719 C 91.195312 55.679688 90.722656 55.207031 90.140625 55.207031 C 89.558594 55.207031 89.085938 55.679688 89.085938 56.261719 L 89.085938 56.765625 C 89.085938 57.351562 89.558594 57.824219 90.140625 57.824219 C 90.722656 57.824219 91.195312 57.351562 91.195312 56.765625 " fill-opacity="1" fill-rule="nonzero"/><g clip-path="url(#3883b9e20f)"><path fill="#2e2d2c" d="M 16.972656 87.871094 C 9.773438 87.871094 3.917969 82.003906 3.917969 74.789062 C 3.917969 67.578125 9.773438 61.710938 16.972656 61.710938 C 23.328125 61.710938 28.632812 66.25 29.789062 72.285156 C 29.882812 72.777344 30.3125 73.148438 30.832031 73.148438 C 31.417969 73.148438 31.894531 72.671875 31.894531 72.082031 C 31.894531 72.007812 31.886719 71.933594 31.871094 71.863281 C 31.835938 71.683594 31.824219 71.617188 31.785156 71.4375 C 31.585938 70.5625 31.3125 69.703125 30.960938 68.871094 C 30.195312 67.058594 29.101562 65.433594 27.707031 64.035156 C 26.3125 62.640625 24.6875 61.542969 22.882812 60.777344 C 21.007812 59.984375 19.019531 59.582031 16.972656 59.582031 C 14.921875 59.582031 12.9375 59.984375 11.0625 60.777344 C 9.253906 61.542969 7.632812 62.640625 6.238281 64.035156 C 4.84375 65.433594 3.75 67.058594 2.984375 68.871094 C 2.195312 70.746094 1.792969 72.738281 1.792969 74.789062 C 1.792969 76.84375 2.195312 78.835938 2.984375 80.710938 C 3.75 82.519531 4.84375 84.148438 6.238281 85.542969 C 7.632812 86.941406 9.253906 88.039062 11.0625 88.804688 C 12.9375 89.597656 14.921875 90 16.972656 90 C 17.558594 90 18.035156 89.523438 18.035156 88.933594 C 18.035156 88.347656 17.558594 87.871094 16.972656 87.871094 " fill-opacity="1" fill-rule="nonzero"/></g><path fill="#2e2d2c" d="M 35.601562 61.175781 C 35.855469 61.175781 36.085938 61.089844 36.265625 60.945312 C 37.652344 59.921875 39.039062 58.816406 40.558594 57.457031 C 44.726562 53.742188 48.289062 49.519531 51.15625 44.917969 C 54.722656 39.191406 57.203125 32.851562 58.535156 26.074219 C 58.546875 26.03125 58.558594 25.988281 58.5625 25.941406 C 58.570312 25.886719 58.574219 25.832031 58.574219 25.777344 C 58.574219 25.277344 58.222656 24.832031 57.714844 24.730469 C 57.640625 24.71875 57.5625 24.710938 57.488281 24.714844 L 53.734375 24.179688 L 58.628906 17.921875 L 62.277344 27.007812 C 62.445312 27.421875 62.84375 27.675781 63.261719 27.675781 C 63.394531 27.675781 63.53125 27.652344 63.660156 27.597656 C 64.203125 27.378906 64.46875 26.757812 64.25 26.214844 L 59.914062 15.414062 C 59.769531 15.0625 59.453125 14.8125 59.078125 14.757812 C 58.699219 14.703125 58.324219 14.855469 58.089844 15.15625 L 50.925781 24.316406 C 50.691406 24.617188 50.632812 25.019531 50.773438 25.371094 C 50.917969 25.722656 51.234375 25.972656 51.613281 26.027344 L 56.238281 26.6875 C 53.171875 40.875 45.332031 50.332031 39.207031 55.8125 C 37.707031 57.15625 36.339844 58.25 34.980469 59.25 C 34.714844 59.445312 34.539062 59.757812 34.539062 60.113281 C 34.539062 60.699219 35.015625 61.175781 35.601562 61.175781 " fill-opacity="1" fill-rule="nonzero"/></svg>