<svg xmlns="http://www.w3.org/2000/svg" xmlns:xlink="http://www.w3.org/1999/xlink" width="128" zoomAndPan="magnify" viewBox="0 0 96 89.999999" height="120" preserveAspectRatio="xMidYMid meet" version="1.0"><defs><clipPath id="aed831c475"><path d="M 59.4375 40.257812 L 59.796875 40.257812 L 59.796875 40.539062 L 59.4375 40.539062 Z M 59.4375 40.257812 " clip-rule="nonzero"/></clipPath><clipPath id="2e810c5bdd"><path d="M 59.773438 40.425781 C 59.101562 40.726562 59.699219 40.273438 59.699219 40.273438 " clip-rule="nonzero"/></clipPath><clipPath id="98cc946aad"><path d="M 2.71875 0 L 93.46875 0 L 93.46875 90 L 2.71875 90 Z M 2.71875 0 " clip-rule="nonzero"/></clipPath><clipPath id="8fcfa1e09d"><path d="M 3.945312 41.820312 C 3.890625 42.703125 3.863281 43.597656 3.863281 44.480469 C 3.863281 45.199219 3.882812 45.921875 3.917969 46.636719 C 3.929688 46.871094 3.75 47.066406 3.515625 47.078125 C 3.507812 47.082031 3.5 47.082031 3.496094 47.082031 C 3.269531 47.082031 3.082031 46.90625 3.070312 46.679688 C 3.035156 45.953125 3.015625 45.210938 3.015625 44.480469 C 3.015625 43.578125 3.042969 42.667969 3.101562 41.769531 C 3.117188 41.535156 3.316406 41.359375 3.550781 41.375 C 3.785156 41.386719 3.960938 41.589844 3.945312 41.820312 Z M 4.523438 37.042969 C 4.804688 35.464844 5.183594 33.890625 5.648438 32.363281 C 5.714844 32.136719 5.589844 31.902344 5.363281 31.835938 C 5.140625 31.765625 4.902344 31.894531 4.835938 32.117188 C 4.363281 33.679688 3.976562 35.285156 3.6875 36.894531 C 3.648438 37.121094 3.800781 37.34375 4.03125 37.382812 C 4.058594 37.386719 4.082031 37.390625 4.105469 37.390625 C 4.308594 37.390625 4.484375 37.246094 4.523438 37.042969 Z M 54.0625 85.546875 C 52.496094 85.859375 50.886719 86.082031 49.289062 86.214844 C 49.054688 86.230469 48.882812 86.4375 48.902344 86.667969 C 48.917969 86.890625 49.105469 87.058594 49.320312 87.058594 C 49.332031 87.058594 49.34375 87.054688 49.355469 87.054688 C 50.988281 86.921875 52.628906 86.691406 54.230469 86.375 C 54.460938 86.328125 54.609375 86.105469 54.5625 85.878906 C 54.515625 85.648438 54.292969 85.5 54.0625 85.546875 Z M 63.226562 82.59375 C 61.769531 83.257812 60.257812 83.84375 58.730469 84.335938 C 58.507812 84.40625 58.386719 84.644531 58.457031 84.867188 C 58.515625 85.046875 58.683594 85.160156 58.863281 85.160156 C 58.90625 85.160156 58.949219 85.152344 58.992188 85.140625 C 60.546875 84.636719 62.089844 84.039062 63.578125 83.363281 C 63.792969 83.265625 63.886719 83.015625 63.789062 82.800781 C 63.691406 82.589844 63.441406 82.496094 63.226562 82.59375 Z M 40.648438 2.921875 C 40.667969 2.921875 40.683594 2.917969 40.699219 2.917969 C 42.289062 2.722656 43.90625 2.621094 45.515625 2.609375 C 45.75 2.609375 45.9375 2.417969 45.9375 2.183594 C 45.933594 1.953125 45.746094 1.765625 45.511719 1.765625 C 45.511719 1.765625 45.511719 1.765625 45.507812 1.765625 C 43.871094 1.777344 42.21875 1.882812 40.597656 2.078125 C 40.367188 2.105469 40.203125 2.316406 40.230469 2.550781 C 40.253906 2.761719 40.4375 2.921875 40.648438 2.921875 Z M 59.726562 4.964844 C 61.242188 5.492188 62.738281 6.117188 64.179688 6.816406 C 64.238281 6.847656 64.300781 6.859375 64.363281 6.859375 C 64.519531 6.859375 64.671875 6.773438 64.746094 6.625 C 64.847656 6.414062 64.761719 6.160156 64.550781 6.058594 C 63.078125 5.34375 61.550781 4.707031 60.007812 4.164062 C 59.789062 4.089844 59.546875 4.203125 59.46875 4.425781 C 59.390625 4.644531 59.507812 4.886719 59.726562 4.964844 Z M 50.332031 2.847656 C 51.929688 3.019531 53.53125 3.28125 55.09375 3.632812 C 55.125 3.640625 55.15625 3.644531 55.1875 3.644531 C 55.378906 3.644531 55.554688 3.511719 55.597656 3.316406 C 55.648438 3.085938 55.507812 2.859375 55.277344 2.808594 C 53.6875 2.449219 52.050781 2.179688 50.421875 2.007812 C 50.191406 1.984375 49.980469 2.152344 49.957031 2.382812 C 49.933594 2.613281 50.101562 2.824219 50.332031 2.847656 Z M 68.386719 9.171875 C 69.734375 10.03125 71.050781 10.980469 72.292969 11.992188 C 72.375 12.054688 72.46875 12.085938 72.5625 12.085938 C 72.683594 12.085938 72.808594 12.035156 72.890625 11.933594 C 73.039062 11.75 73.011719 11.484375 72.828125 11.335938 C 71.558594 10.304688 70.21875 9.339844 68.84375 8.460938 C 68.644531 8.335938 68.382812 8.390625 68.257812 8.589844 C 68.132812 8.785156 68.1875 9.046875 68.386719 9.171875 Z M 79.019531 18.871094 C 79.105469 18.980469 79.230469 19.035156 79.355469 19.035156 C 79.445312 19.035156 79.539062 19.007812 79.617188 18.949219 C 79.800781 18.804688 79.835938 18.539062 79.691406 18.355469 C 78.691406 17.066406 77.605469 15.816406 76.460938 14.648438 C 76.296875 14.484375 76.03125 14.480469 75.863281 14.640625 C 75.695312 14.804688 75.691406 15.074219 75.855469 15.238281 C 76.976562 16.386719 78.039062 17.609375 79.019531 18.871094 Z M 25.25 42.945312 C 21.511719 42.859375 18.019531 41.773438 15.035156 39.9375 C 9.324219 36.421875 5.480469 30.175781 5.332031 23.035156 L 3.140625 23.035156 C 2.90625 23.035156 2.714844 22.847656 2.714844 22.613281 C 2.714844 22.378906 2.90625 22.191406 3.140625 22.191406 L 5.332031 22.191406 C 5.554688 11.320312 14.359375 2.523438 25.25 2.28125 L 25.25 0.445312 C 25.25 0.214844 25.4375 0.0234375 25.671875 0.0234375 C 25.90625 0.0234375 26.09375 0.214844 26.09375 0.445312 L 26.09375 2.28125 C 33.882812 2.425781 40.613281 6.953125 43.914062 13.488281 C 45.242188 16.113281 46.015625 19.066406 46.078125 22.191406 L 47.917969 22.191406 C 48.152344 22.191406 48.339844 22.378906 48.339844 22.613281 C 48.339844 22.847656 48.152344 23.035156 47.917969 23.035156 L 46.078125 23.035156 C 45.855469 33.925781 37.015625 42.738281 26.097656 42.945312 L 26.097656 44.777344 C 26.097656 45.011719 25.90625 45.199219 25.671875 45.199219 C 25.4375 45.199219 25.25 45.011719 25.25 44.777344 Z M 26.09375 36.902344 L 26.09375 38.414062 C 34.511719 38.210938 41.316406 31.429688 41.539062 23.035156 L 39.667969 23.035156 C 39.433594 23.035156 39.246094 22.847656 39.246094 22.613281 C 39.246094 22.378906 39.433594 22.191406 39.667969 22.191406 L 41.539062 22.191406 C 41.316406 13.796875 34.511719 7.015625 26.09375 6.8125 L 26.09375 8.324219 C 26.09375 8.558594 25.90625 8.746094 25.671875 8.746094 C 25.4375 8.746094 25.25 8.558594 25.25 8.324219 L 25.25 6.8125 C 16.863281 7.050781 10.09375 13.820312 9.871094 22.191406 L 11.386719 22.191406 C 11.621094 22.191406 11.8125 22.378906 11.8125 22.613281 C 11.8125 22.847656 11.621094 23.035156 11.386719 23.035156 L 9.871094 23.035156 C 10.09375 31.40625 16.863281 38.175781 25.25 38.414062 L 25.25 36.902344 C 25.25 36.667969 25.4375 36.476562 25.671875 36.476562 C 25.90625 36.476562 26.09375 36.667969 26.09375 36.902344 Z M 26.09375 42.101562 C 36.546875 41.894531 45.007812 33.460938 45.234375 23.035156 L 42.386719 23.035156 C 42.164062 31.894531 34.976562 39.054688 26.09375 39.257812 Z M 45.234375 22.191406 C 45.007812 11.765625 36.546875 3.332031 26.09375 3.125 L 26.09375 5.964844 C 34.976562 6.171875 42.164062 13.332031 42.386719 22.191406 Z M 25.25 3.128906 C 14.828125 3.367188 6.402344 11.785156 6.179688 22.191406 L 9.027344 22.191406 C 9.246094 13.351562 16.398438 6.207031 25.25 5.96875 Z M 6.179688 23.035156 C 6.402344 33.4375 14.828125 41.859375 25.25 42.097656 L 25.25 39.257812 C 16.398438 39.019531 9.246094 31.871094 9.027344 23.035156 Z M 25.644531 35.507812 C 23.851562 35.507812 22.390625 34.464844 22.390625 33.183594 L 22.390625 32.113281 C 20.566406 31.144531 19.289062 29.28125 19.152344 27.113281 C 17.738281 26.894531 16.648438 25.667969 16.648438 24.207031 C 16.648438 24.203125 16.648438 24.203125 16.648438 24.203125 L 16.648438 19.144531 C 16.648438 15.339844 19.75 12.246094 23.5625 12.246094 L 32.070312 12.246094 C 32.304688 12.246094 32.496094 12.433594 32.496094 12.667969 C 32.496094 13.121094 32.402344 13.574219 32.242188 14.003906 C 33.730469 14.652344 34.636719 16.152344 34.636719 18.015625 L 34.636719 24.203125 C 34.636719 25.6875 33.53125 26.917969 32.097656 27.117188 C 31.960938 29.269531 30.699219 31.121094 28.898438 32.09375 L 28.898438 33.183594 C 28.898438 34.464844 27.4375 35.507812 25.644531 35.507812 Z M 28.050781 33.183594 L 28.050781 32.46875 C 27.40625 32.699219 26.714844 32.832031 25.992188 32.832031 L 25.261719 32.832031 C 24.550781 32.832031 23.871094 32.703125 23.238281 32.480469 L 23.238281 33.183594 C 23.238281 33.984375 24.339844 34.664062 25.644531 34.664062 C 26.949219 34.664062 28.050781 33.984375 28.050781 33.183594 Z M 25.261719 31.988281 L 25.992188 31.988281 C 28.898438 31.988281 31.265625 29.625 31.265625 26.722656 C 31.265625 26.492188 31.453125 26.300781 31.6875 26.300781 C 32.847656 26.300781 33.792969 25.359375 33.792969 24.203125 C 33.792969 23.046875 32.847656 22.105469 31.6875 22.105469 C 31.453125 22.105469 31.265625 21.914062 31.265625 21.683594 L 31.265625 21.011719 C 31.265625 18.480469 29.199219 16.417969 26.664062 16.417969 L 24.589844 16.417969 C 22.050781 16.417969 19.988281 18.480469 19.988281 21.011719 L 19.988281 21.683594 C 19.988281 21.914062 19.800781 22.101562 19.570312 22.105469 C 18.425781 22.121094 17.496094 23.0625 17.496094 24.203125 C 17.496094 25.34375 18.425781 26.285156 19.570312 26.300781 C 19.800781 26.304688 19.988281 26.492188 19.988281 26.722656 C 19.988281 29.625 22.351562 31.988281 25.261719 31.988281 Z M 17.496094 19.144531 L 17.496094 22.148438 C 17.929688 21.707031 18.5 21.398438 19.140625 21.296875 L 19.140625 21.011719 C 19.140625 18.015625 21.585938 15.574219 24.589844 15.574219 L 26.664062 15.574219 C 27.386719 15.574219 28.078125 15.71875 28.710938 15.976562 C 30.023438 15.933594 31.382812 14.539062 31.613281 13.089844 L 23.5625 13.089844 C 20.21875 13.089844 17.496094 15.804688 17.496094 19.144531 Z M 33.792969 18.015625 C 33.792969 16.492188 33.0625 15.273438 31.875 14.765625 C 31.378906 15.582031 30.640625 16.246094 29.8125 16.582031 C 31.203125 17.570312 32.113281 19.1875 32.113281 21.011719 L 32.113281 21.289062 C 32.765625 21.382812 33.347656 21.695312 33.792969 22.144531 Z M 42.960938 72.789062 C 43.570312 73.632812 44.050781 74.542969 44.398438 75.5 C 44.835938 76.703125 45.058594 77.976562 45.058594 79.28125 L 45.058594 85.710938 L 46.113281 85.710938 C 46.464844 85.710938 46.765625 85.925781 46.878906 86.257812 C 46.996094 86.59375 46.890625 86.949219 46.613281 87.167969 L 43.300781 89.765625 C 43.15625 89.878906 42.976562 89.9375 42.800781 89.9375 C 42.625 89.9375 42.449219 89.878906 42.300781 89.765625 L 38.992188 87.167969 C 38.714844 86.949219 38.609375 86.59375 38.726562 86.257812 C 38.839844 85.925781 39.140625 85.710938 39.492188 85.710938 L 40.578125 85.710938 L 40.578125 80.136719 C 40.578125 78.417969 39.964844 76.796875 38.847656 75.511719 C 36.699219 79.636719 32.671875 82.632812 27.902344 83.359375 L 27.902344 85.746094 L 28.953125 85.746094 C 29.304688 85.746094 29.605469 85.960938 29.722656 86.292969 C 29.835938 86.628906 29.730469 86.984375 29.453125 87.203125 L 26.144531 89.800781 C 25.996094 89.914062 25.820312 89.972656 25.644531 89.972656 C 25.46875 89.972656 25.289062 89.914062 25.144531 89.800781 L 21.832031 87.203125 C 21.554688 86.984375 21.449219 86.628906 21.566406 86.292969 C 21.679688 85.960938 21.980469 85.746094 22.332031 85.746094 L 23.417969 85.746094 L 23.417969 83.367188 C 18.636719 82.648438 14.59375 79.644531 12.4375 75.511719 C 11.320312 76.796875 10.710938 78.417969 10.710938 80.136719 L 10.710938 85.710938 L 11.796875 85.710938 C 12.144531 85.710938 12.445312 85.925781 12.5625 86.257812 C 12.679688 86.59375 12.574219 86.949219 12.296875 87.167969 L 8.984375 89.765625 C 8.835938 89.878906 8.660156 89.9375 8.484375 89.9375 C 8.308594 89.9375 8.132812 89.878906 7.984375 89.765625 L 4.675781 87.167969 C 4.394531 86.949219 4.292969 86.59375 4.40625 86.257812 C 4.523438 85.925781 4.824219 85.710938 5.175781 85.710938 L 6.226562 85.710938 L 6.226562 79.28125 C 6.226562 76.933594 6.953125 74.6875 8.324219 72.789062 C 9.027344 71.816406 9.878906 70.976562 10.851562 70.277344 C 10.796875 69.753906 10.765625 69.222656 10.765625 68.683594 C 10.765625 68.144531 10.796875 67.617188 10.851562 67.09375 C 9.878906 66.390625 9.027344 65.550781 8.324219 64.578125 C 6.953125 62.679688 6.226562 60.4375 6.226562 58.089844 L 6.226562 51.660156 L 5.175781 51.660156 C 4.824219 51.660156 4.523438 51.445312 4.40625 51.109375 C 4.292969 50.777344 4.394531 50.417969 4.675781 50.199219 L 7.984375 47.605469 C 8.28125 47.371094 8.691406 47.371094 8.984375 47.605469 L 12.296875 50.199219 C 12.574219 50.417969 12.679688 50.777344 12.5625 51.109375 C 12.445312 51.445312 12.144531 51.660156 11.796875 51.660156 L 10.710938 51.660156 L 10.710938 57.230469 C 10.710938 58.953125 11.320312 60.574219 12.4375 61.855469 C 13.550781 59.722656 15.167969 57.890625 17.128906 56.519531 C 18.957031 55.242188 21.085938 54.359375 23.386719 54.007812 L 23.386719 51.625 L 22.332031 51.625 C 21.980469 51.625 21.679688 51.410156 21.566406 51.078125 C 21.449219 50.742188 21.554688 50.382812 21.832031 50.164062 L 25.144531 47.570312 C 25.4375 47.339844 25.847656 47.339844 26.144531 47.570312 L 29.453125 50.164062 C 29.730469 50.382812 29.835938 50.742188 29.722656 51.078125 C 29.605469 51.410156 29.304688 51.625 28.953125 51.625 L 27.867188 51.625 L 27.867188 54.003906 C 32.652344 54.722656 36.695312 57.722656 38.847656 61.855469 C 39.964844 60.574219 40.578125 58.953125 40.578125 57.230469 L 40.578125 51.660156 L 39.492188 51.660156 C 39.140625 51.660156 38.839844 51.445312 38.722656 51.109375 C 38.609375 50.777344 38.714844 50.417969 38.992188 50.199219 L 42.300781 47.605469 C 42.597656 47.375 43.007812 47.375 43.300781 47.601562 L 46.613281 50.199219 C 46.890625 50.417969 46.996094 50.777344 46.878906 51.109375 C 46.765625 51.445312 46.464844 51.660156 46.113281 51.660156 L 45.058594 51.660156 L 45.058594 58.089844 C 45.058594 60.4375 44.335938 62.679688 42.960938 64.578125 C 42.257812 65.550781 41.40625 66.390625 40.433594 67.09375 C 40.492188 67.617188 40.523438 68.144531 40.523438 68.683594 C 40.523438 69.222656 40.492188 69.753906 40.433594 70.277344 C 41.40625 70.976562 42.261719 71.816406 42.960938 72.789062 Z M 44.214844 86.132812 L 44.214844 79.28125 C 44.214844 77.113281 43.542969 75.039062 42.277344 73.285156 C 41.714844 72.507812 41.046875 71.820312 40.296875 71.230469 C 40.089844 72.441406 39.730469 73.601562 39.246094 74.691406 C 40.652344 76.167969 41.425781 78.089844 41.425781 80.136719 L 41.425781 86.132812 C 41.425781 86.367188 41.234375 86.554688 41 86.554688 L 39.582031 86.554688 L 42.800781 89.082031 L 46.023438 86.554688 L 44.636719 86.554688 C 44.402344 86.554688 44.214844 86.367188 44.214844 86.132812 Z M 27.054688 86.167969 L 27.054688 83.464844 C 26.589844 83.507812 26.121094 83.53125 25.644531 83.53125 C 25.179688 83.53125 24.71875 83.507812 24.265625 83.464844 L 24.265625 86.167969 C 24.265625 86.402344 24.078125 86.589844 23.84375 86.589844 L 22.421875 86.589844 L 25.644531 89.117188 L 28.863281 86.589844 L 27.476562 86.589844 C 27.242188 86.589844 27.054688 86.402344 27.054688 86.167969 Z M 39.675781 68.683594 C 39.675781 60.964844 33.378906 54.683594 25.644531 54.683594 C 17.90625 54.683594 11.613281 60.964844 11.613281 68.683594 C 11.613281 76.40625 17.90625 82.6875 25.644531 82.6875 C 33.378906 82.6875 39.675781 76.40625 39.675781 68.683594 Z M 12.042969 74.691406 C 11.554688 73.601562 11.199219 72.441406 10.988281 71.230469 C 10.238281 71.820312 9.574219 72.507812 9.011719 73.285156 C 7.742188 75.039062 7.074219 77.109375 7.074219 79.28125 L 7.074219 86.132812 C 7.074219 86.367188 6.882812 86.554688 6.652344 86.554688 L 5.261719 86.554688 L 8.484375 89.082031 L 11.707031 86.554688 L 10.285156 86.554688 C 10.050781 86.554688 9.863281 86.367188 9.863281 86.132812 L 9.863281 80.136719 C 9.863281 78.089844 10.636719 76.167969 12.042969 74.691406 Z M 7.074219 51.234375 L 7.074219 58.089844 C 7.074219 60.257812 7.742188 62.332031 9.011719 64.082031 C 9.574219 64.859375 10.238281 65.546875 10.988281 66.136719 C 11.199219 64.929688 11.554688 63.769531 12.042969 62.675781 C 10.636719 61.203125 9.863281 59.28125 9.863281 57.230469 L 9.863281 51.234375 C 9.863281 51.003906 10.050781 50.8125 10.285156 50.8125 L 11.707031 50.8125 L 8.484375 48.285156 L 5.261719 50.8125 L 6.652344 50.8125 C 6.882812 50.8125 7.074219 51.003906 7.074219 51.234375 Z M 24.234375 51.203125 L 24.234375 53.90625 C 24.699219 53.863281 25.167969 53.835938 25.644531 53.835938 C 26.109375 53.835938 26.566406 53.859375 27.019531 53.902344 L 27.019531 51.203125 C 27.019531 50.96875 27.210938 50.777344 27.445312 50.777344 L 28.863281 50.777344 L 25.644531 48.253906 L 22.421875 50.777344 L 23.808594 50.777344 C 24.042969 50.777344 24.234375 50.96875 24.234375 51.203125 Z M 39.246094 62.679688 C 39.730469 63.769531 40.089844 64.929688 40.296875 66.136719 C 41.046875 65.546875 41.714844 64.863281 42.277344 64.082031 C 43.542969 62.332031 44.210938 60.257812 44.210938 58.089844 L 44.210938 51.234375 C 44.210938 51.003906 44.402344 50.8125 44.636719 50.8125 L 46.023438 50.8125 L 42.800781 48.285156 L 39.582031 50.8125 L 41 50.8125 C 41.234375 50.8125 41.425781 51.003906 41.425781 51.234375 L 41.425781 57.230469 C 41.425781 59.28125 40.652344 61.203125 39.246094 62.679688 Z M 25.644531 79.613281 C 19.605469 79.613281 14.691406 74.710938 14.691406 68.683594 C 14.691406 62.65625 19.605469 57.753906 25.644531 57.753906 C 31.683594 57.753906 36.597656 62.65625 36.597656 68.683594 C 36.597656 74.710938 31.683594 79.613281 25.644531 79.613281 Z M 35.75 68.683594 C 35.75 63.125 31.214844 58.597656 25.644531 58.597656 C 20.070312 58.597656 15.539062 63.125 15.539062 68.683594 C 15.539062 74.246094 20.070312 78.769531 25.644531 78.769531 C 31.214844 78.769531 35.75 74.246094 35.75 68.683594 Z M 31.273438 74.480469 C 29.769531 75.980469 27.765625 76.808594 25.636719 76.808594 C 25.636719 76.808594 25.632812 76.808594 25.628906 76.808594 C 23.5 76.808594 21.5 75.980469 19.992188 74.480469 C 19.828125 74.3125 19.828125 74.046875 19.992188 73.882812 L 25.332031 68.550781 C 25.332031 68.550781 25.335938 68.550781 25.335938 68.550781 L 30.675781 63.21875 C 30.839844 63.054688 31.109375 63.054688 31.273438 63.21875 C 32.78125 64.722656 33.609375 66.722656 33.609375 68.847656 C 33.609375 70.976562 32.78125 72.976562 31.273438 74.480469 Z M 26.058594 75.949219 C 27.660156 75.859375 29.164062 75.238281 30.367188 74.171875 L 26.058594 69.871094 Z M 30.964844 73.574219 C 32.035156 72.375 32.65625 70.871094 32.75 69.269531 L 26.65625 69.273438 Z M 32.746094 68.425781 C 32.652344 66.824219 32.035156 65.324219 30.964844 64.125 L 26.65625 68.425781 Z M 20.898438 74.171875 C 22.101562 75.238281 23.605469 75.851562 25.210938 75.945312 L 25.210938 69.871094 Z M 93.464844 61.5 L 93.464844 64.65625 C 93.464844 64.890625 93.277344 65.078125 93.042969 65.078125 C 92.867188 65.078125 92.71875 64.976562 92.652344 64.824219 C 92.632812 64.773438 92.617188 64.71875 92.617188 64.65625 L 92.617188 61.5 C 92.617188 56.167969 88.675781 51.765625 83.488281 51.097656 C 83.402344 53.238281 81.632812 54.957031 79.464844 54.957031 C 77.296875 54.957031 75.523438 53.234375 75.445312 51.085938 C 70.203125 51.703125 66.195312 56.128906 66.195312 61.5 L 66.195312 76.5 C 66.195312 76.730469 66.007812 76.921875 65.773438 76.921875 C 65.539062 76.921875 65.351562 76.730469 65.351562 76.5 L 65.351562 61.5 C 65.351562 60.496094 65.480469 59.523438 65.726562 58.597656 L 63.179688 58.597656 L 63.179688 66.921875 C 63.179688 67.15625 62.988281 67.34375 62.753906 67.34375 L 59.074219 67.34375 C 58.863281 69.140625 57.332031 70.542969 55.472656 70.542969 C 53.472656 70.542969 51.84375 68.917969 51.84375 66.921875 C 51.84375 64.925781 53.472656 63.300781 55.472656 63.300781 C 57.332031 63.300781 58.863281 64.699219 59.074219 66.5 L 62.332031 66.5 L 62.332031 58.175781 C 62.332031 57.941406 62.523438 57.75 62.753906 57.75 L 65.980469 57.75 C 67.039062 54.722656 69.34375 52.28125 72.304688 51.042969 L 60.085938 51.042969 C 59.875 52.839844 58.339844 54.242188 56.480469 54.242188 C 54.480469 54.242188 52.855469 52.617188 52.855469 50.621094 C 52.855469 48.625 54.480469 47 56.480469 47 C 58.339844 47 59.875 48.402344 60.085938 50.199219 L 75.4375 50.199219 L 75.4375 47.445312 C 72.839844 46.234375 71.023438 43.621094 70.972656 40.585938 C 69.117188 40.351562 67.667969 38.757812 67.667969 36.847656 C 67.667969 36.820312 67.671875 36.796875 67.671875 36.769531 L 60.085938 36.769531 C 59.875 38.566406 58.339844 39.964844 56.480469 39.964844 C 54.480469 39.964844 52.855469 38.34375 52.855469 36.34375 C 52.855469 34.347656 54.480469 32.722656 56.480469 32.722656 C 58.339844 32.722656 59.875 34.125 60.085938 35.921875 L 67.789062 35.921875 C 67.949219 35.289062 68.273438 34.722656 68.714844 34.261719 L 68.714844 29.351562 C 68.714844 29.304688 68.714844 29.261719 68.714844 29.214844 L 63.765625 29.214844 C 63.53125 29.214844 63.339844 29.027344 63.339844 28.792969 L 63.339844 20.46875 L 60.085938 20.46875 C 59.875 22.265625 58.339844 23.667969 56.480469 23.667969 C 54.480469 23.667969 52.855469 22.042969 52.855469 20.046875 C 52.855469 18.046875 54.480469 16.425781 56.480469 16.425781 C 58.339844 16.425781 59.875 17.824219 60.085938 19.621094 L 63.765625 19.621094 C 64 19.621094 64.1875 19.8125 64.1875 20.046875 L 64.1875 28.371094 L 68.785156 28.371094 C 68.953125 27.1875 69.425781 26.078125 70.164062 25.136719 C 70.335938 24.914062 70.523438 24.699219 70.726562 24.5 C 72.027344 23.203125 73.753906 22.488281 75.589844 22.488281 L 86.644531 22.484375 C 86.757812 22.484375 86.867188 22.53125 86.945312 22.609375 C 87.023438 22.6875 87.070312 22.796875 87.070312 22.90625 C 87.070312 23.761719 87.488281 24.578125 88.21875 25.140625 C 89.453125 26.09375 90.136719 27.582031 90.136719 29.328125 L 90.136719 34.167969 C 90.832031 34.851562 91.265625 35.800781 91.265625 36.847656 C 91.265625 38.785156 89.796875 40.382812 87.910156 40.59375 C 87.863281 43.609375 86.066406 46.203125 83.496094 47.421875 L 83.496094 50.246094 C 89.160156 50.933594 93.464844 55.707031 93.464844 61.5 Z M 59.265625 20.046875 C 59.265625 18.515625 58.015625 17.269531 56.484375 17.269531 C 54.949219 17.269531 53.699219 18.515625 53.699219 20.046875 C 53.699219 21.574219 54.949219 22.820312 56.484375 22.820312 C 58.015625 22.820312 59.265625 21.574219 59.265625 20.046875 Z M 59.265625 36.34375 C 59.265625 34.816406 58.015625 33.570312 56.484375 33.570312 C 54.949219 33.570312 53.699219 34.816406 53.699219 36.34375 C 53.699219 37.875 54.949219 39.121094 56.484375 39.121094 C 58.015625 39.121094 59.265625 37.875 59.265625 36.34375 Z M 58.253906 66.921875 C 58.253906 65.390625 57.007812 64.144531 55.472656 64.144531 C 53.9375 64.144531 52.691406 65.390625 52.691406 66.921875 C 52.691406 68.453125 53.9375 69.699219 55.472656 69.699219 C 57.007812 69.699219 58.253906 68.453125 58.253906 66.921875 Z M 82.648438 50.9375 L 82.648438 47.761719 C 81.878906 48.019531 81.054688 48.160156 80.199219 48.160156 L 78.6875 48.160156 C 77.847656 48.160156 77.042969 48.027344 76.285156 47.777344 L 76.285156 50.9375 C 76.285156 52.6875 77.710938 54.113281 79.464844 54.113281 C 81.21875 54.113281 82.648438 52.6875 82.648438 50.9375 Z M 71.820312 40.191406 L 71.820312 40.464844 C 71.820312 44.242188 74.902344 47.316406 78.6875 47.316406 L 80.199219 47.316406 C 83.984375 47.316406 87.066406 44.242188 87.066406 40.464844 L 87.066406 40.195312 C 87.066406 39.960938 87.253906 39.773438 87.488281 39.773438 C 89.105469 39.773438 90.417969 38.460938 90.417969 36.847656 C 90.417969 35.238281 89.105469 33.925781 87.488281 33.925781 C 87.253906 33.925781 87.066406 33.738281 87.066406 33.503906 L 87.066406 32.613281 C 87.066406 29.175781 84.261719 26.378906 80.820312 26.378906 L 78.066406 26.378906 C 74.621094 26.378906 71.820312 29.175781 71.820312 32.613281 L 71.820312 33.503906 C 71.820312 33.738281 71.632812 33.925781 71.402344 33.929688 C 69.8125 33.949219 68.515625 35.261719 68.515625 36.847656 C 68.515625 38.4375 69.8125 39.746094 71.402344 39.769531 C 71.632812 39.773438 71.820312 39.960938 71.820312 40.191406 Z M 69.5625 33.59375 C 69.988281 33.34375 70.464844 33.175781 70.972656 33.113281 L 70.972656 32.613281 C 70.972656 28.710938 74.15625 25.535156 78.066406 25.535156 L 80.820312 25.535156 C 84.730469 25.535156 87.914062 28.710938 87.914062 32.613281 L 87.914062 33.105469 C 88.40625 33.160156 88.871094 33.3125 89.289062 33.539062 L 89.289062 29.328125 C 89.289062 27.847656 88.722656 26.597656 87.699219 25.808594 C 86.878906 25.175781 86.367188 24.289062 86.25 23.332031 L 75.589844 23.332031 C 73.980469 23.332031 72.464844 23.957031 71.324219 25.09375 C 70.1875 26.234375 69.558594 27.746094 69.558594 29.351562 Z M 59.265625 50.621094 C 59.265625 49.089844 58.015625 47.84375 56.484375 47.84375 C 54.949219 47.84375 53.699219 49.089844 53.699219 50.621094 C 53.699219 52.152344 54.949219 53.398438 56.484375 53.398438 C 58.015625 53.398438 59.265625 52.152344 59.265625 50.621094 Z M 79.464844 43.605469 C 80.582031 43.605469 81.699219 43.179688 82.546875 42.332031 C 82.714844 42.167969 82.714844 41.902344 82.546875 41.738281 C 82.382812 41.570312 82.113281 41.570312 81.949219 41.738281 C 80.582031 43.101562 78.351562 43.101562 76.984375 41.734375 C 76.816406 41.570312 76.550781 41.570312 76.382812 41.738281 C 76.21875 41.902344 76.21875 42.167969 76.386719 42.335938 C 77.234375 43.179688 78.351562 43.605469 79.464844 43.605469 Z M 88.296875 59.425781 C 88.0625 59.425781 87.871094 59.613281 87.871094 59.847656 L 87.871094 65.023438 C 87.871094 65.253906 88.0625 65.445312 88.296875 65.445312 C 88.53125 65.445312 88.71875 65.253906 88.71875 65.023438 L 88.71875 59.847656 C 88.71875 59.613281 88.53125 59.425781 88.296875 59.425781 Z M 71.042969 59.847656 C 71.042969 59.613281 70.855469 59.425781 70.621094 59.425781 C 70.386719 59.425781 70.199219 59.613281 70.199219 59.847656 L 70.199219 72.617188 C 70.199219 72.851562 70.386719 73.039062 70.621094 73.039062 C 70.855469 73.039062 71.042969 72.851562 71.042969 72.617188 Z M 79.648438 34.097656 C 79.75 33.785156 80.039062 33.574219 80.371094 33.574219 L 81.976562 33.574219 L 82.472656 32.050781 C 82.574219 31.734375 82.863281 31.527344 83.195312 31.527344 C 83.523438 31.527344 83.8125 31.734375 83.914062 32.050781 L 84.410156 33.574219 L 86.015625 33.574219 C 86.347656 33.574219 86.636719 33.785156 86.738281 34.097656 C 86.839844 34.410156 86.730469 34.75 86.464844 34.941406 L 85.164062 35.886719 L 85.660156 37.410156 C 85.761719 37.722656 85.652344 38.0625 85.382812 38.253906 C 85.117188 38.449219 84.757812 38.449219 84.492188 38.253906 L 83.195312 37.3125 L 81.894531 38.253906 C 81.761719 38.351562 81.605469 38.398438 81.449219 38.398438 C 81.292969 38.398438 81.136719 38.351562 81.003906 38.253906 C 80.734375 38.0625 80.625 37.722656 80.726562 37.410156 L 81.222656 35.886719 L 79.925781 34.941406 C 79.65625 34.75 79.546875 34.410156 79.648438 34.097656 Z M 80.644531 34.417969 L 81.773438 35.238281 C 82.039062 35.433594 82.152344 35.773438 82.050781 36.085938 L 81.617188 37.410156 L 82.746094 36.589844 C 82.882812 36.496094 83.039062 36.445312 83.195312 36.445312 C 83.351562 36.445312 83.507812 36.496094 83.640625 36.589844 L 84.769531 37.410156 L 84.339844 36.085938 C 84.234375 35.773438 84.347656 35.433594 84.613281 35.238281 L 85.746094 34.417969 L 84.347656 34.417969 C 84.015625 34.417969 83.726562 34.207031 83.625 33.894531 L 83.195312 32.570312 L 82.761719 33.894531 C 82.660156 34.207031 82.371094 34.417969 82.039062 34.417969 Z M 73.273438 37.410156 L 73.769531 35.886719 L 72.46875 34.941406 C 72.203125 34.75 72.09375 34.410156 72.195312 34.097656 C 72.296875 33.785156 72.585938 33.574219 72.917969 33.574219 L 74.523438 33.574219 L 75.019531 32.050781 C 75.121094 31.734375 75.410156 31.527344 75.738281 31.527344 C 76.070312 31.527344 76.359375 31.734375 76.460938 32.050781 L 76.957031 33.574219 L 78.5625 33.574219 C 78.894531 33.574219 79.183594 33.785156 79.285156 34.097656 C 79.386719 34.410156 79.277344 34.75 79.007812 34.941406 L 77.710938 35.886719 L 78.207031 37.410156 C 78.308594 37.722656 78.199219 38.0625 77.929688 38.253906 C 77.664062 38.449219 77.304688 38.449219 77.039062 38.253906 L 75.738281 37.3125 L 74.441406 38.253906 C 74.308594 38.351562 74.152344 38.398438 73.996094 38.398438 C 73.839844 38.398438 73.683594 38.351562 73.550781 38.253906 C 73.28125 38.0625 73.171875 37.722656 73.273438 37.410156 Z M 74.59375 36.085938 L 74.164062 37.410156 L 75.292969 36.589844 C 75.425781 36.496094 75.582031 36.445312 75.738281 36.445312 C 75.894531 36.445312 76.050781 36.496094 76.1875 36.589844 L 77.316406 37.410156 L 76.882812 36.085938 C 76.78125 35.773438 76.894531 35.433594 77.160156 35.238281 L 78.289062 34.417969 L 76.894531 34.417969 C 76.5625 34.417969 76.273438 34.207031 76.171875 33.894531 L 75.738281 32.570312 L 75.308594 33.894531 C 75.207031 34.207031 74.917969 34.417969 74.585938 34.417969 L 73.1875 34.417969 L 74.320312 35.238281 C 74.585938 35.433594 74.695312 35.773438 74.59375 36.085938 Z M 74.59375 36.085938 " clip-rule="nonzero"/></clipPath><linearGradient x1="363.991122" gradientTransform="matrix(0.0313677, 0, 0, 0.0313029, -14.645058, -17.60742)" y1="752.7811" x2="3247.239545" gradientUnits="userSpaceOnUse" y2="3636.029549" id="c292821bff"><stop stop-opacity="1" stop-color="rgb(11.799622%, 83.898926%, 100%)" offset="0"/><stop stop-opacity="1" stop-color="rgb(11.799622%, 83.898926%, 100%)" offset="0.0625"/><stop stop-opacity="1" stop-color="rgb(11.811829%, 83.87146%, 100%)" offset="0.09375"/><stop stop-opacity="1" stop-color="rgb(11.949158%, 83.564758%, 100%)" offset="0.0976562"/><stop stop-opacity="1" stop-color="rgb(12.075806%, 83.285522%, 100%)" offset="0.101562"/><stop stop-opacity="1" stop-color="rgb(12.200928%, 83.006287%, 100%)" offset="0.105469"/><stop stop-opacity="1" stop-color="rgb(12.327576%, 82.727051%, 100%)" offset="0.109375"/><stop stop-opacity="1" stop-color="rgb(12.452698%, 82.447815%, 100%)" offset="0.113281"/><stop stop-opacity="1" stop-color="rgb(12.57782%, 82.168579%, 100%)" offset="0.117187"/><stop stop-opacity="1" stop-color="rgb(12.702942%, 81.887817%, 100%)" offset="0.121094"/><stop stop-opacity="1" stop-color="rgb(12.82959%, 81.608582%, 100%)" offset="0.125"/><stop stop-opacity="1" stop-color="rgb(12.954712%, 81.329346%, 100%)" offset="0.128906"/><stop stop-opacity="1" stop-color="rgb(13.08136%, 81.05011%, 100%)" offset="0.132812"/><stop stop-opacity="1" stop-color="rgb(13.206482%, 80.770874%, 100%)" offset="0.136719"/><stop stop-opacity="1" stop-color="rgb(13.331604%, 80.491638%, 100%)" offset="0.140625"/><stop stop-opacity="1" stop-color="rgb(13.456726%, 80.212402%, 100%)" offset="0.144531"/><stop stop-opacity="1" stop-color="rgb(13.583374%, 79.933167%, 100%)" offset="0.148438"/><stop stop-opacity="1" stop-color="rgb(13.708496%, 79.653931%, 100%)" offset="0.152344"/><stop stop-opacity="1" stop-color="rgb(13.835144%, 79.374695%, 100%)" offset="0.15625"/><stop stop-opacity="1" stop-color="rgb(13.960266%, 79.095459%, 100%)" offset="0.160156"/><stop stop-opacity="1" stop-color="rgb(14.086914%, 78.816223%, 100%)" offset="0.164062"/><stop stop-opacity="1" stop-color="rgb(14.212036%, 78.536987%, 100%)" offset="0.167969"/><stop stop-opacity="1" stop-color="rgb(14.337158%, 78.257751%, 100%)" offset="0.171875"/><stop stop-opacity="1" stop-color="rgb(14.46228%, 77.978516%, 100%)" offset="0.175781"/><stop stop-opacity="1" stop-color="rgb(14.588928%, 77.69928%, 100%)" offset="0.179688"/><stop stop-opacity="1" stop-color="rgb(14.71405%, 77.420044%, 100%)" offset="0.183594"/><stop stop-opacity="1" stop-color="rgb(14.840698%, 77.140808%, 100%)" offset="0.1875"/><stop stop-opacity="1" stop-color="rgb(14.96582%, 76.860046%, 100%)" offset="0.191406"/><stop stop-opacity="1" stop-color="rgb(15.090942%, 76.580811%, 100%)" offset="0.195312"/><stop stop-opacity="1" stop-color="rgb(15.216064%, 76.301575%, 100%)" offset="0.199219"/><stop stop-opacity="1" stop-color="rgb(15.342712%, 76.022339%, 100%)" offset="0.203125"/><stop stop-opacity="1" stop-color="rgb(15.467834%, 75.743103%, 100%)" offset="0.207031"/><stop stop-opacity="1" stop-color="rgb(15.594482%, 75.463867%, 100%)" offset="0.210938"/><stop stop-opacity="1" stop-color="rgb(15.719604%, 75.184631%, 100%)" offset="0.214844"/><stop stop-opacity="1" stop-color="rgb(15.846252%, 74.905396%, 100%)" offset="0.21875"/><stop stop-opacity="1" stop-color="rgb(15.971375%, 74.62616%, 100%)" offset="0.222656"/><stop stop-opacity="1" stop-color="rgb(16.096497%, 74.346924%, 100%)" offset="0.226562"/><stop stop-opacity="1" stop-color="rgb(16.221619%, 74.067688%, 100%)" offset="0.230469"/><stop stop-opacity="1" stop-color="rgb(16.348267%, 73.788452%, 100%)" offset="0.234375"/><stop stop-opacity="1" stop-color="rgb(16.473389%, 73.509216%, 100%)" offset="0.238281"/><stop stop-opacity="1" stop-color="rgb(16.600037%, 73.22998%, 100%)" offset="0.242187"/><stop stop-opacity="1" stop-color="rgb(16.725159%, 72.950745%, 100%)" offset="0.246094"/><stop stop-opacity="1" stop-color="rgb(16.850281%, 72.671509%, 100%)" offset="0.25"/><stop stop-opacity="1" stop-color="rgb(16.975403%, 72.390747%, 100%)" offset="0.253906"/><stop stop-opacity="1" stop-color="rgb(17.102051%, 72.111511%, 100%)" offset="0.257812"/><stop stop-opacity="1" stop-color="rgb(17.227173%, 71.832275%, 100%)" offset="0.261719"/><stop stop-opacity="1" stop-color="rgb(17.353821%, 71.55304%, 100%)" offset="0.265625"/><stop stop-opacity="1" stop-color="rgb(17.478943%, 71.273804%, 100%)" offset="0.269531"/><stop stop-opacity="1" stop-color="rgb(17.605591%, 70.994568%, 100%)" offset="0.273438"/><stop stop-opacity="1" stop-color="rgb(17.730713%, 70.715332%, 100%)" offset="0.277344"/><stop stop-opacity="1" stop-color="rgb(17.855835%, 70.436096%, 100%)" offset="0.28125"/><stop stop-opacity="1" stop-color="rgb(17.980957%, 70.15686%, 100%)" offset="0.285156"/><stop stop-opacity="1" stop-color="rgb(18.107605%, 69.877625%, 100%)" offset="0.289062"/><stop stop-opacity="1" stop-color="rgb(18.232727%, 69.598389%, 100%)" offset="0.292969"/><stop stop-opacity="1" stop-color="rgb(18.359375%, 69.319153%, 100%)" offset="0.296875"/><stop stop-opacity="1" stop-color="rgb(18.484497%, 69.039917%, 100%)" offset="0.300781"/><stop stop-opacity="1" stop-color="rgb(18.611145%, 68.760681%, 100%)" offset="0.304687"/><stop stop-opacity="1" stop-color="rgb(18.736267%, 68.481445%, 100%)" offset="0.308594"/><stop stop-opacity="1" stop-color="rgb(18.861389%, 68.202209%, 100%)" offset="0.3125"/><stop stop-opacity="1" stop-color="rgb(18.986511%, 67.922974%, 100%)" offset="0.316406"/><stop stop-opacity="1" stop-color="rgb(19.113159%, 67.643738%, 100%)" offset="0.320312"/><stop stop-opacity="1" stop-color="rgb(19.238281%, 67.362976%, 100%)" offset="0.324219"/><stop stop-opacity="1" stop-color="rgb(19.364929%, 67.08374%, 100%)" offset="0.328125"/><stop stop-opacity="1" stop-color="rgb(19.490051%, 66.804504%, 100%)" offset="0.332031"/><stop stop-opacity="1" stop-color="rgb(19.615173%, 66.525269%, 100%)" offset="0.335938"/><stop stop-opacity="1" stop-color="rgb(19.740295%, 66.246033%, 100%)" offset="0.339844"/><stop stop-opacity="1" stop-color="rgb(19.866943%, 65.966797%, 100%)" offset="0.34375"/><stop stop-opacity="1" stop-color="rgb(19.992065%, 65.687561%, 100%)" offset="0.347656"/><stop stop-opacity="1" stop-color="rgb(20.118713%, 65.408325%, 100%)" offset="0.351562"/><stop stop-opacity="1" stop-color="rgb(20.243835%, 65.129089%, 100%)" offset="0.355469"/><stop stop-opacity="1" stop-color="rgb(20.370483%, 64.849854%, 100%)" offset="0.359375"/><stop stop-opacity="1" stop-color="rgb(20.495605%, 64.570618%, 100%)" offset="0.363281"/><stop stop-opacity="1" stop-color="rgb(20.620728%, 64.291382%, 100%)" offset="0.367187"/><stop stop-opacity="1" stop-color="rgb(20.74585%, 64.012146%, 100%)" offset="0.371094"/><stop stop-opacity="1" stop-color="rgb(20.872498%, 63.73291%, 100%)" offset="0.375"/><stop stop-opacity="1" stop-color="rgb(20.99762%, 63.453674%, 100%)" offset="0.378906"/><stop stop-opacity="1" stop-color="rgb(21.124268%, 63.174438%, 100%)" offset="0.382812"/><stop stop-opacity="1" stop-color="rgb(21.24939%, 62.893677%, 100%)" offset="0.386719"/><stop stop-opacity="1" stop-color="rgb(21.374512%, 62.614441%, 100%)" offset="0.390625"/><stop stop-opacity="1" stop-color="rgb(21.499634%, 62.335205%, 100%)" offset="0.394531"/><stop stop-opacity="1" stop-color="rgb(21.626282%, 62.055969%, 100%)" offset="0.398438"/><stop stop-opacity="1" stop-color="rgb(21.751404%, 61.776733%, 100%)" offset="0.402344"/><stop stop-opacity="1" stop-color="rgb(21.878052%, 61.497498%, 100%)" offset="0.40625"/><stop stop-opacity="1" stop-color="rgb(22.003174%, 61.218262%, 100%)" offset="0.410156"/><stop stop-opacity="1" stop-color="rgb(22.129822%, 60.939026%, 100%)" offset="0.414062"/><stop stop-opacity="1" stop-color="rgb(22.254944%, 60.65979%, 100%)" offset="0.417969"/><stop stop-opacity="1" stop-color="rgb(22.380066%, 60.380554%, 100%)" offset="0.421875"/><stop stop-opacity="1" stop-color="rgb(22.505188%, 60.101318%, 100%)" offset="0.425781"/><stop stop-opacity="1" stop-color="rgb(22.631836%, 59.822083%, 100%)" offset="0.429687"/><stop stop-opacity="1" stop-color="rgb(22.756958%, 59.542847%, 100%)" offset="0.433594"/><stop stop-opacity="1" stop-color="rgb(22.883606%, 59.263611%, 100%)" offset="0.4375"/><stop stop-opacity="1" stop-color="rgb(23.008728%, 58.984375%, 100%)" offset="0.441406"/><stop stop-opacity="1" stop-color="rgb(23.13385%, 58.705139%, 100%)" offset="0.445312"/><stop stop-opacity="1" stop-color="rgb(23.258972%, 58.424377%, 100%)" offset="0.449219"/><stop stop-opacity="1" stop-color="rgb(23.38562%, 58.145142%, 100%)" offset="0.453125"/><stop stop-opacity="1" stop-color="rgb(23.510742%, 57.865906%, 100%)" offset="0.457031"/><stop stop-opacity="1" stop-color="rgb(23.63739%, 57.58667%, 100%)" offset="0.460938"/><stop stop-opacity="1" stop-color="rgb(23.762512%, 57.307434%, 100%)" offset="0.464844"/><stop stop-opacity="1" stop-color="rgb(23.88916%, 57.028198%, 100%)" offset="0.46875"/><stop stop-opacity="1" stop-color="rgb(24.014282%, 56.748962%, 100%)" offset="0.472656"/><stop stop-opacity="1" stop-color="rgb(24.139404%, 56.469727%, 100%)" offset="0.476562"/><stop stop-opacity="1" stop-color="rgb(24.264526%, 56.190491%, 100%)" offset="0.480469"/><stop stop-opacity="1" stop-color="rgb(24.391174%, 55.911255%, 100%)" offset="0.484375"/><stop stop-opacity="1" stop-color="rgb(24.516296%, 55.632019%, 100%)" offset="0.488281"/><stop stop-opacity="1" stop-color="rgb(24.642944%, 55.352783%, 100%)" offset="0.492187"/><stop stop-opacity="1" stop-color="rgb(24.768066%, 55.073547%, 100%)" offset="0.496094"/><stop stop-opacity="1" stop-color="rgb(24.894714%, 54.794312%, 100%)" offset="0.5"/><stop stop-opacity="1" stop-color="rgb(25.019836%, 54.515076%, 100%)" offset="0.503906"/><stop stop-opacity="1" stop-color="rgb(25.144958%, 54.23584%, 100%)" offset="0.507812"/><stop stop-opacity="1" stop-color="rgb(25.270081%, 53.956604%, 100%)" offset="0.511719"/><stop stop-opacity="1" stop-color="rgb(25.396729%, 53.677368%, 100%)" offset="0.515625"/><stop stop-opacity="1" stop-color="rgb(25.521851%, 53.396606%, 100%)" offset="0.519531"/><stop stop-opacity="1" stop-color="rgb(25.648499%, 53.117371%, 100%)" offset="0.523438"/><stop stop-opacity="1" stop-color="rgb(25.773621%, 52.838135%, 100%)" offset="0.527344"/><stop stop-opacity="1" stop-color="rgb(25.898743%, 52.558899%, 100%)" offset="0.53125"/><stop stop-opacity="1" stop-color="rgb(26.023865%, 52.279663%, 100%)" offset="0.535156"/><stop stop-opacity="1" stop-color="rgb(26.150513%, 52.000427%, 100%)" offset="0.539062"/><stop stop-opacity="1" stop-color="rgb(26.275635%, 51.721191%, 100%)" offset="0.542969"/><stop stop-opacity="1" stop-color="rgb(26.402283%, 51.441956%, 100%)" offset="0.546875"/><stop stop-opacity="1" stop-color="rgb(26.527405%, 51.16272%, 100%)" offset="0.550781"/><stop stop-opacity="1" stop-color="rgb(26.654053%, 50.883484%, 100%)" offset="0.554688"/><stop stop-opacity="1" stop-color="rgb(26.779175%, 50.604248%, 100%)" offset="0.558594"/><stop stop-opacity="1" stop-color="rgb(26.904297%, 50.325012%, 100%)" offset="0.5625"/><stop stop-opacity="1" stop-color="rgb(27.029419%, 50.045776%, 100%)" offset="0.566406"/><stop stop-opacity="1" stop-color="rgb(27.156067%, 49.766541%, 100%)" offset="0.570312"/><stop stop-opacity="1" stop-color="rgb(27.281189%, 49.487305%, 100%)" offset="0.574219"/><stop stop-opacity="1" stop-color="rgb(27.407837%, 49.208069%, 100%)" offset="0.578125"/><stop stop-opacity="1" stop-color="rgb(27.532959%, 48.927307%, 100%)" offset="0.582031"/><stop stop-opacity="1" stop-color="rgb(27.658081%, 48.648071%, 100%)" offset="0.585938"/><stop stop-opacity="1" stop-color="rgb(27.783203%, 48.368835%, 100%)" offset="0.589844"/><stop stop-opacity="1" stop-color="rgb(27.909851%, 48.0896%, 100%)" offset="0.59375"/><stop stop-opacity="1" stop-color="rgb(28.034973%, 47.810364%, 100%)" offset="0.597656"/><stop stop-opacity="1" stop-color="rgb(28.161621%, 47.531128%, 100%)" offset="0.601562"/><stop stop-opacity="1" stop-color="rgb(28.286743%, 47.251892%, 100%)" offset="0.605469"/><stop stop-opacity="1" stop-color="rgb(28.413391%, 46.972656%, 100%)" offset="0.609375"/><stop stop-opacity="1" stop-color="rgb(28.538513%, 46.69342%, 100%)" offset="0.613281"/><stop stop-opacity="1" stop-color="rgb(28.663635%, 46.414185%, 100%)" offset="0.617188"/><stop stop-opacity="1" stop-color="rgb(28.788757%, 46.134949%, 100%)" offset="0.621094"/><stop stop-opacity="1" stop-color="rgb(28.915405%, 45.855713%, 100%)" offset="0.625"/><stop stop-opacity="1" stop-color="rgb(29.040527%, 45.576477%, 100%)" offset="0.628906"/><stop stop-opacity="1" stop-color="rgb(29.167175%, 45.297241%, 100%)" offset="0.632812"/><stop stop-opacity="1" stop-color="rgb(29.292297%, 45.018005%, 100%)" offset="0.636719"/><stop stop-opacity="1" stop-color="rgb(29.417419%, 44.73877%, 100%)" offset="0.640625"/><stop stop-opacity="1" stop-color="rgb(29.542542%, 44.459534%, 100%)" offset="0.644531"/><stop stop-opacity="1" stop-color="rgb(29.669189%, 44.180298%, 100%)" offset="0.648438"/><stop stop-opacity="1" stop-color="rgb(29.794312%, 43.899536%, 100%)" offset="0.652344"/><stop stop-opacity="1" stop-color="rgb(29.920959%, 43.6203%, 100%)" offset="0.65625"/><stop stop-opacity="1" stop-color="rgb(30.046082%, 43.341064%, 100%)" offset="0.660156"/><stop stop-opacity="1" stop-color="rgb(30.172729%, 43.061829%, 100%)" offset="0.664062"/><stop stop-opacity="1" stop-color="rgb(30.297852%, 42.782593%, 100%)" offset="0.667969"/><stop stop-opacity="1" stop-color="rgb(30.422974%, 42.503357%, 100%)" offset="0.671875"/><stop stop-opacity="1" stop-color="rgb(30.548096%, 42.224121%, 100%)" offset="0.675781"/><stop stop-opacity="1" stop-color="rgb(30.674744%, 41.944885%, 100%)" offset="0.679688"/><stop stop-opacity="1" stop-color="rgb(30.799866%, 41.665649%, 100%)" offset="0.683594"/><stop stop-opacity="1" stop-color="rgb(30.926514%, 41.386414%, 100%)" offset="0.6875"/><stop stop-opacity="1" stop-color="rgb(31.051636%, 41.107178%, 100%)" offset="0.691406"/><stop stop-opacity="1" stop-color="rgb(31.178284%, 40.827942%, 100%)" offset="0.695312"/><stop stop-opacity="1" stop-color="rgb(31.303406%, 40.548706%, 100%)" offset="0.699219"/><stop stop-opacity="1" stop-color="rgb(31.428528%, 40.26947%, 100%)" offset="0.703125"/><stop stop-opacity="1" stop-color="rgb(31.55365%, 39.990234%, 100%)" offset="0.707031"/><stop stop-opacity="1" stop-color="rgb(31.680298%, 39.710999%, 100%)" offset="0.710938"/><stop stop-opacity="1" stop-color="rgb(31.80542%, 39.430237%, 100%)" offset="0.714844"/><stop stop-opacity="1" stop-color="rgb(31.932068%, 39.151001%, 100%)" offset="0.71875"/><stop stop-opacity="1" stop-color="rgb(32.05719%, 38.871765%, 100%)" offset="0.722656"/><stop stop-opacity="1" stop-color="rgb(32.182312%, 38.592529%, 100%)" offset="0.726562"/><stop stop-opacity="1" stop-color="rgb(32.307434%, 38.313293%, 100%)" offset="0.730469"/><stop stop-opacity="1" stop-color="rgb(32.434082%, 38.034058%, 100%)" offset="0.734375"/><stop stop-opacity="1" stop-color="rgb(32.559204%, 37.754822%, 100%)" offset="0.738281"/><stop stop-opacity="1" stop-color="rgb(32.685852%, 37.475586%, 100%)" offset="0.742188"/><stop stop-opacity="1" stop-color="rgb(32.810974%, 37.19635%, 100%)" offset="0.746094"/><stop stop-opacity="1" stop-color="rgb(32.937622%, 36.917114%, 100%)" offset="0.75"/><stop stop-opacity="1" stop-color="rgb(33.062744%, 36.637878%, 100%)" offset="0.753906"/><stop stop-opacity="1" stop-color="rgb(33.187866%, 36.358643%, 100%)" offset="0.757812"/><stop stop-opacity="1" stop-color="rgb(33.312988%, 36.079407%, 100%)" offset="0.761719"/><stop stop-opacity="1" stop-color="rgb(33.439636%, 35.800171%, 100%)" offset="0.765625"/><stop stop-opacity="1" stop-color="rgb(33.564758%, 35.520935%, 100%)" offset="0.769531"/><stop stop-opacity="1" stop-color="rgb(33.691406%, 35.241699%, 100%)" offset="0.773438"/><stop stop-opacity="1" stop-color="rgb(33.816528%, 34.962463%, 100%)" offset="0.777344"/><stop stop-opacity="1" stop-color="rgb(33.94165%, 34.683228%, 100%)" offset="0.78125"/><stop stop-opacity="1" stop-color="rgb(34.066772%, 34.402466%, 100%)" offset="0.785156"/><stop stop-opacity="1" stop-color="rgb(34.19342%, 34.12323%, 100%)" offset="0.789062"/><stop stop-opacity="1" stop-color="rgb(34.318542%, 33.843994%, 100%)" offset="0.792969"/><stop stop-opacity="1" stop-color="rgb(34.44519%, 33.564758%, 100%)" offset="0.796875"/><stop stop-opacity="1" stop-color="rgb(34.570312%, 33.285522%, 100%)" offset="0.800781"/><stop stop-opacity="1" stop-color="rgb(34.69696%, 33.006287%, 100%)" offset="0.804688"/><stop stop-opacity="1" stop-color="rgb(34.822083%, 32.727051%, 100%)" offset="0.808594"/><stop stop-opacity="1" stop-color="rgb(34.947205%, 32.447815%, 100%)" offset="0.8125"/><stop stop-opacity="1" stop-color="rgb(35.072327%, 32.168579%, 100%)" offset="0.816406"/><stop stop-opacity="1" stop-color="rgb(35.198975%, 31.889343%, 100%)" offset="0.820312"/><stop stop-opacity="1" stop-color="rgb(35.324097%, 31.610107%, 100%)" offset="0.824219"/><stop stop-opacity="1" stop-color="rgb(35.450745%, 31.330872%, 100%)" offset="0.828125"/><stop stop-opacity="1" stop-color="rgb(35.575867%, 31.051636%, 100%)" offset="0.832031"/><stop stop-opacity="1" stop-color="rgb(35.700989%, 30.7724%, 100%)" offset="0.835937"/><stop stop-opacity="1" stop-color="rgb(35.826111%, 30.493164%, 100%)" offset="0.839844"/><stop stop-opacity="1" stop-color="rgb(35.952759%, 30.213928%, 100%)" offset="0.84375"/><stop stop-opacity="1" stop-color="rgb(36.077881%, 29.933167%, 100%)" offset="0.847656"/><stop stop-opacity="1" stop-color="rgb(36.204529%, 29.653931%, 100%)" offset="0.851562"/><stop stop-opacity="1" stop-color="rgb(36.329651%, 29.374695%, 100%)" offset="0.855469"/><stop stop-opacity="1" stop-color="rgb(36.456299%, 29.095459%, 100%)" offset="0.859375"/><stop stop-opacity="1" stop-color="rgb(36.477661%, 29.046631%, 100%)" offset="0.875"/><stop stop-opacity="1" stop-color="rgb(36.499023%, 28.999329%, 100%)" offset="1"/></linearGradient></defs><g clip-path="url(#aed831c475)"><g clip-path="url(#2e810c5bdd)"><path fill="#01184e" d="M 56.101562 37.273438 L 62.855469 37.273438 L 62.855469 43.800781 L 56.101562 43.800781 Z M 56.101562 37.273438 " fill-opacity="1" fill-rule="nonzero"/></g></g><g clip-path="url(#98cc946aad)"><g clip-path="url(#8fcfa1e09d)"><path fill="url(#c292821bff)" d="M 2.71875 0.0234375 L 2.71875 89.972656 L 93.464844 89.972656 L 93.464844 0.0234375 Z M 2.71875 0.0234375 " fill-rule="nonzero"/></g></g></svg>