<svg xmlns="http://www.w3.org/2000/svg" xmlns:xlink="http://www.w3.org/1999/xlink" width="128" zoomAndPan="magnify" viewBox="0 0 96 89.999999" height="120" preserveAspectRatio="xMidYMid meet" version="1.0"><defs><clipPath id="c35e5ca17a"><path d="M 59.4375 40.257812 L 59.796875 40.257812 L 59.796875 40.539062 L 59.4375 40.539062 Z M 59.4375 40.257812 " clip-rule="nonzero"/></clipPath><clipPath id="87bff7161e"><path d="M 59.773438 40.425781 C 59.101562 40.726562 59.699219 40.273438 59.699219 40.273438 " clip-rule="nonzero"/></clipPath><clipPath id="44ea425bfa"><path d="M 87 68 L 93.582031 68 L 93.582031 75 L 87 75 Z M 87 68 " clip-rule="nonzero"/></clipPath><clipPath id="83e07f5e0c"><path d="M 89 81 L 93.582031 81 L 93.582031 84 L 89 84 Z M 89 81 " clip-rule="nonzero"/></clipPath><clipPath id="58f6683eb7"><path d="M 2.082031 17 L 11 17 L 11 25 L 2.082031 25 Z M 2.082031 17 " clip-rule="nonzero"/></clipPath></defs><g clip-path="url(#c35e5ca17a)"><g clip-path="url(#87bff7161e)"><path fill="#01184e" d="M 56.101562 37.273438 L 62.855469 37.273438 L 62.855469 43.800781 L 56.101562 43.800781 Z M 56.101562 37.273438 " fill-opacity="1" fill-rule="nonzero"/></g></g><path fill="#4b60dd" d="M 71.554688 34.449219 C 66.640625 34.117188 62.164062 35.988281 58.976562 39.167969 C 56.050781 42.105469 54.238281 46.179688 54.238281 50.667969 L 54.238281 52.949219 C 54.238281 55.742188 56.492188 58.011719 59.277344 58.011719 L 81.582031 58.011719 C 84.367188 58.011719 86.625 55.742188 86.625 52.949219 L 86.625 51.167969 C 86.625 42.539062 80.132812 35.035156 71.554688 34.449219 Z M 58.484375 51.53125 C 56.898438 51.53125 55.605469 50.214844 55.605469 48.621094 C 55.605469 47.007812 56.898438 45.710938 58.484375 45.710938 C 60.089844 45.710938 61.382812 47.007812 61.382812 48.621094 C 61.382812 50.214844 60.089844 51.53125 58.484375 51.53125 Z M 69.460938 51.53125 C 67.871094 51.53125 66.578125 50.214844 66.578125 48.621094 C 66.578125 47.007812 67.871094 45.710938 69.460938 45.710938 C 71.066406 45.710938 72.359375 47.007812 72.359375 48.621094 C 72.359375 50.214844 71.066406 51.53125 69.460938 51.53125 Z M 69.460938 51.53125 " fill-opacity="1" fill-rule="nonzero"/><path fill="#e3ff5f" d="M 86.628906 50.453125 C 86.628906 51.71875 85.917969 52.722656 85.039062 52.722656 C 84.15625 52.722656 83.449219 51.71875 83.449219 50.453125 C 83.449219 49.300781 84.15625 48.011719 85.21875 48.199219 C 86.011719 48.324219 86.628906 49.292969 86.628906 50.453125 Z M 86.628906 50.453125 " fill-opacity="1" fill-rule="nonzero"/><path fill="#4b60dd" d="M 70.574219 61.050781 C 69.335938 61.050781 68.136719 61.242188 67.003906 61.597656 L 67.003906 61.53125 C 68.136719 61.21875 69.339844 61.050781 70.574219 61.050781 Z M 70.574219 61.050781 " fill-opacity="1" fill-rule="nonzero"/><path fill="#4b60dd" d="M 74.148438 61.535156 C 73.011719 61.21875 71.8125 61.050781 70.574219 61.050781 C 69.335938 61.050781 68.136719 61.242188 67.003906 61.597656 L 67.003906 61.53125 C 64.761719 62.15625 62.753906 63.355469 61.15625 64.964844 C 61.136719 64.984375 61.117188 65.003906 61.101562 65.023438 L 61.097656 65.023438 C 58.695312 67.453125 57.253906 70.792969 57.253906 74.414062 C 57.257812 78.457031 57.242188 81.570312 57.273438 82.15625 L 83.871094 82.15625 C 83.902344 81.476562 83.886719 78.382812 83.890625 74.414062 C 83.890625 68.277344 79.765625 63.101562 74.148438 61.535156 Z M 68.199219 77.277344 C 65.53125 77.277344 63.367188 74.8125 63.367188 71.777344 C 63.367188 68.734375 65.53125 66.277344 68.199219 66.277344 C 70.871094 66.277344 73.027344 68.734375 73.027344 71.777344 C 73.027344 74.8125 70.871094 77.277344 68.199219 77.277344 Z M 68.199219 77.277344 " fill-opacity="1" fill-rule="nonzero"/><path fill="#e3ff5f" d="M 51.445312 81.683594 L 67.796875 81.683594 L 67.796875 85.09375 L 51.445312 85.09375 Z M 51.445312 81.683594 " fill-opacity="1" fill-rule="nonzero"/><path fill="#4b60dd" d="M 44.976562 62.53125 L 11.71875 62.53125 L 22.800781 85.09375 L 56.058594 85.09375 Z M 31.753906 74.730469 C 30.621094 74.730469 29.402344 73.8125 29.027344 72.675781 C 28.65625 71.539062 29.277344 70.613281 30.40625 70.613281 C 31.542969 70.613281 32.761719 71.539062 33.132812 72.675781 C 33.503906 73.8125 32.886719 74.730469 31.753906 74.730469 Z M 31.753906 74.730469 " fill-opacity="1" fill-rule="nonzero"/><path fill="#e3ff5f" d="M 56.054688 85.09375 L 52.90625 85.09375 L 41.828125 62.53125 L 44.976562 62.53125 Z M 56.054688 85.09375 " fill-opacity="1" fill-rule="nonzero"/><path fill="#e3ff5f" d="M 15.222656 18.339844 C 13.449219 18.339844 12.296875 16.222656 12.925781 14.355469 C 13.671875 12.109375 16.285156 11.855469 17.332031 13.910156 C 18.316406 15.8125 17.167969 18.339844 15.222656 18.339844 Z M 15.222656 18.339844 " fill-opacity="1" fill-rule="nonzero"/><path fill="#4b60dd" d="M 27.644531 2.597656 L 27.644531 3.40625 C 27.535156 3.332031 27.414062 3.277344 27.285156 3.246094 L 27.285156 2.597656 C 27.285156 1.371094 26.289062 0.367188 25.0625 0.367188 L 16.925781 0.367188 C 15.703125 0.367188 14.703125 1.371094 14.703125 2.597656 L 14.703125 14.621094 C 14.703125 14.714844 14.625 14.796875 14.523438 14.796875 C 14.425781 14.796875 14.347656 14.714844 14.347656 14.621094 L 14.347656 2.597656 C 14.347656 1.167969 15.503906 0.0078125 16.925781 0.0078125 L 25.0625 0.0078125 C 26.488281 0.0078125 27.644531 1.167969 27.644531 2.597656 Z M 27.644531 2.597656 " fill-opacity="1" fill-rule="nonzero"/><path fill="#4b60dd" d="M 16.011719 15.421875 C 16.011719 16.449219 15.308594 17.277344 14.441406 17.277344 C 13.574219 17.277344 12.871094 16.449219 12.871094 15.421875 C 12.871094 14.398438 13.574219 13.566406 14.441406 13.566406 C 15.308594 13.566406 16.011719 14.398438 16.011719 15.421875 Z M 16.011719 15.421875 " fill-opacity="1" fill-rule="nonzero"/><path fill="#e3ff5f" d="M 74.835938 34.320312 C 74.835938 36.433594 73.40625 36.449219 71.46875 36.398438 C 71.21875 36.394531 70.960938 36.386719 70.699219 36.386719 C 70.558594 36.378906 70.417969 36.378906 70.28125 36.378906 C 67.765625 36.378906 65.730469 36.847656 65.730469 34.320312 C 65.730469 31.800781 67.765625 29.753906 70.28125 29.753906 C 72.796875 29.753906 74.835938 31.800781 74.835938 34.320312 Z M 74.835938 34.320312 " fill-opacity="1" fill-rule="nonzero"/><path fill="#e3ff5f" d="M 33.515625 24.320312 L 36.769531 22.195312 L 50.976562 22.195312 L 50.976562 12.160156 L 33.515625 12.160156 L 33.515625 24.320312 " fill-opacity="1" fill-rule="nonzero"/><path fill="#4b60dd" d="M 56.609375 66.125 C 56.453125 66.761719 55.636719 67.289062 54.824219 66.992188 L 47.757812 64.382812 C 47.042969 64.121094 46.675781 63.320312 46.941406 62.605469 C 47.203125 61.882812 47.996094 61.515625 48.714844 61.78125 L 55.777344 64.390625 C 56.480469 64.648438 56.84375 65.417969 56.609375 66.125 Z M 56.609375 66.125 " fill-opacity="1" fill-rule="nonzero"/><path fill="#4b60dd" d="M 47.230469 52.703125 C 48.089844 52.523438 48.929688 53.078125 49.109375 53.941406 L 50.644531 61.351562 C 50.824219 62.210938 50.273438 63.058594 49.414062 63.234375 C 48.554688 63.414062 47.710938 62.863281 47.53125 62 L 45.996094 54.589844 C 45.816406 53.726562 46.371094 52.882812 47.230469 52.703125 Z M 47.230469 52.703125 " fill-opacity="1" fill-rule="nonzero"/><path fill="#e3ff5f" d="M 46.753906 61.976562 C 47.28125 60.535156 48.871094 59.796875 50.308594 60.328125 C 51.746094 60.859375 52.476562 62.457031 51.949219 63.894531 C 51.421875 65.335938 49.828125 66.078125 48.394531 65.546875 C 46.957031 65.015625 46.222656 63.417969 46.753906 61.976562 Z M 46.753906 61.976562 " fill-opacity="1" fill-rule="nonzero"/><path fill="#4b60dd" d="M 41.5625 47.875 C 41.773438 47.328125 42.386719 47.050781 42.929688 47.265625 C 43.476562 47.476562 43.75 48.09375 43.539062 48.640625 C 42.601562 51.082031 45.089844 53.417969 47.445312 52.371094 C 48.15625 52.054688 48.707031 51.476562 48.984375 50.75 C 49.566406 49.242188 48.8125 47.542969 47.3125 46.960938 C 46.765625 46.75 46.496094 46.132812 46.707031 45.585938 C 46.914062 45.039062 47.527344 44.765625 48.074219 44.976562 C 50.667969 45.980469 51.960938 48.914062 50.960938 51.511719 C 50.480469 52.773438 49.535156 53.769531 48.304688 54.316406 C 44.195312 56.140625 39.957031 52.046875 41.5625 47.875 Z M 41.5625 47.875 " fill-opacity="1" fill-rule="nonzero"/><path fill="#4b60dd" d="M 91.695312 71.820312 C 91.429688 72.539062 90.632812 72.90625 89.917969 72.644531 C 82.546875 69.914062 82.796875 70.046875 82.589844 69.90625 C 81.523438 69.234375 81.851562 67.570312 83.109375 67.363281 C 83.183594 67.355469 83.257812 67.347656 83.328125 67.347656 C 83.484375 67.347656 83.648438 67.375 83.804688 67.433594 L 90.871094 70.039062 C 91.585938 70.304688 91.953125 71.097656 91.695312 71.820312 Z M 91.695312 71.820312 " fill-opacity="1" fill-rule="nonzero"/><path fill="#4b60dd" d="M 84.667969 80.402344 C 83.933594 79.921875 83.730469 78.933594 84.210938 78.195312 L 88.34375 71.867188 C 88.828125 71.128906 89.8125 70.925781 90.546875 71.40625 C 91.28125 71.890625 91.484375 72.878906 91.003906 73.617188 L 86.867188 79.945312 C 86.386719 80.679688 85.402344 80.886719 84.667969 80.402344 Z M 84.667969 80.402344 " fill-opacity="1" fill-rule="nonzero"/><g clip-path="url(#44ea425bfa)"><path fill="#e3ff5f" d="M 91.539062 74.1875 C 90.152344 74.828125 88.503906 74.222656 87.863281 72.828125 C 87.222656 71.433594 87.828125 69.785156 89.214844 69.140625 C 90.605469 68.496094 92.25 69.101562 92.894531 70.496094 C 93.535156 71.890625 92.925781 73.542969 91.539062 74.1875 Z M 91.539062 74.1875 " fill-opacity="1" fill-rule="nonzero"/></g><path fill="#4b60dd" d="M 88.542969 86.226562 C 88.226562 86.71875 87.570312 86.867188 87.078125 86.550781 C 86.585938 86.234375 86.441406 85.578125 86.757812 85.082031 C 87.175781 84.421875 87.3125 83.632812 87.144531 82.875 C 86.816406 81.339844 85.273438 80.292969 83.664062 80.648438 C 81.308594 81.167969 80.617188 84.144531 82.335938 85.675781 C 82.46875 85.800781 82.621094 85.917969 82.726562 85.976562 C 83.21875 86.292969 83.359375 86.953125 83.046875 87.445312 C 82.738281 87.9375 82.082031 88.089844 81.582031 87.769531 C 79.699219 86.558594 78.925781 84.34375 79.382812 82.367188 C 80.078125 79.085938 84 77.324219 87.003906 79.246094 C 89.355469 80.75 90.03125 83.894531 88.542969 86.226562 Z M 88.542969 86.226562 " fill-opacity="1" fill-rule="nonzero"/><path fill="#000000" d="M 58.136719 69.621094 C 58.800781 67.886719 59.816406 66.320312 61.097656 65.023438 C 59.691406 64.429688 58.109375 65.082031 57.496094 66.453125 L 56.609375 66.125 C 56.59375 66.203125 56.53125 66.339844 56.457031 66.449219 L 57.371094 66.785156 C 57.066406 67.808594 57.367188 68.902344 58.136719 69.621094 Z M 58.136719 69.621094 " fill-opacity="1" fill-rule="nonzero"/><path fill="#000000" d="M 74.148438 58.011719 L 67.003906 58.011719 L 67.003906 61.597656 C 68.136719 61.242188 69.335938 61.050781 70.574219 61.050781 C 71.8125 61.050781 73.011719 61.21875 74.148438 61.535156 Z M 74.148438 58.011719 " fill-opacity="1" fill-rule="nonzero"/><path fill="#000000" d="M 79.457031 51.164062 L 79.457031 52.550781 C 79.457031 52.648438 79.539062 52.730469 79.636719 52.730469 C 79.734375 52.730469 79.816406 52.648438 79.816406 52.550781 L 79.816406 51.164062 C 79.816406 45.089844 76.523438 39.375 71.46875 36.398438 C 71.21875 36.394531 70.960938 36.386719 70.699219 36.386719 C 75.976562 39.183594 79.457031 44.988281 79.457031 51.164062 Z M 79.457031 51.164062 " fill-opacity="1" fill-rule="nonzero"/><path fill="#000000" d="M 69.679688 47.375 C 70.246094 47.375 70.703125 47.835938 70.703125 48.402344 C 70.703125 48.5 70.785156 48.582031 70.882812 48.582031 C 70.984375 48.582031 71.0625 48.5 71.0625 48.402344 C 71.0625 47.636719 70.441406 47.015625 69.679688 47.015625 C 69.582031 47.015625 69.5 47.09375 69.5 47.195312 C 69.5 47.292969 69.582031 47.375 69.679688 47.375 Z M 69.679688 47.375 " fill-opacity="1" fill-rule="nonzero"/><path fill="#000000" d="M 58.492188 47.375 C 59.058594 47.375 59.515625 47.835938 59.515625 48.402344 C 59.515625 48.5 59.597656 48.582031 59.695312 48.582031 C 59.796875 48.582031 59.875 48.5 59.875 48.402344 C 59.875 47.636719 59.253906 47.015625 58.492188 47.015625 C 58.394531 47.015625 58.316406 47.09375 58.316406 47.195312 C 58.316406 47.292969 58.394531 47.375 58.492188 47.375 Z M 58.492188 47.375 " fill-opacity="1" fill-rule="nonzero"/><path fill="#000000" d="M 85.21875 45.753906 L 85.21875 39.816406 C 86.257812 39.722656 87.078125 38.847656 87.078125 37.777344 C 87.078125 36.648438 86.164062 35.730469 85.039062 35.730469 C 83.914062 35.730469 83 36.648438 83 37.777344 C 83 38.847656 83.816406 39.722656 84.859375 39.816406 L 84.859375 45.765625 C 83.292969 45.886719 82.054688 47.203125 82.054688 48.808594 L 82.054688 52.097656 C 82.054688 53.785156 83.417969 55.15625 85.097656 55.15625 L 85.21875 55.15625 C 86.898438 55.15625 88.265625 53.785156 88.265625 52.097656 L 88.265625 48.808594 C 88.265625 47.125 86.898438 45.753906 85.21875 45.753906 Z M 87.90625 52.097656 C 87.90625 53.585938 86.699219 54.796875 85.21875 54.796875 L 85.097656 54.796875 C 83.617188 54.796875 82.414062 53.585938 82.414062 52.097656 L 82.414062 48.808594 C 82.414062 47.402344 83.492188 46.246094 84.859375 46.125 L 84.859375 48.199219 C 84.96875 48.179688 85.105469 48.179688 85.21875 48.199219 L 85.21875 46.113281 C 86.699219 46.113281 87.90625 47.324219 87.90625 48.808594 Z M 87.90625 52.097656 " fill-opacity="1" fill-rule="nonzero"/><path fill="#000000" d="M 79.660156 69.078125 C 80.203125 70.863281 81.726562 71.207031 82.589844 69.90625 C 81.523438 69.234375 81.851562 67.570312 83.109375 67.363281 C 83.082031 67.152344 83.039062 66.949219 82.980469 66.75 C 82.554688 65.351562 81.46875 64.746094 80.550781 65.390625 C 79.640625 66.035156 79.238281 67.683594 79.660156 69.078125 Z M 79.660156 69.078125 " fill-opacity="1" fill-rule="nonzero"/><path fill="#000000" d="M 78.117188 78.710938 C 78.117188 78.808594 78.195312 78.890625 78.296875 78.890625 C 78.394531 78.890625 78.476562 78.808594 78.476562 78.710938 C 78.476562 74.082031 78.933594 69.4375 75.964844 65.566406 C 75.902344 65.488281 75.789062 65.476562 75.710938 65.535156 C 75.632812 65.597656 75.617188 65.710938 75.679688 65.789062 C 78.578125 69.558594 78.117188 74.207031 78.117188 78.710938 Z M 78.117188 78.710938 " fill-opacity="1" fill-rule="nonzero"/><path fill="#000000" d="M 68.199219 74.953125 C 69.746094 74.953125 71.007812 73.527344 71.007812 71.777344 C 71.007812 70.023438 69.746094 68.601562 68.199219 68.601562 C 66.648438 68.601562 65.386719 70.023438 65.386719 71.777344 C 65.386719 73.527344 66.648438 74.953125 68.199219 74.953125 Z M 68.019531 68.96875 L 68.019531 71.421875 C 68.019531 71.523438 68.097656 71.601562 68.199219 71.601562 C 68.296875 71.601562 68.378906 71.523438 68.378906 71.421875 L 68.378906 68.96875 C 69.644531 69.078125 70.648438 70.292969 70.648438 71.777344 C 70.648438 73.328125 69.550781 74.59375 68.199219 74.59375 C 66.847656 74.59375 65.746094 73.328125 65.746094 71.777344 C 65.746094 70.292969 66.75 69.078125 68.019531 68.96875 Z M 68.019531 68.96875 " fill-opacity="1" fill-rule="nonzero"/><path fill="#000000" d="M 64.058594 54.355469 C 63.164062 54.355469 62.433594 53.625 62.433594 52.722656 C 62.433594 52.625 62.355469 52.542969 62.253906 52.542969 C 62.15625 52.542969 62.074219 52.625 62.074219 52.722656 C 62.074219 53.824219 62.964844 54.714844 64.058594 54.714844 C 65.15625 54.714844 66.046875 53.824219 66.046875 52.722656 C 66.046875 52.625 65.964844 52.542969 65.867188 52.542969 C 65.765625 52.542969 65.6875 52.625 65.6875 52.722656 C 65.6875 53.625 64.957031 54.355469 64.058594 54.355469 Z M 64.058594 54.355469 " fill-opacity="1" fill-rule="nonzero"/><path fill="#000000" d="M 86.789062 81.992188 L 81.792969 82 C 81.722656 82.117188 81.65625 82.238281 81.609375 82.363281 L 86.972656 82.347656 C 86.921875 82.222656 86.859375 82.105469 86.789062 81.992188 Z M 86.789062 81.992188 " fill-opacity="1" fill-rule="nonzero"/><path fill="#000000" d="M 70.808594 89.566406 L 8.382812 87.21875 L 20.289062 85.414062 C 20.523438 85.378906 20.472656 85.03125 20.234375 85.058594 L 6.441406 87.144531 C 6.230469 87.179688 6.246094 87.496094 6.464844 87.503906 C 73.183594 90.011719 70.855469 89.929688 70.890625 89.914062 L 80.394531 86.710938 C 80.3125 86.613281 80.238281 86.511719 80.164062 86.40625 Z M 70.808594 89.566406 " fill-opacity="1" fill-rule="nonzero"/><path fill="#000000" d="M 82.675781 85.941406 L 87.050781 84.460938 C 87.101562 84.328125 87.136719 84.1875 87.164062 84.046875 L 82.335938 85.675781 C 82.445312 85.777344 82.554688 85.867188 82.675781 85.941406 Z M 82.675781 85.941406 " fill-opacity="1" fill-rule="nonzero"/><g clip-path="url(#83e07f5e0c)"><path fill="#000000" d="M 93.332031 81.976562 L 89.09375 81.988281 C 89.136719 82.105469 89.167969 82.222656 89.195312 82.34375 L 92.230469 82.339844 L 89.328125 83.316406 C 89.332031 83.441406 89.332031 83.570312 89.328125 83.695312 L 93.390625 82.328125 C 93.578125 82.261719 93.53125 81.976562 93.332031 81.976562 Z M 93.332031 81.976562 " fill-opacity="1" fill-rule="nonzero"/></g><path fill="#000000" d="M 53.210938 86.074219 L 65.875 85.09375 L 30.3125 85.09375 Z M 53.210938 86.074219 " fill-opacity="1" fill-rule="nonzero"/><path fill="#000000" d="M 44.085938 67.128906 C 43.996094 67.175781 43.960938 67.28125 44.003906 67.371094 C 52.042969 83.644531 51.488281 82.828125 51.703125 82.828125 C 51.835938 82.828125 51.921875 82.6875 51.863281 82.566406 L 44.324219 67.210938 C 44.28125 67.121094 44.171875 67.085938 44.085938 67.128906 Z M 44.085938 67.128906 " fill-opacity="1" fill-rule="nonzero"/><path fill="#000000" d="M 21.976562 84.914062 C 21.875 84.914062 21.796875 84.996094 21.796875 85.09375 C 21.796875 85.195312 21.875 85.273438 21.976562 85.273438 L 29.964844 85.273438 C 30.0625 85.273438 30.144531 85.195312 30.144531 85.09375 C 30.144531 84.996094 30.0625 84.914062 29.964844 84.914062 Z M 21.976562 84.914062 " fill-opacity="1" fill-rule="nonzero"/><path fill="#000000" d="M 10.566406 32.371094 C 10.582031 32.578125 10.804688 34.316406 12.101562 44.65625 C 12.214844 45.5625 13.042969 46.222656 13.964844 46.082031 L 13.832031 46.566406 C 13.804688 46.664062 13.859375 46.761719 13.953125 46.789062 C 14.050781 46.816406 14.148438 46.761719 14.175781 46.664062 L 14.371094 45.96875 C 14.910156 45.765625 15.429688 45.554688 15.925781 45.335938 C 19.925781 48.863281 28.308594 43.996094 32.382812 40.585938 C 32.648438 40.46875 33.214844 40.320312 33.917969 40.039062 L 35.710938 44.347656 C 35.742188 44.417969 35.808594 44.457031 35.875 44.457031 C 36.011719 44.457031 36.089844 44.324219 36.042969 44.210938 L 35.929688 43.933594 C 37.34375 42.753906 38.609375 41.300781 39.894531 39.660156 C 40.363281 41.097656 40.933594 42.519531 41.578125 44.082031 C 41.605469 44.152344 41.671875 44.195312 41.742188 44.195312 C 41.871094 44.195312 41.957031 44.066406 41.910156 43.945312 C 41.234375 42.304688 40.636719 40.820312 40.15625 39.320312 C 40.5 38.878906 40.84375 38.429688 41.191406 37.964844 C 41.59375 37.4375 41.585938 36.707031 41.179688 36.191406 L 35.039062 28.398438 C 34.453125 27.765625 33.707031 27.300781 32.878906 27.070312 L 27.867188 25.652344 L 26.554688 25.058594 C 26.519531 24.703125 26.425781 24.460938 26.378906 24.148438 L 26.203125 22.925781 C 26.558594 22.683594 26.886719 22.367188 27.195312 21.988281 C 28.203125 20.730469 28.863281 19.074219 29.101562 17.25 C 30.652344 16.414062 30.671875 13.875 29.132812 13.003906 C 29.09375 12.609375 29.035156 12.214844 28.957031 11.832031 C 29.054688 11.886719 29.171875 11.894531 29.324219 11.816406 C 29.855469 11.554688 30.097656 10.625 30.097656 10.097656 C 30.105469 9.375 29.757812 8.660156 29.195312 8.214844 C 29.183594 8.207031 29.183594 8.195312 29.191406 8.1875 C 29.601562 7.789062 29.730469 7.117188 29.492188 6.589844 C 29.261719 6.066406 28.691406 5.71875 28.121094 5.75 C 28.109375 5.75 28.101562 5.734375 28.109375 5.722656 C 28.550781 5.128906 28.398438 4.25 27.910156 3.6875 C 27.773438 3.476562 27.621094 3.363281 27.402344 3.285156 C 26.828125 2.984375 26.132812 2.964844 25.5 3.144531 C 25.230469 3.21875 24.964844 3.070312 24.882812 2.800781 C 24.675781 2.085938 24.203125 1.449219 23.511719 1.195312 C 22.847656 0.949219 22.015625 1.191406 21.601562 1.738281 C 21.4375 1.949219 21.132812 1.960938 20.925781 1.796875 C 20.335938 1.332031 19.507812 1.164062 18.796875 1.414062 C 18.039062 1.683594 17.46875 2.40625 17.347656 3.199219 C 17.304688 3.457031 17.046875 3.628906 16.792969 3.582031 C 16.253906 3.480469 15.710938 3.433594 15.191406 3.589844 C 14.53125 3.796875 13.976562 4.535156 13.878906 5.214844 C 13.757812 6.023438 14.085938 6.824219 13.421875 7.5 C 13.070312 7.859375 12.265625 8.160156 12.328125 8.792969 C 12.378906 9.289062 13.019531 9.667969 12.847656 10.128906 C 12.730469 10.433594 12.300781 10.558594 12.253906 10.882812 C 12.199219 11.292969 12.828125 11.554688 12.773438 11.964844 C 12.753906 12.148438 12.601562 12.28125 12.5 12.429688 C 12.210938 12.867188 12.449219 13.230469 12.6875 13.59375 C 12.859375 13.871094 12.921875 14.09375 12.925781 14.355469 C 13.664062 12.136719 16.261719 11.832031 17.332031 13.910156 C 17.789062 14.785156 17.808594 15.945312 17.375 16.851562 C 17.835938 17.265625 18.433594 17.074219 18.503906 16.417969 C 18.554688 15.898438 18.480469 15.378906 18.472656 14.878906 L 21.003906 15.058594 C 20.957031 15.257812 20.929688 15.46875 20.929688 15.683594 C 20.929688 16.980469 21.835938 18.03125 22.953125 18.03125 C 24.386719 18.03125 25.375 16.332031 24.820312 14.785156 C 24.960938 14.695312 25.097656 14.625 25.230469 14.582031 C 25.183594 15.855469 26.015625 16.625 26.03125 16.867188 C 26.042969 16.988281 25.894531 17.089844 25.75 17.132812 C 25.539062 17.195312 25.277344 17.1875 25.027344 17.179688 C 24.9375 17.179688 24.847656 17.253906 24.84375 17.351562 C 24.839844 17.453125 24.917969 17.535156 25.015625 17.539062 C 25.289062 17.546875 25.585938 17.554688 25.851562 17.476562 C 26.199219 17.375 26.410156 17.125 26.390625 16.839844 C 26.375 16.632812 26.242188 16.449219 26.121094 16.277344 C 25.742188 15.71875 25.550781 15.101562 25.589844 14.53125 C 25.589844 14.523438 25.585938 14.519531 25.585938 14.515625 C 25.824219 14.511719 26.046875 14.597656 26.257812 14.765625 C 26.242188 14.878906 26.234375 15 26.234375 15.117188 C 26.234375 16.578125 27.402344 17.761719 28.714844 17.402344 C 28.429688 19.300781 27.519531 21.496094 26.128906 22.535156 C 23.605469 24.433594 20.066406 21.863281 18.25 19.308594 C 18.945312 19.574219 19.738281 19.664062 20.414062 19.605469 C 20.527344 19.953125 20.851562 20.207031 21.230469 20.207031 C 21.710938 20.207031 22.101562 19.816406 22.101562 19.339844 C 22.101562 18.863281 21.710938 18.472656 21.230469 18.472656 C 20.785156 18.472656 20.417969 18.816406 20.375 19.253906 C 19.285156 19.3125 18.480469 19.085938 17.882812 18.753906 C 17.617188 18.320312 17.402344 17.5 17.0625 17.378906 C 17.058594 17.378906 17.054688 17.375 17.050781 17.375 C 16.957031 17.503906 16.847656 17.628906 16.726562 17.734375 C 16.449219 17.347656 16.339844 17.027344 16.328125 16.988281 C 16.296875 16.894531 16.199219 16.839844 16.101562 16.871094 C 16.007812 16.902344 15.957031 17.003906 15.988281 17.09375 C 15.992188 17.105469 16.117188 17.488281 16.457031 17.949219 C 15.742188 18.425781 14.953125 18.441406 14.296875 18.128906 C 15.042969 18.796875 16.003906 19.21875 16.988281 19.410156 C 17.269531 19.464844 17.609375 19.472656 17.757812 19.226562 C 18.628906 20.546875 19.972656 21.898438 21.433594 22.730469 C 21.410156 22.859375 21.425781 22.882812 21.496094 24.960938 L 19.988281 25.554688 C 11.257812 28.527344 14.441406 27.441406 13.71875 27.691406 C 11.722656 28.371094 10.417969 30.277344 10.566406 32.371094 Z M 13.070312 13.996094 C 13.078125 13.984375 13.082031 13.972656 13.085938 13.960938 C 13.082031 13.972656 13.078125 13.984375 13.070312 13.996094 Z M 29.148438 16.792969 C 29.238281 15.792969 29.25 14.496094 29.175781 13.460938 C 30.175781 14.257812 30.167969 16.015625 29.148438 16.792969 Z M 22.953125 17.671875 C 22.035156 17.671875 21.289062 16.78125 21.289062 15.683594 C 21.289062 14.585938 22.035156 13.691406 22.953125 13.691406 C 23.871094 13.691406 24.617188 14.585938 24.617188 15.683594 C 24.617188 16.78125 23.871094 17.671875 22.953125 17.671875 Z M 24.671875 14.453125 C 23.824219 12.851562 21.792969 12.992188 21.117188 14.707031 L 18.484375 14.519531 C 18.609375 12.867188 19.976562 13.160156 19.167969 12.277344 C 17.164062 10.03125 21.792969 7.671875 24.769531 7.96875 C 25.835938 8.078125 26.910156 8.546875 27.613281 9.378906 C 28.273438 10.363281 28.605469 11.582031 28.757812 12.84375 C 27.667969 12.515625 26.652344 13.269531 26.335938 14.378906 C 25.839844 14.058594 25.28125 14.085938 24.671875 14.453125 Z M 26.59375 15.117188 C 26.59375 13.769531 27.703125 12.78125 28.800781 13.238281 C 28.910156 14.464844 28.878906 16.074219 28.773438 17.007812 C 27.683594 17.433594 26.59375 16.453125 26.59375 15.117188 Z M 21.230469 18.828125 C 21.515625 18.828125 21.738281 19.058594 21.738281 19.339844 C 21.738281 19.871094 21.027344 20.039062 20.789062 19.574219 C 20.605469 19.238281 20.859375 18.828125 21.230469 18.828125 Z M 16.933594 17.710938 C 16.953125 17.722656 16.976562 17.75 17 17.785156 C 16.933594 17.769531 16.863281 17.757812 16.796875 17.753906 C 16.855469 17.722656 16.90625 17.703125 16.933594 17.710938 Z M 32.214844 40.269531 C 32.195312 40.277344 32.179688 40.28125 32.171875 40.292969 C 32.085938 40.367188 23.550781 47.46875 17.835938 45.980469 C 17.25 45.824219 16.734375 45.527344 16.296875 45.167969 C 18.644531 44.074219 20.507812 42.71875 21.957031 41.0625 C 22.035156 40.96875 22.105469 40.871094 22.160156 40.765625 C 24.808594 40.058594 28.714844 37.839844 30.011719 37.074219 L 30.011719 37.082031 C 29.96875 37.316406 30.316406 37.386719 30.363281 37.152344 C 30.585938 36.082031 30.804688 35.125 30.847656 34.1875 C 30.855469 34.03125 30.863281 33.851562 30.941406 33.734375 C 31.058594 33.558594 31.320312 33.53125 31.496094 33.617188 C 31.976562 33.847656 32 34.542969 32 35.035156 C 31.773438 35.210938 32.019531 35.472656 32.199219 35.332031 C 33.21875 34.535156 34.203125 33.371094 34.789062 33.976562 C 34.929688 34.121094 34.976562 34.367188 34.921875 34.578125 C 34.40625 34.664062 33.898438 34.953125 33.457031 35.242188 C 33.375 35.296875 33.351562 35.40625 33.40625 35.492188 C 33.460938 35.574219 33.570312 35.597656 33.652344 35.542969 C 33.789062 35.457031 33.921875 35.371094 34.058594 35.292969 C 35.519531 34.457031 36.003906 35.152344 35.445312 35.921875 C 35.085938 35.867188 34.71875 36.078125 34.410156 36.257812 C 34.234375 36.363281 34.152344 36.390625 33.667969 36.714844 C 33.46875 36.84375 33.664062 37.148438 33.863281 37.011719 C 34.089844 36.863281 34.28125 36.742188 34.441406 36.652344 C 34.789062 36.464844 35.261719 36.121094 35.574219 36.363281 C 35.789062 36.535156 35.695312 36.898438 35.558594 37.097656 C 35.347656 37.410156 35.054688 37.621094 34.730469 37.804688 C 34.394531 37.929688 34.0625 38.136719 33.863281 38.25 C 33.660156 38.359375 33.828125 38.675781 34.035156 38.5625 C 34.457031 38.351562 34.691406 38.238281 34.875 38.132812 C 35.144531 38.035156 35.28125 38.042969 35.347656 38.078125 C 35.511719 38.164062 35.40625 38.4375 35.332031 38.605469 C 34.878906 39.550781 32.816406 39.988281 32.214844 40.269531 Z M 20.292969 25.820312 C 20.328125 25.804688 21.683594 25.273438 21.597656 25.308594 C 21.617188 25.324219 21.640625 25.347656 21.660156 25.363281 C 22.371094 25.996094 23.152344 26.335938 24.0625 26.535156 C 24.035156 26.570312 23.476562 27.265625 23.507812 27.230469 C 22.613281 28.289062 22.625 28.425781 22.4375 28.425781 C 22.355469 28.433594 22.308594 28.394531 22.269531 28.339844 C 22.238281 28.304688 20.160156 25.652344 20.292969 25.820312 Z M 24.410156 26.679688 L 25.1875 27.273438 L 25.914062 32.164062 C 25.972656 32.554688 25.671875 32.914062 25.265625 32.914062 C 24.949219 32.914062 24.671875 32.671875 24.625 32.359375 L 23.882812 27.335938 Z M 24.746094 26.480469 C 25.402344 26.195312 25.941406 25.890625 26.425781 25.398438 C 26.890625 25.609375 27.628906 25.9375 27.585938 25.917969 C 27.429688 26.640625 27.136719 28.007812 27.152344 27.933594 C 27.125 28.082031 26.945312 28.164062 26.808594 28.058594 C 26.773438 28.03125 24.710938 26.453125 24.746094 26.480469 Z M 25.871094 23.128906 L 26.023438 24.199219 C 26.070312 24.496094 26.179688 24.851562 26.203125 25.113281 C 25.683594 25.636719 25.132812 25.9375 24.402344 26.234375 C 23.445312 26.074219 22.601562 25.71875 21.863281 25.058594 C 21.847656 25.023438 21.78125 22.882812 21.78125 22.917969 C 23.105469 23.589844 24.5625 23.847656 25.871094 23.128906 Z M 13.835938 28.03125 L 19.941406 25.953125 L 21.984375 28.5625 C 22.203125 28.847656 22.644531 28.867188 22.886719 28.570312 L 23.578125 27.710938 L 24.269531 32.40625 C 24.394531 33.257812 25.460938 33.582031 26.035156 32.925781 C 26.222656 32.699219 26.308594 32.40625 26.265625 32.109375 L 25.597656 27.585938 C 26.539062 28.265625 26.625 28.46875 26.941406 28.46875 C 27.210938 28.46875 27.445312 28.273438 27.5 28.007812 L 27.925781 26.042969 L 32.78125 27.417969 C 33.546875 27.632812 34.234375 28.058594 34.761719 28.632812 L 40.894531 36.417969 C 41.199219 36.804688 41.207031 37.351562 40.90625 37.746094 C 39.1875 40.027344 37.609375 42.042969 35.78125 43.582031 L 34.714844 41.027344 C 36.136719 40.25 37.378906 39.136719 38.3125 37.808594 C 38.371094 37.726562 38.351562 37.617188 38.269531 37.558594 C 38.1875 37.5 38.078125 37.519531 38.019531 37.601562 C 37.125 38.875 35.933594 39.941406 34.578125 40.695312 L 34.246094 39.898438 C 34.851562 39.621094 35.417969 39.253906 35.660156 38.75 C 35.925781 38.1875 35.722656 37.824219 35.460938 37.734375 C 36.203125 37.121094 36.1875 36.386719 35.792969 36.082031 C 35.789062 36.074219 35.78125 36.074219 35.777344 36.070312 C 36.3125 35.261719 35.921875 34.625 35.296875 34.558594 C 35.339844 34.257812 35.25 33.9375 35.046875 33.726562 C 34.636719 33.300781 34.054688 33.4375 33.644531 33.707031 C 33.144531 34.035156 32.800781 34.359375 32.351562 34.742188 C 32.34375 34.535156 32.328125 34.3125 32.265625 34.09375 C 32.160156 33.722656 31.9375 33.429688 31.652344 33.289062 C 31.289062 33.113281 30.84375 33.222656 30.644531 33.535156 C 30.511719 33.738281 30.5 33.976562 30.488281 34.171875 C 30.449219 34.96875 30.277344 35.796875 30.113281 36.59375 C 29.304688 37.078125 25.117188 39.523438 22.320312 40.355469 C 22.425781 39.9375 22.363281 39.492188 22.128906 39.109375 L 16.734375 30.234375 C 16.683594 30.148438 16.574219 30.117188 16.488281 30.171875 C 16.402344 30.222656 16.378906 30.332031 16.425781 30.417969 L 21.824219 39.296875 C 22.125 39.792969 22.050781 40.40625 21.6875 40.824219 C 21.664062 40.84375 21.644531 40.871094 21.621094 40.890625 C 19.617188 43.164062 16.988281 44.621094 14.160156 45.664062 C 13.394531 45.945312 12.5625 45.433594 12.457031 44.609375 L 12.367188 43.902344 C 12.378906 43.902344 12.390625 43.902344 12.402344 43.898438 C 14.605469 43.144531 16.695312 41.933594 18.441406 40.386719 C 18.515625 40.320312 18.523438 40.207031 18.457031 40.132812 C 18.394531 40.058594 18.28125 40.050781 18.207031 40.117188 C 16.503906 41.621094 14.46875 42.804688 12.324219 43.542969 C 10.84375 31.742188 10.933594 32.476562 10.925781 32.34375 C 10.78125 30.472656 11.945312 28.675781 13.835938 28.03125 Z M 13.835938 28.03125 " fill-opacity="1" fill-rule="nonzero"/><path fill="#000000" d="M 24.535156 19.050781 C 25.082031 18.824219 25.78125 18.996094 26.160156 19.453125 C 26.226562 19.53125 26.335938 19.539062 26.414062 19.476562 C 26.488281 19.414062 26.5 19.300781 26.4375 19.222656 C 25.953125 18.640625 25.09375 18.429688 24.398438 18.71875 C 24.304688 18.757812 24.261719 18.863281 24.300781 18.953125 C 24.339844 19.046875 24.441406 19.089844 24.535156 19.050781 Z M 24.535156 19.050781 " fill-opacity="1" fill-rule="nonzero"/><path fill="#000000" d="M 23.492188 15.175781 C 23.195312 15.175781 22.953125 15.484375 22.953125 15.863281 C 22.953125 16.246094 23.195312 16.558594 23.492188 16.558594 C 23.792969 16.558594 24.035156 16.246094 24.035156 15.863281 C 24.035156 15.484375 23.792969 15.175781 23.492188 15.175781 Z M 23.492188 15.175781 " fill-opacity="1" fill-rule="nonzero"/><path fill="#000000" d="M 28.121094 14.617188 C 27.820312 14.617188 27.582031 14.925781 27.582031 15.308594 C 27.582031 15.691406 27.820312 16.003906 28.121094 16.003906 C 28.417969 16.003906 28.664062 15.691406 28.664062 15.308594 C 28.664062 14.925781 28.417969 14.617188 28.121094 14.617188 Z M 28.121094 14.617188 " fill-opacity="1" fill-rule="nonzero"/><path fill="#000000" d="M 28.0625 12.128906 C 28.15625 12.164062 28.257812 12.113281 28.289062 12.019531 C 28.324219 11.925781 28.277344 11.820312 28.183594 11.789062 C 27.53125 11.554688 26.792969 11.628906 26.199219 11.976562 C 26.113281 12.027344 26.082031 12.140625 26.132812 12.222656 C 26.183594 12.308594 26.292969 12.339844 26.378906 12.289062 C 26.882812 11.992188 27.511719 11.929688 28.0625 12.128906 Z M 28.0625 12.128906 " fill-opacity="1" fill-rule="nonzero"/><path fill="#000000" d="M 23.234375 12.109375 C 22.492188 11.8125 21.605469 11.984375 21.023438 12.53125 C 20.953125 12.601562 20.949219 12.714844 21.015625 12.785156 C 21.085938 12.859375 21.199219 12.863281 21.269531 12.792969 C 21.742188 12.347656 22.496094 12.203125 23.101562 12.441406 C 23.191406 12.480469 23.296875 12.433594 23.332031 12.339844 C 23.371094 12.25 23.324219 12.144531 23.234375 12.109375 Z M 23.234375 12.109375 " fill-opacity="1" fill-rule="nonzero"/><path fill="#000000" d="M 13.757812 13.960938 C 14.191406 13.664062 14.757812 13.679688 15.179688 14 C 15.367188 14.144531 15.585938 13.859375 15.394531 13.714844 C 14.851562 13.304688 14.117188 13.285156 13.558594 13.664062 C 13.476562 13.71875 13.453125 13.832031 13.511719 13.914062 C 13.566406 13.996094 13.675781 14.015625 13.757812 13.960938 Z M 13.757812 13.960938 " fill-opacity="1" fill-rule="nonzero"/><path fill="#000000" d="M 10.664062 14.398438 C 10.8125 14.398438 10.898438 14.226562 10.800781 14.105469 L 5.558594 7.605469 C 5.496094 7.527344 5.382812 7.515625 5.304688 7.578125 C 5.230469 7.640625 5.214844 7.753906 5.277344 7.832031 C 10.832031 14.675781 10.5 14.398438 10.664062 14.398438 Z M 10.664062 14.398438 " fill-opacity="1" fill-rule="nonzero"/><path fill="#000000" d="M 5.683594 15.089844 C 5.585938 15.074219 5.496094 15.148438 5.480469 15.246094 C 5.46875 15.34375 5.535156 15.433594 5.636719 15.449219 C 10.316406 16.078125 10.214844 16.066406 10.25 16.066406 C 10.472656 16.066406 10.496094 15.738281 10.273438 15.707031 Z M 5.683594 15.089844 " fill-opacity="1" fill-rule="nonzero"/><g clip-path="url(#58f6683eb7)"><path fill="#000000" d="M 10.804688 17.683594 C 10.746094 17.601562 10.632812 17.589844 10.554688 17.648438 L 2.191406 23.96875 C 2.109375 24.027344 2.09375 24.140625 2.15625 24.21875 C 2.214844 24.300781 2.328125 24.316406 2.40625 24.257812 L 10.769531 17.933594 C 10.851562 17.875 10.867188 17.761719 10.804688 17.683594 Z M 10.804688 17.683594 " fill-opacity="1" fill-rule="nonzero"/></g><path fill="#000000" d="M 8.429688 33.230469 C 8.332031 33.242188 8.265625 33.332031 8.277344 33.433594 L 9.5 43.101562 C 9.511719 43.203125 9.605469 43.269531 9.699219 43.257812 C 9.796875 43.246094 9.867188 43.15625 9.855469 43.058594 L 8.632812 33.386719 C 8.621094 33.289062 8.527344 33.214844 8.429688 33.230469 Z M 8.429688 33.230469 " fill-opacity="1" fill-rule="nonzero"/><path fill="#000000" d="M 6.96875 36.019531 C 6.871094 36.03125 6.800781 36.125 6.816406 36.222656 L 7.394531 40.453125 C 7.410156 40.546875 7.492188 40.617188 7.597656 40.605469 C 7.695312 40.59375 7.765625 40.5 7.75 40.402344 L 7.167969 36.171875 C 7.15625 36.074219 7.0625 36.003906 6.96875 36.019531 Z M 6.96875 36.019531 " fill-opacity="1" fill-rule="nonzero"/><path fill="#000000" d="M 66.757812 28.695312 C 66.792969 28.742188 66.84375 28.765625 66.898438 28.765625 C 67.042969 28.765625 67.125 28.597656 67.039062 28.484375 C 64.9375 25.695312 63.125 22.671875 61.660156 19.5 C 61.621094 19.410156 61.515625 19.375 61.425781 19.414062 C 61.335938 19.457031 61.300781 19.5625 61.339844 19.648438 C 62.816406 22.84375 64.640625 25.890625 66.757812 28.695312 Z M 66.757812 28.695312 " fill-opacity="1" fill-rule="nonzero"/><path fill="#000000" d="M 69.976562 28.289062 C 70.292969 28.289062 70.035156 27.90625 70.980469 24.589844 C 71.007812 24.496094 70.953125 24.398438 70.859375 24.371094 C 70.769531 24.347656 70.667969 24.398438 70.640625 24.496094 C 70.308594 25.671875 70.023438 26.878906 69.800781 28.082031 C 69.78125 28.191406 69.867188 28.289062 69.976562 28.289062 Z M 69.976562 28.289062 " fill-opacity="1" fill-rule="nonzero"/><path fill="#000000" d="M 65.25 30.414062 L 61.675781 30.269531 C 61.445312 30.253906 61.425781 30.613281 61.660156 30.621094 L 65.238281 30.765625 C 65.238281 30.765625 65.242188 30.765625 65.242188 30.765625 C 65.339844 30.765625 65.417969 30.691406 65.421875 30.597656 C 65.425781 30.5 65.347656 30.414062 65.25 30.414062 Z M 65.25 30.414062 " fill-opacity="1" fill-rule="nonzero"/><path fill="#000000" d="M 37.019531 16 L 47.476562 16 C 47.574219 16 47.652344 15.921875 47.652344 15.824219 C 47.652344 15.726562 47.574219 15.644531 47.476562 15.644531 L 37.019531 15.644531 C 36.921875 15.644531 36.84375 15.726562 36.84375 15.824219 C 36.84375 15.921875 36.921875 16 37.019531 16 Z M 37.019531 16 " fill-opacity="1" fill-rule="nonzero"/><path fill="#000000" d="M 47.652344 18.09375 C 47.652344 17.996094 47.574219 17.917969 47.476562 17.917969 L 40.832031 17.917969 C 40.734375 17.917969 40.65625 17.996094 40.65625 18.09375 C 40.65625 18.191406 40.734375 18.269531 40.832031 18.269531 L 47.476562 18.269531 C 47.574219 18.269531 47.652344 18.191406 47.652344 18.09375 Z M 47.652344 18.09375 " fill-opacity="1" fill-rule="nonzero"/><path fill="#000000" d="M 83.90625 78.644531 L 83.875 78.292969 C 81.71875 78.472656 79.921875 79.929688 79.300781 82.007812 L 67.796875 82.035156 L 67.796875 82.394531 L 78.101562 82.371094 L 78.101562 82.367188 C 78.136719 82.367188 79.273438 82.367188 79.203125 82.367188 L 79.570312 82.367188 C 80.066406 80.292969 81.820312 78.816406 83.90625 78.644531 Z M 83.90625 78.644531 " fill-opacity="1" fill-rule="nonzero"/></svg>